<?xml version="1.0" encoding="UTF-8"?>
<svg width="24px" height="24px" viewBox="0 0 24 24" version="1.1" xmlns="http://www.w3.org/2000/svg" xmlns:xlink="http://www.w3.org/1999/xlink">
    <title></title>
    <g id="Symbols" stroke="none" stroke-width="1" fill="none" fill-rule="evenodd">
        <g id="ic/windows/close/w/normal" fill="#FFFFFF">
            <path d="M7.59514067,6.27368287 L12.0001695,10.6782883 L16.4048593,6.27368287 C16.7365961,5.94194606 17.2557101,5.91178817 17.6215155,6.18320919 L17.7263171,6.27368287 C18.0580539,6.60541968 18.0882118,7.12453362 17.8167908,7.490339 L17.7263171,7.59514067 L13.3220506,12.0001695 L17.7263171,16.4048593 C18.0912276,16.7697698 18.0912276,17.3614066 17.7263171,17.7263171 C17.3614066,18.0912276 16.7697698,18.0912276 16.4048593,17.7263171 L12.0001695,13.3220506 L7.59514067,17.7263171 C7.26340386,18.0580539 6.74428992,18.0882118 6.37848454,17.8167908 L6.27368287,17.7263171 C5.94194606,17.3945803 5.91178817,16.8754664 6.18320919,16.509661 L6.27368287,16.4048593 L10.6782883,12.0001695 L6.27368287,7.59514067 C5.90877238,7.23023018 5.90877238,6.63859337 6.27368287,6.27368287 C6.63859337,5.90877238 7.23023018,5.90877238 7.59514067,6.27368287 Z" id="ic_window_close_normal"></path>
        </g>
    </g>
</svg>