<?xml version="1.0" encoding="UTF-8"?>
<svg width="16px" height="16px" viewBox="0 0 16 16" version="1.1" xmlns="http://www.w3.org/2000/svg" xmlns:xlink="http://www.w3.org/1999/xlink">
    <!-- Generator: Sketch 55.2 (78181) - https://sketchapp.com -->
    <desc>Created with Sketch.</desc>
    <defs>
        <path d="M14,0 L2,0 C0.9,0 0,0.9 0,2 L0,14 C0,15.1 0.9,16 2,16 L14,16 C15.1,16 16,15.1 16,14 L16,2 C16,0.9 15.1,0 14,0 M14,1.3 C14.379,1.3 14.7,1.62 14.7,2 L14.7,14 C14.7,14.38 14.379,14.7 14,14.7 L2,14.7 C1.621,14.7 1.3,14.38 1.3,14 L1.3,2 C1.3,1.62 1.621,1.3 2,1.3 L14,1.3" id="path-1"></path>
    </defs>
    <g id="sample" stroke="none" stroke-width="1" fill="none" fill-rule="evenodd">
        <g id="guideline_04" transform="translate(-72.000000, -283.000000)">
            <g id="icon-/-system-/-Check-box-/-default-/-normal" transform="translate(72.000000, 283.000000)">
                <mask id="mask-2" fill="white">
                    <use xlink:href="#path-1"></use>
                </mask>
                <use id="icon_fill" fill="#6E7F8F" xlink:href="#path-1"></use>
            </g>
        </g>
    </g>
</svg>