<svg id="圖層_1" data-name="圖層 1" xmlns="http://www.w3.org/2000/svg" viewBox="0 0 100 100"><rect fill="#bde3f3" x="-0.02" width="100" height="100" rx="20" ry="20"/><g opacity="0.47"><path fill="#ffffff" d="M49.73,58.18s20,13.45,24.18,24.11H89.49C88.19,78.71,80.77,62.78,49.73,58.18Z"/><path fill="#ffffff" d="M54.47,65.25H36.71V32.65H64.82v25.5c8.65,2.92,14.66,6.8,18.79,10.61A23.63,23.63,0,0,0,84,64.23V34.12Q84,18.6,68.53,17.76v-.05H32.81q-17.4,0-17.39,16.41V64.23q0,16.3,17.39,16.3H66.7v0a29.35,29.35,0,0,0,3-.17C66.38,75.2,59.8,69.41,54.47,65.25Z"/></g><path fill="#e61f19" d="M16.83,52.06s5.77,3.31,7,5.94h4.48C27.91,57.12,25.77,53.2,16.83,52.06Z"/><path fill="#0c2e82" d="M70.12,43.51a5.15,5.15,0,0,0-3.21-.87H55.85a5.15,5.15,0,0,0-3.21.87,2.94,2.94,0,0,0-1.15,2.43V57.85H57.3V53.8h8.13v4.05h5.81V45.94A2.92,2.92,0,0,0,70.12,43.51ZM65.43,51H57.3v-4.4h8.13Z"/><path fill="#0c2e82" d="M92.07,43.4a4.55,4.55,0,0,0-2.7-.76h-11a5.09,5.09,0,0,0-3.21.88A2.9,2.9,0,0,0,74,45.87h0v.07h0V57.85h5.81v-4h9.39Q93,53.87,93,50.8V45.92A3.09,3.09,0,0,0,92.07,43.4Zm-5,7.13H79.71V46.59h7.38Z"/><path fill="#0c2e82" d="M43.32,42.64v8.85c0,.09-.12.16-.3.13a.48.48,0,0,1-.19-.11c-1-1.52-4.76-6.71-6-8.36l0,0h0s0,0-.06-.05,0,0,0,0a1.76,1.76,0,0,0-1.25-.41H30.83a1.78,1.78,0,0,0-1.36.49A1.93,1.93,0,0,0,29,44.47h0V57.85h5.49s0-7.07-.05-9.15c0-.14.13-.34.55-.29a.34.34,0,0,1,.23.14c1.06,1.69,8,9.3,8,9.3h5.7V42.64H43.32Z"/><path fill="#0c2e82" d="M22.25,42.17v0H12q-5,0-5,4v7.42q0,4,5,4h9.76c.31,0,.6,0,.88,0a20.11,20.11,0,0,0-4.4-3.72H13.08v-8h8.1v6.28a15.81,15.81,0,0,1,5.41,2.61,4.84,4.84,0,0,0,.12-1.11V46.19C26.71,43.65,25.22,42.3,22.25,42.17Z"/></svg>

