<?xml version="1.0" encoding="UTF-8"?>
<svg width="30px" height="30px" viewBox="0 0 30 30" version="1.1" xmlns="http://www.w3.org/2000/svg" xmlns:xlink="http://www.w3.org/1999/xlink">
    <!-- Generator: Sketch 55.2 (78181) - https://sketchapp.com -->
    <title>icon_fill_wz_summary</title>
    <desc>Created with Sketch.</desc>
    <g id="sample" stroke="none" stroke-width="1" fill="none" fill-rule="evenodd">
        <g id="07_01_wz_backup" transform="translate(-708.000000, -156.000000)">
            <g id="Group" transform="translate(212.000000, 93.000000)">
                <g id="step" transform="translate(0.000000, 52.000000)">
                    <g id="sample-/-wz-/-step_first_normal-copy-2" transform="translate(462.000000, 0.000000)">
                        <g id="icon_fill-/-wz_select_vm" transform="translate(34.000000, 11.000000)">
                            <g id="Group" transform="translate(4.000000, 2.500000)">
                                <path d="M22,18.5 L22,14.5 L20.5,14.5 L20.5,4.5 C20.5,3.67157288 19.8284271,3 19,3 L3,3 C2.17157288,3 1.5,3.67157288 1.5,4.5 L1.5,22.5 C1.5,23.3284271 2.17157288,24 3,24 L10,24 L10,25.5 L14.5,25.5 L3,25.5 C1.34314575,25.5 0,24.1568542 0,22.5 L0,4.5 C0,2.84314575 1.34314575,1.5 3,1.5 L19,1.5 C20.6568542,1.5 22,2.84314575 22,4.5 L22,18.5 Z" id="Combined-Shape" fill="#1C2231" fill-rule="nonzero"></path>
                                <rect id="Rectangle" fill="#1C2231" x="4" y="7.5" width="14" height="1.5" rx="0.75"></rect>
                                <rect id="Rectangle-Copy" fill="#1C2231" x="4" y="12" width="14" height="1.5" rx="0.75"></rect>
                                <rect id="Rectangle-Copy-2" fill="#1C2231" x="4" y="16.5" width="10" height="1.5" rx="0.75"></rect>
                                <rect id="Rectangle" stroke="#1C2231" stroke-width="1.5" fill="#EFEFEF" x="5.75" y="0.75" width="10.5" height="2.5" rx="1.25"></rect>
                                <polyline id="Path-6" stroke="#1C2231" stroke-width="1.5" stroke-linecap="round" stroke-linejoin="round" points="13 21.4565217 15.8477752 24.5 21 17.5"></polyline>
                            </g>
                        </g>
                    </g>
                </g>
            </g>
        </g>
    </g>
</svg>