<svg xmlns="http://www.w3.org/2000/svg" width="20" height="20" viewBox="0 0 20 20">
  <path fill="#4C4C4C" d="M10,8.58578644 L15.6568542,2.92893219 C16.0473785,2.5384079 16.6805435,2.5384079 17.0710678,2.92893219 C17.4615921,3.31945648 17.4615921,3.95262146 17.0710678,4.34314575 L11.4142136,10 L17.0710678,15.6568542 C17.4615921,16.0473785 17.4615921,16.6805435 17.0710678,17.0710678 C16.6805435,17.4615921 16.0473785,17.4615921 15.6568542,17.0710678 L10,11.4142136 L4.34314575,17.0710678 C3.95262146,17.4615921 3.31945648,17.4615921 2.92893219,17.0710678 C2.5384079,16.6805435 2.5384079,16.0473785 2.92893219,15.6568542 L8.58578644,10 L2.92893219,4.34314575 C2.5384079,3.95262146 2.5384079,3.31945648 2.92893219,2.92893219 C3.31945648,2.5384079 3.95262146,2.5384079 4.34314575,2.92893219 L10,8.58578644 Z"/>
</svg>
