<svg id="圖層_1" data-name="圖層 1" xmlns="http://www.w3.org/2000/svg" viewBox="0 0 48 44"><rect x="17.36" y="19.67" width="1.56" height="1.55"/><path d="M27.41,6.5H12.89A1.47,1.47,0,0,0,11.5,8.05V36a1.47,1.47,0,0,0,1.39,1.55H35.11A1.47,1.47,0,0,0,36.5,36V14.25Zm0,1.84,7,6h-7Zm7.63,27.78H12.94a.28.28,0,0,1,0-.17V8.05a.28.28,0,0,1,0-.17H26v7.84h9.07V36A.28.28,0,0,1,35.06,36.12Z"/><rect x="21.27" y="19.76" width="9.38" height="1.38"/><rect x="17.36" y="24.32" width="1.56" height="1.55"/><rect x="21.27" y="24.41" width="9.38" height="1.38"/><rect x="17.36" y="28.97" width="1.56" height="1.55"/><rect x="21.27" y="29.06" width="9.38" height="1.38"/></svg>