<svg id="圖層_1" data-name="圖層 1" xmlns="http://www.w3.org/2000/svg" viewBox="0 0 48 44"><path d="M16.42,9H11.69A1.66,1.66,0,0,0,10,10.67V15.4a1.66,1.66,0,0,0,1.66,1.65h4.73a1.65,1.65,0,0,0,1.65-1.65V10.67A1.65,1.65,0,0,0,16.42,9Zm.23,6.39a.23.23,0,0,1-.23.23H11.69a.23.23,0,0,1-.24-.23V10.67a.24.24,0,0,1,.24-.24h4.73a.23.23,0,0,1,.23.24Z"/><path d="M16.42,18.47H11.69A1.66,1.66,0,0,0,10,20.12v4.73a1.66,1.66,0,0,0,1.66,1.66h4.73a1.65,1.65,0,0,0,1.65-1.66V20.12A1.65,1.65,0,0,0,16.42,18.47Zm.23,6.38a.23.23,0,0,1-.23.24H11.69a.24.24,0,0,1-.24-.24V20.12a.23.23,0,0,1,.24-.23h4.73a.23.23,0,0,1,.23.23Z"/><path d="M16.42,27.93H11.69A1.66,1.66,0,0,0,10,29.58v4.73A1.67,1.67,0,0,0,11.69,36h4.73a1.66,1.66,0,0,0,1.65-1.66V29.58A1.65,1.65,0,0,0,16.42,27.93Zm.23,6.38a.23.23,0,0,1-.23.24H11.69a.24.24,0,0,1-.24-.24V29.58a.23.23,0,0,1,.24-.23h4.73a.23.23,0,0,1,.23.23Z"/><path d="M25.88,9H21.15a1.66,1.66,0,0,0-1.66,1.66V15.4a1.65,1.65,0,0,0,1.66,1.65h4.73a1.65,1.65,0,0,0,1.65-1.65V10.67A1.65,1.65,0,0,0,25.88,9Zm.23,6.39a.23.23,0,0,1-.23.23H21.15a.23.23,0,0,1-.24-.23V10.67a.24.24,0,0,1,.24-.24h4.73a.23.23,0,0,1,.23.24Z"/><path d="M25.88,18.47H21.15a1.65,1.65,0,0,0-1.66,1.65v4.73a1.66,1.66,0,0,0,1.66,1.66h4.73a1.65,1.65,0,0,0,1.65-1.66V20.12A1.65,1.65,0,0,0,25.88,18.47Zm.23,6.38a.23.23,0,0,1-.23.24H21.15a.24.24,0,0,1-.24-.24V20.12a.23.23,0,0,1,.24-.23h4.73a.23.23,0,0,1,.23.23Z"/><path d="M25.88,27.93H21.15a1.65,1.65,0,0,0-1.66,1.65v4.73A1.66,1.66,0,0,0,21.15,36h4.73a1.66,1.66,0,0,0,1.65-1.66V29.58A1.65,1.65,0,0,0,25.88,27.93Zm.23,6.38a.23.23,0,0,1-.23.24H21.15a.24.24,0,0,1-.24-.24V29.58a.23.23,0,0,1,.24-.23h4.73a.23.23,0,0,1,.23.23Z"/><path d="M37.48,11.86,34.14,8.52a1.65,1.65,0,0,0-2.34,0l-3.34,3.34a1.65,1.65,0,0,0,0,2.34l3.34,3.34A1.61,1.61,0,0,0,33,18a1.63,1.63,0,0,0,1.17-.49l3.34-3.34A1.65,1.65,0,0,0,37.48,11.86Zm-1,1.34-3.34,3.34a.25.25,0,0,1-.34,0L29.46,13.2a.25.25,0,0,1,0-.34L32.8,9.52a.24.24,0,0,1,.34,0l3.34,3.34A.25.25,0,0,1,36.48,13.2Z"/><path d="M35.33,18.47H30.6A1.65,1.65,0,0,0,29,20.12v4.73a1.65,1.65,0,0,0,1.65,1.66h4.73A1.66,1.66,0,0,0,37,24.85V20.12A1.65,1.65,0,0,0,35.33,18.47Zm.24,6.38a.24.24,0,0,1-.24.24H30.6a.23.23,0,0,1-.23-.24V20.12a.23.23,0,0,1,.23-.23h4.73a.23.23,0,0,1,.24.23Z"/><path d="M35.33,27.93H30.6A1.65,1.65,0,0,0,29,29.58v4.73A1.66,1.66,0,0,0,30.6,36h4.73A1.66,1.66,0,0,0,37,34.31V29.58A1.65,1.65,0,0,0,35.33,27.93Zm.24,6.38a.24.24,0,0,1-.24.24H30.6a.23.23,0,0,1-.23-.24V29.58a.23.23,0,0,1,.23-.23h4.73a.23.23,0,0,1,.24.23Z"/></svg>