<svg xmlns="http://www.w3.org/2000/svg" width="100" height="100" viewBox="0 0 100 100">
  <defs>
    <linearGradient id="-hyper_data_protector_100-a" x1="100%" x2="-71.892%" y1="4.692%" y2="173.077%">
      <stop offset="0%" stop-color="#00B9D7"/>
      <stop offset="17.744%" stop-color="#02AEE4"/>
      <stop offset="29.783%" stop-color="#6C5CA7"/>
      <stop offset="46.354%" stop-color="#C65CA4"/>
      <stop offset="52.223%" stop-color="#D15CA2"/>
      <stop offset="57.209%" stop-color="#D5519D"/>
      <stop offset="64.035%" stop-color="#CB3995"/>
      <stop offset="100%" stop-color="#400A31"/>
    </linearGradient>
    <linearGradient id="-hyper_data_protector_100-b" x1="28.134%" x2="62.19%" y1="47.234%" y2="18.77%">
      <stop offset="0%" stop-color="#57E1FF"/>
      <stop offset="100%" stop-color="#004173"/>
    </linearGradient>
    <linearGradient id="-hyper_data_protector_100-c" x1="37.682%" x2="75.677%" y1="7.128%" y2="103.981%">
      <stop offset="0%" stop-color="#6CE4FF"/>
      <stop offset="100%" stop-color="#002E78"/>
    </linearGradient>
    <linearGradient id="-hyper_data_protector_100-d" x1="30.246%" x2="77.376%" y1="74.898%" y2="41.472%">
      <stop offset="0%" stop-color="#701B55"/>
      <stop offset="100%" stop-color="#FFA8FE"/>
    </linearGradient>
    <linearGradient id="-hyper_data_protector_100-e" x1="21.869%" x2="74.121%" y1="15.215%" y2="96.181%">
      <stop offset="0%" stop-color="#94136A"/>
      <stop offset="100%" stop-color="#FFD7F8"/>
    </linearGradient>
  </defs>
  <g fill="none" fill-rule="evenodd">
    <rect width="100" height="100" fill="url(#-hyper_data_protector_100-a)" fill-rule="nonzero" rx="20"/>
    <g transform="translate(31.618 29.412)">
      <polygon fill="#FFF" points="0 21.117 19.323 12.556 19.323 18.833 0 27.395"/>
      <polygon fill="#FFF" points="0 24.256 19.323 15.694 19.323 21.972 0 30.534" transform="matrix(-1 0 0 1 19.323 0)"/>
      <polygon fill="#FFF" points="0 8.561 19.323 0 19.323 6.278 0 14.839"/>
      <polygon fill="#FFF" points="0 10.553 6.165 10.553 6.165 32.757 0 32.757"/>
      <polygon fill="#A6F7F6" points="32.481 9.765 38.646 9.765 38.646 31.969 32.481 31.969"/>
      <polygon fill="#FFF" points="0 36.811 19.323 28.25 19.323 34.528 0 43.089" transform="matrix(-1 0 0 1 19.323 0)"/>
      <polygon fill="#A6F7F6" points="19.323 21.117 38.646 12.556 38.646 18.833 19.323 27.395" transform="matrix(-1 0 0 1 57.969 0)"/>
      <polygon fill="#A6F7F6" points="19.323 24.256 38.646 15.694 38.646 21.972 19.323 30.534"/>
      <polygon fill="#A6F7F6" points="19.323 8.561 38.646 0 38.646 6.278 19.323 14.839" transform="matrix(-1 0 0 1 57.969 0)"/>
      <polygon fill="#A6F7F6" points="19.323 36.811 38.646 28.25 38.646 34.528 19.323 43.089" transform="rotate(180 28.984 35.67)"/>
      <polygon fill="#B2C2C3" points="13.218 21.542 6.165 24.704 9.661 26.255 16.83 23.147"/>
      <polygon fill="#5DBEBD" points="25.54 16.865 22.116 18.38 29.162 21.552 32.481 20.071" transform="matrix(-1 0 0 1 54.598 0)"/>
    </g>
    <g transform="rotate(8 -16.768 109.415)">
      <g transform="translate(16.978)">
        <path fill="url(#-hyper_data_protector_100-b)" d="M10.9103341,17.6139294 C14.9540988,15.3240941 19.6279812,14.0167529 24.6065224,14.0167529 C39.9092047,14.0167529 52.3237459,26.3670588 52.4375341,41.6428235 C52.4375341,41.5730824 52.44304,41.5039529 52.44304,41.4342118 C52.44304,20.8954353 35.7932518,4.24625882 15.2556988,4.24625882 C10.1841694,4.24625882 4.18826353,5.68207059 0.02704,7.644 L10.9103341,17.6139294 Z"/>
        <path fill="url(#-hyper_data_protector_100-c)" d="M3.55271368e-15,7.65745882 C4.65614118,5.55910588 9.81698824,4.38145882 15.2555765,4.38145882 C33.7357647,4.38145882 49.0598588,17.8641412 51.9467765,35.5270118 L44.9069842,35.5270118 L60.9820061,60.7963741 C63.9686476,55.0566185 65.6564235,48.5331951 65.6564235,41.6146824 C65.6564235,18.6312941 47.0245176,-3.55271368e-15 24.0411294,-3.55271368e-15 C15.0812235,-3.55271368e-15 6.79058824,2.84042353 3.55271368e-15,7.65745882 Z"/>
      </g>
      <g transform="translate(0 21.768)">
        <path fill="url(#-hyper_data_protector_100-d)" d="M54.9065532,43.3052912 C50.8780826,45.6226559 46.2133768,46.9611971 41.2348356,46.9942324 C25.9321532,47.0970089 13.4350238,34.8305148 13.2190709,19.5559736 C13.2190709,19.6257148 13.2147885,19.6948442 13.2153405,19.7651971 C13.3530474,40.3027501 30.1141768,56.8399736 50.6517297,56.7017148 C55.7220356,56.6680677 61.708765,55.1924912 65.8565297,53.2024206 L54.9065532,43.3052912 Z"/>
        <path fill="url(#-hyper_data_protector_100-e)" d="M65.8837532,53.1892677 C61.2416826,55.3182089 56.0887885,56.5301148 50.6508121,56.5668206 C32.1706238,56.6903971 16.7566003,43.3117148 13.7503885,25.6678089 L23.5641877,25.6678089 L4.78523162,0 C1.68693677,5.87093551 -0.0471759459,12.5694777 0.000976764701,19.6725148 C0.154529706,42.655903 18.9118474,61.1617853 41.8946238,61.0076206 C50.8539179,60.9470559 59.1255885,58.0509618 65.8837532,53.1892677 Z"/>
      </g>
    </g>
  </g>
</svg>
