<?xml version="1.0" encoding="UTF-8"?>
<svg width="12px" height="12px" viewBox="0 0 32 32" version="1.1" xmlns="http://www.w3.org/2000/svg" xmlns:xlink="http://www.w3.org/1999/xlink">
    <!-- <title>icon / windows  / warning</title> -->
    <g id="icon-/-windows--/-warning" stroke="none" stroke-width="1" fill="none" fill-rule="evenodd">
        <g id="ic_sys_warning" transform="translate(0.000000, 0.500000)" fill-rule="nonzero">
            <path d="M31.8949235,21.7975536 C31.2629007,18.2910015 29.8590711,14.4554297 27.694418,10.7135787 C25.5297648,6.97073053 22.9048234,3.83906142 20.1780393,1.53891476 C17.7448014,-0.512971584 14.2541983,-0.512971584 11.8209603,1.53891476 C9.09417626,3.83906142 6.47023319,6.97073053 4.30657847,10.7125815 C2.1419253,14.4564267 0.737097333,18.2910015 0.105074517,21.7985506 C-0.458054813,24.9272287 1.28624828,27.9452365 4.28361398,29.0220282 C7.64242085,30.2304276 11.6701934,30.9333333 15.9994998,30.9333333 C20.3298046,30.9333333 24.3575772,30.2294306 27.7173825,29.0220282 C30.7137498,27.9442395 32.4580528,24.9262317 31.8949235,21.7975536 Z" id="Shape" fill="#F66E20"></path>
            <path d="M13.8666667,10.3929559 C13.8666667,9.36654091 14.8219939,8.53333333 16,8.53333333 C17.1780061,8.53333333 18.1333333,9.36654091 18.1333333,10.3929559 L18.1333333,17.3393711 C18.1333333,18.3667924 17.1780061,19.2 16,19.2 C14.8219939,19.2 13.8666667,18.3667924 13.8666667,17.3393711 L13.8666667,10.3929559 Z" id="Path" fill="#FFFFFF"></path>
            <path d="M15.9994592,25.6 C14.8227461,25.6 13.8666667,24.6445178 13.8666667,23.4672077 C13.8666667,22.2888156 14.8227461,21.3333333 15.9994592,21.3333333 C17.1783355,21.3333333 18.1333333,22.2888156 18.1333333,23.4672077 C18.1333333,24.6445178 17.1783355,25.6 15.9994592,25.6 Z" id="Path" fill="#FFFFFF"></path>
        </g>
    </g>
</svg>