<svg xmlns="http://www.w3.org/2000/svg" width="24" height="24" viewBox="0 0 24 24">
  <g fill="none" transform="translate(3 3)">
    <path fill="#FFF" stroke="#002989" stroke-width=".837" d="M1.27574751,17.5813953 L9.86710963,17.5813953 L9.86710963,0.837209302 C9.86710963,0.606020337 9.67969395,0.418604651 9.44850498,0.418604651 L1.69435216,0.418604651 C1.46316319,0.418604651 1.27574751,0.606020337 1.27574751,0.837209302 L1.27574751,17.5813953 Z"/>
    <path fill="#FFF" stroke="#002989" stroke-width=".837" d="M9.84717608,17.5813953 L16.7242525,17.5813953 L16.7242525,5.98006645 C16.7242525,5.74887748 16.5368368,5.56146179 16.3056478,5.56146179 L10.2657807,5.56146179 C10.0345918,5.56146179 9.84717608,5.74887748 9.84717608,5.98006645 L9.84717608,17.5813953 Z"/>
    <polyline fill="#6B91FE" points="9.429 .857 9.429 16.286 1.714 16.286" opacity=".203"/>
    <polyline fill="#6B91FE" points="16.286 6 16.286 16.286 10.286 16.286" opacity=".203"/>
    <rect width="1" height="1" x="11.143" y="6.857" fill="#6B91FE"/>
    <rect width="1" height="1" x="11.143" y="10.286" fill="#6B91FE"/>
    <rect width="1" height="1" x="11.143" y="13.714" fill="#6B91FE"/>
    <rect width="1" height="1" x="2.571" y="3.429" fill="#6B91FE"/>
    <rect width="4.286" height="1" x="11.143" y="8.571" fill="#6B91FE"/>
    <rect width="4.286" height="1" x="11.143" y="12" fill="#6B91FE"/>
    <rect width="1" height="1" x="2.571" y="5.143" fill="#6B91FE"/>
    <rect width="1" height="1" x="2.571" y="6.857" fill="#6B91FE"/>
    <rect width="1" height="1" x="2.571" y="8.571" fill="#6B91FE"/>
    <rect width="1" height="1" x="2.571" y="10.286" fill="#6B91FE"/>
    <rect width="1" height="1" x="2.571" y="12" fill="#6B91FE"/>
    <rect width="1" height="1" x="2.571" y="13.714" fill="#6B91FE"/>
    <rect width="1" height="1" x="12.857" y="6.857" fill="#6B91FE"/>
    <rect width="1" height="1" x="12.857" y="10.286" fill="#6B91FE"/>
    <rect width="1" height="1" x="12.857" y="13.714" fill="#6B91FE"/>
    <rect width="1" height="1" x="4.286" y="3.429" fill="#6B91FE"/>
    <rect width="1" height="1" x="4.286" y="5.143" fill="#6B91FE"/>
    <rect width="1" height="1" x="4.286" y="6.857" fill="#6B91FE"/>
    <rect width="1" height="1" x="4.286" y="8.571" fill="#6B91FE"/>
    <rect width="1" height="1" x="4.286" y="10.286" fill="#6B91FE"/>
    <rect width="1" height="1" x="4.286" y="12" fill="#6B91FE"/>
    <rect width="1" height="1" x="4.286" y="13.714" fill="#6B91FE"/>
    <rect width="1" height="1" x="14.571" y="6.857" fill="#6B91FE"/>
    <rect width="1" height="1" x="14.571" y="10.286" fill="#6B91FE"/>
    <rect width="1" height="1" x="14.571" y="13.714" fill="#6B91FE"/>
    <rect width="1" height="1" x="6" y="3.429" fill="#6B91FE"/>
    <rect width="1" height="1" x="6" y="5.143" fill="#6B91FE"/>
    <rect width="1" height="1" x="6" y="6.857" fill="#6B91FE"/>
    <rect width="1" height="1" x="6" y="8.571" fill="#6B91FE"/>
    <rect width="1" height="1" x="6" y="10.286" fill="#6B91FE"/>
    <rect width="1" height="1" x="6" y="12" fill="#6B91FE"/>
    <rect width="1" height="1" x="6" y="13.714" fill="#6B91FE"/>
    <rect width="1" height="1" x="7.714" y="3.429" fill="#6B91FE"/>
    <rect width="1" height="1" x="7.714" y="5.143" fill="#6B91FE"/>
    <rect width="1" height="1" x="7.714" y="6.857" fill="#6B91FE"/>
    <rect width="1" height="1" x="7.714" y="8.571" fill="#6B91FE"/>
    <rect width="1" height="1" x="7.714" y="10.286" fill="#6B91FE"/>
    <rect width="1" height="1" x="7.714" y="12" fill="#6B91FE"/>
    <rect width="1" height="1" x="7.714" y="13.714" fill="#6B91FE"/>
    <rect width="18" height="1.714" y="16.286" fill="#002989"/>
  </g>
</svg>
