<svg xmlns="http://www.w3.org/2000/svg" width="32" height="32" viewBox="0 0 32 32">
  <g fill="none">
    <path fill="#B80105" d="M16,0 C7.18755078,0 0,7.18677541 0,15.9995 C0,24.8122246 7.18755078,32 16,32 C24.8124492,32 32,24.8122246 32,15.9995 C32,7.18677541 24.8124492,0 16,0 Z"/>
    <path fill="#FFF" d="M21.7956364,19.2635152 C22.4947879,19.9626667 22.4947879,21.0962424 21.7956364,21.7953939 C21.4455758,22.1454545 20.9888485,22.32 20.5301818,22.32 C20.0705455,22.32 19.6138182,22.1454545 19.2637576,21.7953939 L16.0075152,18.5391515 L12.7483636,21.7953939 C12.0492121,22.4945455 10.9166061,22.4945455 10.2164848,21.7953939 C9.51733333,21.0962424 9.51733333,19.9626667 10.2164848,19.2635152 L13.473697,16.0072727 L10.2164848,12.7481212 C9.51733333,12.0489697 9.51733333,10.9163636 10.2164848,10.2172121 C10.9166061,9.51709091 12.0492121,9.51709091 12.7483636,10.2172121 L16.0075152,13.4734545 L19.2637576,10.2172121 C19.9629091,9.51709091 21.0964848,9.51709091 21.7956364,10.2172121 C22.4947879,10.9163636 22.4947879,12.0489697 21.7956364,12.7481212 L18.5393939,16.0072727 L21.7956364,19.2635152 Z"/>
  </g>
</svg>
