<svg xmlns="http://www.w3.org/2000/svg" xmlns:xlink="http://www.w3.org/1999/xlink" width="36" height="36" viewBox="0 0 36 36">
  <defs>
    <linearGradient id="icon_protecte_folder-a" x1="50%" x2="50%" y1="0%" y2="100%">
      <stop offset="0%" stop-color="#92C6FF"/>
      <stop offset="100%" stop-color="#77B7FF"/>
    </linearGradient>
    <rect id="icon_protecte_folder-c" width="20.4" height="19.375" x="8.4" y="1.788" rx="1.5"/>
    <filter id="icon_protecte_folder-b" width="114.7%" height="115.5%" x="-7.4%" y="-7.7%" filterUnits="objectBoundingBox">
      <feOffset in="SourceAlpha" result="shadowOffsetOuter1"/>
      <feGaussianBlur in="shadowOffsetOuter1" result="shadowBlurOuter1" stdDeviation=".5"/>
      <feColorMatrix in="shadowBlurOuter1" values="0 0 0 0 0.0469330578   0 0 0 0 0.282896193   0 0 0 0 0.473845109  0 0 0 0.162368881 0"/>
    </filter>
    <rect id="icon_protecte_folder-e" width="24" height="19.375" x="6.6" y="6.558" rx="2.1"/>
    <filter id="icon_protecte_folder-d" width="112.5%" height="115.5%" x="-6.2%" y="-7.7%" filterUnits="objectBoundingBox">
      <feOffset in="SourceAlpha" result="shadowOffsetOuter1"/>
      <feGaussianBlur in="shadowOffsetOuter1" result="shadowBlurOuter1" stdDeviation=".5"/>
      <feColorMatrix in="shadowBlurOuter1" values="0 0 0 0 0.0469330578   0 0 0 0 0.282896193   0 0 0 0 0.473845109  0 0 0 0.162368881 0"/>
    </filter>
    <rect id="icon_protecte_folder-g" width="24" height="19.375" x="6.6" y="4.769" rx="1.5"/>
    <filter id="icon_protecte_folder-f" width="112.5%" height="115.5%" x="-6.2%" y="-7.7%" filterUnits="objectBoundingBox">
      <feOffset in="SourceAlpha" result="shadowOffsetOuter1"/>
      <feGaussianBlur in="shadowOffsetOuter1" result="shadowBlurOuter1" stdDeviation=".5"/>
      <feColorMatrix in="shadowBlurOuter1" values="0 0 0 0 0.0469330578   0 0 0 0 0.282896193   0 0 0 0 0.473845109  0 0 0 0.162368881 0"/>
    </filter>
    <linearGradient id="icon_protecte_folder-j" x1="50%" x2="50%" y1="0%" y2="100%">
      <stop offset="0%" stop-color="#92C6FF"/>
      <stop offset="100%" stop-color="#77B7FF"/>
    </linearGradient>
    <path id="icon_protecte_folder-i" d="M2.03595688,6.55769231 L11.2511719,6.55769231 L16.8164063,10.7307692 L33.9423168,10.7307692 C34.9364294,10.7307692 35.7423168,11.5366567 35.7423168,12.5307692 C35.7423168,12.6108369 35.7369745,12.6908153 35.7263254,12.7701717 L33.5792295,28.7701648 C33.4193466,29.9615998 32.4026662,30.8509615 31.2005514,30.8509615 L5.1218524,30.8509615 C3.91011743,30.8509615 2.888456,29.9477054 2.73994575,28.7451056 L0.249526895,8.57830033 C0.127688452,7.59168229 0.828730827,6.69310076 1.81534887,6.57126232 C1.88853747,6.56222419 1.96221233,6.55769231 2.03595688,6.55769231 Z"/>
    <filter id="icon_protecte_folder-h" width="118.1%" height="128.8%" x="-9.1%" y="-18.5%" filterUnits="objectBoundingBox">
      <feOffset dy="-1" in="SourceAlpha" result="shadowOffsetOuter1"/>
      <feGaussianBlur in="shadowOffsetOuter1" result="shadowBlurOuter1" stdDeviation="1"/>
      <feColorMatrix in="shadowBlurOuter1" values="0 0 0 0 0   0 0 0 0 0.167623855   0 0 0 0 0.332342618  0 0 0 0.135680726 0"/>
    </filter>
    <linearGradient id="icon_protecte_folder-k" x1="50%" x2="50%" y1="0%" y2="89.728%">
      <stop offset="0%" stop-color="#0036DF"/>
      <stop offset="100%" stop-color="#0043CE" stop-opacity="0"/>
    </linearGradient>
  </defs>
  <g fill="none" fill-rule="evenodd" transform="translate(0 3)">
    <rect width="30" height="29.808" x="3.3" fill="url(#icon_protecte_folder-a)" rx="2.4"/>
    <use fill="#000" filter="url(#icon_protecte_folder-b)" xlink:href="#icon_protecte_folder-c"/>
    <use fill="#FFF" xlink:href="#icon_protecte_folder-c"/>
    <use fill="#000" filter="url(#icon_protecte_folder-d)" xlink:href="#icon_protecte_folder-e"/>
    <use fill="#FFF" xlink:href="#icon_protecte_folder-e"/>
    <use fill="#000" filter="url(#icon_protecte_folder-f)" xlink:href="#icon_protecte_folder-g"/>
    <use fill="#FFF" xlink:href="#icon_protecte_folder-g"/>
    <use fill="#000" filter="url(#icon_protecte_folder-h)" xlink:href="#icon_protecte_folder-i"/>
    <use fill="url(#icon_protecte_folder-j)" xlink:href="#icon_protecte_folder-i"/>
    <polygon fill="url(#icon_protecte_folder-k)" points="13.2 16.394 22.8 16.887 14.293 25.933 5.087 25.122" opacity=".139"/>
    <rect width="9.6" height="2.385" x="13.2" y="15.202" fill="#FFF" rx="1.192"/>
  </g>
</svg>
