<svg xmlns="http://www.w3.org/2000/svg" width="32" height="32" viewBox="0 0 32 32">
  <g fill="none" fill-rule="evenodd">
    <path fill="#2E384D" fill-rule="nonzero" d="M18.2857143,2 C10.712381,2 4.57142857,8.045 4.57142857,15.5 L0,15.5 L5.92761905,21.335 L6.03428571,21.545 L12.1904762,15.5 L7.61904762,15.5 C7.61904762,9.695 12.3885714,5 18.2857143,5 C24.1828571,5 28.952381,9.695 28.952381,15.5 C28.952381,21.305 24.1828571,26 18.2857143,26 C15.3447619,26 12.6780952,24.815 10.7580952,22.91 L8.59428571,25.04 C11.0780952,27.485 14.4914286,29 18.2857143,29 C25.8590476,29 32,22.955 32,15.5 C32,8.045 25.8590476,2 18.2857143,2 Z M20.1904762,9.5 L20.1904762,17 L13.6685714,20.81 L12.5714286,18.995 L17.9047619,15.875 L17.9047619,9.5 L20.1904762,9.5 Z" transform="matrix(-1 0 0 1 32 0)"/>
    <g transform="translate(14 14)">
      <circle cx="9" cy="9" r="9" fill="#DC5B0A" fill-rule="nonzero"/>
      <rect width="10.125" height="2.813" x="3.938" y="7.594" fill="#FFF" rx="1.406"/>
    </g>
  </g>
</svg>
