<svg xmlns="http://www.w3.org/2000/svg" width="16" height="16" viewBox="0 0 16 16">
  <g fill="#E1E9FF" stroke="#002989" stroke-width=".773" transform="translate(2.5 2.5)">
    <path d="M6.15477272,5.0107718 C5.82764146,4.84464783 5.25102977,4.84494777 4.92612619,5.01099466 L0.503788099,7.29268794 C0.347276358,7.37267719 0.347276358,7.62482157 0.50526696,7.70557064 L4.92480071,9.98832469 C5.25161773,10.1553527 5.82972921,10.1553527 6.15245897,9.9904444 L10.4962119,7.70481081 C10.6527236,7.62482157 10.6527236,7.37267719 10.492279,7.29064944 L6.15477272,5.0107718 Z"/>
    <path d="M6.15477272,2.6567769 C5.82764146,2.49065293 5.25102977,2.49095287 4.92612619,2.65699976 L0.503788099,4.93869304 C0.347276358,5.01868228 0.347276358,5.27082667 0.50526696,5.35157574 L4.92480071,7.63432979 C5.25161773,7.80135781 5.82972921,7.80135781 6.15245897,7.6364495 L10.4962119,5.35081591 C10.6527236,5.27082667 10.6527236,5.01868228 10.492279,4.93665454 L6.15477272,2.6567769 Z"/>
    <path d="M6.15477272,0.510771798 C5.82764146,0.344647831 5.25102977,0.344947774 4.92612619,0.510994663 L0.503788099,2.79268794 C0.347276358,2.87267719 0.347276358,3.12482157 0.50526696,3.20557064 L4.92480071,5.48832469 C5.25161773,5.65535271 5.82972921,5.65535271 6.15245897,5.4904444 L10.4962119,3.20481081 C10.6527236,3.12482157 10.6527236,2.87267719 10.492279,2.79064944 L6.15477272,0.510771798 Z"/>
  </g>
</svg>
