<svg xmlns="http://www.w3.org/2000/svg" xmlns:xlink="http://www.w3.org/1999/xlink" width="24" height="24" viewBox="0 0 24 24">
  <defs>
    <path id="icon_fill_edit-a" d="M18.3636364,14.4181818 C18.3636364,13.9161048 18.7706502,13.5090909 19.2727273,13.5090909 C19.7748043,13.5090909 20.1818182,13.9161048 20.1818182,14.4181818 L20.1818182,19.2727273 C20.1818182,20.7789584 18.9607766,22 17.4545455,22 L4.72727273,22 C3.22104159,22 2,20.7789584 2,19.2727273 L2,6.54545455 C2,5.03922341 3.22104159,3.81818182 4.72727273,3.81818182 L9.58181818,3.81818182 C10.0838952,3.81818182 10.4909091,4.22519568 10.4909091,4.72727273 C10.4909091,5.22934977 10.0838952,5.63636364 9.58181818,5.63636364 L4.72727273,5.63636364 C4.22519568,5.63636364 3.81818182,6.0433775 3.81818182,6.54545455 L3.81818182,19.2727273 C3.81818182,19.7748043 4.22519568,20.1818182 4.72727273,20.1818182 L17.4545455,20.1818182 C17.9566225,20.1818182 18.3636364,19.7748043 18.3636364,19.2727273 L18.3636364,14.4181818 Z M18.0973698,2.26626656 L21.7337334,5.9026302 C22.0887555,6.25765228 22.0887555,6.83325681 21.7337334,7.18827889 L12.6428243,16.279188 C12.4723367,16.4496756 12.2411059,16.5454545 12,16.5454545 L8.36363636,16.5454545 C7.86155932,16.5454545 7.45454545,16.1384407 7.45454545,15.6363636 L7.45454545,12 C7.45454545,11.7588941 7.5503244,11.5276633 7.72081202,11.3571757 L16.8117211,2.26626656 C17.1667432,1.91124448 17.7423477,1.91124448 18.0973698,2.26626656 Z M9.27272727,12.3765578 L9.27272727,14.7272727 L11.6234422,14.7272727 L19.8052604,6.54545455 L17.4545455,4.1947396 L9.27272727,12.3765578 Z"/>
  </defs>
  <use xlink:href="#icon_fill_edit-a"/>
</svg>
