<svg xmlns="http://www.w3.org/2000/svg" width="24" height="24" viewBox="0 0 24 24">
  <g fill="none" fill-rule="evenodd">
    <path fill="#AAB1B9" d="M19.13873,15.0202789 C18.6348684,16.3314972 17.8728547,17.4716034 16.8735698,18.4085998 C15.736127,19.4750977 14.2467105,20.3225556 12.4466533,20.9270782 C12.3875858,20.9468536 12.3259439,20.9630585 12.264016,20.9750061 C12.1822082,20.9905243 12.0989703,20.9989014 12.0164474,21.0000096 L12.000286,21.0000096 C11.9123284,21.0000096 11.8239416,20.9914856 11.73627,20.9750061 C11.6743421,20.9630585 11.6135583,20.9468536 11.5547769,20.9274902 C9.75257439,20.3239288 8.26129864,19.4768829 7.12271165,18.4103851 C6.12299771,17.4733887 5.36112699,16.3339691 4.85798056,15.0227509 C3.94307778,12.6387177 3.99513732,10.0124359 4.03704234,7.90196229 L4.03775744,7.86955262 C4.04619566,7.695282 4.05163043,7.51222228 4.05463389,7.31007384 C4.06993706,6.31759645 4.89173342,5.49650575 5.92548628,5.44116211 C8.08080663,5.32566834 9.74814074,4.6506958 11.1727689,3.31736756 L11.1852117,3.30638123 C11.4217677,3.09805296 11.7198226,2.99588011 12.0164474,3.00000961 C12.3024886,3.00370789 12.5873856,3.10574339 12.8155035,3.30638123 L12.8276602,3.31736756 C14.2525744,4.6506958 15.9199085,5.32566834 18.0752289,5.44116211 C19.1089817,5.49650575 19.930778,6.31759645 19.9460812,7.31007384 C19.9490847,7.51359559 19.9545194,7.69638063 19.9629577,7.86955262 L19.9633867,7.88328553 C20.0051487,9.9977417 20.0569222,12.629242 19.13873,15.0202789 Z"/>
    <path fill="#878C92" d="M19.13873,15.0202789 C18.6348684,16.3314972 17.8728547,17.4716034 16.8735698,18.4085998 C15.736127,19.4750977 14.2467105,20.3225556 12.4466533,20.9270782 C12.3875858,20.9468536 12.3259439,20.9630585 12.264016,20.9750061 C12.1822082,20.9905243 12.0989703,20.9989014 12.0164474,21 L12.0164474,3.00013733 C12.3024886,3.00370789 12.5873856,3.10574339 12.8155035,3.30638123 L12.8276602,3.31736756 C14.2525744,4.6506958 15.9199085,5.32566834 18.0752289,5.44116211 C19.1089817,5.49650575 19.930778,6.31759645 19.9460812,7.31007384 C19.9490847,7.51359559 19.9545194,7.69638063 19.9629577,7.86955262 L19.9633867,7.88328553 C20.0051487,9.9977417 20.0569222,12.629242 19.13873,15.0202789 Z"/>
    <path fill="#FFF" d="M16.6719107,12 C16.6719107,14.4682159 14.5848112,16.4773407 12.0164474,16.4861298 L12,16.4861298 C9.42405605,16.4861298 7.32794622,14.4735718 7.32794622,12 C7.32794622,9.52656554 9.42405605,7.51400759 12,7.51400759 L12.0164474,7.51400759 C14.5848112,7.52279665 16.6719107,9.53192139 16.6719107,12 Z"/>
    <path fill="#E7EBEC" d="M16.6719107,12 C16.6719107,14.4682159 14.5848112,16.4773407 12.0164474,16.4861298 L12.0164474,7.51400759 C14.5848112,7.52279665 16.6719107,9.53192139 16.6719107,12 Z"/>
    <path fill="#323638" d="M9.89550781,10.584668 C9.89550781,10.3063463 9.98486239,10.0243667 10.1635742,9.7387207 C10.342286,9.45307474 10.6030256,9.21650484 10.9458008,9.02900391 C11.2885759,8.84150297 11.6884743,8.74775391 12.1455078,8.74775391 C12.5703146,8.74775391 12.9453109,8.82612226 13.2705078,8.98286133 C13.5957048,9.13960039 13.8469229,9.35273303 14.0241699,9.62226563 C14.2014169,9.89179822 14.2900391,10.184764 14.2900391,10.5011719 C14.2900391,10.7501966 14.2395025,10.9684561 14.1384277,11.155957 C14.037353,11.343458 13.917237,11.5053216 13.7780762,11.6415527 C13.6389153,11.7777839 13.389162,12.0070296 13.0288086,12.3292969 C12.9291987,12.4201176 12.8493655,12.4999508 12.7893066,12.5687988 C12.7292477,12.6376468 12.6845705,12.7006345 12.6552734,12.7577637 C12.6259764,12.8148929 12.6032716,12.8720212 12.5871582,12.9291504 C12.5710448,12.9862796 12.5468752,13.0866204 12.5146484,13.2301758 C12.4589841,13.5348648 12.2846694,13.687207 11.9916992,13.687207 C11.8393547,13.687207 11.7111822,13.6374028 11.6071777,13.537793 C11.5031733,13.4381831 11.4511719,13.2902354 11.4511719,13.0939453 C11.4511719,12.8478503 11.4892574,12.6347177 11.5654297,12.454541 C11.6416019,12.2743643 11.7426752,12.1161628 11.8686523,11.9799316 C11.9946295,11.8437005 12.1645497,11.6818369 12.378418,11.4943359 C12.5659189,11.3302726 12.7014156,11.2064946 12.7849121,11.122998 C12.8684086,11.0395015 12.9387204,10.9464849 12.9958496,10.8439453 C13.0529788,10.7414057 13.081543,10.6300787 13.081543,10.5099609 C13.081543,10.2755848 12.9943856,10.0778328 12.8200684,9.91669922 C12.6457511,9.7555656 12.4208998,9.675 12.1455078,9.675 C11.8232406,9.675 11.5859383,9.75629802 11.4335938,9.91889648 C11.2812492,10.081495 11.1523443,10.3209945 11.046875,10.6374023 C10.9472651,10.9684587 10.7583022,11.1339844 10.4799805,11.1339844 C10.3159171,11.1339844 10.1774908,11.0761236 10.0646973,10.9604004 C9.95190373,10.8446772 9.89550781,10.7194343 9.89550781,10.584668 Z M12.0400391,15.4010742 C11.8613272,15.4010742 11.7053229,15.3432135 11.5720215,15.2274902 C11.43872,15.111767 11.3720703,14.9499034 11.3720703,14.7418945 C11.3720703,14.5573233 11.4365228,14.4020514 11.5654297,14.2760742 C11.6943366,14.150097 11.8525381,14.0871094 12.0400391,14.0871094 C12.2246103,14.0871094 12.3798822,14.150097 12.5058594,14.2760742 C12.6318366,14.4020514 12.6948242,14.5573233 12.6948242,14.7418945 C12.6948242,14.9469737 12.6289069,15.1081049 12.4970703,15.225293 C12.3652337,15.3424811 12.2128915,15.4010742 12.0400391,15.4010742 Z"/>
    <path fill="#606466" d="M9.89550781,10.584668 C9.89550781,10.3063463 9.98486239,10.0243667 10.1635742,9.7387207 C10.342286,9.45307474 10.6030256,9.21650484 10.9458008,9.02900391 C11.2557387,8.85946524 11.6123793,8.7665763 12.0157317,8.750335 C12.00692,8.75068981 11.9916992,13.132019 11.9916992,13.687207 C11.8393547,13.687207 11.7111822,13.6374028 11.6071777,13.537793 C11.5031733,13.4381831 11.4511719,13.2902354 11.4511719,13.0939453 C11.4511719,12.8478503 11.4892574,12.6347177 11.5654297,12.454541 C11.6416019,12.2743643 11.7426752,12.1161628 11.8686523,11.9799316 C11.9100063,11.9352117 11.9560955,11.8877296 12.00692,11.8374852 C12.00692,11.5626831 11.9916992,9.68130469 12.0286544,9.6788099 C11.7652495,9.69659196 11.5668976,9.77662028 11.4335938,9.91889648 C11.2812492,10.081495 11.1523443,10.3209945 11.046875,10.6374023 C10.9472651,10.9684587 10.7583022,11.1339844 10.4799805,11.1339844 C10.3159171,11.1339844 10.1774908,11.0761236 10.0646973,10.9604004 C9.95190373,10.8446772 9.89550781,10.7194343 9.89550781,10.584668 Z M12.0400391,15.4010742 C11.8613272,15.4010742 11.7053229,15.3432135 11.5720215,15.2274902 C11.43872,15.111767 11.3720703,14.9499034 11.3720703,14.7418945 C11.3720703,14.5573233 11.4365228,14.4020514 11.5654297,14.2760742 C11.6943366,14.150097 11.8525381,14.0871094 12.0400391,14.0871094"/>
  </g>
</svg>
