<svg xmlns="http://www.w3.org/2000/svg" width="24" height="24" viewBox="0 0 24 24">
  <path d="M4.21966991,5.21966991 C4.51256313,4.9267767 4.98743687,4.9267767 5.28033009,5.21966991 L5.28033009,5.21966991 L18.2803301,18.2196699 L18.3529482,18.3037883 C18.5708027,18.5973998 18.5465966,19.0140635 18.2803301,19.2803301 C17.9874369,19.5732233 17.5125631,19.5732233 17.2196699,19.2803301 L17.2196699,19.2803301 L15.0849668,17.1452402 C14.1516238,17.535134 13.1234308,17.7304688 12,17.7304688 C8.62324219,17.7304688 6.10429687,15.9638672 4.43789062,12.4535156 C4.30253906,12.1669922 4.30253906,11.8330078 4.43789062,11.5482422 C5.01413931,10.3337434 5.69212431,9.3279722 6.47228176,8.53180088 L4.21966991,6.28033009 L4.14705176,6.19621165 C3.9291973,5.90260016 3.95340335,5.48593648 4.21966991,5.21966991 Z M5.62441406,12 C7.08867187,15.0269531 9.16464844,16.4648438 12,16.4648438 C12.7518499,16.4648438 13.450247,16.3638636 14.0979393,16.1590899 L12.8832212,14.9440076 C12.582869,15.0412224 12.2624109,15.09375 11.9296875,15.09375 C10.2210937,15.09375 8.8359375,13.7085938 8.8359375,12 C8.8359375,11.6672766 8.88846514,11.3468185 8.98567992,11.0464663 L7.36625747,9.42642407 C6.70864332,10.0989406 6.13005563,10.9547242 5.62441406,12 Z M12,6.26953125 C15.3767578,6.26953125 17.8957031,8.03613281 19.5621094,11.5464844 C19.6974609,11.8365234 19.6974609,12.1669922 19.5621094,12.4517578 C18.9858619,13.6662541 18.3078785,14.6720236 17.5277231,15.4681942 L16.6336383,14.5749017 C17.291601,13.9021843 17.8702194,13.0459629 18.3755859,12 C16.9113281,8.97304688 14.8353516,7.53515625 12,7.53515625 C11.2476686,7.53515625 10.548801,7.63639119 9.90063905,7.84168517 L8.91512463,6.85472162 C9.84844331,6.4648532 10.8766059,6.26953125 12,6.26953125 Z M9.961,12.022 L9.9609375,12 C9.9609375,13.0803475 10.8291197,13.9562131 11.906504,13.9686166 L9.961,12.022 Z M11.9296875,8.90625 C13.6382812,8.90625 15.0234375,10.2914062 15.0234375,12 C15.0234375,12.2935008 14.9825642,12.5774575 14.9061993,12.8464885 L13.8912804,11.8307616 C13.8103153,10.877819 13.0518685,10.1193722 12.0989259,10.0384071 L11.0831808,9.02349332 C11.3522172,8.94712513 11.6361801,8.90625 11.9296875,8.90625 Z"/>
</svg>
