<svg xmlns="http://www.w3.org/2000/svg" width="40" height="40" viewBox="0 0 40 40">
  <path fill="#FFF" d="M1.1-1.15463195e-14L8.8-1.15463195e-14C9.40751322-1.16579178e-14 9.9.492486775 9.9 1.1L9.9 8.8C9.9 9.40751322 9.40751322 9.9 8.8 9.9L1.1 9.9C.492486775 9.9-1.82002177e-13 9.40751322-1.82076576e-13 8.8L-1.82076576e-13 1.1C-1.82150975e-13.492486775.492486775-1.14347211e-14 1.1-1.15463195e-14zM1.98 1.98L1.98 3.96 7.92 3.96 7.92 1.98 1.98 1.98zM1.1 12.1L8.8 12.1C9.40751322 12.1 9.9 12.5924868 9.9 13.2L9.9 20.9C9.9 21.5075132 9.40751322 22 8.8 22L1.1 22C.492486775 22-1.82002177e-13 21.5075132-1.82076576e-13 20.9L-1.82076576e-13 13.2C-1.82150975e-13 12.5924868.492486775 12.1 1.1 12.1zM1.98 14.08L1.98 16.06 7.92 16.06 7.92 14.08 1.98 14.08zM13.2 12.1L20.9 12.1C21.5075132 12.1 22 12.5924868 22 13.2L22 20.9C22 21.5075132 21.5075132 22 20.9 22L13.2 22C12.5924868 22 12.1 21.5075132 12.1 20.9L12.1 13.2C12.1 12.5924868 12.5924868 12.1 13.2 12.1zM14.08 14.08L14.08 16.06 20.02 16.06 20.02 14.08 14.08 14.08zM13.2-1.15463195e-14L20.9-1.15463195e-14C21.5075132-1.16579178e-14 22 .492486775 22 1.1L22 8.8C22 9.40751322 21.5075132 9.9 20.9 9.9L13.2 9.9C12.5924868 9.9 12.1 9.40751322 12.1 8.8L12.1 1.1C12.1.492486775 12.5924868-1.14347211e-14 13.2-1.15463195e-14zM14.08 1.98L14.08 3.96 20.02 3.96 20.02 1.98 14.08 1.98z" transform="translate(9 9)"/>
</svg>
