<svg xmlns="http://www.w3.org/2000/svg" xmlns:xlink="http://www.w3.org/1999/xlink" width="24" height="24" viewBox="0 0 24 24">
  <defs>
    <path id="icon_fill_delete-a" d="M12.7927116,17.9205871 L14.6974626,17.9205871 L14.6974626,9.79452421 L12.7927116,9.79452421 L12.7927116,17.9205871 Z M8.90321005,17.9205871 L10.8079611,17.9205871 L10.8079611,9.79452421 L8.90321005,9.79452421 L8.90321005,17.9205871 Z M5.11846979,7.18467066 L18.4307746,7.18467066 L17.0726871,19.8692566 C17.0726871,20.4638465 16.8555455,20.9680588 16.423167,21.3803079 C15.9888838,21.7941425 15.4784105,22.000267 14.8879377,22.000267 L8.36607026,22.000267 C7.74131193,22.000267 7.2136959,21.7941425 6.77941267,21.3803079 C6.34703419,20.9680588 6.13179733,20.4638465 6.13179733,19.8692566 L5.11846979,7.18467066 Z M8.99235239,2 L14.5561301,2 L15.6475524,3.25101848 L19.5465777,3.25101848 L19.5465777,5.81408075 L4,5.81408075 L4,3.25101848 L7.90093007,3.25101848 L8.99235239,2 Z"/>
  </defs>
  <use fill-rule="evenodd" xlink:href="#icon_fill_delete-a"/>
</svg>
