<svg xmlns="http://www.w3.org/2000/svg" xmlns:xlink="http://www.w3.org/1999/xlink" width="30" height="30" viewBox="0 0 30 30">
  <defs>
    <linearGradient id="icon_app_icon-a" x1="28.134%" x2="62.19%" y1="47.234%" y2="18.77%">
      <stop offset="0%" stop-color="#57E1FF"/>
      <stop offset="100%" stop-color="#004173"/>
    </linearGradient>
    <linearGradient id="icon_app_icon-b" x1="37.682%" x2="75.677%" y1="7.128%" y2="103.981%">
      <stop offset="0%" stop-color="#6CE4FF"/>
      <stop offset="100%" stop-color="#002E78"/>
    </linearGradient>
    <linearGradient id="icon_app_icon-c" x1="30.246%" x2="77.376%" y1="74.898%" y2="41.472%">
      <stop offset="0%" stop-color="#701B55"/>
      <stop offset="100%" stop-color="#FFA8FE"/>
    </linearGradient>
    <linearGradient id="icon_app_icon-d" x1="21.869%" x2="74.121%" y1="15.215%" y2="96.181%">
      <stop offset="0%" stop-color="#94136A"/>
      <stop offset="100%" stop-color="#FFD7F8"/>
    </linearGradient>
    <path id="icon_app_icon-f" d="M0.154011612,0.0115059514 C0.0504580503,0.0115059514 -0.0185776579,0.0690357081 0.00443424484,0.195601173 L1.90291622,7.76651716 C2.22508286,9.06668967 2.53574354,9.17024323 4.12356483,9.17024323 L4.47658525,9.16757098 C5.76225453,9.14476121 6.05898696,8.95344688 6.35571939,7.76651716 L8.24269541,0.195601173 C8.26570732,0.0690357081 8.19667161,0.0115059514 8.09311805,0.0115059514 L6.07957656,0.0115059514 C5.96451705,0.0115059514 5.95301109,0.0690357081 5.91849324,0.195601173 L4.20410649,7.15670174 L4.19046981,7.19292418 C4.17853771,7.21678838 4.15808268,7.2372434 4.11205888,7.2372434 C4.04302317,7.2372434 4.03151722,7.1912196 4.02001127,7.15670174 L2.32863642,0.195601173 L2.30508517,0.113441489 C2.28189349,0.0438664395 2.25384773,0.0115059514 2.1675531,0.0115059514 L0.154011612,0.0115059514 Z"/>
    <filter id="icon_app_icon-e" width="136.4%" height="132.8%" x="-18.2%" y="-16.4%" filterUnits="objectBoundingBox">
      <feOffset in="SourceAlpha" result="shadowOffsetOuter1"/>
      <feGaussianBlur in="shadowOffsetOuter1" result="shadowBlurOuter1" stdDeviation=".5"/>
      <feColorMatrix in="shadowBlurOuter1" values="0 0 0 0 0.0347915164   0 0 0 0 0.149930624   0 0 0 0 0.299960371  0 0 0 0.5 0"/>
    </filter>
  </defs>
  <g fill="none" fill-rule="evenodd" transform="translate(.5)">
    <g transform="translate(5.936)">
      <path fill="url(#icon_app_icon-a)" d="M3.81480214,6.15871658 C5.22870588,5.35807487 6.86293048,4.90096257 8.60367914,4.90096257 C13.9542674,4.90096257 18.295016,9.21925134 18.3348021,14.5604278 C18.3348021,14.5360428 18.3367273,14.5118717 18.3367273,14.4874866 C18.3367273,7.30609626 12.515123,1.48470588 5.33416043,1.48470588 C3.5608984,1.48470588 1.46442781,1.98673797 0.00945454545,2.67272727 L3.81480214,6.15871658 Z"/>
      <path fill="url(#icon_app_icon-b)" d="M3.55271368e-15,2.67743316 C1.62802139,1.94374332 3.43251337,1.53197861 5.33411765,1.53197861 C11.7957219,1.53197861 17.1537968,6.24620321 18.1632086,12.4220321 L15.7017427,12.4220321 L21.3223798,21.2574735 C22.36666,19.2505659 22.9567914,16.9696486 22.9567914,14.5505882 C22.9567914,6.5144385 16.442139,-3.55271368e-15 8.4059893,-3.55271368e-15 C5.27315508,-3.55271368e-15 2.37433155,0.99315508 3.55271368e-15,2.67743316 Z"/>
    </g>
    <g transform="translate(0 7.611)">
      <path fill="url(#icon_app_icon-c)" d="M19.1980955,15.1417102 C17.7895394,15.9519776 16.1585233,16.419999 14.4177747,16.4315498 C9.06718645,16.4674856 4.69756078,12.1785017 4.62205276,6.837753 C4.62205276,6.86213803 4.62055543,6.88630915 4.62074842,6.91090808 C4.66889768,14.0918706 10.5294324,19.8741166 17.710395,19.8257744 C19.4832292,19.8140097 21.5764913,19.2980739 23.0267586,18.602245 L19.1980955,15.1417102 Z"/>
      <path fill="url(#icon_app_icon-d)" d="M23.0362774,18.597646 C21.4131758,19.3420311 19.6114645,19.7657744 17.7100741,19.7786086 C11.2484699,19.8218172 5.85895115,15.1439562 4.80782816,8.97475835 L8.23922647,8.97475835 L1.67315791,0 C0.58983803,2.05277465 -0.016495086,4.39492227 0.000341526119,6.87850166 C0.0540313657,14.9146514 6.61253404,21.3852396 14.6484699,21.3313359 C17.7810902,21.3101594 20.6732827,20.2975391 23.0362774,18.597646 Z"/>
    </g>
    <g fill-rule="nonzero" transform="translate(6.952 10.16)">
      <path fill="#FFF" d="M12.3618626,0.00100002898 L14.3073066,-3.37507799e-14 C14.4079837,-3.37507799e-14 14.4293775,0.070473952 14.440861,0.157465237 L15.3543482,8.9171123 C15.3658541,9.05518372 15.2968184,9.11271347 15.1817589,9.11271347 L13.1106876,9.11271347 C12.9956281,9.11271347 12.9496043,9.05518372 12.9380984,8.9171123 L12.4548484,4.34924961 L10.7864855,8.64096947 C10.7289557,8.77904088 10.6369081,8.83657064 10.5218486,8.83657064 L9.1649441,8.83657064 C9.04988459,8.83657064 8.95783698,8.77904088 8.90030722,8.64096947 L7.20372607,4.34924961 L5.04416178,8.97464206 C5.03265583,9.11271347 4.98663203,9.17024323 4.87157251,9.17024323 L4.01328678,9.17024323 C3.89822726,9.17024323 3.82919155,9.11271347 3.84069751,8.97464206 L5.9748047,0.207107124 C5.98631065,0.103553562 5.9978166,0.0115059514 6.11287612,0.0115059514 L7.85776614,0.0115059514 C8.28549288,-3.37507799e-14 8.21680806,-3.37507799e-14 8.36332244,0.471744006 L9.82251225,5.01568465 L11.6264199,0.471744006 C11.7666487,0.104991806 11.9675534,0.0112812257 12.3618626,0.00100002898 Z"/>
      <use fill="#000" filter="url(#icon_app_icon-e)" xlink:href="#icon_app_icon-f"/>
      <use fill="#FFF" xlink:href="#icon_app_icon-f"/>
    </g>
  </g>
</svg>
