<svg xmlns="http://www.w3.org/2000/svg" width="40" height="40" viewBox="0 0 40 40">
  <g fill="none">
    <path fill="#8695D0" d="M19.6388889,34 C12.6586233,34 7,28.3413767 7,21.3611111 C7,14.3808455 12.6586233,8.72222222 19.6388889,8.72222222 C26.6191545,8.72222222 32.2777778,14.3808455 32.2777778,21.3611111 C32.2777778,28.3413767 26.6191545,34 19.6388889,34 Z M19.6388889,28.1018519 C23.3616972,28.1018519 26.3796296,25.0839194 26.3796296,21.3611111 C26.3796296,17.6383028 23.3616972,14.6203704 19.6388889,14.6203704 C15.9160806,14.6203704 12.8981481,17.6383028 12.8981481,21.3611111 C12.8981481,25.0839194 15.9160806,28.1018519 19.6388889,28.1018519 Z"/>
    <path fill="#495297" d="M32.2777778,21.3611111 C32.2777778,14.3808455 26.6191545,8.72222222 19.6388889,8.72222222 C19.6388889,12.2327082 19.6388889,10.2089636 19.6388889,14.6203704 C23.0890786,14.6203704 26.3913552,17.3917101 26.3913552,21.3611111"/>
    <path fill="#FFF" d="M34.6436768,19.6723022 C34.6436768,11.9403157 28.7319865,6 21,6 C21,9.88853837 21,8.11351865 21,13 C24.0459442,13 27.6436768,15.9306946 27.6436768,19.6723022"/>
  </g>
</svg>
