<svg xmlns="http://www.w3.org/2000/svg" xmlns:xlink="http://www.w3.org/1999/xlink" width="727" height="728" viewBox="0 0 727 728">
  <defs>
    <linearGradient id="icon_empty_quickstart_2-a" x1="49.867%" x2="51.078%" y1="58.353%" y2="25.712%">
      <stop offset="0%" stop-color="#010101" stop-opacity="0"/>
      <stop offset="95%" stop-color="#010101"/>
    </linearGradient>
    <linearGradient id="icon_empty_quickstart_2-b" x1="49.87%" x2="50.334%" y1="22.792%" y2="126.387%">
      <stop offset="0%" stop-color="#010101" stop-opacity="0"/>
      <stop offset="95%" stop-color="#010101"/>
    </linearGradient>
    <linearGradient id="icon_empty_quickstart_2-c" x1="49.79%" x2="50.578%" y1="-24.212%" y2="258.351%">
      <stop offset="0%" stop-color="#010101" stop-opacity="0"/>
      <stop offset="95%" stop-color="#010101"/>
    </linearGradient>
    <linearGradient id="icon_empty_quickstart_2-d" x1="58.973%" x2="17.224%" y1="58.722%" y2="15.597%">
      <stop offset="0%" stop-color="#010101" stop-opacity="0"/>
      <stop offset="95%" stop-color="#010101"/>
    </linearGradient>
    <linearGradient id="icon_empty_quickstart_2-e" x1="59.5%" x2="-25.35%" y1="51.224%" y2="37.318%">
      <stop offset="0%" stop-color="#010101" stop-opacity="0"/>
      <stop offset="95%" stop-color="#010101"/>
    </linearGradient>
    <linearGradient id="icon_empty_quickstart_2-f" x1="45.362%" x2="-59.129%" y1="46.303%" y2="137.61%">
      <stop offset="0%" stop-color="#010101" stop-opacity="0"/>
      <stop offset="95%" stop-color="#010101"/>
    </linearGradient>
    <linearGradient id="icon_empty_quickstart_2-g" x1="54.409%" x2="-85.366%" y1="50.134%" y2="125.038%">
      <stop offset="0%" stop-color="#010101" stop-opacity="0"/>
      <stop offset="95%" stop-color="#010101"/>
    </linearGradient>
    <linearGradient id="icon_empty_quickstart_2-h" x1="68.507%" x2="-137.484%" y1="52.788%" y2="31.113%">
      <stop offset="0%" stop-color="#010101" stop-opacity="0"/>
      <stop offset="95%" stop-color="#010101"/>
    </linearGradient>
    <linearGradient id="icon_empty_quickstart_2-i" x1="45.513%" x2="52.139%" y1="47.048%" y2="51.196%">
      <stop offset="0%" stop-color="#010101" stop-opacity="0"/>
      <stop offset="95%" stop-color="#010101"/>
    </linearGradient>
    <linearGradient id="icon_empty_quickstart_2-j" x1="45.003%" x2="73.075%" y1="55.153%" y2="17.55%">
      <stop offset="0%" stop-color="#010101" stop-opacity="0"/>
      <stop offset="95%" stop-color="#010101"/>
    </linearGradient>
    <linearGradient id="icon_empty_quickstart_2-k" x1="38.073%" x2="171.867%" y1="55.555%" y2="-28.645%">
      <stop offset="0%" stop-color="#010101" stop-opacity="0"/>
      <stop offset="95%" stop-color="#010101"/>
    </linearGradient>
    <linearGradient id="icon_empty_quickstart_2-l" x1="63.807%" x2="-59.709%" y1="47.898%" y2="109.978%">
      <stop offset="0%" stop-color="#010101" stop-opacity="0"/>
      <stop offset="95%" stop-color="#010101"/>
    </linearGradient>
    <linearGradient id="icon_empty_quickstart_2-m" x1="28.061%" x2="210.367%" y1="92.645%" y2="-283.581%">
      <stop offset="0%" stop-color="#010101" stop-opacity="0"/>
      <stop offset="95%" stop-color="#010101"/>
    </linearGradient>
    <linearGradient id="icon_empty_quickstart_2-n" x1="41.853%" x2="201.732%" y1="51.608%" y2="13.762%">
      <stop offset="0%" stop-color="#010101" stop-opacity="0"/>
      <stop offset="95%" stop-color="#010101"/>
    </linearGradient>
    <polygon id="icon_empty_quickstart_2-o" points="0 209.187 303.831 209.187 303.831 .004 0 .004"/>
    <rect id="icon_empty_quickstart_2-r" width="78.408" height="120.879" x="0" y="0" rx="2.614"/>
    <filter id="icon_empty_quickstart_2-q" width="107.7%" height="105%" x="-3.8%" y="-2.5%" filterUnits="objectBoundingBox">
      <feOffset in="SourceAlpha" result="shadowOffsetOuter1"/>
      <feGaussianBlur in="shadowOffsetOuter1" result="shadowBlurOuter1" stdDeviation="1"/>
      <feComposite in="shadowBlurOuter1" in2="SourceAlpha" operator="out" result="shadowBlurOuter1"/>
      <feColorMatrix in="shadowBlurOuter1" values="0 0 0 0 0.0473859199   0 0 0 0 0.0990566159   0 0 0 0 0.460751488  0 0 0 0.0979393116 0"/>
    </filter>
    <rect id="icon_empty_quickstart_2-t" width="78.408" height="120.879" x="0" y="0" rx="2.614"/>
    <filter id="icon_empty_quickstart_2-s" width="107.7%" height="105%" x="-3.8%" y="-2.5%" filterUnits="objectBoundingBox">
      <feOffset in="SourceAlpha" result="shadowOffsetOuter1"/>
      <feGaussianBlur in="shadowOffsetOuter1" result="shadowBlurOuter1" stdDeviation="1"/>
      <feComposite in="shadowBlurOuter1" in2="SourceAlpha" operator="out" result="shadowBlurOuter1"/>
      <feColorMatrix in="shadowBlurOuter1" values="0 0 0 0 0.0473859199   0 0 0 0 0.0990566159   0 0 0 0 0.460751488  0 0 0 0.0979393116 0"/>
    </filter>
    <polygon id="icon_empty_quickstart_2-u" points="0 .881 16.467 .881 16.467 6.762 0 6.762"/>
    <polygon id="icon_empty_quickstart_2-w" points=".066 .772 96.596 .772 96.596 61.894 .066 61.894"/>
    <polygon id="icon_empty_quickstart_2-y" points=".822 .806 22.656 .806 22.656 11.325 .822 11.325"/>
    <polygon id="icon_empty_quickstart_2-A" points=".584 .212 115.884 .212 115.884 104.59 .584 104.59"/>
  </defs>
  <g fill="none" fill-rule="evenodd" transform="translate(52 131)">
    <path fill="#2577FF" fill-rule="nonzero" d="M262.265009,41.9230152 C211.651339,31.0831092 152.978632,39.5354916 118.775756,78.3853488 C104.139596,95.0705712 95.0743243,115.890509 86.8140415,136.518347 C76.1479399,163.165306 66.1130227,190.544072 48.9612727,213.568582 C33.2548435,234.681242 11.5018507,252.317815 3.37878188,277.327354 C-8.57713132,314.164739 13.1392711,353.252434 38.0847763,382.899805 C51.4677151,398.798334 66.4972219,414.001645 85.3138351,422.829079 C101.322135,430.320964 119.159955,432.754225 136.723347,434.647778 C237.630523,445.533422 339.479901,441.371264 440.890195,437.199959 C469.412411,436.029066 498.062695,434.839878 526.118384,429.515975 C548.228133,425.317226 570.264701,418.346755 588.514163,405.165064 C606.763625,391.983372 620.88752,371.886095 622.991468,349.474475 C624.875873,329.349755 617.146151,309.554348 606.983168,292.12817 C598.860099,278.205523 588.843477,264.529861 587.096285,248.512414 C585.522898,234.077501 590.919982,219.926164 593.499605,205.637612 C601.512903,161.811461 580.528309,114.097579 542.812754,90.3778524 C517.428164,74.4061428 486.920918,69.2743392 457.310137,64.4718492 L387.111454,53.0739396 C366.300664,49.6984752 349.057438,52.1591796 328.521076,53.3209248 C305.953947,54.6290316 284.06374,46.6340292 262.265009,41.9230152 Z" opacity=".24"/>
    <g fill-rule="nonzero" transform="translate(130.896 92.701)">
      <polygon fill="#2577FF" points="261.182 332.771 124.59 332.771 148.429 285.561 243.107 285.561"/>
      <polygon fill="url(#icon_empty_quickstart_2-a)" points="258.429 325.892 127.801 325.892 148.429 285.561 243.107 285.561"/>
      <rect width="160.376" height="11.434" x="113.43" y="329.359" fill="#2577FF"/>
      <path fill="#2577FF" d="M394.554283,12.6328356 L394.554283,282.596807 C394.549446,285.939881 393.214889,289.143704 390.844978,291.501603 C388.475066,293.859501 385.264503,295.177761 381.921448,295.165692 L12.6053928,295.165692 C9.26708588,295.170465 6.06357878,293.848983 3.6996083,291.491874 C1.33563782,289.134766 0.004848664,285.935114 1.13686838e-13,282.596807 L1.13686838e-13,12.6328356 C0.0100762361,5.66009113 5.66009113,0.0100762361 12.6328356,-1.33582034e-12 L381.921448,-1.33582034e-12 C388.894192,0.0100762361 394.544207,5.66009113 394.554283,12.6328356 Z"/>
      <path fill="url(#icon_empty_quickstart_2-b)" d="M394.554283,12.6328356 L394.554283,238.386456 L1.13686838e-13,238.386456 L1.13686838e-13,12.6328356 C0.0100762361,5.66009113 5.66009113,0.0100762361 12.6328356,-6.96331881e-13 L381.921448,-6.96331881e-13 C388.894192,0.0100762361 394.544207,5.66009113 394.554283,12.6328356 Z"/>
      <rect width="367.267" height="212.663" x="14.444" y="15.908" fill="#FFF"/>
      <circle cx="194.258" cy="266.314" r="8.709" fill="url(#icon_empty_quickstart_2-c)"/>
    </g>
    <g fill-rule="nonzero" transform="translate(176.727)">
      <path fill="#606161" d="M53.4026844,94.374653 C53.6679648,100.06446 46.3956228,128.376282 44.813088,129.428256 C43.4958336,130.343016 41.154048,129.126385 39.7636128,128.303101 C39.4983324,128.111002 39.3062328,127.96464 39.1232808,127.845721 C38.0621592,127.059028 39.7636128,105.306035 39.7636128,105.306035 C39.7636128,105.306035 40.2941736,97.9239218 35.1257796,93.6245498 C29.3627916,88.840355 22.7582244,84.4220642 23.2338996,81.0374522 C23.2338996,80.5434818 31.3844112,75.9788294 31.7594628,75.5488922 C34.6683996,72.0819518 43.2488484,78.8328806 46.7157888,81.3942086 C46.7769232,81.4356536 46.8411445,81.4723515 46.9078884,81.5039798 C46.9150064,81.5278542 46.9150064,81.5532863 46.9078884,81.5771606 C46.9810692,81.659489 47.0908404,81.8058506 47.28294,81.9979502 C47.5482204,82.3364114 47.9598624,82.8212342 48.4172424,83.3883854 C49.6389447,85.0764412 50.7335698,86.8529138 51.6920832,88.703141 C52.6249173,90.4647286 53.2059227,92.3910566 53.4026844,94.374653 Z"/>
      <path fill="url(#icon_empty_quickstart_2-d)" d="M51.7103784,88.7214362 C51.7103784,90.1941998 40.3673544,87.742643 38.9677716,90.1941998 C37.5681888,92.6457566 40.6692252,91.6669634 41.7577896,97.0914902 C42.846354,102.516017 41.7577896,124.945932 40.5503064,127.27857 C40.3672509,127.661253 40.0979704,127.996288 39.7636128,128.257363 C39.4983324,128.065264 39.3062328,127.918902 39.1232808,127.799983 C38.0621592,127.01329 39.7636128,105.260297 39.7636128,105.260297 C39.7636128,105.260297 40.2941736,97.8781838 35.1257796,93.5788118 C35.1257796,93.5788118 35.9216208,88.6756982 32.3357616,85.8856802 C29.4950463,83.8914836 26.423538,82.2482267 23.1881616,80.9917142 C23.5998036,80.836205 34.5769236,74.3048186 35.482536,74.7621986 C35.5923072,74.8353794 38.59272,75.0823646 46.8987408,81.5497178 C46.9719216,81.6320462 47.0816928,81.7784078 47.2737924,81.9705074 C47.5390728,82.3089686 47.9507148,82.7937914 48.4080948,83.3609426 C49.8259728,85.2544958 51.7103784,87.8615618 51.7103784,88.7214362 Z"/>
      <path fill="#606161" d="M30.862998,127.287718 C30.2762097,128.997728 29.2953939,130.545724 27.9997992,131.806632 C26.609364,132.977525 24.4962684,133.462348 22.9869144,132.520145 C21.21228,131.431581 20.8738188,129.089795 20.6908668,127.031585 C20.0871252,119.942195 20.0505348,107.620378 19.4467932,100.503545 C19.383112,99.7078752 19.0202925,98.9658929 18.4314096,98.4270398 L18.3856716,98.4270398 C17.4834456,97.7352017 16.4639838,97.2115268 15.3761112,96.8810954 C13.2264252,96.1675826 10.5461784,95.6004314 8.5520016,94.283177 C7.84110154,93.8392294 7.22039433,93.2650752 6.7224816,92.590871 C3.1823604,87.7243478 1.8559584,77.8449398 4.8014856,73.1339258 C5.59645228,71.6840334 7.03924604,70.7040226 8.680068,70.499417 C13.8118716,69.859085 23.0418,73.243697 25.191486,77.817497 C25.8684084,79.326851 26.1702792,80.9917142 27.1490724,82.3089686 C28.850526,84.678197 32.2076952,85.4008574 33.8634108,87.7975286 C34.6197632,89.0631221 35.0824152,90.4823382 35.2172556,91.950539 C37.1035929,103.90494 35.5948985,116.148819 30.862998,127.287718 Z"/>
      <path fill="url(#icon_empty_quickstart_2-e)" d="M19.3736124,96.7896194 C19.6923531,97.4906083 19.6618413,98.3008638 19.291284,98.9758958 C18.9894132,98.8203866 18.7332804,98.6374346 18.4314096,98.4819254 L18.3856716,98.4819254 C17.4068784,97.9605122 16.3914948,97.4299514 15.3761112,96.935981 C13.939938,96.295649 12.430584,95.6919074 10.9303776,95.1704942 C10.1345364,94.9052138 9.3386952,94.6399334 8.5520016,94.3380626 C7.84110154,93.894115 7.22039433,93.3199608 6.7224816,92.6457566 C3.1823604,87.7792334 1.8559584,77.8998254 4.8014856,73.1888114 C7.6646844,73.380911 10.4547024,74.6981654 13.0343256,75.9330914 C14.58027,76.6923422 16.1262144,77.405855 17.6081256,78.274877 C18.5869188,78.8328806 20.5810956,79.6653122 19.0351512,80.7630242 C16.9312032,82.2266402 12.8971116,79.6287218 11.2779864,82.0070978 C10.9766904,82.5466497 10.8191879,83.1546093 10.8206064,83.7725846 C10.7474256,84.6873446 10.6742448,85.6021046 10.5919164,86.5626026 C10.4915721,87.3945282 10.5442761,88.2377927 10.7474256,89.0507498 C11.207562,90.0822903 11.9699136,90.9499038 12.933702,91.538897 C14.6796015,92.6136162 16.3652878,93.7832137 17.9831772,95.0424278 C18.5563006,95.5284419 19.0286724,96.1220144 19.3736124,96.7896194 L19.3736124,96.7896194 Z"/>
      <polygon fill="#2577FF" points="263.377 112.734 260.102 12.266 260.413 12.183 263.688 112.652"/>
      <path fill="#2577FF" d="M38.9494764,31.210475 C44.08128,33.7992458 53.091666,38.6840642 57.665466,42.187595 C58.2682349,42.7243469 58.9842499,43.1183115 59.7602664,43.3401926 C60.6953822,43.4511056 61.6431265,43.308944 62.5045464,42.9285506 L71.2130616,39.9372854 C72.041165,39.5650433 72.95864,39.4380571 73.856718,39.5713814 C75.4301052,39.9555806 76.1802084,41.9040194 75.8417472,43.4865542 C75.3543469,45.0425744 74.4755589,46.4473752 73.2895668,47.5663838 L68.7157668,52.6524494 C66.996018,54.582593 65.1482028,56.595065 62.6874984,57.3817586 C58.9735728,58.561799 55.0401048,56.640803 51.7103784,54.6374786 C45.5083056,50.8229294 37.0010376,48.7921622 33.4151784,42.2882186 C32.326614,40.3214846 32.2900236,33.6528842 34.3299384,31.6404122 C36.4979196,29.380955 36.7632,30.112763 38.9494764,31.210475 Z"/>
      <path fill="url(#icon_empty_quickstart_2-f)" d="M39.5257752,48.4171106 L40.056336,43.6420634 C40.056336,43.6420634 54.2076732,52.7896634 57.5648424,52.3048406 C60.9220116,51.8200178 73.5456996,43.7335394 73.5456996,43.7335394 C73.5456996,43.7335394 70.4812536,52.661597 65.0018412,55.8449618 C59.5224288,59.0283266 61.9922808,59.5588874 39.5257752,48.4171106 Z"/>
      <path fill="#2577FF" d="M3.7495116,70.4170886 C3.66699037,71.5736569 3.94503135,72.7273672 4.5453528,73.7193722 C5.16235357,74.4149119 5.9284635,74.9621333 6.7865148,75.3202022 C10.9852632,77.4241502 15.2480448,79.555541 19.8675828,80.4337106 C24.4871208,81.3118802 29.5731864,80.7630242 33.3145548,77.9272682 C34.6703981,76.9665304 35.6985692,75.6126653 36.260082,74.0486858 C36.854676,72.145985 36.4521816,70.087775 36.351558,68.0935982 C36.0954252,63.1173038 37.7511408,58.2782234 38.912886,53.4574382 C40.0746312,48.636653 40.6783728,43.3036022 38.4829488,38.8212782 C36.7540524,35.3085998 40.4771256,32.353925 37.2022848,30.204239 C32.6284848,27.1763834 27.1399248,25.7127674 19.61145,26.8379222 C16.684218,27.277007 6.6950388,31.4117222 5.615622,34.1560022 C4.5362052,36.9002822 7.6921272,39.717743 7.3170756,42.6541226 C6.1736256,51.7559846 3.7495116,61.2420458 3.7495116,70.4170886 Z"/>
      <path fill="url(#icon_empty_quickstart_2-g)" d="M18.92538,57.2628398 C17.1160978,55.7594965 15.9911488,53.5887737 15.8060484,51.243719 C15.7145724,49.597151 16.135362,47.9414354 15.9432624,46.304015 C15.7423453,44.6025303 14.8898649,43.0451141 13.5648864,41.958905 C13.3072744,41.6786577 12.9333432,41.5351373 12.5543811,41.5710579 C12.1754191,41.6069785 11.8351126,41.8181991 11.6347428,42.141857 C8.6892156,44.9684654 8.2501308,49.459937 8.085474,53.5489142 C8.0122932,55.497353 8.0122932,57.6378914 9.274662,59.1289502 C10.3815216,60.4462046 12.201894,60.894437 13.9033476,61.123127 C15.6048012,61.351817 21.2214276,62.1659534 22.5112392,60.848699 C24.368202,59.0008838 20.1511584,58.3056662 18.92538,57.2628398 Z"/>
      <path fill="url(#icon_empty_quickstart_2-h)" d="M9.732042,71.2495202 C9.82531597,71.0859923 9.95722601,70.9478008 10.1162412,70.8470258 C10.3482819,70.7536479 10.6021126,70.7282648 10.8480492,70.773845 C12.2842224,70.9202066 21.6605124,71.5330958 22.035564,71.276963 C22.4106156,71.0208302 30.1586328,67.4898566 29.9756808,67.0782146 C29.7927288,66.6665726 16.7208084,65.5871558 16.2542808,65.4865322 C14.671746,65.1206282 12.5952408,67.6911038 11.1590676,66.9410006 C9.91093058,66.1713804 8.59414179,65.5191106 7.2255996,64.9925618 C6.11874,64.6632482 4.609386,64.7913146 4.2251868,65.9073218 C4.14841575,66.1594488 4.10836483,66.4213201 4.106268,66.6848678 L3.9507588,69.9780038 C3.7828762,71.1949156 3.93743971,72.434578 4.3989912,73.5730106 C5.158242,75.0457742 6.8139576,75.7867298 8.3507544,76.4179142 C8.81020873,76.6529803 9.33525493,76.7270665 9.8418132,76.628309 C9.0551196,74.8628222 8.5977396,73.015007 9.732042,71.2495202 Z"/>
      <path fill="#2577FF" d="M19.519974,70.9293542 C37.164786,59.3850539 55.7335933,49.3189184 75.0367584,40.8337502 C94.2361254,32.1764216 114.29068,25.5569777 134.87121,21.0840818 C145.178421,19.0135084 155.583233,17.4625563 166.046231,16.437101 C176.480593,15.2967002 186.930202,14.348399 197.395056,13.5921974 C218.324765,12.2200574 239.327654,11.405921 260.275658,12.5585186 C239.318507,11.7169394 218.34306,12.8512418 197.468237,14.5344002 C187.027776,15.4369634 176.60866,16.5407738 166.210888,17.8458314 C155.825283,19.0094008 145.505636,20.7008459 135.292,22.9136018 C114.935831,27.6686241 95.1354545,34.5487796 76.2167988,43.4408162 C57.2331358,52.1275005 38.9981155,62.3648122 21.6971028,74.0486858 L19.519974,70.9293542 Z"/>
      <path fill="url(#icon_empty_quickstart_2-i)" d="M19.519974,70.9293542 C37.22058,59.3119022 56.6958204,49.8898742 75.960666,41.4283442 C94.986522,32.7837296 114.874602,26.1788999 135.292,21.7244138 C145.511323,19.6783886 155.827813,18.1518288 166.20174,17.1506138 C176.630004,16.0071638 187.094858,14.7722378 197.559713,14.012987 C218.480274,12.6499946 239.355097,11.405921 260.303101,12.5585186 C239.34595,11.7169394 218.370503,12.8512418 197.49568,14.5344002 C187.055219,15.4369634 176.636102,16.5407738 166.23833,17.8458314 C155.843522,19.0084788 145.514692,20.6999277 135.292,22.9136018 C114.935831,27.6686241 95.1354545,34.5487796 76.2167988,43.4408162 C57.2331358,52.1275005 38.9981155,62.3648122 21.6971028,74.0486858 L19.519974,70.9293542 Z"/>
      <path fill="url(#icon_empty_quickstart_2-j)" d="M37.7328456,118.387103 C37.6413696,119.987933 37.5681888,121.744272 38.5286868,123.024936 C41.062572,121.515582 41.8218228,118.249889 42.1419888,115.322657 C42.7783943,109.53466 42.618346,103.686741 41.6663136,97.942217 C41.5608709,97.0147505 41.2913986,96.1134121 40.8704724,95.2802654 C40.0546695,94.0909715 38.9012762,93.1733547 37.5590412,92.6457566 C36.7568495,92.2049223 35.8581173,91.9692408 34.9428276,91.9596866 C34.0047346,91.9713605 33.1777217,92.5778366 32.8846176,93.4690406 C32.7969253,94.0296702 32.8568279,94.6034745 33.058422,95.1339038 C33.4823956,97.0776465 34.1461011,98.9612182 35.0343036,100.741383 C35.9395234,102.168053 36.6097344,103.730849 37.0193328,105.370068 C37.9491183,109.643361 38.1899934,114.037788 37.7328456,118.387103 Z"/>
      <path fill="url(#icon_empty_quickstart_2-k)" d="M3.1823604,97.256147 C5.0118804,98.7106154 7.5000276,99.1588478 9.8601084,99.3235046 C10.7748684,99.3783902 11.5981524,99.405833 12.4671744,99.4424234 C14.993066,99.5484213 17.0207294,101.564181 17.141598,104.089404 C17.202582,105.918924 17.2361232,107.721001 17.2422216,109.495636 C17.2422216,113.822451 17.09586,118.341365 18.9894132,122.219947 C19.3919076,123.024936 20.0322396,123.893958 20.9287044,123.903106 C21.4147476,123.87845 21.8785154,123.691655 22.2459588,123.372545 C23.4018899,122.403409 24.2031007,121.077711 24.5237112,119.603734 C24.8344531,118.140218 24.9634937,116.643961 24.9079104,115.148853 C24.9079104,109.422455 24.4047924,103.577139 22.1636304,98.308121 C21.9071567,97.7045407 21.6011934,97.1232104 21.2488704,96.570077 C19.7875683,94.4540727 17.5715835,92.9778406 15.0559452,92.4445094 C12.5640072,91.9197364 10.0054434,91.7870244 7.4725848,92.0511626 C6.2651016,92.1243434 5.066766,92.224967 3.8135448,92.2890002 C3.1366224,92.2890002 0.611884797,91.9413914 0.154504797,92.2890002 C-0.732812403,93.1214318 2.4597,96.707291 3.1823604,97.256147 Z"/>
      <path fill="url(#icon_empty_quickstart_2-l)" d="M9.869256,54.3264602 C9.914994,52.9451726 11.1133296,51.9206414 12.018942,50.8686674 C13.7052398,48.8908359 14.5608164,46.3372185 14.4064656,43.742687 C14.3149896,42.2699234 13.345344,40.4586986 11.9000232,40.769717 C11.5678002,40.8646006 11.2571408,41.0230369 10.9852632,41.2362446 C7.69207718,43.5023427 5.29439473,46.8480967 4.2068916,50.694863 C3.77315028,52.0568448 3.67276223,53.50306 3.9141684,54.9119066 C4.45310171,56.7825397 5.53562294,58.4508959 7.0243524,59.705249 C9.82071681,62.3454418 13.1617406,64.3406887 16.8122844,65.5505654 C17.78193,65.8707314 20.7366048,66.8495246 20.0779776,64.9834142 C19.6754832,63.9405878 9.8326656,55.6894526 9.869256,54.3264602 Z"/>
      <path fill="#2577FF" d="M21.0018852 73.8931766L30.314142 73.9480622C30.314142 73.9480622 28.3382604 77.1954602 26.7099876 77.3784122L21.0018852 73.8931766zM2.9353752 40.2300086C1.88355383 44.7787164 1.3344556 49.4291797 1.2979548 54.0977702 1.2979548 57.4000538 1.5632352 60.9218798 3.5940024 63.5289458 5.48467538 65.7413205 8.16130814 67.1321199 11.058444 67.4075282 13.9230903 67.6741578 16.8101791 67.56962 19.6480404 67.0965098L28.2925224 66.0262406C28.9508981 65.9902954 29.5937189 65.8124275 30.176928 65.5048274 31.914972 64.4071154 31.2929352 61.5164738 29.6372196 60.2906954 27.981504 59.064917 26.0696556 60.9950606 24.093774 60.4004666 21.9074976 59.7418394 14.1137424 58.150157 12.5037648 56.5310318 12.1756162 56.2525629 11.9369563 55.8834355 11.8176948 55.4699102 11.7711394 55.0238229 11.8404554 54.573269 12.018942 54.1618034 13.939938 48.3713726 18.8247564 38.5011122 14.6900412 33.6894746 9.6222708 27.7892726 4.1154156 35.098205 2.9353752 40.2300086z"/>
      <path fill="#F4A982" d="M23.4625896,36.2142122 C25.2273391,37.1505656 27.3778684,36.9606022 28.9511496,35.7293894 C29.6699573,35.0851486 30.1448403,34.2129145 30.2958468,33.2595374 C30.7074888,30.5152574 28.4663268,28.0454054 28.621836,25.3194206 C28.7224596,23.9655758 29.4359724,22.5751406 28.9511496,21.3036242 C28.5395076,20.2242074 22.4837964,18.4587206 22.264254,19.6021706 C20.709162,27.6520586 16.8397272,32.9119286 23.4625896,36.2142122 Z"/>
      <path fill="url(#icon_empty_quickstart_2-m)" d="M23.1241284,19.9955174 C23.1241284,19.9955174 22.492944,31.805069 28.8596736,30.9726374 C28.8596736,30.9726374 29.856762,30.8354234 29.5548912,29.380955 C29.2530204,27.9264866 28.0363896,26.4262802 28.1004228,25.1364686 C28.164456,23.846657 23.1241284,19.9955174 23.1241284,19.9955174 Z"/>
      <path fill="#F4A982" d="M39.0135096 12.6591422C38.6293104 16.0437542 36.443034 19.8948938 35.0891892 22.2641222 34.2597764 23.8490112 33.117728 25.2493429 31.73202 26.3805422 30.2856176 27.4722307 28.3838285 27.7547428 26.6825448 27.1306454 25.1731908 26.4903134 24.230988 24.9809594 23.5174752 23.4716054 22.3961259 21.1213149 21.8535033 18.5368004 21.9349404 15.933983 22.081302 13.189703 23.361966 8.05789945 27.2131056 10.0154858 27.9997992 10.4271278 28.53036 11.1863786 29.2804632 11.6712014 30.3482382 12.3934746 31.7274937 12.4673633 32.8663224 11.863301 33.2779644 11.634611 33.7353444 11.2961498 34.1835768 11.451659 34.3953639 11.5383292 34.5880626 11.665759 34.750728 11.8267106 35.7151222 12.5314299 37.0245842 12.5314299 37.9889784 11.8267106 38.188898 12.2433765 38.5647425 12.5487502 39.0135096 12.6591422L39.0135096 12.6591422zM40.239288 57.967205C41.359975 58.6618354 42.211477 59.7165367 42.6542544 60.9584702 42.768195 61.182764 42.8306952 61.4296396 42.8372064 61.6811306 42.8026546 61.9966068 42.6605221 62.2905627 42.434712 62.5135622 40.8247344 64.3430822 37.860912 63.6570122 35.7020784 64.7181338 35.16237 64.9834142 34.6775472 65.3584658 34.1195436 65.5688606 33.380892 65.8006214 32.6025617 65.8784544 31.8326436 65.7975506 31.0185072 65.7975506 30.2043708 65.6877794 29.3902344 65.5963034 27.432648 65.3676134 27.0301536 63.2179274 27.6430428 61.6079498 28.2010464 60.1534814 29.1066588 59.842463 30.5245368 59.6046254 33.4609164 59.110655 37.3029084 56.4212606 40.239288 57.967205z"/>
      <path fill="#606161" d="M42.8097636,9.33856345 C44.584398,8.73482185 45.1881396,6.24667465 44.2459368,4.61840185 C43.2123547,3.01534698 41.4422055,2.03918703 39.5349228,2.02048345 C39.2124504,2.05633069 38.887828,1.97517509 38.6201628,1.79179345 C38.437416,1.6175799 38.2858187,1.41338763 38.1719304,1.18805185 C37.5224508,0.17266825 36.1320156,0.0263066498 34.9245324,0.0263066498 C33.7634845,-0.0755895636 32.5956001,0.119582485 31.5307728,0.59345785 C30.7074888,1.04169025 30.0671568,1.87412185 29.124954,2.21258305 C28.1564244,2.41293724 27.1681693,2.50194158 26.1794268,2.47786345 C24.870738,2.67797949 23.7358739,3.49005288 23.1241284,4.66413985 C22.9730298,5.08261776 22.7569359,5.47467379 22.4837964,5.82588505 C22.2324417,6.04092153 21.9698404,6.24245272 21.6971028,6.42962665 C20.6375468,7.3028555 20.0263311,8.60588684 20.0321972,9.97889545 C20.0684439,11.321674 20.2963898,12.6523848 20.709162,13.9306586 C20.755819,14.1837259 20.8731636,14.4184151 21.0476232,14.607581 C21.4592652,14.9460422 22.8771432,15.9888686 23.1424236,15.522341 C23.6729844,14.607581 23.3985564,12.5219282 24.4871208,12.000515 C25.5756852,11.4791018 25.4567664,12.4030094 26.3166408,12.915275 C27.1894242,13.4445802 28.2533396,13.5553348 29.21643,13.2171458 C29.7104004,13.0250462 30.13119,12.7689134 30.6526032,12.5768138 C31.1247176,12.3606656 31.6618991,12.3344616 32.1528096,12.503633 C33.0675696,12.915275 33.1773408,14.195939 33.9823296,14.7996806 C34.9196538,15.3639951 36.1358289,15.0802209 36.7266096,14.1593486 C36.8449282,14.630081 37.1071416,15.0521806 37.4767128,15.3668318 C37.8791582,15.7059705 38.4758863,15.6739314 38.8397052,15.293651 C39.0226572,15.064961 39.0592476,14.6899094 39.2879376,14.4612194 C39.5257416,14.2779517 39.8203748,14.1840576 40.1203692,14.195939 C40.6265517,14.3331396 41.1601311,14.3331396 41.6663136,14.195939 C42.7788461,13.9369446 43.6924093,13.1465585 44.1087228,12.0828434 C44.4750014,10.9681689 43.9040385,9.76190939 42.8097636,9.33856345 Z"/>
      <path fill="#F4A982" d="M22.0081212,13.7660018 C21.8512905,13.6914501 21.6784437,13.6568807 21.5050032,13.6653782 C21.2298323,13.724193 20.9970411,13.9063774 20.8738188,14.1593486 C20.7670635,14.4173004 20.7141447,14.6943463 20.7183096,14.973485 C20.7075106,15.3854092 20.7474504,15.7970967 20.8372284,16.1992634 C20.9378067,16.9724518 21.4648404,17.6232853 22.2002208,17.8824218 C22.8727476,18.0125027 23.5364705,17.6197672 23.7461652,16.9676618 C23.9149231,15.637855 23.2152144,14.3489181 22.0081212,13.7660018 L22.0081212,13.7660018 Z"/>
      <path fill="url(#icon_empty_quickstart_2-n)" d="M22.3648776,15.8333594 C22.2459588,15.613817 22.3648776,15.3576842 22.3648776,15.110699 C22.3648776,14.8637138 22.035564,14.653319 21.6971028,14.4978098 C21.6519978,14.5115462 21.6131478,14.5406836 21.5873316,14.5801382 C21.3081721,15.0600471 21.2514178,15.6376048 21.4318224,16.162673 C21.4784769,16.3566086 21.5728043,16.5358305 21.7062504,16.6840862 C21.8414592,16.8367946 22.0437767,16.9122351 22.2459588,16.8853334 C22.489863,16.8035801 22.6757837,16.6038876 22.7399292,16.3547726 C22.7765196,15.9614258 22.5295344,16.116935 22.3648776,15.8333594 Z"/>
      <path fill="#F4A982" d="M76.052142,36.8545442 C75.0824964,37.659533 74.131146,38.482817 73.216386,39.3426914 C72.7243956,39.7256696 72.3451082,40.2345469 72.118674,40.815455 C71.7893604,41.9314622 72.6034968,43.0657646 73.5456996,43.7335394 C75.0699395,44.8271359 76.97882,45.2411223 78.8191546,44.8772143 C80.6594892,44.5133063 82.2671456,43.4039595 83.2604508,41.8125434 C84.0385189,40.7068131 84.2392262,39.2950583 83.8001592,38.0162894 C83.3096992,36.9899277 82.3759301,36.2449351 81.266274,35.9946698 C79.4874232,35.4814789 77.5720174,35.7973528 76.052142,36.8545442 Z"/>
    </g>
    <g transform="translate(176.596 119.79)">
      <path fill="#606161" fill-rule="nonzero" d="M31.6197684 20.9270952C32.2481949 21.5451185 32.9556536 22.0772504 33.7237164 22.50963L37.0168524 24.5586924C38.2060404 25.299648 39.7611324 26.0223084 40.8862872 25.1898768 42.011442 24.3574452 41.8010472 22.9121244 41.416848 21.7229364 40.8239 19.9715034 39.7981293 18.3982354 38.4347304 17.1491364 38.1409619 16.9260644 37.8951791 16.6460587 37.71207 16.3258524 37.5805419 15.9853772 37.5304214 15.6188707 37.5657084 15.2555832L37.5657084 11.8709712C37.5657084 8.4314736 32.8455468 9.0535104 31.354488 11.0842776 29.5158204 13.5541296 29.4609348 18.6401952 31.6197684 20.9270952zM48.0854484 16.700904C48.9022093 17.9655923 50.0958022 18.9415866 51.4975032 19.490922 52.8408972 20.1327152 54.2402198 20.650189 55.6779564 21.0368664 56.2749801 21.2969894 56.9629215 21.2385144 57.5074764 20.8813572 57.7401963 20.6259719 57.8928643 20.3079135 57.9465612 19.9665972 58.4301521 17.787116 57.8110773 15.5091944 56.2908456 13.8742956 55.6046589 13.2941251 54.9904431 12.6338431 54.4613256 11.9075616 53.8209936 10.7732592 53.9582076 9.3919716 53.8392888 8.0930124 53.583156 5.2572564 49.0642416 5.998212 47.9756772 7.8368796 46.8871128 9.6755472 47.1706884 14.917122 48.0854484 16.700904z"/>
      <g transform="translate(0 6.435)">
        <polygon fill="#E1EEFE" points="0 202.876 198.467 202.876 198.467 .1 0 .1"/>
        <polygon fill="#FFF" points="0 12.025 198.467 12.025 198.467 .1 0 .1"/>
        <g transform="translate(0 .096)">
          <path fill="#F02F55" d="M8.7447789,5.9662053 C8.7447789,7.2828063 7.6732029,8.3511153 6.3598689,8.3511153 C5.0400009,8.3511153 3.9749589,7.2828063 3.9749589,5.9662053 C3.9749589,4.6496043 5.0400009,3.5845623 6.3598689,3.5845623 C7.6732029,3.5845623 8.7447789,4.6496043 8.7447789,5.9662053"/>
          <path fill="#FEC12F" d="M16.2964494,5.9662053 C16.2964494,7.2828063 15.2314074,8.3511153 13.9148064,8.3511153 C12.5916714,8.3511153 11.5266294,7.2828063 11.5266294,5.9662053 C11.5266294,4.6496043 12.5916714,3.5845623 13.9148064,3.5845623 C15.2314074,3.5845623 16.2964494,4.6496043 16.2964494,5.9662053"/>
          <path fill="#B0CF42" d="M23.8481199,5.9662053 C23.8481199,7.2828063 22.7830779,8.3511153 21.4632099,8.3511153 C20.1466089,8.3511153 19.0782999,7.2828063 19.0782999,5.9662053 C19.0782999,4.6496043 20.1466089,3.5845623 21.4632099,3.5845623 C22.7830779,3.5845623 23.8481199,4.6496043 23.8481199,5.9662053"/>
          <mask id="icon_empty_quickstart_2-p" fill="#fff">
            <use xlink:href="#icon_empty_quickstart_2-o"/>
          </mask>
          <use fill="#D8E2F5" xlink:href="#icon_empty_quickstart_2-o"/>
          <polygon fill="#E1F0FC" points="103.492 209.187 294.067 209.187 294.067 13.069 103.492 13.069" mask="url(#icon_empty_quickstart_2-p)"/>
          <polygon fill="#FFF" points="108.937 202.555 288.622 202.555 288.622 18.514 108.937 18.514" mask="url(#icon_empty_quickstart_2-p)"/>
          <path fill="#FFF" d="M122.990789,60.6499047 C122.990789,64.6487127 119.749925,67.8928437 115.74785,67.8928437 C111.752309,67.8928437 108.504911,64.6487127 108.504911,60.6499047 C108.504911,56.6478297 111.752309,53.4069657 115.74785,53.4069657 C119.749925,53.4069657 122.990789,56.6478297 122.990789,60.6499047" mask="url(#icon_empty_quickstart_2-p)"/>
          <polygon fill="#FFF" points="128.008 28.022 175.363 28.022 175.363 26.349 128.008 26.349" mask="url(#icon_empty_quickstart_2-p)"/>
          <polygon fill="#FFF" points="128.004 32.478 160.318 32.478 160.318 30.809 128.004 30.809" mask="url(#icon_empty_quickstart_2-p)"/>
          <path fill="#FFF" d="M122.990789 86.6486907C122.990789 90.6507657 119.749925 93.8916297 115.74785 93.8916297 111.752309 93.8916297 108.504911 90.6507657 108.504911 86.6486907 108.504911 82.6498827 111.752309 79.4057517 115.74785 79.4057517 119.749925 79.4057517 122.990789 82.6498827 122.990789 86.6486907M122.990789 112.64911C122.990789 116.647918 119.749925 119.892049 115.74785 119.892049 111.752309 119.892049 108.504911 116.647918 108.504911 112.64911 108.504911 108.650302 111.752309 105.406171 115.74785 105.406171 119.749925 105.406171 122.990789 108.650302 122.990789 112.64911M122.990789 138.64953C122.990789 142.651605 119.749925 145.892469 115.74785 145.892469 111.752309 145.892469 108.504911 142.651605 108.504911 138.64953 108.504911 134.650722 111.752309 131.406591 115.74785 131.406591 119.749925 131.406591 122.990789 134.650722 122.990789 138.64953" mask="url(#icon_empty_quickstart_2-p)"/>
          <polygon fill="#FFF" points="8.243 77.827 95.155 77.827 95.155 53.871 8.243 53.871" mask="url(#icon_empty_quickstart_2-p)"/>
          <path fill="#ADD42A" d="M27.7469577,65.8486818 C27.7469577,69.8507568 24.5028267,73.0916208 20.5007517,73.0916208 C16.5019437,73.0916208 13.2578127,69.8507568 13.2578127,65.8486818 C13.2578127,61.8498738 16.5019437,58.6057428 20.5007517,58.6057428 C24.5028267,58.6057428 27.7469577,61.8498738 27.7469577,65.8486818" mask="url(#icon_empty_quickstart_2-p)"/>
          <polygon fill="#95CCF8" points="32.755 64.456 80.113 64.456 80.113 62.783 32.755 62.783" mask="url(#icon_empty_quickstart_2-p)"/>
          <polygon fill="#95CCF8" points="32.755 68.912 65.072 68.912 65.072 67.239 32.755 67.239" mask="url(#icon_empty_quickstart_2-p)"/>
          <polygon fill="#FFF" points="8.243 46.628 95.155 46.628 95.155 22.671 8.243 22.671" mask="url(#icon_empty_quickstart_2-p)"/>
          <polygon stroke="#2B99F1" stroke-width=".742" points="8.243 46.628 95.155 46.628 95.155 22.671 8.243 22.671" mask="url(#icon_empty_quickstart_2-p)"/>
          <path fill="#7ED3DE" d="M27.7469577,34.6478517 C27.7469577,38.6499267 24.5028267,41.8907907 20.5007517,41.8907907 C16.5019437,41.8907907 13.2578127,38.6499267 13.2578127,34.6478517 C13.2578127,30.6490437 16.5019437,27.4049127 20.5007517,27.4049127 C24.5028267,27.4049127 27.7469577,30.6490437 27.7469577,34.6478517" mask="url(#icon_empty_quickstart_2-p)"/>
          <polygon fill="#95CCF8" points="32.755 33.256 80.113 33.256 80.113 31.583 32.755 31.583" mask="url(#icon_empty_quickstart_2-p)"/>
          <polygon fill="#95CCF8" points="32.755 37.712 65.072 37.712 65.072 36.043 32.755 36.043" mask="url(#icon_empty_quickstart_2-p)"/>
          <polygon fill="#FFF" points="8.243 109.027 95.155 109.027 95.155 85.07 8.243 85.07" mask="url(#icon_empty_quickstart_2-p)"/>
          <path fill="#F5729F" d="M27.7436907,97.0495119 C27.7436907,101.051587 24.5028267,104.292451 20.5007517,104.292451 C16.5019437,104.292451 13.2545457,101.051587 13.2545457,97.0495119 C13.2545457,93.0474369 16.5019437,89.8065729 20.5007517,89.8065729 C24.5028267,89.8065729 27.7436907,93.0474369 27.7436907,97.0495119" mask="url(#icon_empty_quickstart_2-p)"/>
          <polygon fill="#95CCF8" points="32.755 95.655 80.113 95.655 80.113 93.983 32.755 93.983" mask="url(#icon_empty_quickstart_2-p)"/>
          <polygon fill="#95CCF8" points="32.755 100.115 65.069 100.115 65.069 98.442 32.755 98.442" mask="url(#icon_empty_quickstart_2-p)"/>
          <polygon fill="#FFF" points="8.243 140.23 95.155 140.23 95.155 116.274 8.243 116.274" mask="url(#icon_empty_quickstart_2-p)"/>
          <path fill="#7E93EE" d="M27.7436907,128.250342 C27.7436907,132.24915 24.5028267,135.493281 20.5007517,135.493281 C16.5019437,135.493281 13.2545457,132.24915 13.2545457,128.250342 C13.2545457,124.248267 16.5019437,121.007403 20.5007517,121.007403 C24.5028267,121.007403 27.7436907,124.248267 27.7436907,128.250342" mask="url(#icon_empty_quickstart_2-p)"/>
          <polygon fill="#95CCF8" points="32.755 126.859 80.113 126.859 80.113 125.186 32.755 125.186" mask="url(#icon_empty_quickstart_2-p)"/>
          <polygon fill="#95CCF8" points="32.755 131.315 65.069 131.315 65.069 129.642 32.755 129.642" mask="url(#icon_empty_quickstart_2-p)"/>
          <polygon fill="#FFF" points="8.243 171.427 95.155 171.427 95.155 147.47 8.243 147.47" mask="url(#icon_empty_quickstart_2-p)"/>
          <path fill="#2B99F1" d="M27.7436907,159.451172 C27.7436907,163.44998 24.5028267,166.694111 20.5007517,166.694111 C16.5019437,166.694111 13.2545457,163.44998 13.2545457,159.451172 C13.2545457,155.449097 16.5019437,152.208233 20.5007517,152.208233 C24.5028267,152.208233 27.7436907,155.449097 27.7436907,159.451172" mask="url(#icon_empty_quickstart_2-p)"/>
          <polygon fill="#95CCF8" points="32.755 158.058 80.113 158.058 80.113 156.386 32.755 156.386" mask="url(#icon_empty_quickstart_2-p)"/>
          <polygon fill="#95CCF8" points="32.755 162.515 65.069 162.515 65.069 160.842 32.755 160.842" mask="url(#icon_empty_quickstart_2-p)"/>
          <polygon fill="#FFF" points="8.243 202.63 95.155 202.63 95.155 178.673 8.243 178.673" mask="url(#icon_empty_quickstart_2-p)"/>
          <path fill="#3DC7C9" d="M27.7436907,190.650369 C27.7436907,194.652444 24.5028267,197.893308 20.5007517,197.893308 C16.5019437,197.893308 13.2545457,194.652444 13.2545457,190.650369 C13.2545457,186.651561 16.5019437,183.40743 20.5007517,183.40743 C24.5028267,183.40743 27.7436907,186.651561 27.7436907,190.650369" mask="url(#icon_empty_quickstart_2-p)"/>
          <polygon fill="#95CCF8" points="32.755 189.258 80.113 189.258 80.113 187.586 32.755 187.586" mask="url(#icon_empty_quickstart_2-p)"/>
          <polygon fill="#95CCF8" points="32.755 193.714 65.069 193.714 65.069 192.042 32.755 192.042" mask="url(#icon_empty_quickstart_2-p)"/>
        </g>
      </g>
      <polygon fill="#FFF" points="0 14.157 304.92 14.157 304.92 0 0 0"/>
      <path fill="#F02F55" d="M8.7447789,5.9619483 C8.7447789,7.2785493 7.6732029,8.3468583 6.3598689,8.3468583 C5.0400009,8.3468583 3.9749589,7.2785493 3.9749589,5.9619483 C3.9749589,4.6453473 5.0400009,3.5803053 6.3598689,3.5803053 C7.6732029,3.5803053 8.7447789,4.6453473 8.7447789,5.9619483"/>
      <path fill="#FEC12F" d="M16.2964494,5.9619483 C16.2964494,7.2785493 15.2314074,8.3468583 13.9148064,8.3468583 C12.5916714,8.3468583 11.5266294,7.2785493 11.5266294,5.9619483 C11.5266294,4.6453473 12.5916714,3.5803053 13.9148064,3.5803053 C15.2314074,3.5803053 16.2964494,4.6453473 16.2964494,5.9619483"/>
      <path fill="#B0CF42" d="M23.8481199,5.9619483 C23.8481199,7.2785493 22.7830779,8.3468583 21.4632099,8.3468583 C20.1466089,8.3468583 19.0782999,7.2785493 19.0782999,5.9619483 C19.0782999,4.6453473 20.1466089,3.5803053 21.4632099,3.5803053 C22.7830779,3.5803053 23.8481199,4.6453473 23.8481199,5.9619483"/>
      <rect width="68.607" height="2.178" x="127.413" y="31.581" fill="#95CCF8"/>
      <rect width="68.607" height="2.178" x="127.413" y="37.026" fill="#95CCF8"/>
      <circle cx="4.704" cy="4.704" r="4.432" fill="#3FA91C" fill-rule="nonzero" stroke="#3FA91C" stroke-width=".544" transform="translate(114.345 30.448)"/>
      <rect width="7.623" height="7.623" x="272.25" y="31.581" fill="#D8D8D8"/>
      <g transform="translate(119.79 66.429)">
        <g fill-rule="nonzero">
          <use fill="#000" filter="url(#icon_empty_quickstart_2-q)" xlink:href="#icon_empty_quickstart_2-r"/>
          <rect width="77.864" height="120.335" x=".272" y=".272" fill="#FFF" fill-rule="evenodd" stroke="#C7D3EF" stroke-linejoin="square" stroke-width=".544" rx="2.614"/>
        </g>
        <rect width="43.56" height="2.178" x="17.424" y="33.759" fill="#D8D8D8"/>
        <rect width="65.34" height="2.178" x="6.534" y="38.115" fill="#D8D8D8"/>
        <rect width="23.958" height="22.869" x="27.225" y="4.356" fill="#D8D8D8" rx="5.445"/>
        <rect width="19.602" height="3.267" x="6.273" y="50.094" fill="#E8E8E8" fill-rule="nonzero"/>
        <rect width="19.602" height="3.267" x="6.273" y="66.429" fill="#E8E8E8" fill-rule="nonzero"/>
        <rect width="19.602" height="3.267" x="6.273" y="82.764" fill="#E8E8E8" fill-rule="nonzero"/>
        <rect width="19.602" height="3.267" x="6.273" y="99.099" fill="#E8E8E8" fill-rule="nonzero"/>
        <rect width="65.34" height="3.267" x="6.273" y="55.539" fill="#E8E8E8" fill-rule="nonzero"/>
        <rect width="65.34" height="3.267" x="6.273" y="71.874" fill="#E8E8E8" fill-rule="nonzero"/>
        <rect width="65.34" height="3.267" x="6.273" y="88.209" fill="#E8E8E8" fill-rule="nonzero"/>
        <rect width="65.34" height="3.267" x="6.273" y="104.544" fill="#E8E8E8" fill-rule="nonzero"/>
      </g>
      <g transform="translate(205.821 66.429)">
        <g fill-rule="nonzero">
          <use fill="#000" filter="url(#icon_empty_quickstart_2-s)" xlink:href="#icon_empty_quickstart_2-t"/>
          <rect width="77.864" height="120.335" x=".272" y=".272" fill="#FFF" fill-rule="evenodd" stroke="#C7D3EF" stroke-linejoin="square" stroke-width=".544" rx="2.614"/>
        </g>
        <rect width="43.56" height="2.178" x="17.424" y="33.759" fill="#D8D8D8"/>
        <rect width="65.34" height="2.178" x="6.534" y="38.115" fill="#D8D8D8"/>
        <rect width="23.958" height="22.869" x="27.225" y="4.356" fill="#D8D8D8" rx="5.445"/>
        <rect width="19.602" height="3.267" x="6.273" y="50.094" fill="#E8E8E8" fill-rule="nonzero"/>
        <rect width="19.602" height="3.267" x="6.273" y="66.429" fill="#E8E8E8" fill-rule="nonzero"/>
        <rect width="19.602" height="3.267" x="6.273" y="82.764" fill="#E8E8E8" fill-rule="nonzero"/>
        <rect width="19.602" height="3.267" x="6.273" y="99.099" fill="#E8E8E8" fill-rule="nonzero"/>
        <rect width="65.34" height="3.267" x="6.273" y="55.539" fill="#E8E8E8" fill-rule="nonzero"/>
        <rect width="65.34" height="3.267" x="6.273" y="71.874" fill="#E8E8E8" fill-rule="nonzero"/>
        <rect width="65.34" height="3.267" x="6.273" y="88.209" fill="#E8E8E8" fill-rule="nonzero"/>
        <rect width="65.34" height="3.267" x="6.273" y="104.544" fill="#E8E8E8" fill-rule="nonzero"/>
      </g>
    </g>
    <g fill-rule="nonzero" transform="translate(428.155 286.407)">
      <rect width="170.777" height="59.816" fill="#2577FF" opacity=".24" rx="16.786"/>
      <rect width="170.777" height="59.816" x="6.266" y="5.141" fill="#FFF" rx="16.786"/>
      <rect width="138.293" height="5.15" x="23.958" y="21.543" fill="#2577FF" opacity=".24" rx="2.57"/>
      <rect width="97.33" height="4.867" x="23.958" y="35.776" fill="#2577FF" opacity=".24" rx="2.095"/>
    </g>
    <g fill-rule="nonzero" transform="translate(50.272 204.732)">
      <rect width="170.777" height="59.816" x="5.79" y="9.642" fill="#2577FF" opacity=".24" rx="16.786"/>
      <rect width="170.777" height="59.816" fill="#FFF" rx="16.786"/>
      <rect width="138.293" height="5.15" x="17.691" y="16.402" fill="#2577FF" opacity=".24" rx="2.57"/>
      <rect width="97.33" height="4.867" x="17.691" y="30.626" fill="#2577FF" opacity=".24" rx="2.095"/>
    </g>
    <g transform="translate(213.622 301.653)">
      <path fill="#E89B00" d="M57.9668384,38.0983383 C60.4837352,42.5734749 66.2290814,44.1141921 70.8041882,41.5443699 C75.3734144,38.9686671 77.0317436,33.2586045 74.5148468,28.7834679 C72.0038306,24.3083313 66.2467232,22.7676141 61.6833776,25.3433169 C57.1082708,27.9072585 55.4499416,33.6232017 57.9668384,38.0983383"/>
      <path fill="#E89B00" d="M53.9009915,50.218843 C57.0823961,55.864219 64.3390565,57.8165782 70.1138057,54.570487 C75.8826743,51.3185152 77.9879291,44.1088996 74.8065245,38.457643 C71.6310005,32.8063864 64.3684595,30.8599078 58.5995909,34.105999 C52.8248417,37.3520902 50.7254675,44.5675864 53.9009915,50.218843"/>
      <path fill="#C79987" d="M64.6289701,62.4881268 C64.6289701,62.4881268 65.0758957,64.0229634 57.7016233,66.3634422 C50.3273509,68.703921 38.9366287,70.321086 38.9366287,70.321086 L55.4375923,63.3290526 C55.4375923,63.3290526 61.8650881,60.9532902 64.6289701,62.4881268"/>
      <path fill="#C79987" d="M44.9024974,69.0202973 C41.4329434,70.2434621 40.556734,72.5016125 39.3747334,73.5307175 C38.1809716,74.5480613 37.0930606,75.8653157 37.0930606,75.8417933 C37.3459264,74.0893745 38.4514792,73.6483295 38.8454794,72.9720605 C39.233599,72.2957915 39.174793,72.5839409 37.910464,72.9308963 C37.1871502,73.1249561 36.3873886,74.7950465 35.734642,75.7947485 C35.1818656,76.6591967 34.7114176,76.8767789 34.7114176,76.8767789 C34.7114176,76.8767789 35.1701044,75.3125393 35.9581048,73.9011953 C36.9225232,72.2017019 38.2633,70.5727757 38.616136,70.2728651 C39.2571214,69.7259693 41.5446748,68.8262375 43.2794518,68.4616403 C45.231811,68.0558789 47.4017524,68.1382073 44.9024974,69.0202973"/>
      <path fill="#C79987" d="M38.8266615,70.2781576 C38.8266615,70.2781576 36.4097349,71.8835614 36.0627795,72.4010542 C35.8216749,72.7597708 34.9748685,74.6650852 34.9748685,74.6650852 C34.9748685,74.6650852 35.9040033,74.153473 36.2862423,73.4125174 C36.6743619,72.6715618 38.8266615,70.2781576 38.8266615,70.2781576"/>
      <path fill="#60DADB" d="M60.3214306,60.4522631 C60.3214306,60.4522631 67.1782102,58.4940233 68.1308674,62.6398463 C68.6718826,64.9920863 67.4193148,66.3211019 65.3375824,66.8797589 C61.4563864,67.9088639 56.993011,68.8791629 56.993011,68.8791629 L52.8883522,63.3690407 L60.3214306,60.4522631 Z"/>
      <path fill="#60DADB" d="M59.7245497,57.020933 L60.5360725,37.9031024 C60.5360725,37.9031024 60.1009081,32.939876 61.9003717,32.9339893 C64.4937163,32.9281148 65.2346719,37.1915498 65.5581049,38.7205058 C66.1990903,41.8313432 66.9341653,43.0309856 67.3516879,50.934512 C67.6104343,55.81541 68.2808227,61.3020098 68.1690913,64.6127876 C68.0867629,66.8885798 65.7286423,64.4951756 63.4234471,64.4187278 C59.1070867,64.2658322 59.7245497,57.020933 59.7245497,57.020933"/>
      <polygon fill="#FFC4AD" points="21.167 112.731 15.634 126.874 6.836 127.592 2.338 126.951 11.77 124.11 16.145 111.026"/>
      <g transform="translate(0 123.593)">
        <mask id="icon_empty_quickstart_2-v" fill="#fff">
          <use xlink:href="#icon_empty_quickstart_2-u"/>
        </mask>
        <path fill="#0061E8" d="M14.7926493,5.51384658 L13.6047681,5.30802558 L12.8638125,3.92020398 L5.7835701,4.65527898 L-0.0029403,3.93196518 C-0.0029403,3.93196518 0.0911493,3.48503958 0.3440151,3.32626338 C1.3319559,2.72644218 5.7482865,2.20306878 5.7482865,2.20306878 C5.7482865,2.20306878 5.3601669,3.46151718 5.8717791,3.69086058 C6.3951525,3.92020398 11.8582299,3.26157678 13.1637231,2.99106918 C15.4042317,2.53826298 16.5450681,1.90315818 16.4627397,2.20894938 C16.3451277,2.65587498 14.7926493,5.51384658 14.7926493,5.51384658" mask="url(#icon_empty_quickstart_2-v)"/>
      </g>
      <path fill="#F6AB40" d="M54.6590009,82.6597609 L33.8710799,83.3360299 L20.4103865,118.096257 L13.8652787,115.949838 L26.5320911,74.3269507 C26.5320911,74.3269507 27.5788379,71.6806807 33.8475575,71.3102029 C39.9457397,70.9456057 64.5325283,68.8168285 67.3728581,69.4284109 C74.1179063,70.8867997 53.1888509,77.1084745 54.6590009,82.6597609"/>
      <path fill="#E89B00" d="M66.0932395,25.5162065 C68.6160169,29.9913431 74.3554825,31.5320603 78.9305893,28.9622381 C83.4998155,26.3924159 85.1640253,20.6764727 82.6471285,16.2072167 C80.1302317,11.7261995 74.3790049,10.1854823 69.8097787,12.7553045 C65.2405525,15.3310073 63.5704621,21.0410699 66.0932395,25.5162065"/>
      <path fill="#E89B00" d="M56.23853,23.1069247 C58.1732474,26.5411951 62.5248914,27.7643599 65.9591618,25.8237619 L65.8591916,21.9954913 C69.293462,20.0607739 70.5166268,15.7032493 68.5819094,12.2689789 L67.264655,9.93438072 C65.3299376,6.50011032 60.9782936,5.27694552 57.5440232,7.21166292 L55.9856642,8.08787232 C52.5455132,10.0225897 51.328229,14.3801143 53.2570658,17.8143847 L56.23853,23.1069247 Z"/>
      <path fill="#FFC4AD" d="M53.5740302,12.5518358 C53.9033438,13.122254 54.2855828,13.680911 54.708986,14.2278068 C57.59048,17.8620176 61.7304224,19.532108 64.5942746,18.414794 C65.6939468,20.178974 66.970037,21.6020792 68.1873212,22.737035 C69.5692622,24.0366476 72.350786,24.6658718 72.350786,24.6658718 C74.3678318,27.2004104 73.7738912,34.8863546 67.1523356,36.0683552 C63.1711694,36.7740272 63.7415876,32.5047116 64.9823942,29.793755 C65.5704542,28.5117842 66.1114694,27.0533954 65.9291708,26.3712458 C65.2764242,23.9660804 64.3708118,23.6896922 62.8947812,22.9487366 C60.4249292,22.031363 58.2902714,23.2721696 58.2902714,23.2721696 C58.0844504,23.383901 57.8492264,23.4015428 57.6316442,23.3309756 C57.2788082,22.9957814 56.9612558,22.5959006 56.7025094,22.1430944 L53.8210154,17.0093306 C53.0212538,15.592106 52.9859702,13.9514186 53.5740302,12.5518358"/>
      <path fill="#194866" d="M78.221977,74.5392404 C78.221977,74.5392404 75.2169904,75.3448826 74.3937064,75.7153604 C73.2881536,76.2034502 69.9538534,75.8623754 69.9538534,75.8623754 C69.9538534,75.8623754 68.5660318,59.578994 67.431076,53.9394986 C66.2961202,48.2941226 64.7318806,46.8357338 64.637791,45.053912 C64.490776,42.2077016 64.6789552,41.5314326 65.0553136,39.2968046 C65.4199108,37.056296 63.7792234,34.2100856 64.314358,34.7393396 C65.167045,35.5979072 68.2720018,36.8269526 70.90063,33.5455778 C71.3475556,32.9810402 78.221977,74.5392404 78.221977,74.5392404"/>
      <path fill="#3DC7C9" d="M64.6401433,28.0860287 C64.6401433,28.0860287 60.7471861,32.5023593 61.0000519,33.8607779 C61.2411565,35.2250771 61.1647087,40.9998263 62.4760825,47.0744861 C63.7874563,53.1491459 64.6401433,54.6251765 65.0635465,59.0885519 C65.4869497,63.5578079 64.5107701,64.6104353 65.2164421,70.0852739 C65.7515767,74.3663507 66.6571891,78.1240541 66.6571891,78.1240541 C66.6571891,78.1240541 68.6448319,78.5592185 70.0208923,76.8714863 C71.4028333,75.1837541 69.9797281,60.2529107 69.2211307,56.6069387 C68.4625333,52.9550861 65.7280543,43.4167529 65.7104125,40.8469307 C65.6868901,38.2712279 66.1514575,32.0965979 66.5572189,31.2615527 C67.5686821,29.1857009 64.9870987,28.2742079 64.6401433,28.0860287"/>
      <path fill="#60DADB" d="M64.6060358,27.7014375 C64.6060358,27.7014375 64.8471404,28.0483929 65.147051,28.2306915 C65.705708,28.5658857 66.4290218,29.2597965 66.4290218,29.2597965 C66.4290218,29.2597965 65.5763348,28.9128411 65.3058272,29.6420355 C64.970633,30.5417673 64.8471404,32.5411713 64.8471404,32.5411713 C64.8471404,32.5411713 63.1652888,30.1066029 63.4828412,29.2833189 C64.0532594,27.7896465 64.6060358,27.7014375 64.6060358,27.7014375"/>
      <path fill="#E89B00" d="M70.8653464,37.2974006 C72.7588996,42.319433 78.4454398,44.818688 83.5674424,42.8898512 C88.7012062,40.9551338 91.3180732,35.321519 89.42452,30.2994866 C87.5368474,25.2892154 81.8444266,22.7840798 76.722424,24.707036 C71.5945408,26.6417534 68.9717932,32.2753682 70.8653464,37.2974006"/>
      <polygon fill="#FFC4AD" points="41.819 114.52 42.083 124.182 40.249 126.611 35.197 129.939 31.275 129.463 37.808 123.959 37.714 113.815"/>
      <path fill="#0061E8" d="M41.8986869,126.310279 L40.2168353,127.668697 L39.6464171,127.280578 L34.9831013,130.6384 C34.9831013,130.6384 30.6314573,132.055625 29.7199643,131.102968 C29.4259343,130.797176 30.1022033,130.214997 31.0430993,129.426997 C31.7899355,128.803653 32.2486223,128.544907 32.2486223,128.544907 C32.2486223,128.544907 32.4956075,129.291743 34.2597875,129.474041 C34.8243251,129.532847 38.1527447,127.039473 39.3112229,126.374965 C41.3811941,125.181203 42.1397915,123.634606 42.2574035,123.769859 C42.5573141,124.122695 41.8986869,126.310279 41.8986869,126.310279"/>
      <path fill="#FEC12F" d="M79.8932435,61.2561411 L77.7350633,67.3190397 L73.4598671,68.1011595 L38.8642973,72.3704751 C38.8642973,72.3704751 35.6946539,71.5942359 34.0069217,76.6221489 C31.6076369,83.7788391 37.3647443,118.550827 37.3647443,118.550827 L42.4985081,118.162707 L43.3217921,85.0137651 C43.3217921,85.0137651 77.0529137,88.8773193 86.4912767,85.3548399 C90.1137263,84.0023019 92.5482947,77.3219403 91.6309211,70.7709519 C90.9134879,65.6371881 87.1851875,61.0973649 87.1851875,61.0973649 L79.8932435,61.2561411 Z"/>
      <path fill="#3DC7C9" d="M75.9020803,73.9594132 C75.9020803,73.9594132 73.4263477,59.4931372 72.1032127,52.6539994 C70.7859583,45.8207422 70.2978685,34.2477214 69.9920773,32.5952728 C69.6804055,30.9545854 68.6748229,28.6141066 68.6748229,28.6141066 C68.6748229,28.6141066 70.1273311,24.756433 72.3266755,24.750537 C74.2613929,24.7446718 80.4595453,26.4206428 83.4762931,27.4438672 C85.5697867,28.1495392 85.8696973,51.424954 86.1225631,52.6363576 C87.0458173,57.0056434 89.5039081,61.9277056 91.1151925,65.3384536 C92.4030439,68.0435296 93.5085967,72.1305466 93.5085967,72.1305466 C93.5085967,72.1305466 82.3060537,71.4836806 75.9020803,73.9594132"/>
      <path fill="#60DADB" d="M71.8474066,23.6297101 L70.3243312,25.5761887 C70.3243312,25.5761887 68.224957,28.8634441 68.9423902,28.3753543 C69.8480026,27.7578913 71.1240928,30.9863407 71.1240928,30.9863407 L73.7938852,24.5764867 L71.8474066,23.6297101 Z"/>
      <path fill="#FFC4AD" d="M87.2551667,58.227044 C87.2551667,58.227044 89.9073173,59.873612 80.3631035,61.431971 C70.8188897,62.99033 56.4584645,63.1255838 56.4584645,63.1255838 L78.1696397,57.668387 C78.1696397,57.668387 84.1502099,56.080625 87.2551667,58.227044"/>
      <path fill="#FFC4AD" d="M64.0661967,62.5398761 C59.5498959,63.4102049 58.0268205,65.8330121 56.3567301,66.8150723 C54.6925203,67.7971325 53.0929971,69.1143869 53.0988777,69.0967451 C53.7516243,67.1502665 55.2041325,66.8150723 55.8215955,66.1094003 C56.4390585,65.4037283 56.3038047,65.7212807 54.6748785,65.9212211 C53.7516243,66.0329525 52.4343699,67.8088937 51.4405485,68.8379987 C50.5761003,69.7318499 49.9645179,69.9082679 49.9645179,69.9082679 C49.9645179,69.9082679 50.8289661,68.2087745 52.0874145,66.7268633 C53.6046093,64.9509221 55.5922521,63.3161153 56.0744613,63.0279659 C56.9741931,62.4987119 59.9732991,61.8224429 62.1785241,61.6754279 C64.6660179,61.4990099 67.3240491,61.9165325 64.0661967,62.5398761"/>
      <path fill="#FFC4AD" d="M56.3302674,63.0626614 C56.3302674,63.0626614 53.0371314,64.5210502 52.513758,65.0561848 C52.1432802,65.4266626 50.7142944,67.449589 50.7142944,67.449589 C50.7142944,67.449589 51.9668622,67.008544 52.5902058,66.2264242 C53.2135494,65.450185 56.3302674,63.0626614 56.3302674,63.0626614"/>
      <path fill="#60DADB" d="M81.4204354,55.8406966 L77.045269,34.8763576 C77.045269,34.8763576 77.5627618,30.4717882 78.8270908,28.901668 C80.3207632,27.0375178 83.4021976,27.3844732 83.4021976,27.3844732 C83.4021976,27.3844732 87.1540204,30.1013104 88.4007076,46.8316174 C89.2533946,58.2811456 90.5882908,62.9327002 85.6779898,63.71482 C81.0911218,64.4557756 75.8515072,65.0555968 75.8515072,65.0555968 L71.9467888,58.3458322 L81.4204354,55.8406966 Z"/>
      <polygon fill="#CDD5D7" points="56.066 69.445 25.763 71.239 25.728 70.61 56.031 68.822"/>
      <path fill="#CDD5D7" d="M42.6566963,69.5777782 C42.6802187,70.0599874 42.3567857,70.4716294 41.9392631,70.4951518 L26.3968373,71.4125254 C25.9734341,71.4419284 25.3794935,71.1714208 24.7973141,69.9717784 L16.2822053,56.3993536 C16.2469217,55.7877712 16.6997279,55.393771 17.1231311,55.4702188 L33.1007213,54.9997708 C33.5241245,55.0762186 33.8946023,55.3820098 34.1709905,56.0053534 L42.6566963,69.5777782 Z"/>
      <path fill="#FFC4AD" d="M40.8137162,70.3469606 L40.9666118,70.34108 L56.1385598,69.4413482 C55.6151864,69.7589006 54.7154546,70.0058858 53.6922302,70.0646918 L41.0018954,70.8174086 L40.8431192,70.8291698 L28.1527844,71.576006 C27.1177988,71.6406926 26.2004252,71.4995582 25.6358876,71.2466924 L40.8137162,70.3469606 Z"/>
      <g transform="translate(93.12 .1)">
        <mask id="icon_empty_quickstart_2-x" fill="#fff">
          <use xlink:href="#icon_empty_quickstart_2-w"/>
        </mask>
        <path fill="#B3DDFF" d="M11.6858293,0.77055462 C10.4038585,0.77055462 9.36299232,1.81142082 9.36299232,3.09927222 L9.36299232,9.29154402 L0.06576372,9.29154402 L9.36299232,23.2403272 L9.36299232,59.570674 C9.36299232,60.8526448 10.4038585,61.893511 11.6858293,61.893511 L94.2729757,61.893511 C95.5549465,61.893511 96.5958127,60.8526448 96.5958127,59.570674 L96.5958127,3.09927222 C96.5958127,1.81142082 95.5549465,0.77055462 94.2729757,0.77055462 L11.6858293,0.77055462 Z" mask="url(#icon_empty_quickstart_2-x)"/>
      </g>
      <polygon fill="#2C7EEA" points="117.694 19.944 175.542 19.944 175.542 17.362 117.694 17.362"/>
      <polygon fill="#2C7EEA" points="117.694 28.206 175.542 28.206 175.542 25.624 117.694 25.624"/>
      <polygon fill="#2C7EEA" points="117.694 36.468 175.542 36.468 175.542 33.887 117.694 33.887"/>
      <polygon fill="#2C7EEA" points="117.694 44.736 175.542 44.736 175.542 42.155 117.694 42.155"/>
    </g>
    <g transform="translate(526.165 207.999)">
      <path fill="#194866" d="M31.8948934,77.9175144 C31.8948934,77.9175144 58.2434662,77.9715288 68.4103702,78.1283448 C75.4470526,78.2320176 76.0899982,68.2027632 73.3126126,66.69036 C64.8881086,62.1052344 38.5996486,59.7495096 38.5996486,59.7495096 L20.7130414,76.173372 C20.7130414,76.173372 21.7201486,76.1463648 31.8948934,77.9175144"/>
      <path fill="#4F70D6" d="M56.7359417,24.1548912 C56.7359417,24.1548912 63.5095217,22.2574176 66.4567913,31.1044536 C70.9835465,44.6760072 70.5845369,57.1298112 69.9537881,59.7826152 C69.6654209,61.0040376 68.7933497,65.2232592 61.2252353,65.3844312 C58.1568689,65.4523848 59.3826473,58.8730824 59.3826473,58.8730824 C59.3826473,58.8730824 57.4163489,53.2904328 55.3184993,43.838784 C53.2223921,34.386264 56.7359417,24.1548912 56.7359417,24.1548912"/>
      <path fill="#4F70D6" d="M62.0959126,24.9171912 L44.7250558,19.301436 L31.5716782,18.417168 L17.1646438,22.7766528 C17.1646438,22.7766528 12.4505806,26.0244864 16.8283606,36.4693032 C21.2070118,46.9132488 19.5238534,63.2787408 19.5238534,63.2787408 L56.6909878,64.4696712 C56.6909878,64.4696712 57.393175,49.3421544 59.8569286,34.2094104 C60.4083982,30.831768 60.4763518,26.859096 62.0959126,24.9171912"/>
      <path fill="#B8C9FF" d="M36.5988506,63.7400412 L38.4928394,63.7400412 C40.4722058,49.1317596 40.3807298,34.0591284 38.1975026,19.5066036 C37.6277378,19.8446292 37.0588442,20.1861396 36.4847234,20.5241652 C36.9647546,35.412102 36.1466978,50.2974252 36.5988506,63.7400412"/>
      <path fill="#E2C59C" d="M43.9844486,23.3934624 C43.7257022,25.404192 42.0843614,27.1457208 40.3611278,27.2276136 L35.4510446,27.2276136 C33.7260686,27.1457208 32.0821142,25.404192 31.8277238,23.3934624 C31.4243582,20.0794176 31.0236062,16.7714712 30.6202406,13.4539416 C30.3536534,11.4684768 31.532387,7.4818656 34.1451158,6.3040032 C36.5356886,5.2559496 39.2756126,5.2559496 41.664443,6.3040032 C44.2789142,7.4818656 45.4576478,11.4684768 45.1893182,13.4539416 C44.7868238,16.7714712 44.3860718,20.0794176 43.9844486,23.3934624"/>
      <polygon fill="#B8C9FF" points="37.711 27.476 34.592 32.587 28.877 25.44 29.777 21.686 31.632 20.163 31.656 22.992"/>
      <polygon fill="#B8C9FF" points="38.089 27.476 41.204 32.587 46.523 25.932 45.648 21.849 44.316 20.13 43.777 23.476"/>
      <path fill="#163F59" d="M37.1620814,0.00034848 C35.7847142,0.00034848 34.5754886,0.70427808 33.8767862,1.77585408 L32.525555,1.77585408 C30.8450102,1.77585408 29.480711,3.13928208 29.480711,4.82156928 L29.480711,12.3426389 L31.6256054,12.3426389 L31.6256054,9.28124208 C31.6256054,8.10163728 32.5847966,7.14244608 33.7661438,7.14244608 L35.0145734,7.14244608 L33.0343358,7.14244608 L34.3454918,7.14244608 C36.515651,7.14244608 38.2728614,5.38175088 38.2728614,3.21072048 L38.2728614,0.00034848 L37.1620814,0.00034848 Z"/>
      <path fill="#E2C59C" d="M33.3658274,15.1417174 C33.3658274,16.1732182 32.5329602,17.0052142 31.4988458,17.0052142 L31.3455146,17.0052142 C30.3166274,17.0052142 29.4802754,16.1732182 29.4802754,15.1417174 L29.4802754,12.8800822 C29.4802754,11.8564222 30.3166274,11.0174566 31.3455146,11.0174566 L31.4988458,11.0174566 C32.2628882,11.0174566 32.915417,11.4730942 33.2090114,12.1264942"/>
      <path fill="#163F59" d="M35.4911198,2.98577664 L35.4911198,0.00017424 L36.7264814,0.00017424 L39.9804134,0.00017424 L41.943227,0.00017424 C44.116871,0.00017424 45.8740814,1.76086944 45.8740814,3.92841504 L45.8740814,6.91488864 L44.6369774,6.91488864 L41.3865302,6.91488864 L39.4193606,6.91488864 C37.251815,6.91488864 35.4911198,5.15593584 35.4911198,2.98577664"/>
      <path fill="#E9D6B8" d="M45.3211142,18.00117 C45.3140741,19.5632316 44.1187877,22.209066 42.1411637,23.0436756 C39.4535117,24.1544556 36.2666621,24.1544556 33.5807525,23.0436756 C31.5979013,22.209066 30.4121981,19.5632316 30.4017,18.00117 L30.4017,4.6970748 C30.3921605,3.1271724 31.9611917,1.8046908 33.8952557,1.7637444 L41.8284029,1.7637444 C43.7615957,1.8029484 45.3332405,3.12543 45.3211142,4.6970748 L45.3211142,18.00117 Z"/>
      <path fill="#163F59" d="M39.3868649,0.00034848 C40.7651033,0.00034848 41.9734577,0.70427808 42.6739025,1.77585408 L44.0242625,1.77585408 C45.7021937,1.77585408 47.0673641,3.13928208 47.0673641,4.82156928 L47.0673641,12.3426389 L44.9242121,12.3426389 L44.9242121,9.28124208 C44.9242121,8.10163728 43.9650209,7.14244608 42.7828025,7.14244608 L42.7627649,7.14244608 L43.5154817,7.14244608 L40.0472345,7.14244608 C37.8753329,7.14244608 36.1189937,5.38175088 36.1189937,3.21072048 L36.1189937,0.00034848 L39.3868649,0.00034848 Z"/>
      <path fill="#E9D6B8" d="M43.2128268,12.8786882 C43.2128268,11.8471874 44.0465652,11.0169338 45.078066,11.0169338 L45.2340108,11.0169338 C46.2637692,11.0169338 47.0975076,11.8471874 47.0975076,12.8786882 L47.0975076,15.1420658 C47.0975076,16.1683394 46.2637692,17.0046914 45.2340108,17.0046914 L45.078066,17.0046914 C44.3166372,17.0046914 43.6588812,16.5481826 43.3713852,15.8973962"/>
      <path fill="#163F59" d="M36.1189937,3.7557432 C36.1660385,3.50658 36.1921745,3.2513184 36.1921745,2.9856024 L36.1921745,0 L34.9559417,0 L33.4139177,0 C31.2385313,0 29.4804497,1.7606952 29.4804497,3.9282408 L29.4804497,6.9147144 L30.3002489,6.9147144 L30.7192961,6.9147144 L32.2648049,6.9147144 C32.5418465,6.9147144 32.8127897,6.8859648 33.0715361,6.8293368 C33.3790697,5.2942824 34.5821969,4.0798296 36.1189937,3.7557432"/>
      <path fill="#161711" d="M1.61982216,128.293957 C1.21732776,128.783572 1.51179336,130.077304 1.51179336,130.077304 C1.51179336,130.077304 8.60510376,130.864869 10.8859054,130.330823 C11.4791926,130.193173 12.482815,129.679165 13.4245822,129.141635 C13.5831406,129.050159 13.8662806,128.503045 14.020483,128.415054 C14.3062366,128.240814 14.451727,128.525697 14.6965342,128.374108 C15.327283,127.977712 15.775951,127.667565 15.7820494,127.626618 C16.403215,124.371815 15.575575,123.065015 15.575575,123.065015 C15.575575,123.065015 9.53641656,121.055157 8.40559896,122.452561 C5.74146936,125.751796 2.50757496,127.217154 1.61982216,128.293957"/>
      <g transform="translate(67.082 120.858)">
        <mask id="icon_empty_quickstart_2-z" fill="#fff">
          <use xlink:href="#icon_empty_quickstart_2-y"/>
        </mask>
        <path fill="#161711" d="M0.82180296,3.89827152 L1.31403096,9.25615152 L6.67713816,9.77887152 C6.67713816,9.77887152 7.04826936,9.06274512 7.50390696,9.10543392 C7.88287896,9.14376672 8.30715336,9.93917232 8.82464616,9.98970192 C9.95285016,10.1038291 11.2056358,10.2214411 11.7057046,10.2702283 C12.713683,10.3695451 22.4676382,11.3252515 22.4676382,11.3252515 C22.4676382,11.3252515 22.819603,10.2432211 22.5608566,9.83201472 C22.4266918,9.62554032 21.5633326,9.18994032 20.9839846,8.96517072 C18.2876206,7.91711712 10.5984094,4.71197232 9.47804616,1.92935952 C8.11461816,-1.45786608 0.82180296,3.89827152 0.82180296,3.89827152" mask="url(#icon_empty_quickstart_2-z)"/>
      </g>
      <path fill="#E9D6B8" d="M59.7970771,56.9321359 L41.6586931,64.3364647 C41.6586931,64.3364647 54.5245747,66.1703407 62.5648795,64.5368407 C68.0029099,63.4199623 60.0418843,56.6969119 59.7970771,56.9321359"/>
      <path fill="#194866" d="M18.6312218,68.2126078 C18.6312218,68.2126078 16.8844658,84.7715062 17.1301442,93.5288086 C17.3235506,100.131633 17.3409746,112.785813 15.7693298,123.570398 C15.6726266,124.234253 7.23679704,123.736797 7.23679704,123.736797 C7.23679704,123.736797 4.21111944,82.6832398 3.30942744,75.9227278 C2.41557624,69.158731 5.02656264,64.2808822 18.6312218,68.2126078"/>
      <path fill="#163F59" d="M71.6825102 72.2053174C71.6825102 72.2053174 68.963495 76.4977198 61.510379 77.5144102 58.814015 77.8820566 65.8567958 125.569802 65.8567958 125.569802L76.8722486 122.043185 74.7430358 69.3042214 71.6825102 72.2053174zM41.293399 77.5142359C41.293399 77.5142359 26.8933342 79.5693967 17.278771 80.5773751 13.7556382 80.9458927 10.7038246 71.0786815 10.296103 70.6517935 7.72170696 67.9580431 5.18128776 68.3021671 5.26840776 68.2028503 7.35493176 65.9525407 18.1377742 63.8616607 29.410231 61.2158263 40.6783318 58.5760903 42.3963382 60.2392111 42.3963382 60.2392111L41.293399 77.5142359z"/>
      <path fill="#194866" d="M29.4105794,61.2158263 C18.1381226,63.8616607 7.35528024,65.9525407 5.26875624,68.2028503 C5.18076504,68.3021671 7.72118424,67.9580431 10.2964514,70.6517935 C10.4053514,70.7711479 11.057009,73.9336039 11.5204874,75.0644215 C9.68399784,71.7556039 36.1684778,62.4198247 41.8922618,60.0013735 C40.8241706,59.6616055 37.7078882,59.2704367 29.4105794,61.2158263"/>
      <polygon fill="#163F59" points="17.033 77.39 15.931 109.617 14.829 117.091 14.706 109.617 14.95 104.959 12.378 97.733 11.029 80.946 12.991 81.682 12.745 74.33"/>
      <path fill="#194866" d="M71.3132957,68.2024147 L74.0053037,68.9385787 L74.9888885,107.653836 L69.3522245,121.50156 L72.0477173,112.066464 L70.9439069,92.5838179 C70.9439069,92.5838179 67.0208933,102.017172 67.0208933,101.531913 C67.0208933,101.0362 70.3323245,81.0656827 70.3323245,81.0656827 C70.3323245,81.0656827 66.6549893,84.1331779 67.0208933,84.0059827 C67.3902821,83.8848859 69.2285141,70.0389043 71.3132957,68.2024147"/>
      <path fill="#4F70D6" d="M25.1277602,22.9339915 C25.1277602,22.9339915 19.337765,18.3985243 13.674965,26.8160587 C5.37504264,39.1496371 1.77001704,52.2777499 0.45014904,56.0709547 C-0.55521576,58.9851187 0.000413743876,67.2179587 3.39132024,70.6104115 C4.21111944,71.4275971 9.10900584,70.7707123 9.10900584,70.7707123 L12.328961,68.5500235 L10.9812146,65.9608171 L10.9080338,63.9152395 C10.9080338,63.9152395 15.020969,53.9922715 20.0721866,44.6094475 C25.1277602,35.2318507 25.1277602,22.9339915 25.1277602,22.9339915"/>
      <path fill="#E9D6B8" d="M10.9766844,60.6499819 L29.7693396,61.6283395 C29.7693396,61.6283395 11.667546,69.9369739 11.0690316,68.5064635 C7.67745,60.3947203 10.9766844,60.6499819 10.9766844,60.6499819"/>
      <path fill="#E9D6B8" d="M21.3145178,60.0715051 C22.4157146,59.5444291 22.312913,59.5348459 22.312913,59.5348459 C22.312913,59.5348459 23.3208914,60.7283899 24.7723106,60.9522883 C25.4945354,61.0603171 27.8267378,61.0942939 27.8267378,61.0942939 L31.2880154,61.1761867 L32.8927658,61.0873243 C32.8927658,61.0873243 33.799685,60.9679699 34.039265,61.1247859 C34.740581,61.5708403 34.1420666,61.9323883 34.1420666,61.9323883 L27.9391226,62.8096867 L33.899873,63.5493355 C33.899873,63.5493355 34.649105,63.7732339 34.683953,64.1774707 C34.7161874,64.5547003 34.4678954,64.5433747 34.4678954,64.5433747 L27.5427266,65.2847659 L30.5797298,66.0061195 C30.5797298,66.0061195 31.3054394,66.2413435 31.3577114,66.6342547 C31.4221802,67.0602715 31.4465738,67.1804971 31.4465738,67.1804971 L25.0798442,66.5575891 C25.0798442,66.5575891 20.2168058,60.6003235 21.3145178,60.0715051"/>
      <path fill="#E9D6B8" d="M28.1896798,63.9085313 L32.3601142,64.6682177 C32.3601142,64.6682177 33.3079798,64.7361713 33.7305118,65.0410913 C34.2175126,65.3921849 33.9300166,65.8216865 33.9300166,65.8216865 L27.5432494,65.2850273 L28.1896798,63.9085313 Z"/>
      <path fill="#B6C2C9" d="M54.3206268,67.1839819 C54.325854,67.1683003 54.3328236,67.1587171 54.3415356,67.1482627 L54.3206268,65.9625595 L17.291142,65.9625595 L17.291142,67.1482627 C17.291142,67.1482627 17.2850436,67.1683003 17.291142,67.1839819 L17.4192084,67.4070091 C18.0482148,68.4376387 19.1807748,68.6171059 20.4736356,68.6171059 L51.137262,68.6171059 C52.4301228,68.6171059 53.5618116,68.4376387 54.1934316,67.4070091 L54.3206268,67.1839819 Z"/>
      <polygon fill="#879BA6" points="23.555 67.075 48.073 67.075 48.073 66.237 23.555 66.237"/>
      <path fill="#E4EEF3" d="M54.2976271,66.0933266 L54.3943696,41.8086266 C54.3995575,41.1735218 53.8820647,40.6542866 53.2417327,40.6542866 L18.5836543,40.6542866 C17.9433223,40.6542866 17.4232159,41.1735218 17.4188599,41.8086266 L17.3204143,66.0933266 L54.2976271,66.0933266 Z"/>
      <path fill="#B6C2C9" d="M38.1063893,53.3715415 C38.0976631,54.6095167 37.0888135,55.6166239 35.8508383,55.6166239 C34.6128631,55.6166239 33.6127255,54.6095167 33.6170673,53.3715415 C33.6231799,52.1335663 34.6285447,51.1299439 35.8717471,51.1299439 C37.1088511,51.1299439 38.1107311,52.1335663 38.1063893,53.3715415"/>
      <polygon fill="#88A0EA" points="8.536 70.039 7.247 61.799 9.388 59.599 14.136 60.357 13.164 69.475"/>
      <polygon fill="#88A0EA" points="66.161 64.126 66.655 61.095 60.654 55.704 57.403 57.174 61.651 65.304"/>
    </g>
    <g transform="matrix(-1 0 0 1 149.37 263.538)">
      <g transform="translate(19.058 86.802)">
        <mask id="icon_empty_quickstart_2-B" fill="#fff">
          <use xlink:href="#icon_empty_quickstart_2-A"/>
        </mask>
        <path fill="#7AC7FF" d="M32.2527605,22.1951268 C8.60392764,42.5348154 -2.00500146,72.4497543 1.11814164,101.520827 C29.3994716,108.964687 60.5653448,102.949377 84.2126531,82.6074018 C107.863011,62.2692378 118.475751,32.3565858 115.349559,3.2809392 C87.0689912,-4.1636826 55.903118,1.8569628 32.2527605,22.1951268" mask="url(#icon_empty_quickstart_2-B)"/>
      </g>
      <path stroke="#FFF" stroke-width="1.477" d="M125.092515 97.467678L24.2036348 184.238762M104.384636 115.486697L126.725362 118.789743M87.1807444 130.280882L114.719594 134.350039M69.9813507 145.075752L116.012836 151.882329M52.776011 159.872072L97.5618983 166.497221M35.5751689 174.665494L60.5115265 178.355788M106.201806 113.398605L106.277274 90.8185163M89.0001258 128.194924L89.1144708 92.9858114M71.7963107 142.991319L71.9449592 98.9166578M54.5983654 157.786952L54.7462516 112.513955M37.3915773 172.582586L37.5211683 133.69004"/>
      <path fill="#B5D4FF" d="M23.1951882,116.559482 C24.3424497,80.0315901 36.7824234,52.0643277 47.0170632,35.0383572 C58.1138643,16.5762135 69.0986073,6.6099033 69.2099031,6.5115666 L70.0972203,7.4972205 C69.9882114,7.5970818 59.1208626,17.4589569 48.126972,35.7663537 C37.9860951,52.652061 25.6589418,80.3830104 24.5208279,116.601408 L23.1951882,116.559482 Z"/>
      <path fill="#B5D4FF" d="M68.2222672 8.10294408C68.2222672 8.10294408 69.2132572 3.92249088 72.4690405 1.21708818 73.646794.23524578 76.4238529-.56898072 77.3348014.52644438 78.2487991 1.62263178 77.4864991 3.75783408 75.7720864 5.18485968 72.5163031 7.89483618 68.2222672 8.10294408 68.2222672 8.10294408M63.4087238 13.6519545C63.4087238 13.6519545 66.3077507 11.1432252 70.1398328 10.7849442 71.5256942 10.6561155 74.0207021 11.4214647 74.1335225 12.6457185 74.2493921 13.8684477 72.5753813 15.0271437 70.5568109 15.2177187 66.7254911 15.5759997 63.4087238 13.6519545 63.4087238 13.6519545M56.0895004 23.7657697C56.0895004 23.7657697 58.8894283 21.6275182 62.1421624 21.8539213 63.3199159 21.9392989 65.2813138 23.1239131 65.1898378 24.4076263 65.1006487 25.6882903 63.5257369 26.6243947 61.8166603 26.5024267 58.5646885 26.2775482 56.0895004 23.7657697 56.0895004 23.7657697"/>
      <path fill="#B5D4FF" d="M64.022909 13.5908942C64.022909 13.5908942 61.0186847 11.7949154 60.0330308 8.70760044 59.677799 7.58778174 60.0505637 5.34280824 61.2656699 4.95555984 62.4823007 4.56831144 63.9268591 5.67288414 64.4444608 7.29887004 65.4270656 10.3854227 64.022909 13.5908942 64.022909 13.5908942M28.0720024 82.9319129C28.0720024 82.9319129 24.5555125 82.2298346 22.2083908 79.5854159 21.3607132 78.6279671 20.6151838 76.3334441 21.510124 75.5398898 22.4027773 74.7509093 24.2040922 75.3233966 25.4390182 76.7153564 27.7861399 79.3559636 28.0720024 82.9319129 28.0720024 82.9319129M55.4820235 23.2789649C55.4820235 23.2789649 52.2094696 20.9524253 51.0050356 17.1798026 50.5697623 15.813761 50.8464772 13.1243666 52.1126575 12.718823 53.3773132 12.3193778 54.9613726 13.7273459 55.5940816 15.7154243 56.8000402 19.4895716 55.4820235 23.2789649 55.4820235 23.2789649M47.7682336 34.1402153C47.7682336 34.1402153 44.1930466 32.3335643 43.1464087 29.0366168 42.7652587 27.8390435 43.3217377 25.3943474 44.8219441 24.9125738 46.3221505 24.4361363 48.0205549 25.5666272 48.5739847 27.3031466 49.6251964 30.602381 47.7682336 34.1402153 47.7682336 34.1402153M48.7314759 34.4707486C48.7314759 34.4707486 51.3621732 31.534369 54.9015321 31.2157276 56.1852453 31.1021449 58.5102603 32.0992333 58.6398513 33.5780953 58.7740161 35.0600065 57.2509407 36.4031791 55.3855926 36.5685982 51.8424222 36.8902888 48.7314759 34.4707486 48.7314759 34.4707486M28.3124318 83.5423628C28.3124318 83.5423628 29.3964224 80.3856785 32.6804108 78.3983624 33.8680742 77.6779889 36.6276002 77.1245591 37.5004337 77.9737613 38.370218 78.8290619 37.5667538 80.4321788 35.8386197 81.4788167 32.5546313 83.4684197 28.3124318 83.5423628 28.3124318 83.5423628M36.4476212 57.2638235C36.4476212 57.2638235 38.6186516 55.8619538 41.97887 56.2278578 43.1970254 56.3582111 45.5441471 57.3423404 45.8483048 58.2784448 46.1509379 59.2099754 44.8504541 59.8022825 43.0803935 59.6132321 39.7209374 59.249615 36.4476212 57.2638235 36.4476212 57.2638235M41.0906381 46.1256296C41.0906381 46.1256296 39.126191 44.6955548 38.4698506 41.7477407 38.2327753 40.6767092 38.4660392 38.3981945 39.2550197 37.8653468 40.0470494 37.3355483 40.9923014 38.2609805 41.3391479 39.8191217 41.992439 42.7654112 41.0906381 46.1256296 41.0906381 46.1256296M31.9252002 71.0135049C31.9252002 71.0135049 33.4902021 67.1410209 36.0057921 65.3450421 36.9159783 64.6978494 38.7050964 64.6574475 38.9688522 65.9907102 39.2318457 67.3254975 38.2881183 69.2358213 36.9617163 70.1764995 34.445364 71.9755275 31.9252002 71.0135049 31.9252002 71.0135049"/>
      <path fill="#B5D4FF" d="M36.540698 57.8296026C36.540698 57.8296026 32.2984985 55.4222592 30.2433377 52.0605162 29.4962837 50.8408362 29.3583074 48.5958627 30.77771 48.421296 32.195588 48.2474916 34.2926753 49.6524105 35.3797151 51.424758 37.4394497 54.7895502 36.540698 57.8296026 36.540698 57.8296026M31.2365384 71.3738441C31.2365384 71.3738441 27.2245535 69.081608 25.4788865 65.9706617 24.8484644 64.8462692 24.9224075 62.7972068 26.3562938 62.6699027 27.7901801 62.5464101 29.7569141 63.8789105 30.6754856 65.5125194 32.4211526 68.6204165 31.2365384 71.3738441 31.2365384 71.3738441M95.7670629 38.5651382C95.7670629 38.5651382 92.2498107 37.8561992 89.9019267 35.2148297 89.0504376 34.2573809 88.3117689 31.9636202 89.2028976 31.1700659 90.0970755 30.3810854 91.8991527 30.954335 93.134841 32.3462948 95.4789135 34.9884266 95.7670629 38.5651382 95.7670629 38.5651382M25.8252756 95.4197591C25.8252756 95.4197591 26.9603403 93.0871211 30.031647 91.6822022 31.1453673 91.1722235 33.6784902 90.8261393 34.4316426 91.4794304 35.1809835 92.136533 34.369134 93.3249587 32.7507711 94.0628651 29.6764152 95.4670217 25.8252756 95.4197591 25.8252756 95.4197591M55.8393898 50.8401501C55.8393898 50.8401501 58.5478417 48.0577551 61.5002296 47.2032168 62.5689742 46.893723 64.2750016 47.2931682 64.1034841 48.4465281 63.9289174 49.5976011 62.4271864 50.9285769 60.8713321 51.3790962 57.9197065 52.2343968 55.8393898 50.8401501 55.8393898 50.8401501M41.1181571 47.0524339C41.1181571 47.0524339 43.3745651 44.6588119 47.3934107 43.696027 48.8471168 43.3484182 51.8170376 43.467337 52.364369 44.3630395 52.9177988 45.2549305 51.5166914 46.4220118 49.3967351 46.9266544 45.3786518 47.8932508 41.1181571 47.0524339 41.1181571 47.0524339"/>
      <path fill="#4E99FF" d="M81.7367027 59.0177234C81.7367027 59.0177234 86.3745359 56.1575738 87.9860381 51.2697062 88.5714845 49.4965964 88.0927601 45.9541883 86.250281 45.3443483 84.4116134 44.7390821 82.1818859 46.4992328 81.3303968 49.0719953 79.7166077 53.9568137 81.7367027 59.0177234 81.7367027 59.0177234M78.4559922 66.9608132C78.4559922 66.9608132 79.3684653 62.2841027 77.157033 58.4322008 76.3535688 57.0379541 73.7594619 55.3265906 72.2661162 56.1887519 70.7712459 57.0448148 70.5776217 59.5154291 71.7424161 61.5416225 73.9568976 65.3942867 78.4559922 66.9608132 78.4559922 66.9608132M76.4966525 76.7992856C76.4966525 76.7992856 75.4248587 72.155354 71.8336634 69.5437142 70.5324173 68.5976999 67.4649221 68.0953442 66.4503008 69.4857794 65.4387287 70.8807884 66.2696357 73.2157133 68.1601397 74.5916648 71.7505727 77.2025423 76.4966525 76.7992856 76.4966525 76.7992856M78.5073713 67.2310485C78.5073713 67.2310485 82.7122181 68.5772703 86.9429831 67.2363846 88.4759684 66.7553733 90.7811636 64.8275166 90.3558002 63.4835817 89.9281499 62.1396468 87.6359138 61.6662585 85.4077109 62.3721483 81.1708475 63.7107471 78.5073713 67.2310485 78.5073713 67.2310485"/>
      <path fill="#4E99FF" d="M75.8750731 76.6578028C75.8750731 76.6578028 80.1218464 78.1480993 84.3518491 76.8079759 85.886359 76.3246777 88.1717344 74.3320255 87.7196905 72.910336 87.2706958 71.4886465 84.956353 70.9557988 82.7251009 71.6586394 78.4928113 72.9995251 75.8750731 76.6578028 75.8750731 76.6578028M74.6757465 90.0992862C74.6757465 90.0992862 78.1114326 91.8502893 81.3397731 90.8257581 82.5137151 90.4552803 84.170193 88.6623507 83.7196737 87.2406612 83.270679 85.8189717 81.4152408 85.1367132 79.7153118 85.6764216 76.4808729 86.6986659 74.6757465 90.0992862 74.6757465 90.0992862M74.1472439 89.9950798C74.1472439 89.9950798 73.6349783 86.3535727 71.0675519 83.8227367 70.135259 82.9018783 67.82549 82.0374301 66.9618041 82.9201735 66.095069 83.7968185 66.5730311 85.6736011 67.9284005 87.009913 70.4950646 89.5361752 74.1472439 89.9950798 74.1472439 89.9950798"/>
      <path fill="#4E99FF" d="M58.1589924,142.030974 C57.02469,142.100343 56.3027919,141.81753 56.2494309,141.793136 L56.5917036,140.95918 L56.4209484,141.376158 L56.5917036,140.957655 C56.6709828,140.991197 58.5805443,141.710808 61.1525445,140.050518 C64.0355631,138.188219 66.5198988,134.186907 68.5377069,128.160925 C71.3018067,119.893019 73.0825395,108.010287 73.8250197,92.8389924 C74.6856564,75.2169033 78.3164913,66.3193377 80.7200232,60.427521 C81.3336747,58.9196916 81.8665224,57.6153963 82.2126066,56.4719463 L83.0770548,56.7357021 C82.7187738,57.9165048 82.1790654,59.238333 81.5570286,60.7682691 C79.1756034,66.6006264 75.5821212,75.4158636 74.7275829,92.8824435 C73.0741542,126.653858 66.6738834,137.602773 61.5962031,140.837974 C60.2675142,141.68489 59.0768016,141.973039 58.1589924,142.030974"/>
      <path fill="#1B6FE3" d="M5.70695895,117.770624 C-3.63274065,142.386815 -1.11181455,168.213539 10.3760465,187.54623 C31.7997257,180.698489 50.8160615,163.039809 60.1534742,138.428191 C69.4908869,113.812762 66.9707231,87.988325 55.4820998,68.6533478 C34.0607075,75.5010887 15.045134,93.1574813 5.70695895,117.770624"/>
      <path stroke="#4E99FF" stroke-width=".999" d="M51.6013067 77.9054592L11.7650333 182.91076M43.4929503 99.6027278L59.5873902 92.3624024M36.7007048 117.51007L56.5327016 108.585061M29.909984 135.412228L63.0639356 120.497828M23.1170524 153.318121L55.3722523 138.804691M16.3233586 171.224701L34.281622 163.142034M44.0408153 97.3396878L36.8012522 81.2521086M37.2500944 115.246267L25.9604314 90.1574497M30.4564006 133.151398L16.3286947 101.746925M23.6656797 151.056529L9.14920083 118.79828M16.8704613 168.961661L4.4030448 141.249006"/>
      <path fill="#4E99FF" d="M34.1711647,194.070603 C36.4687369,193.421886 53.9719072,183.850447 66.1991992,191.383495 C75.9009913,197.359927 77.9523406,191.933876 77.9104141,186.843237 C77.8646761,181.752597 75.5541448,176.963066 81.9345958,176.430981 C102.940535,174.686076 117.824442,159.840284 104.340117,154.961564 C97.0494802,152.323243 101.374008,143.886107 106.678092,143.32048 C117.928877,142.119858 124.983964,136.203648 118.28106,131.080992 C111.691739,126.045238 110.076425,120.81586 114.564085,118.624247 C119.049458,116.432635 128.870169,117.067631 125.872806,107.907072 C124.69429,104.302155 115.63283,101.207979 108.547251,104.596403 C104.509348,106.527309 93.7929346,115.883779 93.9926572,104.52246 C94.1961913,92.8135316 85.5250288,96.8018852 83.1390298,102.787465 C82.2509503,105.015668 72.4035589,125.00851 69.6912955,118.176015 C66.4896355,110.106307 59.2859005,112.342895 57.1994854,123.243023 C56.2549957,128.19035 57.4723888,139.55853 53.2812634,138.418891 C49.0947118,137.280015 36.7119106,139.600456 39.264091,146.891094 C46.5021295,167.573055 38.9446873,192.721332 34.1711647,194.070603"/>
      <path stroke="#FFF" stroke-width="1.141" d="M118.991905 107.270399C118.991905 107.270399 90.0184062 118.434282 67.9345752 147.435223 45.1806825 177.330342 42.6170676 193.822703 20.0491761 202.136347M108.242255 132.777719C108.242255 132.777719 91.6607053 127.343282 80.5174039 132.446881M87.9393091 104.269605C87.9393091 104.269605 87.5810281 121.344362 78.5127073 134.519956M99.4728319 160.918786C99.4728319 160.918786 91.5296659 163.469442 60.2227672 158.838469M63.6618837 117.363479C63.6618837 117.363479 67.6388028 143.539337 66.269712 149.799344M47.1510755 143.007709C47.1510755 143.007709 52.8965306 163.930557 47.8302848 176.687647"/>
    </g>
  </g>
</svg>
