<svg xmlns="http://www.w3.org/2000/svg" width="24" height="24" viewBox="0 0 24 24">
  <g fill="none" fill-rule="evenodd" transform="translate(4.018 3)">
    <path fill="#AAB1B9" d="M15.1204181,12.0202693 C14.6165566,13.3314876 13.8545429,14.4715938 12.855258,15.4085902 C11.7178152,16.475088 10.2283987,17.3225459 8.4283415,17.9270686 C8.36927401,17.946844 8.30763212,17.9630489 8.24570421,17.9749965 C8.16389639,17.9905147 8.08065843,17.9988918 7.99813555,18 L7.9819742,18 C7.89401656,18 7.80562981,17.991476 7.7179582,17.9749965 C7.65603029,17.9630489 7.59524651,17.946844 7.53646507,17.9274806 C5.73426256,17.3239192 4.24298681,16.4768733 3.10439983,15.4103755 C2.10468589,14.4733791 1.34281517,13.3339595 0.839668733,12.0227413 C-0.0752340402,9.63870805 -0.023174507,7.01242631 0.0187305182,4.90195268 L0.019445612,4.86954301 C0.0278838363,4.69527239 0.0333186006,4.51221267 0.0363220605,4.31006423 C0.0516252367,3.31758684 0.873421594,2.49649614 1.90717445,2.4411525 C4.0624948,2.32565873 5.72982892,1.65068619 7.15445705,0.317357953 L7.16689985,0.306371625 C7.4034559,0.0980433511 7.70151082,-0.00412950043 7.99813555,-3.73034936e-14 C8.28417674,0.00369828473 8.56907377,0.105733781 8.79719163,0.306371625 L8.80934837,0.317357953 C10.2342626,1.65068619 11.9015966,2.32565873 14.056917,2.4411525 C15.0906698,2.49649614 15.9124662,3.31758684 15.9277694,4.31006423 C15.9307728,4.51358598 15.9362076,4.69637102 15.9446458,4.86954301 L15.9450749,4.88327592 C15.9868369,6.99773209 16.0386104,9.62923235 15.1204181,12.0202693 Z"/>
    <path fill="#878C92" d="M15.1204181,12.0202693 C14.6165566,13.3314876 13.8545429,14.4715938 12.855258,15.4085902 C11.7178152,16.475088 10.2283987,17.3225459 8.4283415,17.9270686 C8.36927401,17.946844 8.30763212,17.9630489 8.24570421,17.9749965 C8.16389639,17.9905147 8.08065843,17.9988918 7.99813555,17.9999904 L7.99813555,0.000127719295 C8.28417674,0.00369828473 8.56907377,0.105733781 8.79719163,0.306371625 L8.80934837,0.317357953 C10.2342626,1.65068619 11.9015966,2.32565873 14.056917,2.4411525 C15.0906698,2.49649614 15.9124662,3.31758684 15.9277694,4.31006423 C15.9307728,4.51358598 15.9362076,4.69637102 15.9446458,4.86954301 L15.9450749,4.88327592 C15.9868369,6.99773209 16.0386104,9.62923235 15.1204181,12.0202693 Z"/>
    <path fill="#FFF" d="M12.6535989,8.99999039 C12.6535989,11.4682063 10.5664994,13.4773311 7.99813555,13.4861202 L7.98168817,13.4861202 C5.40574423,13.4861202 3.30963439,11.4735622 3.30963439,8.99999039 C3.30963439,6.52655593 5.40574423,4.51399798 7.98168817,4.51399798 L7.99813555,4.51399798 C10.5664994,4.52278704 12.6535989,6.53191178 12.6535989,8.99999039 Z"/>
    <path fill="#E7EBEC" d="M12.6535989,8.99999039 C12.6535989,11.4682063 10.5664994,13.4773311 7.99813555,13.4861202 L7.99813555,4.51399798 C10.5664994,4.52278704 12.6535989,6.53191178 12.6535989,8.99999039 Z"/>
    <path fill="#50586A" fill-rule="nonzero" d="M8.08168817,5.49999039 C8.41305902,5.49999039 8.68168817,5.76861954 8.68168817,6.09999039 L8.68168817,8.58299039 L10.8816882,8.58395986 C11.213059,8.58395986 11.4816882,8.85258901 11.4816882,9.18395986 C11.4816882,9.51533071 11.213059,9.78395986 10.8816882,9.78395986 L8.08168817,9.78395986 C7.75031733,9.78395986 7.48168817,9.51533071 7.48168817,9.18395986 C7.48168817,9.12921163 7.48902089,9.07617605 7.50275778,9.02578165 C7.48895877,8.9767896 7.48168817,8.92397189 7.48168817,8.86945604 L7.48168817,6.09999039 C7.48168817,5.76861954 7.75031733,5.49999039 8.08168817,5.49999039 Z"/>
  </g>
</svg>
