<svg xmlns="http://www.w3.org/2000/svg" width="36" height="36" viewBox="0 0 36 36">
  <g fill="none" fill-rule="evenodd" transform="translate(3 3)">
    <path fill="#F6C43F" fill-rule="nonzero" d="M14.4705882,14.4705882 L14.4705882,7 C14.4705882,6.44771525 14.9183035,6 15.4705882,6 L23,6 C23.5522847,6 24,6.44771525 24,7 L24,14.5294118 C24,15.0816965 23.5522847,15.5294118 23,15.5294118 L15.5294118,15.5294118 L15.5294118,23 C15.5294118,23.5522847 15.0816965,24 14.5294118,24 L7,24 C6.44771525,24 6,23.5522847 6,23 L6,15.4705882 C6,14.9183035 6.44771525,14.4705882 7,14.4705882 L14.4705882,14.4705882 Z"/>
    <path fill="#7BA748" d="M26.9998,16.9999 C26.9998,18.1049 26.1038,18.9999 24.9998,18.9999 L21.9998,18.9999 L18.9998,18.9999 L18.9998,21.9999 L18.9998,24.9999 C18.9998,26.1049 18.1038,26.9999 16.9998,26.9999 L4.9998,26.9999 C3.8958,26.9999 2.9998,26.1049 2.9998,24.9999 L2.9998,12.9999 C2.9998,11.8959 3.8958,10.9999 4.9998,10.9999 L7.9998,10.9999 L10.9998,10.9999 L10.9998,7.9999 L10.9998,4.9999 C10.9998,3.8959 11.8958,2.9999 12.9998,2.9999 L24.9998,2.9999 C26.1038,2.9999 26.9998,3.8959 26.9998,4.9999 L26.9998,16.9999 Z M25.9998,-0.0001 L11.9998,-0.0001 C9.7908,-0.0001 7.9998,1.7909 7.9998,3.9999 L7.9998,7.9999 L3.9998,7.9999 C1.7908,7.9999 -0.0002,9.7909 -0.0002,11.9999 L-0.0002,25.9999 C-0.0002,28.2089 1.7908,29.9999 3.9998,29.9999 L17.9998,29.9999 C20.2088,29.9999 21.9998,28.2089 21.9998,25.9999 L21.9998,21.9999 L25.9998,21.9999 C28.2088,21.9999 29.9998,20.2089 29.9998,17.9999 L29.9998,3.9999 C29.9998,1.7909 28.2088,-0.0001 25.9998,-0.0001 L25.9998,-0.0001 Z"/>
  </g>
</svg>
