<svg xmlns="http://www.w3.org/2000/svg" width="24" height="24" viewBox="0 0 24 24">
  <path d="M20.0117,9.3855 L20.0117,3.72476407 C20.0117,3.55907864 19.8773854,3.42476407 19.7117,3.42476407 C19.6321351,3.42476407 19.5558289,3.45637112 19.499568,3.51263203 L17.6647,5.3475 C16.0597,3.8485 13.9447,3.0005 11.6857,3.0005 C6.8967,3.0005 2.9997,6.8145 2.9997,11.5015 C2.9997,16.1875 6.8967,20.0015 11.6857,20.0015 C15.4837,20.0015 18.8107,17.6245 19.9627,14.0865 C20.1337,13.5595 19.8367,12.9975 19.2997,12.8295 C18.7647,12.6625 18.1867,12.9535 18.0157,13.4785 C17.1347,16.1835 14.5907,18.0025 11.6857,18.0025 C8.0227,18.0025 5.0427,15.0855 5.0427,11.5015 C5.0427,7.9165 8.0227,5.0005 11.6857,5.0005 C13.4037,5.0005 15.0117,5.6415 16.2367,6.7755 L13.5380246,9.47333493 C13.4208491,9.59047397 13.4208195,9.78042346 13.5379585,9.89759899 C13.5942221,9.95388012 13.6705425,9.9855 13.7501236,9.9855 L19.4117,9.9855 C19.7430708,9.9855 20.0117,9.71687085 20.0117,9.3855 Z"/>
</svg>
