<svg xmlns="http://www.w3.org/2000/svg" width="24" height="24" viewBox="0 0 24 24">
  <path d="M17.2790001,4.97636326 L20.4826614,4.97636326 C20.8907586,4.97636326 21.2219678,5.31624161 21.2219678,5.73502029 C21.2219678,6.15379897 20.8907586,6.49367732 20.4826614,6.49367732 L19.1724584,6.49367732 L17.7473261,20.4433899 C17.7502833,21.2702795 16.9961907,22 16.0676218,22 L7.19988731,22 C6.27230415,22 5.51722582,21.2702795 5.51722582,20.3738473 L4.05280645,6.49367732 L2.73930646,6.49367732 C2.33120929,6.49367732 2,6.15379897 2,5.73502029 C2,5.31624161 2.33120929,4.97636326 2.73930646,4.97636326 L5.94296776,4.97636326 L5.94296776,3.51124481 C5.94296776,2.67773361 6.62805841,2 7.47086777,2 L15.7511001,2 C16.5939094,2 17.2790001,2.67773361 17.2790001,3.51124481 L17.2790001,4.97636326 Z M15.8003872,4.97636326 L15.8003872,3.51124481 L7.47086777,3.51731406 L7.42654626,4.97636326 L15.8003872,4.97636326 Z M5.52905472,6.49367732 L6.99189576,20.2155116 C6.99583873,20.3933141 7.08948421,20.4826857 7.19988731,20.4826857 L16.0676218,20.4826857 C16.1790106,20.4826857 16.2716704,20.3933141 16.2716704,20.2879496 L17.6960675,6.49367732 L5.52905472,6.49367732 Z M8.88284453,17.9232808 C8.55360672,17.9232808 8.27464175,17.6918921 8.24605523,17.3842813 L7.49689136,9.39184423 C7.46633336,9.06790008 7.72755497,8.78206701 8.08045059,8.75393741 C8.42348878,8.72127077 8.74188343,8.96627055 8.77342717,9.2911221 L9.5216053,17.2826517 C9.55314905,17.6075033 9.29094169,17.8933364 8.93903182,17.921466 C8.92030272,17.9232808 8.90157362,17.9232808 8.88284453,17.9232808 Z M11.7226685,17.9232804 C11.3687871,17.9232804 11.0819362,17.6592287 11.0819362,17.3334743 L11.0819362,9.34114854 C11.0819362,9.01630152 11.3687871,8.75224988 11.7226685,8.75224988 C12.0765498,8.75224988 12.3634007,9.01630152 12.3634007,9.34114854 L12.3634007,17.3334743 C12.3634007,17.6592287 12.0765498,17.9232804 11.7226685,17.9232804 Z M14.6201583,17.9232806 C14.6014292,17.9232806 14.5827002,17.9232806 14.5639711,17.9214658 C14.2120612,17.893336 13.9498538,17.6075014 13.9813976,17.282648 L14.7295757,9.29107394 C14.7601337,8.96622058 15.0706424,8.71849721 15.4225523,8.75388626 C15.7754479,8.78201602 16.0366695,9.06785068 16.0061115,9.39179662 L15.2569476,17.3842781 C15.2283611,17.6918906 14.9484104,17.9232806 14.6201583,17.9232806 Z"/>
</svg>
