<svg xmlns="http://www.w3.org/2000/svg" width="230" height="200" viewBox="0 0 230 200">
  <defs>
    <linearGradient id="icon_empty_overview_storage-a" x1="47.485%" x2="62.64%" y1="68.151%" y2="-40.516%">
      <stop offset="0%" stop-color="#010101" stop-opacity="0"/>
      <stop offset="95%" stop-color="#010101"/>
    </linearGradient>
    <linearGradient id="icon_empty_overview_storage-b" x1="50.614%" x2="49.403%" y1="18.227%" y2="81.154%">
      <stop offset="0%" stop-color="#FFF" stop-opacity="0"/>
      <stop offset="7%" stop-color="#FFF" stop-opacity=".22"/>
      <stop offset="16%" stop-color="#FFF" stop-opacity=".45"/>
      <stop offset="25%" stop-color="#FFF" stop-opacity=".65"/>
      <stop offset="33%" stop-color="#FFF" stop-opacity=".8"/>
      <stop offset="40%" stop-color="#FFF" stop-opacity=".91"/>
      <stop offset="46%" stop-color="#FFF" stop-opacity=".98"/>
      <stop offset="51%" stop-color="#FFF"/>
    </linearGradient>
    <linearGradient id="icon_empty_overview_storage-c" x1="48.882%" x2="55.696%" y1="47.063%" y2="64.961%">
      <stop offset="0%" stop-color="#010101" stop-opacity="0"/>
      <stop offset="95%" stop-color="#010101"/>
    </linearGradient>
    <linearGradient id="icon_empty_overview_storage-d" x1="-55.446%" x2="673.45%" y1="50.173%" y2="48.998%">
      <stop offset="0%" stop-color="#FFF" stop-opacity="0"/>
      <stop offset="7%" stop-color="#FFF" stop-opacity=".22"/>
      <stop offset="16%" stop-color="#FFF" stop-opacity=".45"/>
      <stop offset="25%" stop-color="#FFF" stop-opacity=".65"/>
      <stop offset="33%" stop-color="#FFF" stop-opacity=".8"/>
      <stop offset="40%" stop-color="#FFF" stop-opacity=".91"/>
      <stop offset="46%" stop-color="#FFF" stop-opacity=".98"/>
      <stop offset="51%" stop-color="#FFF"/>
    </linearGradient>
    <linearGradient id="icon_empty_overview_storage-e" x1="49.743%" x2="50.351%" y1="-27.902%" y2="156.007%">
      <stop offset="0%" stop-color="#FFF" stop-opacity="0"/>
      <stop offset="7%" stop-color="#FFF" stop-opacity=".22"/>
      <stop offset="16%" stop-color="#FFF" stop-opacity=".45"/>
      <stop offset="25%" stop-color="#FFF" stop-opacity=".65"/>
      <stop offset="33%" stop-color="#FFF" stop-opacity=".8"/>
      <stop offset="40%" stop-color="#FFF" stop-opacity=".91"/>
      <stop offset="46%" stop-color="#FFF" stop-opacity=".98"/>
      <stop offset="51%" stop-color="#FFF"/>
    </linearGradient>
    <linearGradient id="icon_empty_overview_storage-f" x1="50.846%" x2="49.163%" y1="-11.521%" y2="110.315%">
      <stop offset="0%" stop-color="#FFF" stop-opacity="0"/>
      <stop offset="7%" stop-color="#FFF" stop-opacity=".22"/>
      <stop offset="16%" stop-color="#FFF" stop-opacity=".45"/>
      <stop offset="25%" stop-color="#FFF" stop-opacity=".65"/>
      <stop offset="33%" stop-color="#FFF" stop-opacity=".8"/>
      <stop offset="40%" stop-color="#FFF" stop-opacity=".91"/>
      <stop offset="46%" stop-color="#FFF" stop-opacity=".98"/>
      <stop offset="51%" stop-color="#FFF"/>
    </linearGradient>
    <linearGradient id="icon_empty_overview_storage-g" x1="42.92%" x2="142.632%" y1="513.712%" y2="-5910.402%">
      <stop offset="0%" stop-color="#010101" stop-opacity="0"/>
      <stop offset="95%" stop-color="#010101"/>
    </linearGradient>
    <linearGradient id="icon_empty_overview_storage-h" x1="35.617%" x2="135.329%" y1="984.161%" y2="-5439.953%">
      <stop offset="0%" stop-color="#010101" stop-opacity="0"/>
      <stop offset="95%" stop-color="#010101"/>
    </linearGradient>
    <linearGradient id="icon_empty_overview_storage-i" x1="43.218%" x2="143.079%" y1="487.47%" y2="-5936.643%">
      <stop offset="0%" stop-color="#010101" stop-opacity="0"/>
      <stop offset="95%" stop-color="#010101"/>
    </linearGradient>
    <linearGradient id="icon_empty_overview_storage-j" x1="35.915%" x2="135.776%" y1="957.92%" y2="-5466.194%">
      <stop offset="0%" stop-color="#010101" stop-opacity="0"/>
      <stop offset="95%" stop-color="#010101"/>
    </linearGradient>
    <linearGradient id="icon_empty_overview_storage-k" x1="27.569%" x2="127.429%" y1="1500.709%" y2="-4923.404%">
      <stop offset="0%" stop-color="#010101" stop-opacity="0"/>
      <stop offset="95%" stop-color="#010101"/>
    </linearGradient>
    <linearGradient id="icon_empty_overview_storage-l" x1="27.867%" x2="127.579%" y1="1475.177%" y2="-4948.936%">
      <stop offset="0%" stop-color="#010101" stop-opacity="0"/>
      <stop offset="95%" stop-color="#010101"/>
    </linearGradient>
    <linearGradient id="icon_empty_overview_storage-m" x1="27.569%" x2="127.429%" y1="1487.943%" y2="-4935.934%">
      <stop offset="0%" stop-color="#010101" stop-opacity="0"/>
      <stop offset="95%" stop-color="#010101"/>
    </linearGradient>
    <linearGradient id="icon_empty_overview_storage-n" x1="43.069%" x2="142.93%" y1="492.908%" y2="-5931.206%">
      <stop offset="0%" stop-color="#010101" stop-opacity="0"/>
      <stop offset="95%" stop-color="#010101"/>
    </linearGradient>
    <linearGradient id="icon_empty_overview_storage-o" x1="33.629%" x2="349.584%" y1="37.403%" y2="280.635%">
      <stop offset="0%" stop-color="#FFF" stop-opacity="0"/>
      <stop offset="7%" stop-color="#FFF" stop-opacity=".22"/>
      <stop offset="16%" stop-color="#FFF" stop-opacity=".45"/>
      <stop offset="25%" stop-color="#FFF" stop-opacity=".65"/>
      <stop offset="33%" stop-color="#FFF" stop-opacity=".8"/>
      <stop offset="40%" stop-color="#FFF" stop-opacity=".91"/>
      <stop offset="46%" stop-color="#FFF" stop-opacity=".98"/>
      <stop offset="51%" stop-color="#FFF"/>
    </linearGradient>
    <linearGradient id="icon_empty_overview_storage-p" x1="50.897%" x2="49.124%" y1="-18.243%" y2="116.919%">
      <stop offset="0%" stop-color="#FFF" stop-opacity="0"/>
      <stop offset="7%" stop-color="#FFF" stop-opacity=".22"/>
      <stop offset="16%" stop-color="#FFF" stop-opacity=".45"/>
      <stop offset="25%" stop-color="#FFF" stop-opacity=".65"/>
      <stop offset="33%" stop-color="#FFF" stop-opacity=".8"/>
      <stop offset="40%" stop-color="#FFF" stop-opacity=".91"/>
      <stop offset="46%" stop-color="#FFF" stop-opacity=".98"/>
      <stop offset="51%" stop-color="#FFF"/>
    </linearGradient>
    <linearGradient id="icon_empty_overview_storage-q" x1="50.286%" x2="49.802%" y1="44.555%" y2="55.342%">
      <stop offset="0%" stop-color="#FFF" stop-opacity="0"/>
      <stop offset="7%" stop-color="#FFF" stop-opacity=".22"/>
      <stop offset="16%" stop-color="#FFF" stop-opacity=".45"/>
      <stop offset="25%" stop-color="#FFF" stop-opacity=".65"/>
      <stop offset="33%" stop-color="#FFF" stop-opacity=".8"/>
      <stop offset="40%" stop-color="#FFF" stop-opacity=".91"/>
      <stop offset="46%" stop-color="#FFF" stop-opacity=".98"/>
      <stop offset="51%" stop-color="#FFF"/>
    </linearGradient>
    <linearGradient id="icon_empty_overview_storage-r" x1="50.879%" x2="38.182%" y1="60.072%" y2="-36.988%">
      <stop offset="0%" stop-color="#010101" stop-opacity="0"/>
      <stop offset="95%" stop-color="#010101"/>
    </linearGradient>
    <linearGradient id="icon_empty_overview_storage-s" x1="54.941%" x2="34.609%" y1="27.298%" y2="119.501%">
      <stop offset="0%" stop-color="#010101" stop-opacity="0"/>
      <stop offset="95%" stop-color="#010101"/>
    </linearGradient>
  </defs>
  <g fill="none" transform="translate(10)">
    <path fill="#505F98" d="M33.8759943,174.000754 C23.4900537,175.317427 12.785411,176.765172 3.64615818,183.205553 C2.42290435,184.069434 1.18090333,185.088217 0.506004664,186.643203 C-0.848479467,189.771047 0.688789719,193.893844 3.07436903,195.776508 C5.45994835,197.659172 8.40325643,197.873653 11.2106474,198.028556 C61.2000167,200.775101 111.264375,199.696739 161.295925,198.624336 C175.824994,198.31453 190.583715,197.957062 204.508187,192.636748 C207.010936,191.6835 209.762086,190.253629 210.704132,187.1377 C211.936759,183.062566 209.124681,178.546554 205.843924,177.277543 C202.563167,176.008532 199.06213,176.955822 195.668889,177.509897 C183.886283,179.434266 172.000568,176.491114 160.269517,174.137783 C137.304215,169.538363 113.476543,165.796865 90.2159726,165.099803 C82.2859133,164.867449 75.5134926,168.334887 67.7521579,169.705181 C56.546028,171.695086 45.1430526,172.570882 33.8759943,174.000754 Z" opacity=".24"/>
    <rect width="27.53" height="23.117" x="90.467" y="141.408" fill="#505F98"/>
    <rect width="27.53" height="23.117" x="90.467" y="141.408" fill="url(#icon_empty_overview_storage-a)"/>
    <rect width="145.514" height="100.08" x="32.036" y="44.993" fill="#505F98" rx="2.624"/>
    <path fill="url(#icon_empty_overview_storage-b)" d="M172.774798,53.2920544 L172.774798,136.209964 C172.779457,137.585872 172.239375,138.907129 171.273663,139.882265 C170.307952,140.857401 168.995961,141.406293 167.627115,141.407856 L40.8360043,141.407856 C39.4676401,141.404723 38.1565592,140.855328 37.1911862,139.880533 C36.2258132,138.905739 35.685227,137.585395 35.6883376,136.209964 L35.6883376,53.2920544 C35.685227,51.9166233 36.2258132,50.5962792 37.1911862,49.6214846 C38.1565592,48.6466899 39.4676401,48.0972954 40.8360043,48.0941623 L167.627115,48.0941623 C168.995961,48.095725 170.307952,48.6446168 171.273663,49.6197531 C172.239375,50.5948894 172.779457,51.9161457 172.774798,53.2920544 L172.774798,53.2920544 Z" opacity=".65"/>
    <rect width="57.868" height="5.92" x="77.826" y="161.706" fill="#505F98"/>
    <rect width="27.53" height="3.383" x="90.467" y="158.323" fill="url(#icon_empty_overview_storage-c)"/>
    <path fill="url(#icon_empty_overview_storage-d)" d="M172.774798,53.3132615 L172.774798,55.1420244 L35.6883376,55.1420244 L35.6883376,53.3132615 C35.6852267,51.9322187 36.2258593,50.6064877 37.1913152,49.627716 C38.1567711,48.6489442 39.4679645,48.0973082 40.8364461,48.0941623 L167.626673,48.0941623 C168.995637,48.0957313 170.30774,48.6468627 171.273534,49.6259775 C172.239329,50.6050923 172.779457,51.9317392 172.774798,53.3132615 L172.774798,53.3132615 Z"/>
    <rect width="13.203" height="63.995" x="38.497" y="64.163" fill="url(#icon_empty_overview_storage-e)"/>
    <rect width="62.082" height="58.92" x="71.645" y="68.674" fill="url(#icon_empty_overview_storage-f)"/>
    <rect width="1.966" height="2.537" x="85.972" y="96.302" fill="url(#icon_empty_overview_storage-g)"/>
    <rect width="1.966" height="2.537" x="85.972" y="84.461" fill="url(#icon_empty_overview_storage-h)"/>
    <rect width="1.966" height="2.537" x="59.285" y="96.302" fill="url(#icon_empty_overview_storage-i)"/>
    <rect width="1.966" height="2.537" x="59.285" y="84.461" fill="url(#icon_empty_overview_storage-j)"/>
    <rect width="1.966" height="2.537" x="85.972" y="71.775" fill="url(#icon_empty_overview_storage-k)"/>
    <rect width="1.966" height="2.537" x="59.566" y="71.775" fill="url(#icon_empty_overview_storage-l)"/>
    <rect width="1.966" height="2.537" x="73.05" y="71.775" fill="url(#icon_empty_overview_storage-m)"/>
    <rect width="1.966" height="2.537" x="73.05" y="96.302" fill="url(#icon_empty_overview_storage-n)"/>
    <path fill="#505F98" d="M84.8484413,95.7377097 L62.9370808,95.7377097 L62.9370808,75.1579525 L84.8484413,75.1579525 L84.8484413,95.7377097 Z M65.1441075,93.561953 L82.6414147,93.561953 L82.6414147,77.3163032 L65.1441075,77.3163032 L65.1441075,93.561953 Z"/>
    <path fill="url(#icon_empty_overview_storage-o)" d="M84.8484413,95.7377097 L62.9370808,95.7377097 L62.9370808,75.1579525 L84.8484413,75.1579525 L84.8484413,95.7377097 Z M65.1441075,93.561953 L82.6414147,93.561953 L82.6414147,77.3163032 L65.1441075,77.3163032 L65.1441075,93.561953 Z"/>
    <rect width="28.091" height="28.191" x="142.717" y="58.525" fill="url(#icon_empty_overview_storage-p)"/>
    <rect width="28.091" height="28.191" x="142.717" y="89.536" fill="url(#icon_empty_overview_storage-p)"/>
    <rect width="13.203" height="3.665" x="38.497" y="63.881" fill="url(#icon_empty_overview_storage-q)" opacity=".65"/>
    <path fill="#28353D" d="M69.5784816,109.269605 C69.389498,108.264735 69.2701399,106.842457 69.6331874,106.744547 C70.3990685,106.528113 69.5784816,109.269605 69.5784816,109.269605 Z"/>
    <path fill="#606161" d="M109.794243,164.385755 C109.657812,167.936459 106.91732,180.985298 106.828343,184.541921 C106.828343,185.725489 107.142728,187.542266 106.763093,188.684409 C105.980096,191.104806 103.204013,190.773407 102.842173,189.347207 L102.705742,188.637066 C101.418541,181.725028 103.48874,173.883889 102.705742,164.859182 C102.23713,159.349672 100.054227,148.727148 98.6246634,148.656134 C97.8713247,148.656134 80.6750359,185.062691 79.1802223,187.305552 C78.4446791,188.43586 76.3744808,188.258325 75.3720066,189.169672 C74.3695323,190.08102 83.7239812,161.568863 87.6449012,146.50204 C88.55936,143.392289 89.1555859,140.198091 89.4244412,136.968399 C89.5312136,135.104279 88.9321018,134.476988 90.6463921,133.926628 C91.8327521,133.547887 93.4758608,133.654408 94.745266,133.56564 C96.1273755,133.459119 108.981587,133.435448 108.981587,134.346795 C108.857019,139.29411 110.126424,156.183628 109.794243,164.385755 Z"/>
    <path fill="url(#icon_empty_overview_storage-r)" d="M109.794243,164.385755 C109.657812,167.936459 106.91732,180.985298 106.828343,184.541921 C106.828343,185.725489 107.142728,187.542266 106.763093,188.684409 C105.980096,191.104806 103.204013,190.773407 102.842173,189.347207 L102.705742,188.637066 C101.418541,181.725028 103.48874,173.883889 102.705742,164.859182 C102.23713,159.349672 100.054227,148.727148 98.6246634,148.656134 C97.8713247,148.656134 80.6750359,185.062691 79.1802223,187.305552 C78.4446791,188.43586 76.3744808,188.258325 75.3720066,189.169672 C74.3695323,190.08102 83.7239812,161.568863 87.6449012,146.50204 C88.55936,143.392289 89.1555859,140.198091 89.4244412,136.968399 C89.5312136,135.104279 88.9321018,134.476988 90.6463921,133.926628 C91.8327521,133.547887 93.4758608,133.654408 94.745266,133.56564 C96.1273755,133.459119 108.981587,133.435448 108.981587,134.346795 C108.857019,139.29411 110.126424,156.183628 109.794243,164.385755 Z"/>
    <path fill="#FFCD9C" d="M94.6148444 88.7316865C94.5067442 87.6080133 93.9782544 86.9983608 93.4617758 86.9983608 92.9452972 86.9983608 92.6270022 87.5960593 92.7351024 88.7316865 92.759632 89.5699821 93.389589 90.2677269 94.2244826 90.3813345 94.7469668 90.3813345 94.7289501 89.8553598 94.6148444 88.7316865zM103.708452 88.7347544C103.778752 87.6090923 104.294285 86.9983608 104.827392 86.9983608 105.3605 86.9983608 105.706141 87.5971172 105.624125 88.7347544 105.616705 89.5844336 104.986416 90.2930469 104.159543 90.3813345 103.632294 90.3813345 103.626436 89.8604164 103.708452 88.7347544z"/>
    <path fill="#F4AD7D" d="M104.754004,93.6717521 C104.681289,94.2653609 102.178675,96.8653676 99.3306652,96.8653676 C96.4826549,96.8653676 94.1315315,94.4909323 93.6346446,93.5411582 C93.1377577,92.591384 95.1374245,80.3749143 96.2948074,79.3539072 C97.4521903,78.3329 102.142318,79.0036779 102.536192,79.543862 C103.481489,80.820121 105.063043,91.3032529 104.754004,93.6717521 Z"/>
    <path fill="#FFCD9C" d="M103.576665 84.4546327C103.18948 84.641243 101.66921 80.7515835 101.350351 80.0984473 101.031493 79.445311 101.082738 78.7746801 101.469923 78.5880697 101.857108 78.4014594 102.426498 78.7863432 102.745356 79.4336479 103.064214 80.0809525 103.958156 84.2738539 103.576665 84.4546327zM95.0510815 84.1755983C94.6495112 84.0384282 95.7128242 80.0008563 95.9447169 79.303078 96.1766097 78.6052997 96.6969543 78.1460781 97.075901 78.2832482 97.4548477 78.4204183 97.6132134 79.1003048 97.3813207 79.804047 97.149428 80.5077892 95.4300282 84.3127683 95.0510815 84.1755983z"/>
    <path fill="#F4AD7D" d="M96.6448097,93.2004793 L102.754194,93.2004793 L103.669738,99.0141861 C100.341534,100.813519 98.4010419,100.614972 95.8041216,98.6170919 L96.6448097,93.2004793 Z"/>
    <path fill="#F4AD7D" d="M99.1751001,94.3647861 C99.1751001,94.2576586 99.4292612,94.167446 99.7369299,94.167446 C100.044599,94.167446 100.29876,94.2576586 100.29876,94.3647861 C100.29876,94.4719137 100.051287,94.4888285 99.7369299,94.4888285 C99.4225728,94.4888285 99.1751001,94.4775519 99.1751001,94.3647861 Z"/>
    <path fill="#606161" d="M105.079545,91.7366978 C105.310808,90.3514761 105.688131,80.4320843 104.76308,79.119135 C103.838029,77.8061857 98.299892,76.9569846 97.4600427,77.1617565 C95.5795106,77.619482 95.9081473,78.9685674 95.9081473,78.9685674 C95.3492024,78.9769602 94.8019754,79.1284275 94.3197367,79.4082247 C93.674635,79.8418594 92.3174873,86.0934251 93.4007711,90.8212469 C93.8876403,92.9472611 95.8046876,94.7962309 99.1153979,94.8865714 C103.192927,94.9949801 104.799595,93.4531681 105.079545,91.7366978 Z"/>
    <path fill="#606161" d="M97.4829331,77.6280839 C97.9206605,77.257752 98.487672,77.0827706 99.0547746,77.1430091 C100.776309,77.1336908 102.484211,77.4526387 104.089395,78.0832158 C104.979414,78.3964467 105.787626,78.9104141 106.453066,79.586349 C107.123181,80.2811964 107.431802,81.2549908 107.28626,82.2153349 C106.990801,83.6286393 105.513507,84.5029718 105.028954,85.862379 C104.638948,86.9523003 104.91668,88.0062901 104.928498,89.1021999 C104.936325,89.9882515 104.873085,90.8734824 104.739404,91.7491515 C104.467582,93.4558963 102.913468,94.9889723 98.9247726,94.8871665 C95.7101796,94.7973378 93.8487884,92.9588443 93.3760541,90.8448762 C92.7360628,87.3362038 92.9039074,83.7251679 93.8665159,80.2930012 C95.5989848,80.6971436 97.3715589,80.8980822 99.1493214,80.8918591 C101.034359,80.9077159 102.914052,80.686444 104.745313,80.2331155 C105.0585,82.0656204 105.052591,85.7366189 104.952135,88.4793877"/>
    <path fill="#505F98" d="M87.6216137,97.9800039 C86.6576055,98.0610133 85.7288821,98.3833197 84.9196109,98.9177133 C83.5335186,100.014656 83.4282458,102.061104 83.4516398,103.842162 C83.40414,106.309824 83.5744173,108.776856 83.9604585,111.214091 C84.3757013,113.44926 85.1301566,115.595966 85.7500966,117.783954 C86.7272699,121.344392 87.2404046,125.018007 87.2765528,128.712102 C87.2765528,130.740857 87.2414618,132.970128 88.4988873,134.556567 C89.8732827,136.27865 92.3062549,136.61481 94.4935904,136.738658 C97.5991391,136.921482 100.716385,136.945072 103.821933,136.815326 C105.903996,136.720966 108.120574,136.514552 109.769848,135.228887 C111.085759,134.202715 114.167914,99.4838775 111.775881,98.6051435 C109.383848,97.7264096 106.810512,97.5023029 104.272267,97.2899914 C98.5816855,96.8063928 93.2244679,96.4230525 87.6216137,97.9800039 Z"/>
    <path fill="url(#icon_empty_overview_storage-s)" d="M105.537026,169.96316 C105.231911,173.900009 104.50433,188.20566 104.50433,188.20566 L102.650172,188.140928 C101.376905,181.267625 103.424694,173.470428 102.650172,164.496295 C102.186632,159.01766 100.027359,148.454665 98.6132704,148.384048 C99.0357368,144.853242 101.412111,145.382863 101.412111,145.382863 C103.140425,147.974809 104.631019,150.718477 105.865611,153.580218 C107.2797,157.299335 105.848008,166.008657 105.537026,169.96316 Z"/>
    <path fill="#505F98" d="M70.6274649 188.494255C70.3379053 188.709247 70.1181618 189.003395 69.9952909 189.340483 69.9294171 189.617638 69.9561184 189.908473 70.0713859 190.169322 70.3988178 190.834676 71.0193189 191.312081 71.7513299 191.461848 72.4745832 191.600021 73.2151985 191.625444 73.9463787 191.537197L76.2877641 191.380703C76.8835284 191.366589 77.4744648 191.271016 78.0438031 191.096695 78.6137257 190.919624 79.0841495 190.516759 79.343272 189.983848 79.4811625 189.591484 79.5349873 189.174977 79.5013155 188.760875 79.5013155 186.842372 78.8223137 185.283226 76.70336 185.752709 74.4837849 186.166023 72.3987554 187.106823 70.6274649 188.494255L70.6274649 188.494255zM109.517942 189.351033C109.783993 189.547198 109.985682 189.8151 110.098239 190.121838 110.158333 190.37141 110.134776 190.633271 110.031047 190.868741 109.732658 191.4714 109.162989 191.902605 108.491733 192.03391 107.830035 192.162441 107.151584 192.186648 106.482073 192.105613L104.356353 191.962207C103.815649 191.95072 103.279155 191.866269 102.762063 191.711248 102.240767 191.550346 101.811435 191.184494 101.577035 190.701435 101.451329 190.346663 101.401432 189.970422 101.430434 189.596018 101.430434 187.863202 102.041273 186.435123 103.98985 186.87729 106.009957 187.252379 107.906896 188.101233 109.517942 189.351033L109.517942 189.351033zM112.097185 98.5568545C112.097185 98.5568545 121.281145 103.959322 124.039345 110.788746 126.797544 117.61817 115.005941 134.078079 115.005941 134.078079L112.48261 131.488418C112.48261 131.488418 118.637369 119.068615 117.68585 115.962196 116.734332 112.855777 113.006547 109.960759 113.006547 109.960759L112.097185 98.5568545zM85.9721008 109.229863C85.9721008 109.229863 73.2025535 114.975461 68.0134525 112.155972 62.8243514 109.336483 68.1665928 95.1738807 68.1665928 95.1738807L71.6417002 96.35854C71.6417002 96.35854 68.737924 103.579038 72.0598911 104.651155 75.3818582 105.723272 85.3359795 98.6804722 85.3359795 98.6804722L85.9721008 109.229863z"/>
    <path fill="#F4AD7D" d="M110.013074 133.789439C109.645729 134.029115 109.348059 134.350927 109.147064 134.725685 109.0264 135.043704 108.982953 135.382934 109.019888 135.718672 108.997603 136.533287 109.36659 137.31429 110.025186 137.846503 110.487926 138.095339 111.006447 138.239145 111.53919 138.266395 111.865722 138.320263 112.199788 138.320263 112.52632 138.266395 112.859394 138.206952 113.137572 137.993312 113.265154 137.698974 113.308686 137.512729 113.326998 137.322087 113.319658 137.131552 113.36205 136.195306 114.064547 135.429287 114.645925 134.663268 114.786355 134.515269 114.876954 134.331675 114.906333 134.135566 114.902941 133.918436 114.821909 133.708648 114.676205 133.539774 114.282564 133.006397 113.307546 132.024758 112.52632 132.109871 111.745094 132.194985 110.618676 133.324154 110.013074 133.789439zM73.8335208 93.0411211C73.9998907 92.8090137 74.1133611 92.546123 74.1665841 92.2694726 74.208997 91.9833445 74.0583482 91.7026734 73.7903459 91.5685094 73.3647649 91.4094674 72.8590021 91.8276891 72.439589 91.6509757 72.2976826 91.5751394 72.1787035 91.4655695 72.0941899 91.3328916 71.5989604 90.6477234 71.3147673 89.8436914 71.2738673 89.0120556 71.2980073 88.5688825 71.2564781 88.1246745 71.1505105 87.6925956 71.0257863 87.2480293 70.5813232 86.9558914 70.1019777 87.0034134 69.7072359 87.0917701 69.4851937 87.4746491 69.2384801 87.7809523 68.9917665 88.0872555 68.4983393 88.4524632 68.1776117 88.8353423 67.6300183 89.6221917 67.3166264 90.5363723 67.2709392 91.4801527 67.0982397 92.658242 66.9872186 94.0071543 67.8507162 94.8553786 68.5168429 95.5092181 70.5460622 96.2808666 71.477406 95.9333303 72.5074352 95.5445608 73.3154222 93.8893454 73.8335208 93.0411211z"/>
    <path fill="#505F98" d="M176.451742,22.4726823 L176.451742,16.700913 L172.611874,16.700913 C172.169112,14.6800005 171.345921,12.7614573 170.186071,11.0472965 L173.144367,8.09347392 L169.079668,3.99356815 L166.121372,6.90012959 C164.182582,5.49536727 161.96239,4.52600604 159.61312,4.05855225 L159.61312,0 L153.838526,0 L153.838526,3.96993757 C151.511409,4.29287705 149.286981,5.13486221 147.330275,6.43342562 L144.963638,3.96993757 L140.786523,7.98713631 L143.099911,10.3797326 C141.664671,12.2466154 140.655052,14.4039323 140.141615,16.700913 L136,16.700913 L136,22.4726823 L139.999616,22.4726823 C140.342254,25.1442377 141.342361,27.6894369 142.91058,29.8808694 L140.419695,32.3207269 L144.50806,36.4560785 L147.016695,33.9689599 C149.069478,35.3794435 151.419883,36.2991827 153.885859,36.6569384 L153.885859,40.3137708 L159.660453,40.3137708 L159.660453,36.5683238 C161.859074,36.1330233 163.946361,35.2567639 165.79596,33.9925905 L168.795672,37.1000118 L172.972786,33.0828131 L169.925741,29.9340382 C171.519744,27.7433039 172.536979,25.1878116 172.884037,22.5022206 L176.451742,22.4726823 Z M156.388578,30.0817743 C151.006774,30.0752 146.649261,25.7136921 146.65579,20.3400272 C146.662334,14.9663623 151.030445,10.6154363 156.412249,10.6219531 C161.794052,10.6284845 166.15157,14.989988 166.145046,20.363653 C166.146623,22.9456299 165.118464,25.421965 163.287747,27.2454803 C161.457029,29.0689956 158.974453,30.0895826 156.388578,30.0817743 Z"/>
    <path fill="#505F98" d="M197.543515,29.7126117 L197.801273,26.3178915 L195.545891,26.1534414 C195.38026,24.9430688 194.982393,23.7763101 194.374263,22.7176086 L196.248867,21.11422 L194.046208,18.5241307 L192.189178,20.1040264 C191.122805,19.1930506 189.871447,18.5256783 188.521985,18.1482447 L188.703587,15.7578449 L185.323442,15.5052965 L185.147698,17.8545838 C183.774316,17.9499291 182.439442,18.3512216 181.240321,19.0292275 L179.969106,17.4786978 L177.34466,19.6517886 L178.592443,21.1612057 C177.675926,22.1987365 176.994428,23.422981 176.594819,24.7497422 L174.175408,24.5676724 L173.923509,27.9565194 L176.202324,28.1327159 C176.283839,29.7177452 176.756898,31.2576321 177.578986,32.6139815 L176.014863,33.9413289 L178.223381,36.5314182 L179.805078,35.180578 C180.94405,36.1008519 182.279018,36.7459394 183.706597,37.0658811 L183.542569,39.215479 L186.922714,39.4680274 L187.0926,37.2655705 C188.397426,37.1069609 189.656783,36.6854288 190.794942,36.0263214 L192.411788,37.9821031 L195.036233,35.8090123 L193.390096,33.8179913 C194.415261,32.6008515 195.118357,31.1445844 195.434586,29.5834009 L197.543515,29.7126117 Z M185.464038,33.2835284 C182.316828,33.041177 179.960913,30.2877117 180.200906,27.1322661 C180.4409,23.9768205 183.185995,21.6133224 186.333469,21.8521934 C189.480944,22.0910644 191.839887,24.8419229 191.603365,27.9976319 C191.492663,29.516479 190.782463,30.9283791 189.630095,31.9205562 C188.477726,32.9127333 186.97832,33.4032808 185.464038,33.2835284 Z"/>
  </g>
</svg>
