<svg xmlns="http://www.w3.org/2000/svg" width="180" height="140" viewBox="0 0 180 140">
  <defs>
    <linearGradient id="icon_wz_card_source-a" x1="47.485%" x2="62.64%" y1="68.116%" y2="-40.342%">
      <stop offset="0%" stop-color="#010101" stop-opacity="0"/>
      <stop offset="95%" stop-color="#010101"/>
    </linearGradient>
    <linearGradient id="icon_wz_card_source-b" x1="50.614%" x2="49.403%" y1="18.288%" y2="81.094%">
      <stop offset="0%" stop-color="#FFF" stop-opacity="0"/>
      <stop offset="7%" stop-color="#FFF" stop-opacity=".22"/>
      <stop offset="16%" stop-color="#FFF" stop-opacity=".45"/>
      <stop offset="25%" stop-color="#FFF" stop-opacity=".65"/>
      <stop offset="33%" stop-color="#FFF" stop-opacity=".8"/>
      <stop offset="40%" stop-color="#FFF" stop-opacity=".91"/>
      <stop offset="46%" stop-color="#FFF" stop-opacity=".98"/>
      <stop offset="51%" stop-color="#FFF"/>
    </linearGradient>
    <linearGradient id="icon_wz_card_source-c" x1="48.882%" x2="55.696%" y1="47.069%" y2="64.933%">
      <stop offset="0%" stop-color="#010101" stop-opacity="0"/>
      <stop offset="95%" stop-color="#010101"/>
    </linearGradient>
    <linearGradient id="icon_wz_card_source-d" x1="-55.446%" x2="673.45%" y1="50.173%" y2="49%">
      <stop offset="0%" stop-color="#FFF" stop-opacity="0"/>
      <stop offset="7%" stop-color="#FFF" stop-opacity=".22"/>
      <stop offset="16%" stop-color="#FFF" stop-opacity=".45"/>
      <stop offset="25%" stop-color="#FFF" stop-opacity=".65"/>
      <stop offset="33%" stop-color="#FFF" stop-opacity=".8"/>
      <stop offset="40%" stop-color="#FFF" stop-opacity=".91"/>
      <stop offset="46%" stop-color="#FFF" stop-opacity=".98"/>
      <stop offset="51%" stop-color="#FFF"/>
    </linearGradient>
    <linearGradient id="icon_wz_card_source-e" x1="49.743%" x2="50.352%" y1="-27.902%" y2="156.007%">
      <stop offset="0%" stop-color="#FFF" stop-opacity="0"/>
      <stop offset="7%" stop-color="#FFF" stop-opacity=".22"/>
      <stop offset="16%" stop-color="#FFF" stop-opacity=".45"/>
      <stop offset="25%" stop-color="#FFF" stop-opacity=".65"/>
      <stop offset="33%" stop-color="#FFF" stop-opacity=".8"/>
      <stop offset="40%" stop-color="#FFF" stop-opacity=".91"/>
      <stop offset="46%" stop-color="#FFF" stop-opacity=".98"/>
      <stop offset="51%" stop-color="#FFF"/>
    </linearGradient>
    <linearGradient id="icon_wz_card_source-f" x1="50.846%" x2="49.163%" y1="-11.403%" y2="110.199%">
      <stop offset="0%" stop-color="#FFF" stop-opacity="0"/>
      <stop offset="7%" stop-color="#FFF" stop-opacity=".22"/>
      <stop offset="16%" stop-color="#FFF" stop-opacity=".45"/>
      <stop offset="25%" stop-color="#FFF" stop-opacity=".65"/>
      <stop offset="33%" stop-color="#FFF" stop-opacity=".8"/>
      <stop offset="40%" stop-color="#FFF" stop-opacity=".91"/>
      <stop offset="46%" stop-color="#FFF" stop-opacity=".98"/>
      <stop offset="51%" stop-color="#FFF"/>
    </linearGradient>
    <linearGradient id="icon_wz_card_source-g" x1="42.907%" x2="142.811%" y1="513.712%" y2="-5910.402%">
      <stop offset="0%" stop-color="#010101" stop-opacity="0"/>
      <stop offset="95%" stop-color="#010101"/>
    </linearGradient>
    <linearGradient id="icon_wz_card_source-h" x1="35.589%" x2="135.493%" y1="984.161%" y2="-5439.953%">
      <stop offset="0%" stop-color="#010101" stop-opacity="0"/>
      <stop offset="95%" stop-color="#010101"/>
    </linearGradient>
    <linearGradient id="icon_wz_card_source-i" x1="43.205%" x2="143.259%" y1="487.47%" y2="-5936.643%">
      <stop offset="0%" stop-color="#010101" stop-opacity="0"/>
      <stop offset="95%" stop-color="#010101"/>
    </linearGradient>
    <linearGradient id="icon_wz_card_source-j" x1="35.888%" x2="135.941%" y1="957.92%" y2="-5466.194%">
      <stop offset="0%" stop-color="#010101" stop-opacity="0"/>
      <stop offset="95%" stop-color="#010101"/>
    </linearGradient>
    <linearGradient id="icon_wz_card_source-k" x1="27.525%" x2="127.579%" y1="1500.709%" y2="-4923.404%">
      <stop offset="0%" stop-color="#010101" stop-opacity="0"/>
      <stop offset="95%" stop-color="#010101"/>
    </linearGradient>
    <linearGradient id="icon_wz_card_source-l" x1="27.824%" x2="127.728%" y1="1475.177%" y2="-4948.936%">
      <stop offset="0%" stop-color="#010101" stop-opacity="0"/>
      <stop offset="95%" stop-color="#010101"/>
    </linearGradient>
    <linearGradient id="icon_wz_card_source-m" x1="27.525%" x2="127.579%" y1="1487.943%" y2="-4935.934%">
      <stop offset="0%" stop-color="#010101" stop-opacity="0"/>
      <stop offset="95%" stop-color="#010101"/>
    </linearGradient>
    <linearGradient id="icon_wz_card_source-n" x1="43.056%" x2="143.109%" y1="492.908%" y2="-5931.206%">
      <stop offset="0%" stop-color="#010101" stop-opacity="0"/>
      <stop offset="95%" stop-color="#010101"/>
    </linearGradient>
    <linearGradient id="icon_wz_card_source-o" x1="33.629%" x2="349.584%" y1="37.427%" y2="280.191%">
      <stop offset="0%" stop-color="#FFF" stop-opacity="0"/>
      <stop offset="7%" stop-color="#FFF" stop-opacity=".22"/>
      <stop offset="16%" stop-color="#FFF" stop-opacity=".45"/>
      <stop offset="25%" stop-color="#FFF" stop-opacity=".65"/>
      <stop offset="33%" stop-color="#FFF" stop-opacity=".8"/>
      <stop offset="40%" stop-color="#FFF" stop-opacity=".91"/>
      <stop offset="46%" stop-color="#FFF" stop-opacity=".98"/>
      <stop offset="51%" stop-color="#FFF"/>
    </linearGradient>
    <linearGradient id="icon_wz_card_source-p" x1="50.899%" x2="49.122%" y1="-18.243%" y2="116.919%">
      <stop offset="0%" stop-color="#FFF" stop-opacity="0"/>
      <stop offset="7%" stop-color="#FFF" stop-opacity=".22"/>
      <stop offset="16%" stop-color="#FFF" stop-opacity=".45"/>
      <stop offset="25%" stop-color="#FFF" stop-opacity=".65"/>
      <stop offset="33%" stop-color="#FFF" stop-opacity=".8"/>
      <stop offset="40%" stop-color="#FFF" stop-opacity=".91"/>
      <stop offset="46%" stop-color="#FFF" stop-opacity=".98"/>
      <stop offset="51%" stop-color="#FFF"/>
    </linearGradient>
    <linearGradient id="icon_wz_card_source-q" x1="50.286%" x2="49.802%" y1="44.565%" y2="55.331%">
      <stop offset="0%" stop-color="#FFF" stop-opacity="0"/>
      <stop offset="7%" stop-color="#FFF" stop-opacity=".22"/>
      <stop offset="16%" stop-color="#FFF" stop-opacity=".45"/>
      <stop offset="25%" stop-color="#FFF" stop-opacity=".65"/>
      <stop offset="33%" stop-color="#FFF" stop-opacity=".8"/>
      <stop offset="40%" stop-color="#FFF" stop-opacity=".91"/>
      <stop offset="46%" stop-color="#FFF" stop-opacity=".98"/>
      <stop offset="51%" stop-color="#FFF"/>
    </linearGradient>
    <linearGradient id="icon_wz_card_source-r" x1="50.881%" x2="38.159%" y1="60.072%" y2="-36.988%">
      <stop offset="0%" stop-color="#010101" stop-opacity="0"/>
      <stop offset="95%" stop-color="#010101"/>
    </linearGradient>
    <linearGradient id="icon_wz_card_source-s" x1="54.95%" x2="34.58%" y1="27.298%" y2="119.501%">
      <stop offset="0%" stop-color="#010101" stop-opacity="0"/>
      <stop offset="95%" stop-color="#010101"/>
    </linearGradient>
  </defs>
  <g fill="none" transform="translate(13 7)">
    <path fill="#505F98" d="M26.120645,99.1024884 C18.1123939,100.528229 9.85840232,102.095898 2.8114305,109.069767 C1.86822042,110.005208 0.91055502,111.108382 0.390163254,112.792175 C-0.654234109,116.179114 0.531102691,120.643423 2.37054303,122.682038 C4.20998337,124.720653 6.47946968,124.9529 8.64415487,125.120634 C47.1892838,128.09469 85.7922341,126.927002 124.369888,125.765766 C135.572766,125.430297 138.38653,124.50776 149.123224,118.746737 C151.05301,117.714527 153.174329,116.166212 153.900709,112.792175 C154.851147,108.379477 152.682848,103.489381 150.153166,102.115252 C147.623484,100.741122 144.923951,101.766881 142.307537,102.366853 C133.222364,104.450627 132.623879,101.799137 123.578458,99.2508686 C105.870683,94.2704549 87.4979627,90.2190302 69.5625159,89.4642266 C63.4479127,89.2126254 58.2259259,92.9672896 52.2414206,94.4510916 C43.600749,96.6058302 34.8082964,97.5541733 26.120645,99.1024884 Z" opacity=".24"/>
    <rect width="22.612" height="18.969" x="64.362" y="79.115" fill="#505F98"/>
    <rect width="22.612" height="18.969" x="64.362" y="79.115" fill="url(#icon_wz_card_source-a)"/>
    <rect width="119.519" height="82.122" x="16.37" fill="#505F98" rx="2.164"/>
    <path fill="url(#icon_wz_card_source-b)" d="M131.966374,6.80984472 L131.966374,74.849536 C131.9702,75.9785611 131.5266,77.0627402 130.733406,77.8629048 C129.940213,78.6630694 128.8626,79.1134719 127.738289,79.1147541 L23.597537,79.1147541 C22.4736217,79.1121832 21.3967564,78.6613682 20.6038406,77.861484 C19.8109248,77.0615998 19.3669106,75.9781692 19.3694656,74.849536 L19.3694656,6.80984472 C19.3669106,5.6812115 19.8109248,4.59778085 20.6038406,3.79789665 C21.3967564,2.99801245 22.4736217,2.54719751 23.597537,2.54462659 L127.738289,2.54462659 C128.8626,2.54590882 129.940213,2.99631134 130.733406,3.79647589 C131.5266,4.59664045 131.9702,5.68081959 131.966374,6.80984472 L131.966374,6.80984472 Z" opacity=".65"/>
    <rect width="47.531" height="4.858" x="53.979" y="95.77" fill="#505F98"/>
    <rect width="22.612" height="2.776" x="64.362" y="92.995" fill="url(#icon_wz_card_source-c)"/>
    <path fill="url(#icon_wz_card_source-d)" d="M131.966374,6.8272466 L131.966374,8.32786885 L19.3694656,8.32786885 L19.3694656,6.8272466 C19.3669104,5.69400861 19.8109627,4.60615761 20.6039466,3.80300993 C21.3969304,2.99986224 22.4738882,2.547208 23.5979,2.54462659 L127.737926,2.54462659 C128.862334,2.54591405 129.940039,2.99815419 130.7333,3.80158337 C131.526562,4.60501256 131.9702,5.6936151 131.966374,6.8272466 L131.966374,6.8272466 Z"/>
    <rect width="10.844" height="52.512" x="21.677" y="15.73" fill="url(#icon_wz_card_source-e)"/>
    <rect width="50.992" height="48.348" x="48.903" y="19.432" fill="url(#icon_wz_card_source-f)"/>
    <rect width="1.615" height="2.082" x="60.67" y="42.102" fill="url(#icon_wz_card_source-g)"/>
    <rect width="1.615" height="2.082" x="60.67" y="32.386" fill="url(#icon_wz_card_source-h)"/>
    <rect width="1.615" height="2.082" x="38.751" y="42.102" fill="url(#icon_wz_card_source-i)"/>
    <rect width="1.615" height="2.082" x="38.751" y="32.386" fill="url(#icon_wz_card_source-j)"/>
    <rect width="1.615" height="2.082" x="60.67" y="21.976" fill="url(#icon_wz_card_source-k)"/>
    <rect width="1.615" height="2.082" x="38.982" y="21.976" fill="url(#icon_wz_card_source-l)"/>
    <rect width="1.615" height="2.082" x="50.057" y="21.976" fill="url(#icon_wz_card_source-m)"/>
    <rect width="1.615" height="2.082" x="50.057" y="42.102" fill="url(#icon_wz_card_source-n)"/>
    <path fill="#505F98" d="M59.7474552,41.6393443 L41.7504084,41.6393443 L41.7504084,24.7522769 L59.7474552,24.7522769 L59.7474552,41.6393443 Z M43.5631649,39.8539904 L57.9346987,39.8539904 L57.9346987,26.5233479 L43.5631649,26.5233479 L43.5631649,39.8539904 Z"/>
    <path fill="url(#icon_wz_card_source-o)" d="M59.7474552,41.6393443 L41.7504084,41.6393443 L41.7504084,24.7522769 L59.7474552,24.7522769 L59.7474552,41.6393443 Z M43.5631649,39.8539904 L57.9346987,39.8539904 L57.9346987,26.5233479 L43.5631649,26.5233479 L43.5631649,39.8539904 Z"/>
    <rect width="23.073" height="23.133" x="107.278" y="11.104" fill="url(#icon_wz_card_source-p)"/>
    <rect width="23.073" height="23.133" x="107.278" y="36.55" fill="url(#icon_wz_card_source-p)"/>
    <rect width="10.844" height="3.007" x="21.677" y="15.499" fill="url(#icon_wz_card_source-q)" opacity=".65"/>
    <path fill="#28353D" d="M47.2053687,52.7431694 C47.0501457,51.9186064 46.9521101,50.7515325 47.2503017,50.6711905 C47.8793633,50.4935923 47.2053687,52.7431694 47.2053687,52.7431694 Z"/>
    <path fill="#606161" d="M80.2368613,97.9696575 C80.1248024,100.883248 77.8738807,111.590693 77.8007988,114.50914 C77.8007988,115.480337 78.0590214,116.971124 77.7472055,117.908329 C77.104085,119.894426 74.8239305,119.622491 74.5267309,118.452199 L74.414672,117.869481 C73.3574209,112.197691 75.0577925,105.763512 74.414672,98.3581362 C74.0297741,93.8372149 72.2368321,85.1207232 71.06265,85.0624514 C70.4438902,85.0624514 56.3196,114.936466 55.0918245,116.776884 C54.487681,117.704377 52.7873094,117.558698 51.9639203,118.306519 C51.1405312,119.054341 58.8238722,95.658209 62.0443468,83.2948732 C62.7954439,80.7431144 63.2851581,78.1220611 63.5059843,75.4718826 C63.5936825,73.9422475 63.1015979,73.4275132 64.509642,72.9759067 C65.484067,72.6651237 66.8336456,72.7525314 67.8762803,72.6796916 C69.0114854,72.5922839 79.5693802,72.57286 79.5693802,73.3206815 C79.4670656,77.3802844 80.5097003,91.2392634 80.2368613,97.9696575 Z"/>
    <path fill="url(#icon_wz_card_source-r)" d="M80.2368613,97.9696575 C80.1248024,100.883248 77.8738807,111.590693 77.8007988,114.50914 C77.8007988,115.480337 78.0590214,116.971124 77.7472055,117.908329 C77.104085,119.894426 74.8239305,119.622491 74.5267309,118.452199 L74.414672,117.869481 C73.3574209,112.197691 75.0577925,105.763512 74.414672,98.3581362 C74.0297741,93.8372149 72.2368321,85.1207232 71.06265,85.0624514 C70.4438902,85.0624514 56.3196,114.936466 55.0918245,116.776884 C54.487681,117.704377 52.7873094,117.558698 51.9639203,118.306519 C51.1405312,119.054341 58.8238722,95.658209 62.0443468,83.2948732 C62.7954439,80.7431144 63.2851581,78.1220611 63.5059843,75.4718826 C63.5936825,73.9422475 63.1015979,73.4275132 64.509642,72.9759067 C65.484067,72.6651237 66.8336456,72.7525314 67.8762803,72.6796916 C69.0114854,72.5922839 79.5693802,72.57286 79.5693802,73.3206815 C79.4670656,77.3802844 80.5097003,91.2392634 80.2368613,97.9696575 Z"/>
    <path fill="#FFCD9C" d="M67.7691576 35.8904336C67.6803688 34.9683845 67.2462901 34.4681239 66.8220768 34.4681239 66.3978635 34.4681239 66.1364298 34.9585755 66.2252186 35.8904336 66.2453662 36.5783112 66.7627857 37.1508575 67.4485313 37.2440801 67.8776773 37.2440801 67.8628791 36.8124827 67.7691576 35.8904336zM75.2382551 35.892951C75.2959965 34.96927 75.7194327 34.4681239 76.1573043 34.4681239 76.5951758 34.4681239 76.8790706 34.9594436 76.8117057 35.892951 76.8056117 36.5901696 76.2879192 37.1716343 75.6087619 37.2440801 75.1757021 37.2440801 75.1708903 36.816632 75.2382551 35.892951z"/>
    <path fill="#F4AD7D" d="M76.0970261,39.9440879 C76.037301,40.4311836 73.9817623,42.564663 71.6425295,42.564663 C69.3032966,42.564663 67.3721853,40.61628 66.9640638,39.8369268 C66.5559423,39.0575736 68.1983824,29.033143 69.1490068,28.1953383 C70.0996312,27.3575336 73.9518998,27.9079518 74.2754107,28.351209 C75.0518369,29.3984648 76.3508577,38.0005758 76.0970261,39.9440879 Z"/>
    <path fill="#FFCD9C" d="M75.1300105 32.3808248C74.8119935 32.5339511 73.563309 29.3422253 73.3014127 28.8062833 73.0395163 28.2703413 73.0816068 27.7200438 73.3996238 27.5669175 73.7176408 27.4137912 74.1853129 27.7296141 74.4472093 28.2607709 74.7091056 28.7919277 75.4433508 32.2324837 75.1300105 32.3808248zM68.127464 32.1518584C67.7976314 32.0393012 68.6709909 28.7262034 68.8614576 28.1536296 69.0519243 27.5810558 69.479313 27.2042338 69.7905634 27.316791 70.1018139 27.4293482 70.2318887 27.9872406 70.041422 28.5647082 69.8509553 29.1421758 68.4387144 32.2644156 68.127464 32.1518584z"/>
    <path fill="#F4AD7D" d="M69.4364836,39.557377 L74.4544686,39.557377 L75.206457,44.3279124 C72.4728139,45.8043854 70.878977,45.6414642 68.7459786,44.00207 L69.4364836,39.557377 Z"/>
    <path fill="#F4AD7D" d="M71.5147551,40.5127687 C71.5147551,40.4248634 71.723512,40.3508379 71.9762178,40.3508379 C72.2289236,40.3508379 72.4376805,40.4248634 72.4376805,40.5127687 C72.4376805,40.600674 72.2344172,40.6145537 71.9762178,40.6145537 C71.7180184,40.6145537 71.5147551,40.6053005 71.5147551,40.5127687 Z"/>
    <path fill="#606161" d="M76.3644115,38.3562464 C76.5543609,37.2195793 76.8642782,29.0800547 76.1044809,28.0026921 C75.3446835,26.9253294 70.7958969,26.228503 70.1060809,26.3965321 C68.5614929,26.7721264 68.8314209,27.8791413 68.8314209,27.8791413 C68.3723276,27.8860281 67.922859,28.0103172 67.5267689,28.2399095 C66.9969102,28.5957357 65.8822075,33.7255636 66.7719702,37.6050577 C67.1718635,39.3495945 68.7464435,40.866798 71.4657182,40.9409284 C74.8148249,41.029885 76.1344729,39.7647251 76.3644115,38.3562464 Z"/>
    <path fill="#606161" d="M70.124882,26.7791849 C70.4844124,26.4753028 70.9501312,26.3317188 71.4159248,26.3811485 C72.8299193,26.3735023 74.2327164,26.6352203 75.5511446,27.1526511 C76.2821681,27.4096779 76.9459986,27.8314226 77.4925624,28.3860724 C78.0429664,28.9562411 78.2964543,29.7553046 78.1769122,30.5433312 C77.9342349,31.703042 76.7208488,32.4204903 76.3228582,33.5359749 C76.0025243,34.4303282 76.2306409,35.2951973 76.2403479,36.1944646 C76.2467765,36.9215293 76.1948344,37.6479204 76.0850345,38.3664655 C75.8617715,39.7669637 74.5852893,41.0249552 71.3091469,40.9414167 C68.6688187,40.8677063 67.1399522,39.3590993 66.7516687,37.6244471 C66.2260074,34.7453467 66.3638678,31.7822501 67.1545129,28.9659278 C68.5774881,29.2975536 70.0334041,29.4624373 71.4935815,29.4573307 C73.0418698,29.4703424 74.5857693,29.2887739 76.0898881,28.9167875 C76.3471259,30.4204804 76.3422724,33.4327803 76.2597621,35.6834056"/>
    <path fill="#505F98" d="M62.0252195,43.4792967 C61.2334247,43.5457703 60.4706113,43.8102442 59.8059109,44.24875 C58.6674344,45.1488651 58.5809678,46.8281122 58.6001826,48.2895895 C58.5611684,50.3144715 58.7010268,52.3388362 59.0181044,54.3387505 C59.3591669,56.1728561 59.978844,57.9343717 60.488036,59.7297627 C61.290644,62.65134 61.7121107,65.6657866 61.7418013,68.6970389 C61.7418013,70.361768 61.7129791,72.1910343 62.7457742,73.4928137 C63.8746433,74.9058977 65.8729817,75.1817395 67.6695648,75.2833654 C70.2203286,75.4333846 72.7806997,75.4527419 75.3314635,75.3462767 C77.04158,75.2688474 78.8621817,75.0994709 80.2168246,74.0444972 C81.2976567,73.202454 83.8292056,44.7133255 81.864493,43.9922655 C79.8997805,43.2712056 77.7861533,43.0873111 75.7013482,42.9130952 C71.0273499,42.5162703 66.6271623,42.2017139 62.0252195,43.4792967 Z"/>
    <path fill="url(#icon_wz_card_source-s)" d="M76.7401666,102.546292 C76.4895586,105.77674 75.8919548,117.515483 75.8919548,117.515483 L74.3690292,117.462366 C73.3232226,111.822361 75.005188,105.424239 74.3690292,98.0603629 C73.9882978,93.5647768 72.2147641,84.8971322 71.0532923,84.839187 C71.400288,81.9419242 73.352139,82.3765136 73.352139,82.3765136 C74.7717018,84.5033783 75.9960112,86.7547415 77.0100521,89.1029921 C78.1715239,92.1547756 76.995594,99.3013572 76.7401666,102.546292 Z"/>
    <path fill="#505F98" d="M48.0669584 117.752295C47.8291265 117.92871 47.6486387 118.170078 47.5477178 118.446681 47.4936119 118.674105 47.5155433 118.912755 47.610219 119.126799 47.8791575 119.672767 48.3888103 120.06451 48.9900526 120.187403 49.5841016 120.300783 50.1924112 120.321644 50.792971 120.249232L52.716084 120.120818C53.2054192 120.109237 53.6907888 120.030812 54.1584188 119.887771 54.6265286 119.742472 55.0129145 119.411894 55.2257465 118.974605 55.3390038 118.652644 55.3832132 118.310872 55.3555566 117.971074 55.3555566 116.396814 54.7978538 115.117431 53.0574366 115.502673 51.2343733 115.841824 49.52182 116.613814 48.0669584 117.752295L48.0669584 117.752295zM80.0099198 118.455339C80.228442 118.616305 80.394101 118.836136 80.4865508 119.087835 80.5359091 119.292626 80.5165601 119.5075 80.4313619 119.700719 80.186278 120.195241 79.7183763 120.549074 79.1670355 120.656818 78.6235457 120.762287 78.0662952 120.78215 77.5163872 120.715655L75.7704127 120.597981C75.3263019 120.588555 74.8856486 120.519258 74.4609318 120.392052 74.0327617 120.260022 73.6801269 119.959815 73.4876012 119.563433 73.3843514 119.27232 73.3433678 118.963588 73.3671892 118.656365 73.3671892 117.234474 73.868906 116.062639 75.4693826 116.425467 77.1286122 116.733252 78.6866761 117.429793 80.0099198 118.455339L80.0099198 118.455339zM82.1283981 43.9526412C82.1283981 43.9526412 89.6717075 48.3857272 91.9371735 53.9897263 94.2026395 59.5937253 84.5175249 73.1001821 84.5175249 73.1001821L82.4449697 70.975192C82.4449697 70.975192 87.5002236 60.7839126 86.7186873 58.2348881 85.937151 55.6858636 82.8753094 53.3103077 82.8753094 53.3103077L82.1283981 43.9526412zM60.6703807 52.7105589C60.6703807 52.7105589 50.1820251 57.4252061 45.9199212 55.1116266 41.6578173 52.7980472 46.0457041 41.1766849 46.0457041 41.1766849L48.9000075 42.1487771C48.9000075 42.1487771 46.5149709 48.0736791 49.2434915 48.9534225 51.972012 49.8331659 60.147898 44.0540778 60.147898 44.0540778L60.6703807 52.7105589z"/>
    <path fill="#F4AD7D" d="M80.4165998 72.8633338C80.1148782 73.0600038 79.8703846 73.3240723 79.7052966 73.6315859 79.6061879 73.8925416 79.5705026 74.1709028 79.6008394 74.4463987 79.5825355 75.1148447 79.885605 75.7557097 80.4265481 76.1924261 80.8066225 76.3966129 81.2325134 76.5146154 81.6700852 76.5369755 81.9382845 76.5811782 82.2126721 76.5811782 82.4808714 76.5369755 82.7544439 76.4881984 82.9829275 76.3128926 83.0877175 76.0713682 83.1234727 75.9185419 83.1385136 75.7621074 83.1324849 75.6057609 83.1673039 74.8375088 83.7443051 74.2089389 84.2218234 73.5803691 84.3371667 73.4589258 84.4115812 73.3082744 84.4357118 73.1473543 84.4329255 72.9691843 84.3663693 72.797039 84.2466941 72.6584666 83.9233745 72.2207957 83.1225366 71.415295 82.4808714 71.4851361 81.8392063 71.5549772 80.9140146 72.4815358 80.4165998 72.8633338zM50.7002744 39.4266129C50.8369235 39.2361533 50.9301231 39.0204339 50.9738383 38.7934237 51.0086743 38.5586365 50.884938 38.3283271 50.6648124 38.2182366 50.3152586 38.0877319 49.8998468 38.4309108 49.5553589 38.2859056 49.4388031 38.2236769 49.3410788 38.1337675 49.271663 38.0248964 48.8649028 37.46267 48.6314789 36.802908 48.5978853 36.1204952 48.617713 35.756842 48.5836027 35.3923396 48.4965654 35.03779 48.3941224 34.6729936 48.0290595 34.4332749 47.6353458 34.4722699 47.3111219 34.5447725 47.128746 34.8589503 46.9261061 35.1102926 46.7234662 35.3616349 46.3181864 35.6613122 46.0547545 35.9754901 45.604985 36.6211527 45.3475783 37.371299 45.3100529 38.145734 45.1682049 39.1124351 45.077017 40.2193078 45.7862566 40.9153326 46.3333844 41.4518517 48.0000976 42.0850409 48.7650633 41.7998641 49.6110849 41.4808527 50.2747306 40.1226377 50.7002744 39.4266129z"/>
  </g>
</svg>
