<svg xmlns="http://www.w3.org/2000/svg" width="32" height="32" viewBox="0 0 32 32">
  <path fill="#0076FF" fill-rule="evenodd" d="M22.7041817,15.7384076 C22.0664162,17.0939451 21.3852186,18.5409186 21.106339,20.0907574 L18.7427205,20.0907574 C19.0284578,18.0928826 19.8399516,16.3624578 20.5965838,14.7577574 C21.3875045,13.0707647 22.1098483,11.5323553 21.8766867,10.2202499 C21.5909494,8.61326361 20.5622953,7.44745564 19.2319027,6.75025675 C18.2855409,6.25878868 17.1883099,5.99819631 16.0842212,5.97762323 C14.9824183,5.95705015 13.8806155,6.18106815 12.9182525,6.65653493 C11.5672868,7.32401715 10.4974865,8.5126841 10.1340287,10.2545384 C9.86429276,11.539213 10.6003519,13.0776224 11.4095598,14.7806164 C12.1730497,16.380745 12.9914012,18.0928826 13.2748526,20.0907574 L10.9089481,20.0907574 C10.6300686,18.5683493 9.94201329,17.1259477 9.29967595,15.7841256 C8.31445392,13.7153879 7.41838191,11.8363798 7.85041663,9.78135748 C8.38074496,7.25544021 9.9305838,5.53187312 11.8873125,4.56493828 C13.1834166,3.92260094 14.6578208,3.6254342 16.1230814,3.65286498 C17.5814844,3.67343806 19.0398873,4.02775225 20.3108465,4.68837677 C22.249288,5.70331547 23.7488371,7.42916845 24.1763,9.81793185 C24.535186,11.8386657 23.6642589,13.6993866 22.7041817,15.7384076 L22.7041817,15.7384076 Z M10.911234,23.3801646 L21.085766,23.3801646 L21.085766,21.5720193 L10.911234,21.5720193 L10.911234,23.3801646 Z M10.911234,26.2581102 L21.085766,26.2581102 L21.085766,24.4431072 L10.911234,24.4431072 L10.911234,26.2581102 Z M14.1800682,29.1269121 L17.8192177,29.1269121 L17.8192177,27.3187668 L14.1800682,27.3187668 L14.1800682,29.1269121 Z M15.9996429,-2.27373675e-13 C7.16007544,-2.27373675e-13 0.000642948993,7.16629018 0.000642948993,16.0081436 C0.000642948993,24.8362816 7.16007544,31.998 15.9996429,31.998 C24.8346387,31.998 31.9963571,24.8362816 31.9963571,16.0081436 C31.9963571,7.16629018 24.8346387,-2.27373675e-13 15.9996429,-2.27373675e-13 L15.9996429,-2.27373675e-13 Z"/>
</svg>
