<svg xmlns="http://www.w3.org/2000/svg" width="30" height="30" viewBox="0 0 30 30">
  <g fill="none" fill-rule="evenodd">
    <circle cx="15" cy="15" r="15" fill="#45414E"/>
    <path fill="#FFF" fill-rule="nonzero" d="M19.4472656,21 L10.8427734,21 L10.8427734,19.5322266 L15.1054688,14.8828125 C15.7207062,14.1972622 16.1586901,13.624514 16.4194336,13.1645508 C16.6801771,12.7045875 16.8105469,12.2431664 16.8105469,11.7802734 C16.8105469,11.1708954 16.6391619,10.6787128 16.2963867,10.3037109 C15.9536116,9.92870906 15.4921904,9.74121094 14.9121094,9.74121094 C14.2206997,9.74121094 13.6845722,9.95214633 13.3037109,10.3740234 C12.9228497,10.7959005 12.7324219,11.3730432 12.7324219,12.1054688 L10.5966797,12.1054688 C10.5966797,11.326168 10.773924,10.6245148 11.128418,10.0004883 C11.4829119,9.37646172 11.9897428,8.89160329 12.6489258,8.54589844 C13.3081088,8.20019358 14.0683551,8.02734375 14.9296875,8.02734375 C16.1718812,8.02734375 17.1518519,8.33935235 17.8696289,8.96337891 C18.5874059,9.58740546 18.9462891,10.4501898 18.9462891,11.5517578 C18.9462891,12.1904329 18.7661151,12.8598598 18.4057617,13.5600586 C18.0454084,14.2602574 17.4550822,15.0556596 16.6347656,15.9462891 L13.5058594,19.2949219 L19.4472656,19.2949219 L19.4472656,21 Z"/>
  </g>
</svg>
