<svg xmlns="http://www.w3.org/2000/svg" width="24" height="24" viewBox="0 0 24 24">
  <path d="M3.5,5.5 L3.5,19.5 L20.5,19.5 L20.5,9.00390625 L11.1064973,9.00390625 C10.6131421,9.00390625 10.1414113,8.8014069 9.80158745,8.44374912 L7.00462302,5.5 L3.5,5.5 Z M3.5,4 L7.00462302,4 C7.41575232,4 7.80886135,4.16874946 8.09204787,4.46679761 L10.8890123,7.41054673 C10.9456496,7.47015636 11.0242714,7.50390625 11.1064973,7.50390625 L20.5,7.50390625 C21.3284271,7.50390625 22,8.17547913 22,9.00390625 L22,19.5 C22,20.3284271 21.3284271,21 20.5,21 L3.5,21 C2.67157288,21 2,20.3284271 2,19.5 L2,5.5 C2,4.67157288 2.67157288,4 3.5,4 Z M11,13.5 L11,11.25 C11,10.8357864 11.3357864,10.5 11.75,10.5 C12.1642136,10.5 12.5,10.8357864 12.5,11.25 L12.5,13.5 L14.75,13.5 C15.1642136,13.5 15.5,13.8357864 15.5,14.25 C15.5,14.6642136 15.1642136,15 14.75,15 L12.5,15 L12.5,17.25 C12.5,17.6642136 12.1642136,18 11.75,18 C11.3357864,18 11,17.6642136 11,17.25 L11,15 L8.75,15 C8.33578644,15 8,14.6642136 8,14.25 C8,13.8357864 8.33578644,13.5 8.75,13.5 L11,13.5 Z"/>
</svg>
