<svg xmlns="http://www.w3.org/2000/svg" width="40" height="40" viewBox="0 0 40 40">
  <path fill="#FFF" d="M13.0016103,25.1369794 L18.0680645,19.902726 L13.0034122,14.6973525 C12.6182751,14.3015143 12.6269499,13.6684088 13.0227881,13.2832716 C13.4186262,12.8981345 14.0517318,12.9068094 14.4368689,13.3026475 L20.1782677,19.2035708 C20.5552627,19.5910407 20.5560608,20.2079751 20.1800696,20.596419 L14.4386708,26.5279708 C14.0545592,26.9248041 13.4214782,26.9351171 13.0246449,26.5510054 C12.6278116,26.1668937 12.6174986,25.5338128 13.0016103,25.1369794 Z M20.5400718,25.1369794 L25.6065261,19.902726 L20.5418737,14.6973525 C20.1567366,14.3015143 20.1654115,13.6684088 20.5612496,13.2832716 C20.9570878,12.8981345 21.5901933,12.9068094 21.9753305,13.3026475 L27.7167292,19.2035708 C28.0937242,19.5910407 28.0945223,20.2079751 27.7185311,20.596419 L21.9771324,26.5279708 C21.5930207,26.9248041 20.9599397,26.9351171 20.5631064,26.5510054 C20.1662731,26.1668937 20.1559602,25.5338128 20.5400718,25.1369794 Z"/>
</svg>
