<svg xmlns="http://www.w3.org/2000/svg" xmlns:xlink="http://www.w3.org/1999/xlink" width="180" height="140" viewBox="0 0 180 140">
  <defs>
    <linearGradient id="icon_wz_card_nas-b" x1="50%" x2="50%" y1="22.5%" y2="100%">
      <stop offset="0%" stop-color="#767676"/>
      <stop offset="100%" stop-color="#585858"/>
    </linearGradient>
    <rect id="icon_wz_card_nas-a" width="60" height="60" x="0" y="0" rx="7.44"/>
    <linearGradient id="icon_wz_card_nas-d" x1="0%" x2="100%" y1="50%" y2="50%">
      <stop offset="0%" stop-color="#626262"/>
      <stop offset="100%" stop-color="#474747"/>
    </linearGradient>
    <linearGradient id="icon_wz_card_nas-e" x1="0%" x2="100%" y1="50%" y2="50%">
      <stop offset="0%" stop-color="#626262"/>
      <stop offset="100%" stop-color="#474747"/>
    </linearGradient>
  </defs>
  <g fill="none" fill-rule="evenodd" transform="translate(8 4)">
    <g transform="matrix(-1 0 0 1 148 1)">
      <g transform="translate(37)">
        <path fill="#B28B67" d="M2.47868216,10.347038 C1.0963093,8.72441276 0.160690438,6.73586313 0.3170329,4.50763617 C0.767499066,-1.91250617 9.70455919,-0.500156657 11.4430024,2.74017988 C13.1814456,5.98051641 12.9748734,14.1998987 10.7280904,14.7790373 C9.83207672,15.0099969 7.92330141,14.4442386 5.98061321,13.2732928 L7.2,21.9 L0,21.9 L2.47868216,10.347038 Z" transform="translate(1.2 2.3)"/>
        <path fill="#191847" d="M3.12544151,14.092256 C2.22177063,10.0719376 -0.352640186,7.3314213 0.0405340994,5.5345109 C0.30265029,4.33657064 1.00126852,3.59161365 2.13638878,3.29963993 C2.72346223,0.924650256 4.61689456,-0.08552542 7.81668578,0.2691129 C12.6163726,0.801070381 15.5458343,2.79432761 14.2807446,7.18036336 C13.1178296,7.18036336 11.7139427,6.759796 9.77265899,7.48036336 C9.15669748,7.70899648 8.71614376,8.41800785 8.45099782,9.60739745 L7.57373935,9.60739745 C6.72232307,8.19591716 5.88282115,7.67723667 5.05523361,8.05135598 C4.22764606,8.4254753 4.03952196,9.3342126 4.4908613,10.7775679 L4.05872281,14.092256 L3.12544151,14.092256 Z"/>
      </g>
      <g transform="translate(0 49.1)">
        <g transform="translate(16.5 13)">
          <polygon fill="#C5CFD6" points="8.287 0 31.463 0 34.5 37.2 0 37.2"/>
          <polygon fill="#000" fill-opacity=".1" points="8.287 0 15.415 0 19.681 37.2 0 37.2"/>
        </g>
        <path fill="#B28B67" d="M74.3859884,6.22683776 C76.857028,4.74304415 81.0028468,6.64941454 81.0000015,8.77152461 C80.9914833,15.1208732 75.1970046,45.0453301 74.8944672,46.9370132 C74.5919298,48.8286962 71.3509951,49.3283611 71.1622649,46.9432126 C70.8619633,43.1480385 70.3040401,30.0099364 70.8622649,23.9287957 C71.0926885,21.4186279 71.3408424,19.0280279 71.5851447,16.8952767 C68.5445702,22.3861821 63.8421682,30.2478 57.4779384,40.4801334 L54.0229718,38.9016524 C56.7360497,29.9628296 58.9607327,23.6522585 60.697021,19.9699392 C63.6699681,13.6649146 66.457592,8.26550161 67.6308129,6.36360217 C69.4762901,3.37191324 72.6886382,4.41575767 74.3859884,6.22683776 Z"/>
        <path fill="#1F28CF" d="M59.6457668,37.0020335 L61.1810765,6.54898047 C62.2876083,1.28321987 71.6530949,3.72706048 71.6492447,6.54898047 C71.6404998,12.9556124 67.7920566,35.0870285 67.7894516,36.9957782 L59.6457668,37.0020335 Z" transform="rotate(20 65.648 20.226)"/>
        <path fill="#E4E4E4" d="M0.80344113,2.62057303 C0.46781371,3.51652115 0.3,4.18689722 0.3,4.63170125 C0.3,5.17268711 0.390124261,5.96212003 0.570372784,7 C1.19795435,7 6.83813557,7 17.4909164,7 C17.9306214,5.54635218 17.6767982,4.76157449 16.7294469,4.64566695 C15.7820955,4.5297594 14.9951147,4.42510417 14.3685043,4.33170125 L6.50399779,0.825665038 C6.35266905,0.758201929 6.17530321,0.82618846 6.1078401,0.977517205 C6.10668599,0.980106021 6.10556863,0.982711063 6.10448835,0.985331546 L5.59896393,2.21160851 C4.72196437,2.62079565 4.00931117,2.82538921 3.46100434,2.82538921 C3.01550802,2.82538921 2.40027001,2.64546352 1.6152903,2.28561214 L1.61526647,2.28566413 C1.31406763,2.14758819 0.95796506,2.27982542 0.819889112,2.58102425 C0.813937453,2.5940072 0.808451297,2.60719853 0.80344113,2.62057303 Z" transform="rotate(30 -37.275 119.4)"/>
        <path fill="#E4E4E4" d="M0.80344113,2.62057303 C0.46781371,3.51652115 0.3,4.18689722 0.3,4.63170125 C0.3,5.17268711 0.390124261,5.96212003 0.570372784,7 C1.19795435,7 6.83813557,7 17.4909164,7 C17.9306214,5.54635218 17.6767982,4.76157449 16.7294469,4.64566695 C15.7820955,4.5297594 14.9951147,4.42510417 14.3685043,4.33170125 L6.50399779,0.825665038 C6.35266905,0.758201929 6.17530321,0.82618846 6.1078401,0.977517205 C6.10668599,0.980106021 6.10556863,0.982711063 6.10448835,0.985331546 L5.59896393,2.21160851 C4.72196437,2.62079565 4.00931117,2.82538921 3.46100434,2.82538921 C3.01550802,2.82538921 2.40027001,2.64546352 1.6152903,2.28561214 L1.61526647,2.28566413 C1.31406763,2.14758819 0.95796506,2.27982542 0.819889112,2.58102425 C0.813937453,2.5940072 0.808451297,2.60719853 0.80344113,2.62057303 Z" transform="translate(70 43)"/>
        <path fill="#2B44FF" d="M81.8311119,10.9299083 C81.8311119,18.9 78.0460799,37.491088 78.0436848,39.2460335 L69.9,39.2522888 C71.0919832,22.6636443 71.5146515,14.2799678 71.1680049,14.1012594 C70.648035,13.8331967 49.8527513,16.1775092 43.6159074,16.1775092 C34.6223475,16.1775092 30.901892,10.5061191 30.6,-4.54747351e-13 L48.4159074,-4.54747351e-13 C52.0433861,0.38816008 70.9646476,4.20457703 77.991629,5.51652386 C81,6.07819075 81.8311119,8.73435327 81.8311119,10.9299083 Z"/>
      </g>
      <g transform="translate(14 16)">
        <path fill="#B28B67" d="M47.2343614,29.6634456 L56.8038427,36.6905252 C59.3992831,37.3908687 61.5676896,38.2622142 63.3090623,39.3045619 C63.7204048,39.6793834 64.2175508,40.4384592 62.5116141,40.3072719 C60.8056774,40.1760846 59.0053879,40.1148176 58.7700018,40.6966862 C58.5346157,41.2785548 59.5669562,41.9744059 59.0911383,42.759499 C58.7739264,43.2828944 57.27529,41.9704998 54.595229,38.8223151 L45.1189321,34.8927341 L47.2343614,29.6634456 Z M10.4923784,29.9059674 L16.761596,29.9306213 C12.8906434,42.4267217 10.8009042,49.0570743 10.4923784,49.8216791 C9.79819537,51.5420398 11.26718,54.1621195 11.8953762,55.5701308 C9.84936226,56.4856611 10.0673672,53.0950787 7.48637568,54.2958477 C5.13056628,55.3918539 3.33850793,57.377744 0.616710563,55.6983114 C0.28208157,55.4918351 -0.0846172875,54.7144143 0.801373513,54.1069011 C3.0086997,52.5933641 6.18959046,49.9444017 6.6193789,49.0724753 C7.20547222,47.8834477 8.49647205,41.4946118 10.4923784,29.9059674 Z"/>
        <path fill="#E87613" d="M26.8195202,4.87409323 L29.3650056,4.20474203 C39.67805,11.6488509 45.0085128,27.2169022 57.4989868,34.618208 L54.9769191,38.3721618 C34.3667715,37.6314924 27.6149942,18.6640706 26.8195202,4.87409323 Z" transform="rotate(5 42.16 21.288)"/>
        <path fill="#DDE3E9" d="M17,36.2 C27.4015268,36.2 35.0526718,36.2 39.9534352,36.2 C41.0022901,36.2 40.8046534,34.6854911 40.6530351,33.9212617 C38.9031763,25.1011299 32.0723913,15.5934546 32.0723913,3.03821909 L25.45154,2 C19.9752455,10.807522 18.0814479,21.651365 17,36.2 Z"/>
        <path fill="#FF9B21" d="M17.1844524,10.6573875 C16.2228568,10.3809765 15.4613727,9.73629968 14.9,8.72335706 C12.4800671,4.35682273 13.3540181,1.95272216 15.9401589,1.16248073 C18.5262997,0.372239298 20.8325958,2 24.9530094,2 C25.1771256,2 25.3823908,2.01404976 25.5688049,2.04214928 L27.6414762,2.16042198 C33.5881958,22.3145583 35.2282656,35.7610843 32.5616855,42.5 L14.4955442,42.5 C13.4251445,44.9959613 12.4008624,47.0959613 11.4226978,48.8 L6.5,48.8 C6.03670497,33.8201273 9.5981891,21.1059231 17.1844524,10.6573875 Z"/>
        <path fill="#000" fill-opacity=".1" d="M18.4295686,32.1492898 C18.9977452,36.9032069 19.9212223,40.3534436 21.2,42.5 L14.4955442,42.5 C15.7441355,39.5885308 17.055477,36.1382941 18.4295686,32.1492898 Z"/>
      </g>
    </g>
    <g transform="translate(98 67)">
      <mask id="icon_wz_card_nas-c" fill="#fff">
        <use xlink:href="#icon_wz_card_nas-a"/>
      </mask>
      <use fill="url(#icon_wz_card_nas-b)" fill-rule="nonzero" xlink:href="#icon_wz_card_nas-a"/>
      <path fill="#454545" fill-rule="nonzero" d="M7.44034699,0 L18.5611511,0 L18.5611511,60 L7.44034699,60 C3.33115681,60 1.39140908e-15,56.6688432 0,52.559653 L0,7.44034699 C3.8494776e-16,3.33115681 3.33115681,1.64302441e-15 7.44034699,0 Z" mask="url(#icon_wz_card_nas-c)"/>
      <path fill="#5D5D5D" fill-rule="nonzero" d="M7.44034699,-8.18545232e-12 L52.559653,-8.18545232e-12 C56.6688432,-8.18798352e-12 60,3.33115681 60,7.44034699 L60,13.9410971 L-2.27373675e-13,13.9410971 L-2.27373675e-13,7.44034699 C-2.27876906e-13,3.33115681 3.33115681,-8.18647383e-12 7.44034699,-8.18545232e-12 Z" mask="url(#icon_wz_card_nas-c)"/>
      <polygon fill="#FFF" fill-rule="nonzero" points="0 6.794 60 43.923 60 63.029 0 25.899" mask="url(#icon_wz_card_nas-c)" opacity=".052"/>
      <circle cx="9.496" cy="23.309" r="2.59" fill="#44DA5F" fill-rule="nonzero"/>
      <path fill="url(#icon_wz_card_nas-d)" fill-rule="nonzero" d="M39.2805755,23.3093525 C40.2341607,23.3093525 41.0071942,24.082386 41.0071942,25.0359712 L41.0071942,60 L37.5539568,60 L37.5539568,25.0359712 C37.5539568,24.082386 38.3269904,23.3093525 39.2805755,23.3093525 Z"/>
      <path fill="url(#icon_wz_card_nas-e)" fill-rule="nonzero" d="M49.2086331,19.4244604 C50.6390109,19.4244604 51.7985612,20.5840107 51.7985612,22.0143885 L51.7985612,60 L46.618705,60 L46.618705,22.0143885 C46.618705,20.5840107 47.7782553,19.4244604 49.2086331,19.4244604 Z"/>
    </g>
    <g transform="rotate(32 16.344 100.698)">
      <path fill="#B28B67" d="M2.47868216,10.347038 C1.0963093,8.72441276 0.160690438,6.73586313 0.3170329,4.50763617 C0.767499066,-1.91250617 9.70455919,-0.500156657 11.4430024,2.74017988 C13.1814456,5.98051641 12.9748734,14.1998987 10.7280904,14.7790373 C9.83207672,15.0099969 7.92330141,14.4442386 5.98061321,13.2732928 L7.2,21.9 L0,21.9 L2.47868216,10.347038 Z" transform="translate(14.2 3.3)"/>
      <path fill="#191847" d="M19.1706165,13.1955986 C18.2777871,14.9093934 17.0429526,16.2 15.8093015,16.2 C13.4660868,16.2 11.8,13.0671838 11.8,9.69887061 C11.8,9.58052569 11.8023449,9.46296805 11.8069716,9.34628846 C9.32826836,11.0472317 7.4179623,14.4 4.13822365,14.4 C-0.323831252,14.4 -2.09589927,5.4 4.13822365,5.4 C8.3779009,5.4 10.4633728,6.01814432 12.2606422,6.93223406 C12.6151222,5.93290077 13.1556458,5.09270661 13.8165988,4.50597037 C13.9756051,4.32697625 14.2193797,4.15572079 14.533876,3.99695826 C14.7261466,3.8917629 14.9251127,3.80608547 15.1296025,3.74161018 C16.2135115,3.34328612 17.7834863,3.06233688 19.5371809,3.00109651 C19.8646517,2.98966098 20.1862663,2.98631464 20.5000146,2.99053013 C20.5051209,1.33803088 21.8463035,0 23.5,0 C25.1568542,0 26.5,1.34314575 26.5,3 C26.5,4.60232744 25.243805,5.91125481 23.6625244,5.99567258 C22.7579524,6.27478588 21.5957391,6.47971643 20.3068564,6.56613459 C20.4319938,7.03672629 20.5,7.57133619 20.5,8.17546867 C20.5,8.70891148 20.441122,9.27465668 20.3327074,9.84909329 C20.0531641,9.51682548 19.679381,9.3 19.3,9.3 C18.2387302,9.3 17.5,10.1730447 17.5,11.1 C17.5,12.2764513 18.1791666,13.1275278 19.1706165,13.1955986 Z"/>
    </g>
    <g transform="translate(0 57)">
      <path fill="#1F28CF" d="M30.2223475,31.4264222 C37.4191519,33.4393773 43.6283373,34.4458548 48.8499035,34.4458548 C54.0714698,34.4458548 58.9215019,32.8958973 63.4,29.7959821 C56.3572723,27.7298669 50.5572723,26.6968094 46,26.6968094 C41.4427277,26.6968094 36.1835103,28.273347 30.2223475,31.4264222 Z"/>
      <path fill="#997659" d="M55.0800506,37.3472982 C55.0106563,37.2429755 54.9520525,37.1294934 54.9055694,37.0065655 C53.943591,34.4625465 38.5350655,7.01766008 37,2 L54.3478262,2 C55.5149582,5.81499782 60.7681053,29.7559279 61.5073961,34.5324963 C63.8399945,42.0670157 68.6425812,66.4685734 69.2556709,68.1590387 C69.9006309,69.9373795 66.2716552,71.7899509 65.3046186,69.6037014 C63.7659001,66.1250092 60.0995946,56.4995305 58.4671406,50.6222803 C56.9367185,45.112371 55.6905462,40.1553503 55.0800506,37.3472982 Z"/>
      <path fill="#B28B67" d="M40.8871186,40.6980786 C33.842594,42.4785422 8.07520862,45.6973052 6.30693778,46.20216 C4.48793877,46.7214981 2.8930247,42.9721336 5.14140571,42.1599578 C8.71895953,40.8676488 18.5767396,37.8817136 24.5535473,36.6632125 C29.3609295,35.6831239 33.7477247,34.8833729 36.6929035,34.4150476 C36.4433948,26.1420321 35.3028267,6.28806366 36.0504062,2 L51.4,2 C50.6831215,6.11196472 44.6230337,36.1153142 43.4966799,39.1185646 C43.1392304,40.1907452 42.0726756,40.6645699 40.8871186,40.6980786 L40.8871186,40.6980786 Z"/>
      <path fill="#E4E4E4" d="M0.80344113,2.62057303 C0.46781371,3.51652115 0.3,4.18689722 0.3,4.63170125 C0.3,5.17268711 0.390124261,5.96212003 0.570372784,7 C1.19795435,7 6.83813557,7 17.4909164,7 C17.9306214,5.54635218 17.6767982,4.76157449 16.7294469,4.64566695 C15.7820955,4.5297594 14.9951147,4.42510417 14.3685043,4.33170125 L6.50399779,0.825665038 C6.35266905,0.758201929 6.17530321,0.82618846 6.1078401,0.977517205 C6.10668599,0.980106021 6.10556863,0.982711063 6.10448835,0.985331546 L5.59896393,2.21160851 C4.72196437,2.62079565 4.00931117,2.82538921 3.46100434,2.82538921 C3.01550802,2.82538921 2.40027001,2.64546352 1.6152903,2.28561214 L1.61526647,2.28566413 C1.31406763,2.14758819 0.95796506,2.27982542 0.819889112,2.58102425 C0.813937453,2.5940072 0.808451297,2.60719853 0.80344113,2.62057303 Z" transform="rotate(80 -20.102 24.404)"/>
      <path fill="#E4E4E4" d="M0.80344113,2.62057303 C0.46781371,3.51652115 0.3,4.18689722 0.3,4.63170125 C0.3,5.17268711 0.390124261,5.96212003 0.570372784,7 C1.19795435,7 6.83813557,7 17.4909164,7 C17.9306214,5.54635218 17.6767982,4.76157449 16.7294469,4.64566695 C15.7820955,4.5297594 14.9951147,4.42510417 14.3685043,4.33170125 L6.50399779,0.825665038 C6.35266905,0.758201929 6.17530321,0.82618846 6.1078401,0.977517205 C6.10668599,0.980106021 6.10556863,0.982711063 6.10448835,0.985331546 L5.59896393,2.21160851 C4.72196437,2.62079565 4.00931117,2.82538921 3.46100434,2.82538921 C3.01550802,2.82538921 2.40027001,2.64546352 1.6152903,2.28561214 L1.61526647,2.28566413 C1.31406763,2.14758819 0.95796506,2.27982542 0.819889112,2.58102425 C0.813937453,2.5940072 0.808451297,2.60719853 0.80344113,2.62057303 Z" transform="translate(63 67)"/>
      <path fill="#2B44FF" d="M36.1,2 C42.8640518,0.0647782798 49.2640518,0.0647782798 55.3,2 C57.4,11.5812405 62.502682,15.3840422 63.4,30.0736777 C53.2,35.1418172 40.6,26.4591371 30.1,31.4015933 C27.1,24.4883322 31.3,7.83935543 36.1,2 Z"/>
    </g>
    <g transform="rotate(21 -43.63 105.548)">
      <path fill="#B28B67" d="M48.2133229,26.7367534 L56.7116942,35.0272604 C59.1844069,36.0820036 61.2104428,37.2466532 62.7898019,38.521209 C63.1449761,38.9496306 63.531641,39.7705085 61.8605641,39.4031774 C60.1894871,39.0358463 58.4152447,38.7246236 58.1011689,39.2680701 C57.7870931,39.8115166 58.7125432,40.6442697 58.1320921,41.3555013 C57.7451247,41.8296558 56.4437229,40.3214634 54.2278867,36.8309242 L45.3907045,31.62074 L48.2133229,26.7367534 Z M10.4923784,27.9059674 L16.761596,27.9306213 C12.8906434,40.4267217 10.8009042,47.0570743 10.4923784,47.8216791 C9.79819537,49.5420398 11.26718,52.1621195 11.8953762,53.5701308 C9.84936226,54.4856611 10.0673672,51.0950787 7.48637568,52.2958477 C5.13056628,53.3918539 3.33850793,55.377744 0.616710563,53.6983114 C0.28208157,53.4918351 -0.0846172875,52.7144143 0.801373513,52.1069011 C3.0086997,50.5933641 6.18959046,47.9444017 6.6193789,47.0724753 C7.20547222,45.8834477 8.49647205,39.4946118 10.4923784,27.9059674 Z"/>
      <path fill="#191847" d="M26.6056971,2.76959994 L29.1511825,2.10024874 C34.5728525,12.8256016 43.2243574,22.245031 55.1056971,30.3585371 L47.6185378,41.2695151 C35.4016461,29.3057266 27.4011712,16.5595773 26.6056971,2.76959994 Z" transform="rotate(5 40.856 21.685)"/>
      <path fill="#DDE3E9" d="M17,34.2 L40.1,34.2 C34.7482609,21.187544 32.0723913,10.1336171 32.0723913,1.03821909 L25.1042624,2.27373675e-13 C19.6279679,8.80752205 18.0814479,19.651365 17,34.2 Z"/>
      <path fill="#2F3676" d="M24.9567304,0.00492596007 C24.9576453,0.00328368789 24.9585601,0.00164170118 24.9594748,2.27373675e-13 L25.4143256,2.27373675e-13 C25.958594,0.0187419407 26.7875846,0.0525092682 27.9012975,0.101301982 L29.5850474,4.91306402 C29.7631509,10.7797269 30.8032477,22.6026355 32.7053381,40.3817899 L17.5628245,40.3817899 C17.6025205,41.6097227 17.6679728,42.8491261 17.7591814,44.1 L6.5,44.1 C8.18417493,25.099189 14.3345712,10.399189 24.9511888,2.84217094e-13 L24.9567304,0.00492595816 Z"/>
      <path fill="#000" fill-opacity=".1" d="M18.563069,24.6699304 C18.994023,32.3243677 20.073,37.6010575 21.8,40.5 L17.5667243,40.5 C17.381393,34.9928556 17.7135081,29.7161712 18.563069,24.6699304 Z"/>
      <polygon fill="#FFF" fill-opacity=".2" points="20.933 31.2 28.4 27.729 28.4 31.2"/>
    </g>
  </g>
</svg>
