<svg xmlns="http://www.w3.org/2000/svg" width="20" height="20" viewBox="0 0 20 20">
  <g fill="none" fill-rule="evenodd" transform="translate(1.5 1)">
    <rect width="15" height="16" x="1.016" fill="#FDEFBA"/>
    <polygon fill="#FFBC00" points="8.515 11.921 .021 17.491 .021 6.35"/>
    <polygon fill="#F57C00" points="8.515 11.935 17.009 6.365 17.009 17.506"/>
    <polygon fill="#FF9E00" points="8.515 11.373 17.022 17.496 .007 17.496"/>
    <path fill="#FF9E00" d="M4.0155,3.5 L4.5155,3.5 L4.5155,7 L4.0155,7 L4.0155,3.5 Z M4.0155,6.5 L6.5155,6.5 L6.5155,7 L4.0155,7 L4.0155,6.5 Z M7.0155,3.5 L9.5155,3.5 L9.5155,7 L7.0155,7 L7.0155,3.5 Z M7.5155,4 L9.0155,4 L9.0155,6.5 L7.5155,6.5 L7.5155,4 Z M10.5155,3.5 L13.0155,3.5 L13.0155,4 L10.5155,4 L10.5155,3.5 Z M10.5155,3.5 L11.0155,3.5 L11.0155,7 L10.5155,7 L10.5155,3.5 Z M10.5155,6.5 L13.0155,6.5 L13.0155,7 L10.5155,7 L10.5155,6.5 Z M11.5155,5 L13.0155,5 L13.0155,5.5 L11.5155,5.5 L11.5155,5 Z M12.5155,5 L13.0155,5 L13.0155,6.5 L12.5155,6.5 L12.5155,5 Z"/>
  </g>
</svg>
