<svg xmlns="http://www.w3.org/2000/svg" xmlns:xlink="http://www.w3.org/1999/xlink" width="24" height="24" viewBox="0 0 24 24">
  <defs>
    <polygon id="icon_fill_histories-a" points="0 0 17 0 17 18.986 0 18.986"/>
  </defs>
  <g fill="none" fill-rule="evenodd" transform="translate(2 2)">
    <rect width="20" height="20"/>
    <g transform="translate(2 1)">
      <mask id="icon_fill_histories-b" fill="#fff">
        <use xlink:href="#icon_fill_histories-a"/>
      </mask>
      <path fill="#141414" d="M11.5071,8.0078 C9.6421,8.0078 7.9701,8.9338 6.9691,10.4108 L6.9691,8.4848 L6.0141,8.4848 L6.0141,12.3038 L9.8351,12.3038 L9.8351,11.3488 L7.5171,11.3488 C8.2951,9.8968 9.8041,8.9618 11.5071,8.9618 C14.0091,8.9618 16.0441,10.9958 16.0441,13.4968 C16.0441,15.9968 14.0091,18.0308 11.5071,18.0308 C9.6371,18.0308 7.9811,16.9078 7.2891,15.1718 L6.4021,15.5248 C7.2371,17.6268 9.2421,18.9868 11.5071,18.9868 C14.5361,18.9868 17.0001,16.5238 17.0001,13.4968 C17.0001,10.4698 14.5361,8.0078 11.5071,8.0078 L11.5071,8.0078 Z M10.8611,11.1958 L10.8611,13.8668 L12.3771,15.8768 L13.1221,15.2788 L11.8061,13.5328 L11.8061,11.1958 L10.8611,11.1958 Z M3.9931,5.9848 L10.9871,5.9848 L10.9871,4.9798 L3.9931,4.9798 L3.9931,5.9848 Z M3.9931,4.0068 L10.9871,4.0068 L10.9871,3.0018 L3.9931,3.0018 L3.9931,4.0068 Z M0.9691,15.7148 L0.9691,1.2788 C0.9691,1.0948 1.1111,0.9448 1.2841,0.9448 L13.7301,0.9448 C13.9031,0.9448 14.0451,1.0948 14.0451,1.2788 L14.0451,6.1368 L15.0141,6.1368 L15.0141,1.2788 C15.0141,0.5728 14.4381,-0.0002 13.7301,-0.0002 L1.2841,-0.0002 C0.5751,-0.0002 0.0001,0.5728 0.0001,1.2788 L0.0001,15.7148 C0.0001,16.4208 0.5751,16.9938 1.2841,16.9938 L5.1651,16.9938 L5.1651,16.0498 L1.2841,16.0498 C1.1111,16.0498 0.9691,15.8998 0.9691,15.7148 L0.9691,15.7148 Z" mask="url(#icon_fill_histories-b)"/>
    </g>
  </g>
</svg>
