<svg xmlns="http://www.w3.org/2000/svg" width="30" height="30" viewBox="0 0 30 30">
  <g fill="none" fill-rule="evenodd">
    <circle cx="15" cy="15" r="15" fill="#45414E"/>
    <path fill="#FFF" fill-rule="nonzero" d="M13.3125,13.6259766 L14.6132812,13.6259766 C15.2695345,13.6201172 15.7895489,13.450197 16.1733398,13.1162109 C16.5571308,12.7822249 16.7490234,12.2988313 16.7490234,11.6660156 C16.7490234,11.0566376 16.5893571,10.5834978 16.2700195,10.246582 C15.950682,9.90966628 15.4628939,9.74121094 14.8066406,9.74121094 C14.232419,9.74121094 13.760744,9.90673663 13.3916016,10.237793 C13.0224591,10.5688493 12.8378906,11.0009739 12.8378906,11.5341797 L10.7021484,11.5341797 C10.7021484,10.8779264 10.8764631,10.2802761 11.2250977,9.74121094 C11.5737322,9.20214574 12.0600555,8.78173979 12.684082,8.47998047 C13.3081086,8.17822115 14.0068321,8.02734375 14.7802734,8.02734375 C16.0576236,8.02734375 17.0610315,8.34814132 17.7905273,8.98974609 C18.5200232,9.63135086 18.8847656,10.5234318 18.8847656,11.6660156 C18.8847656,12.2402372 18.701662,12.7807592 18.3354492,13.2875977 C17.9692365,13.7944361 17.4960967,14.1767565 16.9160156,14.4345703 C17.6191441,14.6748059 18.1538068,15.0527318 18.5200195,15.5683594 C18.8862323,16.083987 19.0693359,16.6992152 19.0693359,17.4140625 C19.0693359,18.5625057 18.6752969,19.4765591 17.887207,20.15625 C17.0991172,20.8359409 16.063483,21.1757812 14.7802734,21.1757812 C13.5497985,21.1757812 12.5419961,20.8476595 11.7568359,20.1914062 C10.9716758,19.535153 10.5791016,18.6621148 10.5791016,17.5722656 L12.7148438,17.5722656 C12.7148438,18.1347684 12.9038067,18.5917951 13.2817383,18.9433594 C13.6596699,19.2949236 14.1679656,19.4707031 14.8066406,19.4707031 C15.4687533,19.4707031 15.9902325,19.2949236 16.3710938,18.9433594 C16.751955,18.5917951 16.9423828,18.0820346 16.9423828,17.4140625 C16.9423828,16.740231 16.7431661,16.2216815 16.3447266,15.8583984 C15.9462871,15.4951154 15.3544961,15.3134766 14.5693359,15.3134766 L13.3125,15.3134766 L13.3125,13.6259766 Z"/>
  </g>
</svg>
