<svg xmlns="http://www.w3.org/2000/svg" xmlns:xlink="http://www.w3.org/1999/xlink" width="36" height="36" viewBox="0 0 36 36">
  <defs>
    <linearGradient id="icon_protecte_nas-b" x1="50%" x2="50%" y1="22.5%" y2="100%">
      <stop offset="0%" stop-color="#767676"/>
      <stop offset="100%" stop-color="#585858"/>
    </linearGradient>
    <rect id="icon_protecte_nas-a" width="30" height="30" x="0" y="0" rx="3.72"/>
    <linearGradient id="icon_protecte_nas-d" x1="0%" x2="100%" y1="50%" y2="50%">
      <stop offset="0%" stop-color="#626262"/>
      <stop offset="100%" stop-color="#474747"/>
    </linearGradient>
    <linearGradient id="icon_protecte_nas-e" x1="0%" x2="100%" y1="50%" y2="50%">
      <stop offset="0%" stop-color="#626262"/>
      <stop offset="100%" stop-color="#474747"/>
    </linearGradient>
  </defs>
  <g fill="none" fill-rule="evenodd" transform="translate(3 3)">
    <mask id="icon_protecte_nas-c" fill="#fff">
      <use xlink:href="#icon_protecte_nas-a"/>
    </mask>
    <use fill="url(#icon_protecte_nas-b)" fill-rule="nonzero" xlink:href="#icon_protecte_nas-a"/>
    <path fill="#454545" fill-rule="nonzero" d="M3.72017349,0 L9.28057554,0 L9.28057554,30 L3.72017349,30 C1.66557841,30 6.9570454e-16,28.3344216 0,26.2798265 L0,3.72017349 C1.9247388e-16,1.66557841 1.66557841,8.21512204e-16 3.72017349,0 Z" mask="url(#icon_protecte_nas-c)"/>
    <path fill="#5D5D5D" fill-rule="nonzero" d="M3.72017349,-8.18545232e-12 L26.2798265,-8.18545232e-12 C28.3344216,-8.18671792e-12 30,1.66557841 30,3.72017349 L30,6.97054856 L-2.27373675e-13,6.97054856 L-2.27373675e-13,3.72017349 C-2.27625291e-13,1.66557841 1.66557841,-8.18596307e-12 3.72017349,-8.18545232e-12 Z" mask="url(#icon_protecte_nas-c)"/>
    <polygon fill="#FFF" fill-rule="nonzero" points="0 3.397 30 21.962 30 31.515 0 12.95" mask="url(#icon_protecte_nas-c)" opacity=".052"/>
    <circle cx="4.748" cy="11.655" r="1.295" fill="#44DA5F" fill-rule="nonzero"/>
    <path fill="url(#icon_protecte_nas-d)" fill-rule="nonzero" d="M19.6402878,11.6546763 C20.1170804,11.6546763 20.5035971,12.041193 20.5035971,12.5179856 L20.5035971,30 L18.7769784,30 L18.7769784,12.5179856 C18.7769784,12.041193 19.1634952,11.6546763 19.6402878,11.6546763 Z"/>
    <path fill="url(#icon_protecte_nas-e)" fill-rule="nonzero" d="M24.6043165,9.71223022 C25.3195054,9.71223022 25.8992806,10.2920054 25.8992806,11.0071942 L25.8992806,30 L23.3093525,30 L23.3093525,11.0071942 C23.3093525,10.2920054 23.8891277,9.71223022 24.6043165,9.71223022 Z"/>
  </g>
</svg>
