<svg xmlns="http://www.w3.org/2000/svg" width="24" height="24" viewBox="0 0 24 24">
  <g fill="none" fill-rule="evenodd">
    <path fill="#36C279" d="M19.13873,15.0202789 C18.6348684,16.3314972 17.8728547,17.4716034 16.8735698,18.4085998 C15.736127,19.4750977 14.2467105,20.3225556 12.4466533,20.9270782 C12.3875858,20.9468536 12.3259439,20.9630585 12.264016,20.9750061 C12.1822082,20.9905243 12.0989703,20.9989014 12.0164474,21.0000096 L12.000286,21.0000096 C11.9123284,21.0000096 11.8239416,20.9914856 11.73627,20.9750061 C11.6743421,20.9630585 11.6135583,20.9468536 11.5547769,20.9274902 C9.75257439,20.3239288 8.26129864,19.4768829 7.12271165,18.4103851 C6.12299771,17.4733887 5.36112699,16.3339691 4.85798056,15.0227509 C3.94307778,12.6387177 3.99513732,10.0124359 4.03704234,7.90196229 L4.03775744,7.86955262 C4.04619566,7.695282 4.05163043,7.51222228 4.05463389,7.31007384 C4.06993706,6.31759645 4.89173342,5.49650575 5.92548628,5.44116211 C8.08080663,5.32566834 9.74814074,4.6506958 11.1727689,3.31736756 L11.1852117,3.30638123 C11.4217677,3.09805296 11.7198226,2.99588011 12.0164474,3.00000961 C12.3024886,3.00370789 12.5873856,3.10574339 12.8155035,3.30638123 L12.8276602,3.31736756 C14.2525744,4.6506958 15.9199085,5.32566834 18.0752289,5.44116211 C19.1089817,5.49650575 19.930778,6.31759645 19.9460812,7.31007384 C19.9490847,7.51359559 19.9545194,7.69638063 19.9629577,7.86955262 L19.9633867,7.88328553 C20.0051487,9.9977417 20.0569222,12.629242 19.13873,15.0202789 Z"/>
    <path fill="#00AF55" d="M19.13873,15.0202789 C18.6348684,16.3314972 17.8728547,17.4716034 16.8735698,18.4085998 C15.736127,19.4750977 14.2467105,20.3225556 12.4466533,20.9270782 C12.3875858,20.9468536 12.3259439,20.9630585 12.264016,20.9750061 C12.1822082,20.9905243 12.0989703,20.9989014 12.0164474,21 L12.0164474,3.00013733 C12.3024886,3.00370789 12.5873856,3.10574339 12.8155035,3.30638123 L12.8276602,3.31736756 C14.2525744,4.6506958 15.9199085,5.32566834 18.0752289,5.44116211 C19.1089817,5.49650575 19.930778,6.31759645 19.9460812,7.31007384 C19.9490847,7.51359559 19.9545194,7.69638063 19.9629577,7.86955262 L19.9633867,7.88328553 C20.0051487,9.9977417 20.0569222,12.629242 19.13873,15.0202789 Z"/>
    <path fill="#FFF" d="M16.6719107,12 C16.6719107,14.4682159 14.5848112,16.4773407 12.0164474,16.4861298 L12,16.4861298 C9.42405605,16.4861298 7.32794622,14.4735718 7.32794622,12 C7.32794622,9.52656554 9.42405605,7.51400759 12,7.51400759 L12.0164474,7.51400759 C14.5848112,7.52279665 16.6719107,9.53192139 16.6719107,12 Z"/>
    <path fill="#E1EBF0" d="M16.6719107,12 C16.6719107,14.4682159 14.5848112,16.4773407 12.0164474,16.4861298 L12.0164474,7.51400759 C14.5848112,7.52279665 16.6719107,9.53192139 16.6719107,12 Z"/>
    <path fill="#208292" d="M14.1205664,11.3540039 L12.0164474,13.3746643 L11.5617849,13.8112335 C11.4543764,13.9143677 11.3135011,13.9658661 11.1727689,13.9658661 C11.0318936,13.9658661 10.8911613,13.9143677 10.7836098,13.8112335 L9.80606407,12.8721771 C9.59124716,12.6659088 9.59124716,12.3317871 9.80606407,12.1253815 C10.020595,11.9191132 10.3689931,11.9191132 10.5838101,12.1253815 L11.1727689,12.6909027 L13.3428204,10.6072082 C13.5576373,10.4008026 13.9060355,10.4008026 14.1205664,10.6072082 C14.3353833,10.8134766 14.3353833,11.1480103 14.1205664,11.3540039 Z"/>
    <path fill="#1A5C62" d="M14.1205664,11.3540039 L12.0164474,13.3746643 L12.0164474,11.880661 L13.3428204,10.6072082 C13.5576373,10.4008026 13.9060355,10.4008026 14.1205664,10.6072082 C14.3353833,10.8134766 14.3353833,11.1480103 14.1205664,11.3540039 Z"/>
    <g fill-rule="nonzero" transform="translate(12 12)">
      <path fill="#F66E20" d="M9.9671636,6.8117355 C9.76965647,5.71593797 9.33095973,4.51732177 8.65450563,3.34799333 C7.9780515,2.17835329 7.1577573,1.19970669 6.30563727,0.480910863 C5.54525043,-0.16030362 4.45443697,-0.16030362 3.6940501,0.480910863 C2.84193008,1.19970669 2.02194787,2.17835329 1.34580577,3.34768173 C0.669351657,4.51763333 0.230342917,5.71593797 0.0328357867,6.81204707 C-0.143142129,7.78975897 0.401952587,8.7328864 1.33862937,9.0693838 C2.38825652,9.44700863 3.64693543,9.66666667 4.9998437,9.66666667 C6.35306393,9.66666667 7.61174287,9.44669707 8.66168203,9.0693838 C9.5980468,8.73257483 10.1431415,7.7894474 9.9671636,6.8117355 Z"/>
      <path fill="#FFF" d="M4.33333333 3.24779873C4.33333333 2.92704403 4.6318731 2.66666667 5 2.66666667 5.3681269 2.66666667 5.66666667 2.92704403 5.66666667 3.24779873L5.66666667 5.41855347C5.66666667 5.73962263 5.3681269 6 5 6 4.6318731 6 4.33333333 5.73962263 4.33333333 5.41855347L4.33333333 3.24779873zM4.999831 8C4.63210817 8 4.33333333 7.7014118 4.33333333 7.3335024 4.33333333 6.96525487 4.63210817 6.66666667 4.999831 6.66666667 5.36822983 6.66666667 5.66666667 6.96525487 5.66666667 7.3335024 5.66666667 7.7014118 5.36822983 8 4.999831 8z"/>
    </g>
  </g>
</svg>
