<svg xmlns="http://www.w3.org/2000/svg" width="36" height="36" viewBox="0 0 36 36">
  <g fill="none" fill-rule="evenodd" transform="translate(4 2.5)">
    <polygon fill="#2E603B" points="27.966 7.981 27.966 23.381 13.933 16.594"/>
    <polygon fill="#C79BEA" points=".03 7.981 .095 23.381 14.063 16.594"/>
    <polygon fill="#49AFD6" points="13.998 16.583 27.966 7.981 13.998 7.985 13.998 16.583"/>
    <polygon fill="#B6F2FC" points="13.998 16.583 0 7.985 13.998 7.985"/>
    <polyline fill="#49D9E8" points="13.998 .001 13.998 7.981 27.966 7.981 13.998 .001"/>
    <polyline fill="#5DBDF9" points="13.998 .001 13.998 7.985 0 7.985 13.998 .001"/>
    <polyline fill="#05510C" points="13.998 30.747 13.998 23.377 27.996 23.377 13.998 30.747"/>
    <polyline fill="#B495D8" points="13.998 30.747 13.998 23.377 0 23.377 13.998 30.747"/>
    <polygon fill="#013302" points="13.998 16.621 27.966 23.381 13.998 23.381"/>
    <polygon fill="#9863BA" points="13.998 16.621 .095 23.381 13.998 23.381"/>
  </g>
</svg>
