<svg xmlns="http://www.w3.org/2000/svg" width="120" height="120" viewBox="0 0 120 120">
  <defs>
    <linearGradient id="icon_empty_folder-a" x1="50%" x2="50%" y1="0%" y2="100%">
      <stop offset="0%" stop-color="#FFF"/>
      <stop offset="100%" stop-color="#D1EBFF"/>
    </linearGradient>
    <linearGradient id="icon_empty_folder-b" x1="111.026%" x2="-36.074%" y1="54.198%" y2="43.984%">
      <stop offset="0%" stop-color="#ECC4D7"/>
      <stop offset="42%" stop-color="#EFD4D1"/>
      <stop offset="100%" stop-color="#F2EAC9"/>
    </linearGradient>
    <linearGradient id="icon_empty_folder-c" x1="119.335%" x2="-48.29%" y1="17.955%" y2="68.06%">
      <stop offset="0%" stop-color="#ECC4D7"/>
      <stop offset="42%" stop-color="#EFD4D1"/>
      <stop offset="100%" stop-color="#F2EAC9"/>
    </linearGradient>
    <linearGradient id="icon_empty_folder-d" x1="85.268%" x2="33.84%" y1="50.365%" y2="49.716%">
      <stop offset="0%" stop-color="#ECC4D7"/>
      <stop offset="42%" stop-color="#EFD4D1"/>
      <stop offset="100%" stop-color="#F2EAC9"/>
    </linearGradient>
    <linearGradient id="icon_empty_folder-e" x1="56.305%" x2="-150.675%" y1="40.387%" y2="112.94%">
      <stop offset="0%" stop-color="#ECC4D7"/>
      <stop offset="42%" stop-color="#EFD4D1"/>
      <stop offset="100%" stop-color="#F2EAC9"/>
    </linearGradient>
    <linearGradient id="icon_empty_folder-f" x1="83.55%" x2="20.73%" y1="44.205%" y2="53.172%">
      <stop offset="0%" stop-color="#ECC4D7"/>
      <stop offset="42%" stop-color="#EFD4D1"/>
      <stop offset="100%" stop-color="#F2EAC9"/>
    </linearGradient>
    <linearGradient id="icon_empty_folder-g" x1="-.12%" x2="99.874%" y1="49.998%" y2="49.998%">
      <stop offset="0%" stop-color="#ECC4D7"/>
      <stop offset="42%" stop-color="#EFD4D1"/>
      <stop offset="100%" stop-color="#F2EAC9"/>
    </linearGradient>
    <linearGradient id="icon_empty_folder-h" x1="-.03%" x2="100%" y1="49.985%" y2="49.985%">
      <stop offset="0%" stop-color="#183866"/>
      <stop offset="100%" stop-color="#1A7FC1"/>
    </linearGradient>
    <linearGradient id="icon_empty_folder-i" x1="-.002%" x2="100%" y1="49.99%" y2="49.99%">
      <stop offset="0%" stop-color="#ECC4D7"/>
      <stop offset="42%" stop-color="#EFD4D1"/>
      <stop offset="100%" stop-color="#F2EAC9"/>
    </linearGradient>
    <linearGradient id="icon_empty_folder-j" x1="40.155%" x2="79.02%" y1="24.858%" y2="175.959%">
      <stop offset="0%" stop-color="#FFF" stop-opacity="0"/>
      <stop offset="99%" stop-color="#FFF"/>
    </linearGradient>
    <linearGradient id="icon_empty_folder-k" x1="-.301%" x2="100.04%" y1="49.988%" y2="49.988%">
      <stop offset="0%" stop-color="#ECC4D7"/>
      <stop offset="42%" stop-color="#EFD4D1"/>
      <stop offset="100%" stop-color="#F2EAC9"/>
    </linearGradient>
  </defs>
  <g fill="none" fill-rule="evenodd">
    <g fill="#2577FF" fill-rule="nonzero" transform="translate(1 8)">
      <path d="M47.2419949,6.83043033 C43.8980921,9.91515415 41.41967,13.8803324 37.8664782,16.7175263 C31.8584683,21.5239929 23.7040662,22.4796463 16.6385962,25.5393038 C11.9650002,27.563409 7.53373889,30.7703312 5.46602674,35.4091667 C3.79643572,39.1691145 4.0072983,43.601153 5.74298057,47.315668 C7.42796588,50.9341165 7.15666361,55.1560965 5.02227116,58.5312789 C2.44943298,62.5888892 0.897862068,67.2245915 1.14806468,71.9856254 C1.53517061,79.3081237 7.11988174,86.5319234 14.4544376,87.2055807 C16.9721997,87.4374441 19.5025506,86.9282845 21.9951351,86.4739575 C37.0497791,83.7323289 52.9840662,83.0273387 67.3038383,88.3962308 C71.2284,89.868877 75.0066168,91.788017 79.0869651,92.7562036 C83.8534035,93.8873212 88.8228365,93.6726909 93.7214575,93.4517939 C101.366013,93.107132 110.285185,92.0418135 114.18929,85.4869712 C119.600905,76.4004307 110.980717,65.056355 112.206552,54.5661007 C112.884775,48.7695145 116.555986,43.671652 117.330198,37.8922989 C118.170501,31.6100528 115.179085,24.9690451 109.907521,21.4158944 C102.587127,16.4825296 92.46415,17.6794463 84.9061428,13.1126764 C78.9264578,9.4984266 74.8162111,2.43599136 67.7664771,0.513718059 C60.8520728,-1.36938912 52.274372,2.1931614 47.2419949,6.83043033 Z" opacity=".18"/>
      <path d="M15.4289224,69.9365953 C14.6893298,64.8810322 12.9253227,60.0134665 12.2109077,54.9532034 C11.4964927,49.8929404 11.9937507,44.3282177 15.2495319,40.3834058 C17.3738937,37.8094082 20.4266803,36.2035972 23.411802,34.6980514 C26.0664675,33.35857 28.799813,32.0237886 31.7518891,31.6603269 C34.3546257,31.346998 36.9809663,31.7934918 39.5837029,32.1036874 C44.4807503,32.6864794 49.4674929,32.763245 54.3283474,31.9329232 C60.6746816,30.8362717 66.6748235,28.3296399 72.8779599,26.6329634 C78.9536347,24.96292 84.9679389,24.1122318 91.7611759,27.2596214 C96.4568023,29.4372578 99.9218724,33.9836613 101.045424,39.0094582 C102.86136,47.1293788 98.7605546,56.1281871 102.208315,63.7044819 C103.180801,65.8382522 104.691458,67.6774934 105.925161,69.673399 C107.441592,72.1341676 108.536037,74.8290662 109.163633,77.6476216 C109.379216,78.6173748 109.53815,79.6403939 109.26277,80.5944806 C108.554649,83.0384467 105.520746,83.8515354 102.968365,84.0520659 C94.4819326,84.7194567 86.0033686,83.1434119 77.5389671,82.2269246 C63.7982802,80.7417453 49.9332789,81.003375 36.168988,82.0263941 C32.8004321,82.2770573 29.4339743,82.5694976 26.0696147,82.9037152 C23.3551524,83.1684782 18.201608,84.7836891 15.6429322,84.0144665 C12.789993,83.1543784 14.6625786,81.2916376 15.2668415,78.6173748 C15.9135917,75.7786142 15.8475004,72.7941556 15.4289224,69.9365953 Z" opacity=".11"/>
    </g>
    <g transform="translate(27 27)">
      <path fill="url(#icon_empty_folder-a)" d="M15.2675696,9.13846154 L28.366483,9.13846154 C30.4488844,9.13846154 32.3907421,10.1890427 33.5301239,11.9320874 L39.0848371,20.4297778 L67.88736,20.4297778 C70.1587084,20.4297778 72,22.2710694 72,24.5424178 L72,54.7796677 C72,57.051016 70.1587084,58.8923077 67.88736,58.8923077 L15.2675696,58.8923077 C12.9962212,58.8923077 11.1549296,57.051016 11.1549296,54.7796677 L11.1549296,13.2511015 C11.1549296,10.9797532 12.9962212,9.13846154 15.2675696,9.13846154 Z"/>
      <path fill="#4A8EFF" d="M4.08,18.2769231 L17.3137613,18.2769231 C19.3379185,18.2769231 21.2311404,19.2777675 22.3710469,20.9504376 L27.9299076,29.1073693 L56.7650704,29.1073693 C59.0183922,29.1073693 60.8450704,30.9340475 60.8450704,33.1873693 L60.8450704,61.92 C60.8450704,64.1733218 59.0183922,66 56.7650704,66 L4.08,66 C1.82667822,66 2.7595233e-16,64.1733218 0,61.92 L0,22.3569231 C-2.7595233e-16,20.1036013 1.82667822,18.2769231 4.08,18.2769231 Z"/>
      <g fill-rule="nonzero" transform="translate(19.268)">
        <path fill="#3F3D56" d="M27.9060011,29.9470182 C27.2276049,30.7633423 26.3506537,31.5841847 26.0031825,31.7664268 C24.0266578,32.8086708 21.7372587,33.6069213 20.577517,35.5197101 C19.1094135,37.9295228 20.0585665,41.081859 19.3846829,43.8260332 C19.2613381,44.3260693 19.0703041,44.8366484 18.6837236,45.1815528 C18.2971431,45.5264572 17.6759066,45.6439356 17.2652588,45.3321661 C16.9042497,45.059556 16.8139975,44.5655444 16.7463083,44.118223 C16.1535009,39.8956541 16.1312392,35.6123869 16.6801233,31.3838691 C14.4238166,32.3929781 12.897049,34.5226501 11.6921813,36.6764202 C10.4873135,38.8301902 9.4764881,41.139092 7.79779592,42.9479577 C7.32096311,43.4600429 6.69370985,43.9615851 6.0017758,43.8621804 C5.16995073,42.8078873 5.60617002,41.2671133 6.07849022,40.0049739 C7.02463483,37.4626215 7.97378784,34.9172569 9.19821028,32.5074442 C9.59231184,31.7242551 10.0300353,30.9380537 10.6918853,30.3627109 C10.8728919,30.2055752 11.0683016,30.06589 11.2755166,29.9455121 L27.9060011,29.9470182 Z" opacity=".2"/>
        <path fill="#2577FF" d="M19.1259597,11.4097852 C19.1259597,11.4097852 17.8819826,16.4734041 16.0227859,17.8861568 C14.103421,19.3440934 12.1118543,16.5426862 12.1118543,16.5426862 L11.0032556,18.5488553 C11.0032556,18.5488553 13.0534863,21.8623477 15.1202632,21.9391605 C17.1870402,22.0159733 19.0011107,20.1634298 19.0011107,20.1634298 L19.1259597,11.4097852 Z"/>
        <polygon fill="#3F3D56" points="8.502 7.932 8.783 7.807 14.517 9.267 16.239 20.894 16.024 20.894"/>
        <polygon fill="url(#icon_empty_folder-b)" points="4.872 40.421 4.153 41.671 5.823 42.398 6.513 41.209"/>
        <polygon fill="url(#icon_empty_folder-c)" points="16.098 43.778 16.02 45.171 17.84 45.066 17.917 43.778"/>
        <path fill="#3F3D56" d="M4.48102509 41.3938795C4.4447292 41.3177311 4.39358547 41.2496227 4.33060464 41.1935638 4.25675386 41.1441642 4.17216825 41.1131786 4.08391511 41.1031959L1.19433834 40.5218285C1.09006138 40.4960845.98281171 40.484434.875446996 40.4871875.598673375 40.5052611.371538502 40.708589.189529762 40.9179415.0853186572 41.0169089.018379486 41.1488311-2.13162821e-14 41.2914625.0212988154 41.4725044.117302436 41.6363567.264739985 41.7433023.467778655 41.9318392.681208831 42.1088362.904026881 42.2734611 1.33227381 42.5740034 1.77778439 42.8490956 2.23825624 43.0973159 2.54812236 43.2720273 2.85798847 43.4467387 3.17537562 43.6063888 3.69733456 43.8684559 4.23884817 44.0883513 4.78337018 44.3022222 4.85813761 44.3488038 4.95646208 44.325877 5.00298404 44.2510137L5.00298404 44.2510137C5.39694365 43.8397313 5.7075267 43.3558691 5.91754035 42.8262119 5.9701875 42.6951784 6.06796079 42.407507 5.91754035 42.2990654 5.86489319 42.2614121 5.71597695 42.2674366 5.64979195 42.2523753 5.16096849 42.1348454 4.7395067 41.8262089 4.47952088 41.3953856L4.48102509 41.3938795zM16.2047947 44.5386851C16.1349545 44.4917714 16.0568592 44.4585511 15.9746514 44.4407864 15.8861051 44.436024 15.7976359 44.4514745 15.7159282 44.4859704L12.9271331 45.4393526C12.8214639 45.4687067 12.7202607 45.5122799 12.6262922 45.56888 12.396149 45.7194933 12.3013841 46.0207199 12.2487369 46.2873054 12.208054 46.425062 12.2171071 46.5727626 12.2743084 46.7045042 12.3826314 46.8487222 12.5462508 46.9410127 12.7255697 46.9590407 12.9953352 47.0207943 13.2686021 47.0660618 13.543857 47.0945926 14.0645188 47.1397621 14.5874335 47.1533421 15.1097338 47.1352582 15.4662303 47.1352582 15.8212225 47.1262214 16.1762148 47.1036294 16.7598461 47.0674822 17.3389648 46.9846449 17.9150751 46.8957831 18.0020383 46.8992074 18.0756786 46.8321758 18.0805376 46.7451698 18.2141578 46.1909997 18.2402013 45.6162857 18.157252 45.0522764 18.1361932 44.912206 18.0715124 44.617004 17.8895036 44.6004365 17.8248229 44.5929058 17.6999739 44.674237 17.6352931 44.6938168 17.5371289 44.7239655 17.4364362 44.7451381 17.3344522 44.7570743 16.9443348 44.8049736 16.5490627 44.7285582 16.2047947 44.5386851zM27.4953533 25.7511829C27.4953533 25.7511829 27.0230331 30.1777076 22.9481432 30.9624029 20.1894323 31.4910555 16.8155017 31.3027889 14.9262209 31.1265713 14.0152725 31.0423664 13.1341781 31.477077 12.6458469 32.2516526L6.7794495 41.6077504 5.07969846 40.7854018 5.06616062 40.7854018 4.46447884 40.4962243 9.34863072 29.0782306C9.92965594 27.6425516 11.1232758 26.5435884 12.6007208 26.0840383L18.2129076 24.3444548 19.5245739 23.9377989C19.5245739 23.9377989 24.7787601 23.4076401 27.4953533 25.7511829z"/>
        <path fill="#FFF" d="M18.223437,24.335418 L18.5919671,25.117101 C18.5919671,25.117101 12.123888,27.0148284 11.329668,27.9380879 C10.2692039,29.1731169 5.08571528,40.7778711 5.08571528,40.7778711 L5.07217744,40.7778711 L4.47049566,40.4886936 L9.34863072,29.0782306 C9.92965594,27.6425516 11.1232758,26.5435884 12.6007208,26.0840383 L18.223437,24.335418 Z" opacity=".24"/>
        <path fill="#3F3D56" d="M20.5158446,24.9830551 C20.5158446,24.9830551 15.3203224,30.0587231 15.1518515,32.7697624 C14.9833806,35.4808016 15.7099114,43.9814159 15.7099114,43.9814159 L18.2309581,43.9814159 C18.2309581,43.9814159 18.1061091,33.6613931 19.1334807,33.5890987 C20.1608524,33.5168043 24.8178694,30.510563 25.565459,29.6520672 C26.3130486,28.7935714 27.5058828,25.7481707 27.5058828,25.7481707 L20.5158446,24.9830551 Z"/>
        <path fill="#2577FF" d="M27.4953533,25.7511829 C27.4953533,25.7511829 23.3377322,27.8793487 19.0056234,25.389711 C18.6283139,25.1728253 18.2659872,24.9307967 17.9210919,24.6652611 C17.9210919,24.6652611 19.7441877,21.4044833 18.2926304,16.6676952 C17.671394,14.6419464 17.6578562,10.7741971 20.7339543,10.2229524 L20.7489963,10.2229524 C23.8085482,9.67923845 23.6355647,10.4353172 23.6355647,10.4353172 L25.0194328,11.7818 C27.6803705,13.9431008 27.9721861,17.2565932 27.4953533,25.7511829 Z"/>
        <path fill="#FFF" d="M20.7489963,10.2199402 C20.6211619,10.4988285 20.4225176,10.7392729 20.172886,10.9172797 C20.172886,10.9172797 18.3437734,11.7290854 18.7092951,14.4145204 C19.0748168,17.0999554 19.7441877,22.2644852 19.7441877,22.2644852 L19.0056234,25.389711 C18.6283139,25.1728253 18.2659872,24.9307967 17.9210919,24.6652611 C17.9210919,24.6652611 19.7441877,21.4044833 18.2926304,16.6676952 C17.671394,14.6419464 17.6578562,10.7741971 20.7339543,10.2229524 L20.7489963,10.2199402 Z" opacity=".24"/>
        <path fill="#3F3D56" d="M23.5001863,10.048241 C23.1744777,10.4379455 22.7074833,10.6821167 22.2019588,10.7270282 C21.6964342,10.7719398 21.1937993,10.6139118 20.8046519,10.2877162 L20.8046519,10.2877162 L20.7384669,10.2304831 C20.7384669,10.2304831 18.4821602,12.4896825 20.7625342,12.7622926 C21.9658977,12.9129058 23.4475391,11.4549692 23.8762374,10.6311145 L23.5001863,10.048241 Z"/>
        <path fill="url(#icon_empty_folder-d)" d="M24.1770783,7.93212426 C24.1680531,7.96224691 23.7438674,9.26203963 23.4249761,10.1913236 C23.1883604,10.9156768 22.6863274,11.5233019 22.0200491,11.8917477 C21.6291279,12.1281671 21.194001,12.2819382 20.7414753,12.3435876 C20.5856798,12.3578133 20.4306243,12.3094643 20.3104422,12.2091842 C20.1902602,12.1089042 20.1148039,11.9649136 20.1006842,11.8089104 L20.1006842,11.8089104 C20.0889741,11.6854421 20.1169019,11.5614523 20.180407,11.4549692 C20.2857014,11.2697148 20.4000209,11.0558439 20.5053152,10.8284179 C20.7249291,10.3554921 20.908442,9.82985174 20.8783579,9.41415906 L20.8783579,9.36897507 C20.8512822,9.15209193 20.9926774,8.96081305 21.2303418,8.79363229 C21.5657793,8.56018169 22.0937551,8.37643347 22.6096972,8.23786924 C23.1260191,8.10660935 23.6493059,8.00453313 24.1770783,7.93212426 L24.1770783,7.93212426 Z"/>
        <path fill="url(#icon_empty_folder-e)" d="M20.8332318,10.8103443 C20.7298463,10.8313882 20.6241803,10.8389816 20.518853,10.8329363 C20.7384669,10.3600105 20.9219798,9.83437014 20.8918958,9.41867746 L21.2408712,8.79815069 L21.5010986,8.33727401 L22.6202267,8.24238764 L23.7513884,8.14750126 C23.005303,9.91419519 21.7523007,10.6461758 20.8332318,10.8103443 Z"/>
        <path fill="url(#icon_empty_folder-f)" d="M22.9346054,1.98892372 C21.2952293,1.64553954 19.6880633,2.69723343 19.3440694,4.33849109 C19.3290273,4.41530387 19.3154895,4.48910438 19.30496,4.57194169 C19.0736432,5.78918298 19.063961,7.03826537 19.2763802,8.2589551 C19.7923223,10.1491519 22.5645711,9.46386144 23.1271436,8.8900248 C23.689716,8.31618815 25.9505354,5.67141873 25.5805011,4.64272994 C25.344341,3.94388426 24.5170285,2.34587723 22.9346054,1.98892372 Z"/>
        <path fill="#3F3D56" d="M20.7008618,0.14541702 L21.1280559,0.538517714 C20.53251,0.362466235 19.8887408,0.484098418 19.3982207,0.865348559 C18.8252705,1.19457791 18.4036432,1.73512572 18.223437,2.37148149 L19.1725901,2.20128847 C19.1725901,2.20128847 18.826623,3.22395272 20.4000209,3.73453179 C21.9734188,4.24511085 23.6385731,4.77075124 23.6385731,4.77075124 L23.3016313,3.86707148 C23.3016313,3.86707148 24.1845993,4.53278224 24.2583053,4.94847493 C24.2556162,5.57892896 24.2053327,6.20827747 24.1078849,6.83114109 C24.1078849,6.83114109 24.7817685,5.9124 24.8840544,6.18049166 C24.9863403,6.44858332 24.3997006,7.28749936 24.1319522,7.43660652 C23.8642038,7.58571368 23.7378506,8.20473432 23.7047581,8.2499183 C23.6716656,8.29510229 24.9081217,7.73180858 25.0299622,7.45468012 C25.1518028,7.17755166 26.9478229,4.5403129 26.4544438,3.75109925 L26.8590748,3.82791203 C26.6665028,3.60624531 26.4270568,3.43028928 26.1581156,3.31281457 C26.1581156,3.31281457 24.4779192,-0.817001921 20.7008618,0.14541702 Z"/>
        <path fill="url(#icon_empty_folder-g)" d="M20.1051968,22.3849758 C19.8780619,22.1575498 19.6539355,21.8864458 19.3365483,21.832225 C19.2252372,22.0973044 19.4523721,22.3699145 19.5486412,22.6395123 C19.578733,22.7002421 19.578733,22.7715675 19.5486412,22.8322973 C19.503515,22.9045917 19.3982207,22.9091101 19.3154895,22.9030856 C18.9141744,22.8744475 18.5203135,22.7797997 18.149731,22.6229448 C17.8067724,22.4723315 17.4773516,22.2780404 17.1058131,22.2403871 C17.0661076,22.2325286 17.0249266,22.237815 16.9884852,22.2554484 C16.8982329,22.3126814 16.9508801,22.4512457 17.0155609,22.5355891 C17.1536175,22.7177217 17.3104151,22.8848167 17.4833684,23.0341191 C17.2212881,22.9178234 16.9416908,22.8460529 16.656056,22.8217544 C16.5763332,22.8217544 16.4680304,22.8383218 16.4695346,22.9181469 C16.4747085,22.9509636 16.490574,22.9811466 16.5146608,23.0039965 C16.7260791,23.2463735 16.9812351,23.4466723 17.266763,23.5944006 C17.0591916,23.550534 16.8469569,23.5328251 16.6349971,23.5416859 C16.5432407,23.5416859 16.4214001,23.5898822 16.4349379,23.6802501 C16.4407822,23.7100068 16.4554618,23.7373038 16.4770557,23.7585691 C16.7315107,24.066173 17.0753618,24.2867515 17.4608054,24.3896388 L16.8591236,24.403194 C16.821231,24.4016708 16.7835393,24.4094256 16.7493167,24.4257859 C16.6410139,24.4950681 16.7357788,24.6652611 16.8410731,24.7390616 C17.3043681,25.0628802 17.8940163,25.1201132 18.4611013,25.1607788 C19.5456328,25.2390977 20.6873239,25.2812694 21.6650568,24.8023192 C21.7357545,24.766172 21.8154773,24.7179757 21.8290151,24.6396568 C21.8321019,24.598646 21.8259327,24.5574653 21.8109647,24.5191662 C21.6921325,24.1230532 21.6319643,23.4046278 21.2724595,23.1636466 C21.0979718,23.0476743 20.8828705,22.9814045 20.7038702,22.86242 C20.5248699,22.7434355 20.3097686,22.4873929 20.1051968,22.3849758 Z"/>
        <path fill="#2577FF" d="M28.3783213,21.5445537 C28.0383711,24.8896749 21.9839482,25.299343 21.9839482,25.299343 L21.3597033,23.1500914 L21.2498964,22.772052 C21.2498964,22.772052 24.4929612,22.3623838 25.1126935,21.3457441 C25.7324257,20.3291044 23.1812949,16.9207256 24.7231045,15.0199858 C26.2649141,13.1192461 26.6153937,13.7036256 26.6153937,13.7036256 C26.6153937,13.7036256 28.7152631,18.1994324 28.3783213,21.5445537 Z"/>
        <path fill="url(#icon_empty_folder-h)" d="M12.1148627,16.5441923 C12.1131312,16.6490622 12.1045894,16.7537083 12.0892912,16.857468 C12.0381483,17.3258753 11.8922405,18.182865 11.5041557,18.4946345 C10.9581295,18.9329192 10.8829193,18.2943188 10.8949529,18.0427946 C10.9068683,17.9046871 10.9294997,17.7677176 10.9626421,17.6331264 C11.0889953,17.0879063 11.7583663,16.7143854 12.0155852,16.5908825 L12.1148627,16.5441923 Z"/>
        <path fill="url(#icon_empty_folder-i)" d="M12.0892912,16.857468 C12.0381483,17.3258753 11.8922405,18.182865 11.5041557,18.4946345 C11.3356848,18.3726377 11.1190794,18.2099754 10.8949529,18.0427946 C10.594112,17.8168747 10.2737165,17.5789057 10.0465816,17.413231 C9.84445222,17.277571 9.66045363,17.1166188 9.49905117,16.9342808 C9.35753497,16.7491915 9.24025721,16.5467292 9.15007573,16.3318276 L8.68377235,15.316694 C8.5333519,14.9838386 8.38293146,14.5440478 8.65067985,14.2864991 C8.71836905,14.2202292 9.33509288,14.0997386 9.3757064,14.0123829 C9.48852174,13.7623648 8.77402462,13.2337122 8.81915075,12.9580898 C8.86531756,12.8032114 9.01510912,12.7032224 9.17564721,12.7201208 C9.32606765,12.7276515 9.75326172,13.1207522 9.88713592,13.2005772 C10.1518759,13.3511905 9.92925364,13.5650614 10.1879768,13.7216992 C10.5236521,13.8944105 10.8285842,14.1213673 11.0904995,14.3934345 C11.3823152,14.7353267 11.5297272,15.1736114 11.6696182,15.5983409 C11.7719041,15.9101104 11.9087867,16.2474841 12.014081,16.5833518 C12.0426609,16.6797443 12.0682324,16.7686061 12.0892912,16.857468 Z"/>
        <polygon fill="#2577FF" points="9.877 14.457 8.873 9.693 8.502 7.932 14.332 9.497 16.024 20.894 10.606 19.24"/>
        <polygon fill="url(#icon_empty_folder-j)" points="11.09 14.399 8.783 9.267 10.606 19.24 16.024 20.894 15.444 16.985"/>
        <path fill="url(#icon_empty_folder-k)" d="M10.2090357,16.5110574 C10.3925486,16.4191833 10.7685997,16.2520025 10.8633646,16.0697605 C10.8859277,16.0260826 10.9190202,15.9688496 10.8904403,15.9296901 C10.7595745,15.7489542 10.2210693,15.9793925 10.0676405,15.9296901 C10.1729348,15.7564848 11.1115583,15.2308444 10.6693222,15.1118599 C10.5745574,15.0862557 9.98641341,15.38447 9.89164853,15.3573596 C9.96535455,15.2971143 10.5700447,14.8663603 10.6738349,14.7549064 C10.7355559,14.6865324 10.7417792,14.5844826 10.6888249,14.5090974 C10.6358707,14.4337123 10.5378483,14.4050776 10.4527168,14.4401246 C10.1324521,14.5874216 9.80399343,14.7161575 9.46896708,14.8256947 C9.53364787,14.7187592 10.4075907,14.2232415 10.4421874,14.0967263 C10.4616513,14.0488807 10.4648233,13.9959456 10.4512126,13.946113 C10.4267185,13.8918618 10.3801652,13.8507327 10.3233552,13.8331531 C10.0796741,13.7382667 9.80590888,13.8331531 9.56222775,13.9310517 L8.98461324,14.1599839 C8.79959609,14.2322783 8.59502429,14.3256585 8.5333519,14.512419 C8.50633982,14.6069435 8.50170457,14.7064713 8.51981406,14.8031027 C8.59023571,15.4129026 8.80755756,15.996444 9.15308414,16.5035267 C9.32456345,16.7535448 9.86607706,17.3575041 10.1774474,17.4162433 C10.454221,17.468958 9.95031251,16.65414 10.2090357,16.5110574 Z"/>
        <path fill="#FFF" d="M16.2408956 31.9504261C16.2408956 31.9504261 18.2294539 27.3883494 20.5278783 26.0900628L19.7441877 25.7722688C19.7441877 25.7722688 15.7084072 30.069266 15.2315744 32.2802692 14.7547416 34.4912723 15.7114156 43.9784036 15.7114156 43.9784036L16.3732656 43.9784036C16.3732656 43.9784036 15.2797089 32.8812162 16.2408956 31.9504261zM25.2811644 22.0762186C24.0010864 22.6033651 21.8214941 23.0627356 21.3521823 23.1591282L21.26193 23.1772017 21.2423754 22.7810888C21.2423754 22.7810888 24.4854402 22.3714206 25.1051724 21.3547809 25.7249047 20.3381412 23.1737739 16.9297624 24.7155835 15.0290226 24.7155835 15.0290226 24.5200369 16.709867 25.0269538 17.9524266 25.5338707 19.1949863 26.7191838 21.4737654 25.2811644 22.0762186z" opacity=".24"/>
      </g>
    </g>
  </g>
</svg>
