<svg xmlns="http://www.w3.org/2000/svg" width="180" height="140" viewBox="0 0 180 140">
  <defs>
    <linearGradient id="icon_empty_inventory_vm-a" x1="0%" x2="100.085%" y1="49.968%" y2="49.968%">
      <stop offset="0%" stop-color="#F71D69"/>
      <stop offset="100%" stop-color="#F8C648"/>
    </linearGradient>
    <linearGradient id="icon_empty_inventory_vm-b" x1="89.266%" x2=".94%" y1="50%" y2="53.857%">
      <stop offset="0%" stop-color="#8E98F4"/>
      <stop offset="98.821%" stop-color="#97C3FF"/>
      <stop offset="100%" stop-color="#E7F0FD"/>
    </linearGradient>
    <linearGradient id="icon_empty_inventory_vm-c" x1="89.266%" x2=".94%" y1="50%" y2="65.773%">
      <stop offset="0%" stop-color="#8E98F4"/>
      <stop offset="98.821%" stop-color="#97C3FF"/>
      <stop offset="100%" stop-color="#E7F0FD"/>
    </linearGradient>
    <linearGradient id="icon_empty_inventory_vm-d" x1="89.266%" x2=".94%" y1="50%" y2="65.69%">
      <stop offset="0%" stop-color="#8E98F4"/>
      <stop offset="98.821%" stop-color="#97C3FF"/>
      <stop offset="100%" stop-color="#E7F0FD"/>
    </linearGradient>
  </defs>
  <g fill="none" fill-rule="evenodd" transform="translate(24 7)">
    <path fill="#BAC5F4" d="M4.88,102.075949 L126.72,102.075949 C126.72,102.075949 131.28,101.836709 131.28,96.5734177 L131.28,86.1265823 L0.08,86.1265823 L0.08,98.8063291 C0.72,100.8 2.64,102.155696 4.8,102.075949"/>
    <path fill="#BAC5F4" d="M0.08,7.17721519 L0,90.1139241 L131.28,88.9177215 L131.28,4.78481013 C131.28,4.78481013 132.08,0 126.96,0 L5.04,0 C5.04,0 -0.48,0 0.08,7.17721519"/>
    <polygon fill="#BAC5F4" points="55.28 124.325 55.28 101.278 74.48 102.076 74.48 122.332"/>
    <polygon fill="#BAC5F4" points="24.8 122.013 104.56 122.013 104.64 126 24.8 126"/>
    <path fill="#FFF" d="M64.48,91.7886076 C66.64,91.7886076 68.32,93.4632911 68.32,95.6164557 C68.32,97.7696203 66.64,99.4443038 64.48,99.4443038 C62.32,99.4443038 60.64,97.7696203 60.64,95.6164557 C60.64,93.4632911 62.4,91.7886076 64.48,91.7886076 L64.48,91.7886076"/>
    <rect width="123.2" height="80.544" x="4.08" y="3.987" fill="#F8F8FF"/>
    <path fill="#FA5F5D" d="M10.24,8.13417722 C11.28,8.13417722 12.16,9.01139241 12.16,10.0481013 C12.16,11.0848101 11.28,11.9620253 10.24,11.9620253 C9.2,11.9620253 8.32,11.0848101 8.32,10.0481013 C8.32,9.01139241 9.2,8.13417722 10.24,8.13417722 L10.24,8.13417722"/>
    <path fill="#FDBC4E" d="M16.8,8.13417722 C17.84,8.13417722 18.72,9.01139241 18.72,10.0481013 C18.72,11.0848101 17.84,11.9620253 16.8,11.9620253 C15.76,11.9620253 14.88,11.0848101 14.88,10.0481013 C14.88,9.01139241 15.76,8.13417722 16.8,8.13417722 L16.8,8.13417722"/>
    <path fill="#37CD58" d="M23.68,8.13417722 C24.72,8.13417722 25.6,9.01139241 25.6,10.0481013 C25.6,11.0848101 24.72,11.9620253 23.68,11.9620253 C22.64,11.9620253 21.76,11.0848101 21.76,10.0481013 C21.76,9.01139241 22.64,8.13417722 23.68,8.13417722 L23.68,8.13417722"/>
    <path fill="url(#icon_empty_inventory_vm-a)" d="M50.48,22.1696203 C50.4,23.2063291 49.52,24.0037975 48.48,23.9240506 L24.88,23.9240506 C23.68,23.9240506 22.48,23.1265823 22.48,22.1696203 L22.48,18.5810127 C22.48,17.6240506 23.6,16.7468354 24.88,16.7468354 L48.4,16.7468354 C49.44,16.6670886 50.4,17.464557 50.48,18.5012658 C50.48,18.5012658 50.48,18.5810127 50.48,18.5810127 L50.48,22.1696203 Z"/>
    <path fill="url(#icon_empty_inventory_vm-b)" d="M107.28,45.9341772 C107.2,47.0506329 106.24,47.9278481 105.12,47.8481013 C105.12,47.8481013 105.12,47.8481013 105.12,47.8481013 L24.88,47.8481013 C23.68,47.8481013 22.48,46.9708861 22.48,45.9341772 L22.48,28.2303797 C22.48,27.1936709 23.68,26.3164557 24.88,26.3164557 L105.12,26.3164557 C106.24,26.2367089 107.2,27.1139241 107.28,28.2303797 C107.28,28.2303797 107.28,28.2303797 107.28,28.2303797 L107.28,28.2303797 L107.28,45.9341772 Z"/>
    <path fill="url(#icon_empty_inventory_vm-c)" d="M48.88 61.0860759C48.88 62.1227848 48 63 46.96 63 46.96 63 46.96 63 46.96 63L24.88 63C23.6 63 22.48 62.1227848 22.48 61.0860759L22.48 51.356962C22.48 50.3202532 23.68 49.443038 24.88 49.443038L46.8 49.443038C47.84 49.3632911 48.8 50.1607595 48.88 51.2772152 48.88 51.2772152 48.88 51.2772152 48.88 51.2772152 48.88 51.2772152 48.88 51.356962 48.88 51.356962L48.88 61.0860759zM77.68 61.0860759C77.68 62.1227848 76.8 63 75.76 63 75.76 63 75.76 63 75.76 63L53.68 63C52.4 63 51.28 62.1227848 51.28 61.0860759L51.28 51.356962C51.28 50.3202532 52.48 49.443038 53.68 49.443038L75.6 49.443038C76.64 49.3632911 77.6 50.1607595 77.68 51.2772152 77.68 51.2772152 77.68 51.356962 77.68 51.356962L77.68 61.0860759z"/>
    <path fill="url(#icon_empty_inventory_vm-d)" d="M107.28,61.0860759 C107.2,62.2025316 106.24,63.0797468 105.12,63 L83.2,63 C82,63.0797468 81.04,62.2025316 80.88,61.0860759 L80.88,51.356962 C80.96,50.1607595 82,49.3632911 83.2,49.443038 L105.12,49.443038 C106.24,49.3632911 107.28,50.2405063 107.36,51.356962 C107.36,51.356962 107.36,51.356962 107.36,51.356962 L107.36,51.356962 L107.36,61.0860759 L107.28,61.0860759 Z"/>
    <path fill="#E9EDFB" d="M77.68 66.5886076C77.52 66.9873418 77.2 67.2265823 76.8 67.3063291 76.72 67.3063291 76.72 67.3063291 76.64 66.9873418L52.48 66.9873418C52 67.3063291 51.28 66.9873418 51.28 66.5886076L51.28 66.2696203C51.28 65.8708861 52 65.4721519 52.48 65.3924051L76.64 65.3924051C77.04 65.4721519 77.28 65.7911392 77.36 66.1101266 77.36 66.1898734 77.36 66.1898734 77.6 66.2696203L77.6 66.5886076 77.68 66.5886076zM77.68 69.6987342C77.52 70.0974684 77.2 70.4164557 76.8 70.4962025 76.8 70.4962025 76.72 70.4962025 76.72 70.1772152L52.48 70.1772152C52 70.4962025 51.28 70.1772152 51.28 69.6987342L51.28 69.3797468C51.28 68.9810127 52 68.6620253 52.48 68.5822785L76.64 68.5822785C77.04 68.6620253 77.44 68.9810127 77.6 69.3797468L77.6 69.6987342 77.68 69.6987342zM77.68 72.8886076C77.52 73.3670886 77.12 73.6860759 76.72 73.7658228 76.72 73.6063291 76.72 73.5265823 76.72 73.3670886L52.48 73.3670886C52.08 73.6063291 51.6 73.5265823 51.36 73.1278481 51.28 73.0481013 51.28 72.9683544 51.28 72.8886076L51.28 72.5696203C51.28 72.1708861 52 71.9316456 52.48 71.7721519L76.64 71.7721519C77.04 71.8518987 77.44 72.1708861 77.6 72.5696203L77.68 72.8886076zM77.68 75.9987342C77.44 76.4772152 77.12 76.9556962 76.72 77.3544304L52.48 77.3544304C52 76.9556962 51.28 76.4772152 51.28 75.9987342L51.28 75.6797468C51.28 75.2810127 52 74.8025316 52.48 74.9620253L76.64 74.9620253C76.96 74.8822785 77.28 75.121519 77.36 75.4405063 77.36 75.5202532 77.36 75.6 77.36 75.6797468 77.36 75.6797468 77.36 75.6797468 77.6 75.7594937L77.6 75.9987342 77.68 75.9987342zM64.24 79.1886076C64.24 79.5873418 64 79.7468354 63.52 79.7468354L52.4 79.7468354C51.92 79.7468354 51.28 79.5873418 51.28 79.1886076L51.28 78.8696203C51.28 78.4708861 51.92 78.1518987 52.4 78.1518987L63.52 78.1518987C63.92 78.1518987 64.24 78.4708861 64.24 78.8696203 64.24 78.8696203 64.24 78.8696203 64.24 78.8696203L64.24 79.1886076zM107.28 66.5886076C106.8 66.9873418 106.88 67.3063291 106.4 66.9873418L82.24 66.9873418C81.84 67.3063291 81.44 67.0670886 81.44 66.6683544 81.44 66.6683544 81.44 66.6683544 81.68 66.5886076L81.68 66.2696203C81.44 65.8708861 81.76 65.4721519 82.24 65.3924051L106.4 65.3924051C106.88 65.5518987 106.8 65.8708861 107.28 66.2696203L107.28 66.5886076zM107.28 69.6987342C106.8 70.0974684 106.88 70.4962025 106.4 70.1772152L82.24 70.1772152C81.76 70.4962025 81.44 70.1772152 81.68 69.6987342L81.68 69.3797468C81.44 68.9810127 81.76 68.6620253 82.24 68.5822785L106.4 68.5822785C106.88 68.7417722 106.8 68.9810127 107.28 69.3797468L107.28 69.6987342zM107.28 72.8886076C106.8 73.2873418 106.88 73.7658228 106.4 73.3670886L82.24 73.3670886C81.76 73.6860759 81.44 73.3670886 81.68 72.8886076L81.68 72.5696203C81.44 72.1708861 81.76 71.9316456 82.24 71.7721519L106.4 71.7721519C106.88 71.9316456 106.8 72.1708861 107.28 72.5696203L107.28 72.8886076zM107.28 75.9987342C106.8 76.3974684 106.88 76.9556962 106.4 77.3544304L82.24 77.3544304C81.76 76.8759494 81.44 76.4772152 81.68 75.9987342L81.68 75.6797468C81.52 75.5202532 81.52 75.2012658 81.68 75.0417722 81.84 74.9620253 82 74.8822785 82.16 74.9620253L106.4 74.9620253C106.88 74.8025316 106.8 75.2810127 107.28 75.6797468L107.28 75.9987342zM94 79.1886076C94 79.5873418 94 79.7468354 93.6 79.7468354L82.4 79.7468354C81.92 79.7468354 81.68 79.5873418 81.68 79.1886076L81.68 78.8696203C81.68 78.4708861 82 78.1518987 82.4 78.1518987L82.4 78.1518987 93.52 78.1518987C94 78.1518987 93.92 78.4708861 93.92 78.8696203L94 79.1886076zM48.08 66.5886076C48.4 66.9873418 48.24 67.3063291 47.76 66.9873418L23.52 66.9873418C23.2 67.2265823 22.8 67.1468354 22.64 66.9075949 22.56 66.8278481 22.56 66.7481013 22.48 66.5886076L22.48 66.2696203C22.64 65.7911392 23.04 65.4721519 23.52 65.3924051L47.68 65.3924051C48.16 65.5518987 48.32 65.8708861 48 66.2696203L48 66.5886076 48.08 66.5886076zM48.08 69.6987342C48.4 70.0974684 48.24 70.4962025 47.76 70.1772152L23.52 70.1772152C23.04 70.5759494 22.64 70.1772152 22.48 69.6987342L22.48 69.3797468C22.56 68.9810127 23.04 68.6620253 23.52 68.5822785L47.68 68.5822785C48.16 68.7417722 48.32 68.9810127 48 69.3797468L48 69.6987342 48.08 69.6987342zM48.08 72.8886076C48.4 73.2873418 48.24 73.7658228 47.76 73.3670886L23.52 73.3670886C23.04 73.7658228 22.64 73.3670886 22.48 72.8886076L22.48 72.5696203C22.56 72.1708861 23.04 71.9316456 23.52 71.7721519L47.68 71.7721519C48.16 71.9316456 48.32 72.1708861 48 72.5696203L48 72.8886076 48.08 72.8886076zM40.88 74.9620253L47.76 74.9620253C48.24 74.8025316 48.4 75.2810127 48.08 75.6797468L48.08 75.9987342C48.4 76.3974684 48.24 76.9556962 47.76 77.3544304L23.52 77.3544304C23.04 77.035443 22.72 76.556962 22.48 75.9987342L22.48 75.6797468C22.56 75.2012658 23.04 74.8822785 23.52 74.9620253 23.52 74.9620253 23.52 74.9620253 23.52 74.9620253L40.88 74.9620253M36.08 79.1886076C36.08 79.5873418 35.84 79.7468354 35.36 79.7468354L23.36 79.7468354C22.88 79.7468354 22.48 79.5873418 22.48 79.1886076L22.48 78.8696203C22.56 78.4708861 22.96 78.1518987 23.36 78.1518987L35.36 78.1518987C35.76 78.1518987 36.08 78.4708861 36.08 78.7898734 36.08 78.7898734 36.08 78.7898734 36.08 78.7898734 36.08 78.7898734 36.08 78.7898734 36.08 78.8696203L36.08 79.1886076z"/>
  </g>
</svg>
