<svg xmlns="http://www.w3.org/2000/svg" width="24" height="24" viewBox="0 0 24 24">
  <g fill="none" transform="translate(4.5 3)">
    <rect width="10.11" height="17.163" x=".419" y=".419" fill="#FFF" stroke="#002989" stroke-width=".837" rx="1.256"/>
    <polyline fill="#6B91FE" points="10.105 .857 10.105 17.143 .842 17.143" opacity=".203"/>
    <rect width="5.053" height="1.286" x="1.684" y="2.571" fill="#6B91FE"/>
    <rect width="5.053" height="1.286" x="1.684" y="9" fill="#6B91FE"/>
    <rect width="1.263" height="1.286" x="7.579" y="2.571" fill="#002989"/>
    <rect width="1.263" height="1.286" x="7.579" y="9" fill="#002989"/>
    <rect width="1.263" height="1.286" x="7.579" y="4.714" fill="#002989"/>
    <rect width="1.263" height="1.286" x="7.579" y="11.143" fill="#002989"/>
    <rect width="1.263" height="1.286" x="7.579" y="6.857" fill="#002989"/>
    <rect width="1.263" height="1.286" x="7.579" y="13.286" fill="#002989"/>
    <rect width="5.053" height="1.286" x="1.684" y="4.714" fill="#6B91FE"/>
    <rect width="5.053" height="1.286" x="1.684" y="11.143" fill="#6B91FE"/>
    <rect width="5.053" height="1.286" x="1.684" y="6.857" fill="#6B91FE"/>
    <rect width="5.053" height="1.286" x="1.684" y="13.286" fill="#6B91FE"/>
    <g transform="translate(5.895 7.714)">
      <rect width="9.268" height="6.877" x=".419" y=".419" fill="#FFF" stroke="#002989" stroke-width=".837" rx=".837"/>
      <polyline fill="#6B91FE" points="9.263 .857 9.263 6.857 .842 6.857" opacity=".203"/>
    </g>
    <rect width="8.421" height="1.714" x="6.737" y="16.286" fill="#002989" rx=".837"/>
    <rect width="1" height="1" x="10.947" y="15.429" fill="#002989"/>
  </g>
</svg>
