<svg xmlns="http://www.w3.org/2000/svg" xmlns:xlink="http://www.w3.org/1999/xlink" width="250" height="220" viewBox="0 0 250 220">
  <defs>
    <path id="icon_empty_no_search_result-a" d="M0.389837364,128.630602 L100.912855,70.3938311 C105.448666,67.7665951 105.448666,61.1970367 100.912855,58.5692134 L0.389837364,0.33244256 L34.447926,0.33244256 C37.765641,0.33244256 41.0248218,1.20877525 43.8982627,2.87392482 L137.137292,56.8905547 C140.025529,58.5636285 141.481468,61.4812364 141.50511,64.4091031 L141.50511,64.5540882 C141.481468,67.4819573 140.025529,70.3997121 137.137292,72.0730772 L43.8982627,126.089707 C41.0248218,127.754269 37.765641,128.630602 34.447926,128.630602"/>
    <linearGradient id="icon_empty_no_search_result-b" x1="0%" x2="100%" y1="50%" y2="50%">
      <stop offset="0%" stop-color="#BCC0E6"/>
      <stop offset="100%" stop-color="#BCC0E6"/>
    </linearGradient>
    <polygon id="icon_empty_no_search_result-d" points="0 .362 217.345 .362 217.345 126.281 0 126.281"/>
    <path id="icon_empty_no_search_result-f" d="M97.5396793,2.6082749 L36.5642761,38.2284539 L0.0122983871,20.2754006 L0.0122983871,28.6217619 C0.00238543837,28.8443473 -0.00234254992,29.0675247 0.0122983871,29.2924781 L0.0122983871,29.2924781 C0.183304531,31.9392319 2.16802995,34.6907665 5.88917051,36.8597904 L5.88917051,36.8597904 L95.8594854,89.3165437 C99.5525154,91.4695841 104.227659,92.62395 108.732383,92.7364266 L108.732383,92.7364266 C112.913249,92.8400236 116.947705,92.047359 119.915131,90.3140343 L119.915131,90.3140343 L213.298541,35.7622548 C216.239612,34.0443216 217.595949,31.7154625 217.441926,29.2989899 L217.441926,29.2989899 L217.453696,29.2924781 L217.453696,20.2754006 L180.942656,38.2083265 L121.595325,3.60635739 C117.703763,1.33728847 112.721745,0.174634838 107.997993,0.174634838 L107.997993,0.174634838 C104.077736,0.174634838 100.335513,0.974995178 97.5396793,2.6082749"/>
    <polygon id="icon_empty_no_search_result-h" points="0 .034 217.455 .034 217.455 125.977 0 125.977"/>
    <path id="icon_empty_no_search_result-j" d="M97.5396793,2.83191688 L4.15568356,56.7166933 C1.36336406,58.3282487 -7.52914528e-07,60.4836164 -7.52914528e-07,62.7413143 L-7.52914528e-07,62.7413143 L-7.52914528e-07,62.7454075 C-7.52914528e-07,62.8658648 0.00409946284,62.9869069 0.0122983876,63.107949 L0.0122983876,63.107949 C0.183304532,65.722341 2.16802995,68.4402327 5.88917051,70.582736 L5.88917051,70.582736 L95.8594854,122.397517 C102.980252,126.498914 113.750125,126.940396 119.915131,123.383396 L119.915131,123.383396 L213.298541,69.49862 C216.241955,67.8005224 217.599462,65.4972144 217.441926,63.107949 L217.441926,63.107949 C217.27092,60.4929723 215.286194,57.7750806 211.565054,55.6325773 L211.565054,55.6325773 L121.595325,3.81779585 C117.703763,1.57647076 112.721745,0.428032863 107.997993,0.428032863 L107.997993,0.428032863 C104.077736,0.428032863 100.335513,1.21860722 97.5396793,2.83191688"/>
    <linearGradient id="icon_empty_no_search_result-k" x1="0%" x2="100%" y1="50%" y2="50%">
      <stop offset="0%" stop-color="#F6F7FF"/>
      <stop offset="100%" stop-color="#F2F2F9"/>
    </linearGradient>
    <path id="icon_empty_no_search_result-m" d="M9.76833485,2.57729315 C7.69117379,4.01619343 5.54303913,5.5034106 3.67229299,4.42747615 L3.67229299,4.42747615 C3.65987261,4.42040539 3.64745223,4.4127454 3.63503185,4.40567463 L3.63503185,4.40567463 L0.861737944,2.82123447 C0.583166515,2.6621423 0.357825296,2.79412988 0.359003553,3.11526037 L0.359003553,3.11526037 C0.360191083,3.43639086 0.585532302,3.8246936 0.864103731,3.984375 L0.864103731,3.984375 C0.864695177,3.98496423 0.865286624,3.98555346 0.865878071,3.98555346 L0.865878071,3.98555346 L3.62852593,5.56351209 C3.64686078,5.57470746 3.66519563,5.58531361 3.68293904,5.59591975 L3.68293904,5.59591975 C5.99017288,6.92227706 8.18976342,5.39970608 10.516515,3.78933978 L10.516515,3.78933978 C12.8249318,2.1907581 15.2120109,0.537967225 17.5630118,1.85018301 L17.5630118,1.85018301 C17.5837125,1.86137838 17.6050045,1.87316299 17.6262966,1.88553682 L17.6262966,1.88553682 C19.9122384,3.20010953 21.9953139,6.52042203 24.199636,10.0328236 L24.199636,10.0328236 C26.455414,13.6283066 28.7880801,17.3451711 31.4738399,18.8895436 L31.4738399,18.8895436 C34.177343,20.4451115 36.1332575,16.8620023 38.2045041,13.0685379 L38.2045041,13.0685379 C40.2402639,9.34106727 42.5469063,5.11569709 45.3917652,6.75140029 L45.3917652,6.75140029 C48.2259782,8.38180041 50.350455,13.654822 52.4063239,18.7551991 L52.4063239,18.7551991 C54.488808,23.9221592 56.45596,28.8051104 59.2765696,30.4272613 L59.2765696,30.4272613 C59.2895814,30.434332 59.3025933,30.441992 59.3156051,30.449652 L59.3156051,30.449652 C62.0818016,32.0063983 64.3854868,32.6792993 66.6134668,33.3298095 L66.6134668,33.3298095 C68.7627843,33.9573397 70.7932211,34.5501054 73.2429936,35.8776411 L73.2429936,35.8776411 C75.577434,37.1403616 77.4600091,39.672284 79.4466788,42.3473894 L79.4466788,42.3473894 C81.644495,45.3070929 83.9168335,48.3669657 87.0609645,50.1747241 L87.0609645,50.1747241 C87.089354,50.1912225 87.1183348,50.207721 87.1467243,50.2242194 L87.1467243,50.2242194 L92.0663785,53.0537031 C92.3461328,53.2139738 92.5720655,53.0837539 92.5720655,52.7632126 L92.5720655,52.7632126 C92.5720655,52.4420821 92.3461328,52.0520117 92.0663785,51.8911518 L92.0663785,51.8911518 L87.1425842,49.058722 C87.117152,49.0445805 87.0929026,49.0310282 87.0680619,49.0162974 L87.0680619,49.0162974 C84.2249773,47.3811835 82.0815742,44.4963121 80.0097361,41.7051284 L80.0097361,41.7051284 C77.977525,38.9699215 75.8743403,36.1380809 73.2134213,34.6985914 L73.2134213,34.6985914 C70.6565969,33.3139003 68.4782985,32.6775316 66.3721565,32.0623752 L66.3721565,32.0623752 C64.200364,31.4283635 61.9546406,30.7725502 59.3049591,29.2812084 L59.3049591,29.2812084 C59.2960874,29.2759053 59.2872157,29.2711915 59.2777525,29.2658884 L59.2777525,29.2658884 C57.0267061,27.9707603 55.2020928,23.4437042 53.2710191,18.6520838 L53.2710191,18.6520838 C51.0708371,13.1928655 48.7961328,7.54745037 45.3917652,5.58943822 L45.3917652,5.58943822 C41.9099181,3.58664458 39.5630573,7.88566853 37.2930846,12.0432772 L37.2930846,12.0432772 C35.4483621,15.4225128 33.5403549,18.9166482 31.4738399,17.7275815 L31.4738399,17.7275815 C29.1707461,16.4035811 26.9841674,12.9182842 24.8691538,9.54788709 L24.8691538,9.54788709 C22.6204732,5.96359943 20.2954959,2.25851958 17.6251137,0.722985526 L17.6251137,0.722985526 C17.5996815,0.708254769 17.5736579,0.693524013 17.5476342,0.678793256 L17.5476342,0.678793256 C16.7870337,0.253958241 16.0453594,0.0760107032 15.3190628,0.0765984753 L15.3190628,0.0765984753 C13.3814832,0.0765984753 11.5527298,1.34285576 9.76833485,2.57729315"/>
    <linearGradient id="icon_empty_no_search_result-n" x1="61.076%" x2="44.715%" y1="39.71%" y2="56.143%">
      <stop offset="0%" stop-color="#6FD1F6"/>
      <stop offset="100%" stop-color="#53B4D9"/>
    </linearGradient>
    <polygon id="icon_empty_no_search_result-p" points=".215 34.865 .215 .201 84.907 49.306 84.907 83.95"/>
    <path id="icon_empty_no_search_result-r" d="M10.786875,0.297828552 L63.9009643,0.297828552 L63.9009643,11.146542 L10.786875,11.146542 C5.01776786,11.146542 0.341785714,8.71750633 0.341785714,5.72218525 C0.341785714,2.72627674 5.01776786,0.297828552 10.786875,0.297828552 Z"/>
    <linearGradient id="icon_empty_no_search_result-s" x1="0%" x2="100%" y1="49.999%" y2="49.999%">
      <stop offset="0%" stop-color="#BCC0E6"/>
      <stop offset="100%" stop-color="#BCC0E6"/>
    </linearGradient>
    <path id="icon_empty_no_search_result-u" d="M0.354699248,8.06537099 C0.354699248,8.06537099 1.02518797,23.3759747 1.45319549,26.9337821 L1.45319549,26.9337821 C1.88120301,30.4915896 2.4518797,43.9491807 2.27030075,45.8882177 L2.27030075,45.8882177 C2.07800752,47.931879 5.10338346,48.1701899 5.5612782,45.8882177 L5.5612782,45.8882177 C6.24642857,42.4693281 6.98289474,33.194384 7.54680451,27.2819485 L7.54680451,27.2819485 C8.1112782,21.3695131 9.25996241,17.6756941 10.3229323,9.93233348 L10.3229323,9.93233348 L10.0364662,0.192392462 L0.354699248,8.06537099 Z"/>
    <linearGradient id="icon_empty_no_search_result-v" x1="53.21%" x2="49.596%" y1="143.277%" y2="23.212%">
      <stop offset="0%" stop-color="#5567F8"/>
      <stop offset="100%" stop-color="#000655"/>
    </linearGradient>
    <path id="icon_empty_no_search_result-x" d="M0.283333333,6.3911817 C0.283333333,6.3911817 0.943888889,21.8859003 1.36555556,25.4859032 L1.36555556,25.4859032 C1.78722222,29.0870826 2.34944444,42.7065056 2.17,44.6688601 L2.17,44.6688601 C1.98111111,46.7365089 4.96166667,46.9782738 5.41277778,44.6688601 L5.41277778,44.6688601 C6.08777778,41.2094455 6.81333333,31.8229672 7.36944444,25.8388447 L7.36944444,25.8388447 C7.925,19.8547221 8.30555556,20.5194286 6.11777778,12.6829516 L6.11777778,12.6829516 L2.94777778,0.374117953 L0.283333333,6.3911817 Z"/>
    <linearGradient id="icon_empty_no_search_result-y" x1="52.212%" x2="49.363%" y1="152.358%" y2="27.195%">
      <stop offset="0%" stop-color="#5567F8"/>
      <stop offset="100%" stop-color="#000655"/>
    </linearGradient>
    <path id="icon_empty_no_search_result-A" d="M13.2119628,1.94552306 C14.4053426,4.71592455 16.9152149,8.91907106 16.9152149,8.91907106 L16.9152149,8.91907106 C15.78223,7.67300292 14.8977933,5.9987447 11.4152149,5.31095709 L11.4152149,5.31095709 L11.4163763,5.31037372 C10.912892,4.71300772 11.3803717,3.30243059 11.3803717,3.30243059 L11.3803717,3.30243059 C11.3803717,3.30243059 8.92566783,4.41957501 6.53019744,3.80529142 L6.53019744,3.80529142 C6.53019744,3.80529142 6.40940767,5.0338586 4.98083624,7.30139927 L4.98083624,7.30139927 L1.80778165,9.39976401 C-1.73228804,12.0418252 1.28745645,25.364137 1.28745645,25.364137 L1.28745645,25.364137 C2.3873403,31.1079511 1.34204413,44.3211736 1.66144019,50.6821882 L1.66144019,50.6821882 C2.05226481,58.474781 19.6300813,56.9411138 20.0214866,44.1718321 L20.0214866,44.1718321 C20.1504065,39.9511847 15.7787456,15.3652569 15.7787456,15.3652569 L15.7787456,15.3652569 C15.7787456,15.3652569 17.5754936,17.3545323 22.4889663,17.5756278 L22.4889663,17.5756278 C27.4198606,17.7973066 15.514518,1.24781824 15.0087108,0.324934435 L15.0087108,0.324934435 C14.9483159,0.214095041 14.8495935,0.166259092 14.7288037,0.166259092 L14.7288037,0.166259092 C14.1248548,0.166259092 12.9628339,1.36682474 13.2119628,1.94552306"/>
    <linearGradient id="icon_empty_no_search_result-B" x1="58.325%" x2="35.665%" y1="101.114%" y2="-19.385%">
      <stop offset="0%" stop-color="#BCC0E6"/>
      <stop offset="100%" stop-color="#FFF"/>
    </linearGradient>
  </defs>
  <g fill="none" fill-rule="evenodd">
    <g transform="translate(0 90.558)">
      <g transform="translate(108.288)">
        <mask id="icon_empty_no_search_result-c" fill="#fff">
          <use xlink:href="#icon_empty_no_search_result-a"/>
        </mask>
        <path fill="url(#icon_empty_no_search_result-b)" d="M34.447926,0.33244256 L0.389837364,0.33244256 L100.912855,58.5692134 C105.448666,61.1970367 105.448666,67.7665951 100.912855,70.3938311 L0.389837364,128.630602 L34.447926,128.630602 C37.765641,128.630602 41.0248218,127.754269 43.8982627,126.089707 L137.137292,72.0730772 C142.961439,68.6987265 142.961439,60.264318 137.137292,56.8905547 L43.8982627,2.87392482 C41.0248218,1.20877525 37.765641,0.33244256 34.447926,0.33244256" mask="url(#icon_empty_no_search_result-c)" opacity=".57"/>
      </g>
      <g transform="translate(0 2.35)">
        <mask id="icon_empty_no_search_result-e" fill="#fff">
          <use xlink:href="#icon_empty_no_search_result-d"/>
        </mask>
        <path fill="#9397B5" d="M217.332457,63.3216149 C217.160952,60.6955536 215.17723,57.9655306 211.458556,55.8128769 L121.53373,3.76623354 C114.415979,-0.352882491 103.65155,-0.796335023 97.490247,2.77654147 L4.15405076,56.9018319 C1.21212494,58.6080962 -0.144696391,60.921685 0.0121751009,63.3216149 C0.183094786,65.9476762 2.16681675,68.6776992 5.88607592,70.8303528 L95.8109026,122.876409 C102.928068,126.996112 113.693082,127.439565 119.854385,123.866688 L213.190582,69.7413979 C216.132507,68.0351335 217.489329,65.7215447 217.332457,63.3216149" mask="url(#icon_empty_no_search_result-e)"/>
      </g>
    </g>
    <g transform="translate(0 123.922)">
      <mask id="icon_empty_no_search_result-g" fill="#fff">
        <use xlink:href="#icon_empty_no_search_result-f"/>
      </mask>
      <path d="M97.5396793,2.6082749 L36.5642761,38.2284539 L0.0122983871,20.2754006 L0.0122983871,28.6217619 C0.00238543837,28.8443473 -0.00234254992,29.0675247 0.0122983871,29.2924781 L0.0122983871,29.2924781 C0.183304531,31.9392319 2.16802995,34.6907665 5.88917051,36.8597904 L5.88917051,36.8597904 L95.8594854,89.3165437 C99.5525154,91.4695841 104.227659,92.62395 108.732383,92.7364266 L108.732383,92.7364266 C112.913249,92.8400236 116.947705,92.047359 119.915131,90.3140343 L119.915131,90.3140343 L213.298541,35.7622548 C216.239612,34.0443216 217.595949,31.7154625 217.441926,29.2989899 L217.441926,29.2989899 L217.453696,29.2924781 L217.453696,20.2754006 L180.942656,38.2083265 L121.595325,3.60635739 C117.703763,1.33728847 112.721745,0.174634838 107.997993,0.174634838 L107.997993,0.174634838 C104.077736,0.174634838 100.335513,0.974995178 97.5396793,2.6082749" mask="url(#icon_empty_no_search_result-g)"/>
    </g>
    <g transform="translate(0 81.026)">
      <mask id="icon_empty_no_search_result-i" fill="#fff">
        <use xlink:href="#icon_empty_no_search_result-h"/>
      </mask>
      <path fill="#FFF" d="M217.442394,63.0055236 C217.270803,60.3789716 215.286077,57.6484385 211.565522,55.4953826 L121.595207,3.43901478 C114.473856,-0.680870879 103.703982,-1.12440627 97.5395622,2.44913779 L4.15615207,56.5845411 C1.21273809,58.2911242 -0.144769586,60.6051453 0.0121812592,63.0055236 C0.183187404,65.6320755 2.16791283,68.3626086 5.88905338,70.5156645 L95.8593683,122.571445 C102.980134,126.691918 113.750593,127.135453 119.915013,123.561909 L213.298424,69.4265061 C216.241838,67.7199229 217.599345,65.4059018 217.442394,63.0055236" mask="url(#icon_empty_no_search_result-i)"/>
    </g>
    <g transform="translate(0 81.026)">
      <mask id="icon_empty_no_search_result-l" fill="#fff">
        <use xlink:href="#icon_empty_no_search_result-j"/>
      </mask>
      <path fill="url(#icon_empty_no_search_result-k)" d="M97.5396793,2.83191688 L4.15568356,56.7166933 C1.36336406,58.3282487 -7.52914528e-07,60.4836164 -7.52914528e-07,62.7413143 L-7.52914528e-07,62.7413143 L-7.52914528e-07,62.7454075 C-7.52914528e-07,62.8658648 0.00409946284,62.9869069 0.0122983876,63.107949 L0.0122983876,63.107949 C0.183304532,65.722341 2.16802995,68.4402327 5.88917051,70.582736 L5.88917051,70.582736 L95.8594854,122.397517 C102.980252,126.498914 113.750125,126.940396 119.915131,123.383396 L119.915131,123.383396 L213.298541,69.49862 C216.241955,67.8005224 217.599462,65.4972144 217.441926,63.107949 L217.441926,63.107949 C217.27092,60.4929723 215.286194,57.7750806 211.565054,55.6325773 L211.565054,55.6325773 L121.595325,3.81779585 C117.703763,1.57647076 112.721745,0.428032863 107.997993,0.428032863 L107.997993,0.428032863 C104.077736,0.428032863 100.335513,1.21860722 97.5396793,2.83191688" mask="url(#icon_empty_no_search_result-l)"/>
    </g>
    <g transform="translate(40.476)">
      <g fill="#FFF" transform="translate(0 102.3)">
        <path d="M2.6157623 40.0439386C3.19865546 40.381999 3.19865546 40.929951 2.6157623 41.2680114 2.03286915 41.6060719 1.08830132 41.6060719.505408163 41.2680114-.077484994 40.929951-.077484994 40.381999.505408163 40.0439386 1.08830132 39.7058781 2.03286915 39.7058781 2.6157623 40.0439386M13.9226606 33.485977C14.5055537 33.8240375 14.5055537 34.3719894 13.9226606 34.7100499 13.3397674 35.0481104 12.3951996 35.0481104 11.8123064 34.7100499 11.228828 34.3719894 11.228828 33.8240375 11.8123064 33.485977 12.3946143 33.1479166 13.3397674 33.1479166 13.9226606 33.485977M25.2292662 26.9280155C25.8121594 27.266076 25.8121594 27.8140279 25.2292662 28.1520884 24.646373 28.4901488 23.7018052 28.4901488 23.1189121 28.1520884 22.5360189 27.8140279 22.5360189 27.266076 23.1189121 26.9280155 23.7018052 26.589955 24.646373 26.589955 25.2292662 26.9280155M36.5361645 20.36976C37.1190576 20.7078205 37.1190576 21.2557724 36.5361645 21.5938329 35.9532713 21.9318933 35.0087035 21.9318933 34.4258103 21.5938329 33.8423319 21.2557724 33.8423319 20.7078205 34.4258103 20.36976 35.0087035 20.0316995 35.9532713 20.0316995 36.5361645 20.36976M13.9229532 46.6021941C14.5058463 46.9402545 14.5058463 47.4882065 13.9229532 47.8268548 13.34006 48.1643274 12.3954922 48.1643274 11.812599 47.8268548 11.2291206 47.4882065 11.2291206 46.9402545 11.812599 46.6021941 12.394907 46.2641336 13.34006 46.2641336 13.9229532 46.6021941M25.2295588 40.0442325C25.812452 40.382293 25.812452 40.9302449 25.2295588 41.2683054 24.6466657 41.6063659 23.7020978 41.6063659 23.1192047 41.2683054 22.5363115 40.9302449 22.5363115 40.382293 23.1192047 40.0442325 23.7020978 39.7061721 24.6466657 39.7061721 25.2295588 40.0442325M36.5364571 33.486271C37.1193502 33.8243315 37.1193502 34.3722834 36.5364571 34.7103439 35.9535639 35.0484043 35.0089961 35.0484043 34.4261029 34.7103439 33.8432098 34.3722834 33.8432098 33.8243315 34.4261029 33.486271 35.0089961 33.1482105 35.9535639 33.1482105 36.5364571 33.486271M47.8433553 26.9280155C48.4262485 27.266076 48.4262485 27.8140279 47.8433553 28.1520884 47.2604622 28.4901488 46.3153091 28.4901488 45.7330012 28.1520884 45.1495228 27.8140279 45.1495228 27.266076 45.7330012 26.9280155 46.3153091 26.589955 47.2604622 26.589955 47.8433553 26.9280155M25.2301441 53.1604496C25.8130372 53.49851 25.8130372 54.0464619 25.2301441 54.3851103 24.6472509 54.7225829 23.7020978 54.7225829 23.1197899 54.3851103 22.5363115 54.0464619 22.5363115 53.49851 23.1197899 53.1604496 23.7020978 52.8223891 24.6472509 52.8223891 25.2301441 53.1604496M36.5367497 46.602488C37.1196429 46.9405485 37.1196429 47.4885004 36.5367497 47.8265609 35.9538565 48.1646214 35.0092887 48.1646214 34.4263956 47.8265609 33.8435024 47.4885004 33.8435024 46.9405485 34.4263956 46.602488 35.0092887 46.2644276 35.9538565 46.2644276 36.5367497 46.602488M47.843648 40.0445265C48.4265411 40.382587 48.4265411 40.9305389 47.843648 41.2685994 47.2607548 41.6066598 46.316187 41.6066598 45.7332938 41.2685994 45.1498154 40.9305389 45.1498154 40.382587 45.7332938 40.0445265 46.3156017 39.706466 47.2607548 39.706466 47.843648 40.0445265M59.1503121 33.486271C59.7332053 33.8243315 59.7332053 34.3722834 59.1503121 34.7109318 58.567419 35.0484043 57.6228511 35.0484043 57.039958 34.7109318 56.4570648 34.3722834 56.4570648 33.8243315 57.039958 33.486271 57.6228511 33.1482105 58.567419 33.1482105 59.1503121 33.486271M36.5373349 59.718705C37.1202281 60.0567655 37.1202281 60.6047174 36.5373349 60.9433658 35.9544418 61.2808384 35.0092887 61.2808384 34.4263956 60.9433658 33.8435024 60.6047174 33.8435024 60.0567655 34.4263956 59.718705 35.0092887 59.3806446 35.9544418 59.3806446 36.5373349 59.718705M47.8439406 53.1607435C48.4268337 53.498804 48.4268337 54.0467559 47.8439406 54.3848164 47.2610474 54.7228768 46.3164796 54.7228768 45.7335864 54.3848164 45.150108 54.0467559 45.150108 53.498804 45.7335864 53.1607435 46.3164796 52.822683 47.2610474 52.822683 47.8439406 53.1607435M59.1508388 46.602782C59.733732 46.9408425 59.733732 47.4887944 59.1508388 47.8268548 58.5679457 48.1649153 57.6227926 48.1649153 57.0404847 47.8268548 56.4570063 47.4887944 56.4570063 46.9408425 57.0404847 46.602782 57.6227926 46.2647215 58.5679457 46.2647215 59.1508388 46.602782M70.457503 40.0445265C71.0403962 40.382587 71.0403962 40.9305389 70.457503 41.2691873 69.8746098 41.6066598 68.930042 41.6066598 68.3471489 41.2691873 67.7636705 40.9305389 67.7636705 40.382587 68.3471489 40.0445265 68.930042 39.706466 69.8746098 39.706466 70.457503 40.0445265M47.8442332 66.2769017C48.4271264 66.6149622 48.4271264 67.1629141 47.8442332 67.5015625 47.26134 67.8390351 46.3167722 67.8390351 45.7338791 67.5009746 45.1509859 67.1629141 45.1509859 66.6149622 45.7338791 66.2769017 46.3167722 65.9388413 47.26134 65.9388413 47.8442332 66.2769017M59.1511315 59.718999C59.7340246 60.0570595 59.7340246 60.6050114 59.1511315 60.9430719 58.5682383 61.2811323 57.6230852 61.2811323 57.0407773 60.9430719 56.4572989 60.6050114 56.4572989 60.0570595 57.0407773 59.718999 57.6230852 59.3809385 58.5682383 59.3809385 59.1511315 59.718999M70.4577371 53.1610375C71.0406303 53.499098 71.0406303 54.0470499 70.4577371 54.3851103 69.8748439 54.7231708 68.9302761 54.7231708 68.347383 54.3851103 67.7644898 54.0470499 67.7644898 53.499098 68.347383 53.1610375 68.9302761 52.822977 69.8748439 52.822977 70.4577371 53.1610375M81.7646939 46.602782C82.347587 46.9408425 82.347587 47.4887944 81.7646939 47.8274428 81.1818007 48.1649153 80.2366477 48.1649153 79.6543397 47.8274428 79.0708613 47.4887944 79.0708613 46.9408425 79.6543397 46.602782 80.2366477 46.2647215 81.1818007 46.2647215 81.7646939 46.602782"/>
        <path d="M81.7646939 46.602782C82.347587 46.9408425 82.347587 47.4887944 81.7646939 47.8274428 81.1818007 48.1649153 80.2366477 48.1649153 79.6543397 47.8274428 79.0708613 47.4887944 79.0708613 46.9408425 79.6543397 46.602782 80.2366477 46.2647215 81.1818007 46.2647215 81.7646939 46.602782M47.8431212 13.8117985C48.4260144 14.149859 48.4260144 14.6978109 47.8431212 15.0358713 47.2602281 15.3739318 46.315075 15.3739318 45.7321819 15.0358713 45.1492887 14.6978109 45.1492887 14.149859 45.7321819 13.8117985 46.315075 13.473738 47.2602281 13.473738 47.8431212 13.8117985M59.1497269 7.25354299C59.73262 7.59160346 59.73262 8.13955538 59.1497269 8.47820378 58.5668337 8.81567632 57.6222659 8.81567632 57.0393727 8.47820378 56.4558944 8.13955538 56.4558944 7.59160346 57.0393727 7.25354299 57.6222659 6.91548252 58.5668337 6.91548252 59.1497269 7.25354299M70.4566252.695640254C71.0395183 1.03370072 71.0395183 1.58165265 70.4566252 1.91971311 69.873732 2.25777358 68.9285789 2.25777358 68.346271 1.91971311 67.7627926 1.58165265 67.7627926 1.03370072 68.346271.695640254 68.9285789.357579786 69.873732.357579786 70.4566252.695640254M59.1500195 20.370054C59.7329127 20.7081144 59.7329127 21.2560664 59.1500195 21.5941268 58.5671264 21.9321873 57.6225585 21.9321873 57.0396654 21.5941268 56.4567722 21.2560664 56.4567722 20.7081144 57.0396654 20.370054 57.6225585 20.0319935 58.5671264 20.0319935 59.1500195 20.370054M70.4569178 13.8120924C71.0398109 14.1501529 71.0398109 14.6981048 70.4569178 15.0361653 69.8740246 15.3742258 68.9288715 15.3742258 68.3465636 15.0361653 67.7630852 14.6981048 67.7630852 14.1501529 68.3465636 13.8120924 68.9288715 13.474032 69.8740246 13.474032 70.4569178 13.8120924M81.7635234 7.25383695C82.3464166 7.59189742 82.3464166 8.13984935 81.7635234 8.47790981 81.1806303 8.81597028 80.2360624 8.81597028 79.6531693 8.47790981 79.0702761 8.13984935 79.0702761 7.59189742 79.6531693 7.25383695 80.2360624 6.91577649 81.1806303 6.91577649 81.7635234 7.25383695M70.4572104 26.9283095C71.0401035 27.2663699 71.0401035 27.8143219 70.4572104 28.1523823 69.8743172 28.4904428 68.9297494 28.4904428 68.3468562 28.1523823 67.7633779 27.8143219 67.7633779 27.2663699 68.3468562 26.9283095 68.9291642 26.590249 69.8743172 26.590249 70.4572104 26.9283095M81.7641086 20.3703479C82.3470018 20.7084084 82.3470018 21.2563603 81.7641086 21.5944208 81.1812155 21.9324813 80.2360624 21.9324813 79.6537545 21.5944208 79.0702761 21.2563603 79.0702761 20.7084084 79.6531693 20.3703479 80.2360624 20.0322875 81.1812155 20.0322875 81.7641086 20.3703479M93.0707143 13.8120924C93.6536074 14.1501529 93.6536074 14.6981048 93.0707143 15.0361653 92.4878211 15.3742258 91.5432533 15.3742258 90.9603601 15.0361653 90.377467 14.6981048 90.3768818 14.1501529 90.9603601 13.8120924 91.5432533 13.474032 92.4878211 13.474032 93.0707143 13.8120924M81.7644013 33.486565C82.3472944 33.8246254 82.3472944 34.3725774 81.7644013 34.7106378 81.1815081 35.0486983 80.236355 35.0486983 79.6540471 34.7106378 79.0705687 34.3725774 79.0705687 33.8246254 79.6540471 33.486565 80.236355 33.1485045 81.1815081 33.1485045 81.7644013 33.486565M93.0710069 26.9286034C93.6539001 27.2666639 93.6539001 27.8146158 93.0710069 28.1526763 92.4881137 28.4907368 91.5435459 28.4907368 90.9606528 28.1526763 90.3777596 27.8146158 90.3777596 27.2666639 90.9606528 26.9286034 91.5435459 26.590543 92.4881137 26.590543 93.0710069 26.9286034M104.377905 20.3703479C104.960798 20.7084084 104.960798 21.2563603 104.377905 21.5950087 103.795012 21.9324813 102.850444 21.9324813 102.267551 21.5950087 101.684073 21.2563603 101.684073 20.7084084 102.267551 20.3703479 102.849859 20.0322875 103.795012 20.0322875 104.377905 20.3703479M93.0712995 40.0448205C93.6541927 40.3828809 93.6541927 40.9308329 93.0712995 41.2688933 92.4884064 41.6069538 91.5438385 41.6069538 90.9609454 41.2688933 90.3780522 40.9308329 90.3780522 40.3828809 90.9609454 40.0448205 91.5438385 39.70676 92.4884064 39.70676 93.0712995 40.0448205M104.378198 33.4868589C104.961091 33.8249194 104.961091 34.3728713 104.378198 34.7109318 103.795305 35.0489923 102.850737 35.0489923 102.267844 34.7109318 101.684365 34.3728713 101.684365 33.8249194 102.267844 33.4868589 102.850152 33.1487985 103.795305 33.1487985 104.378198 33.4868589M115.684803 26.9286034C116.267697 27.2666639 116.267697 27.8146158 115.684803 28.1532642 115.10191 28.4907368 114.157342 28.4907368 113.574449 28.1532642 112.991556 27.8146158 112.991556 27.2666639 113.574449 26.9286034 114.157342 26.590543 115.10191 26.590543 115.684803 26.9286034M59.1514241 72.8351572C59.7343172 73.1732177 59.7343172 73.7211696 59.1514241 74.059818 58.5685309 74.3972906 57.6239631 74.3972906 57.0410699 74.0592301 56.4575915 73.7211696 56.4575915 73.1732177 57.0410699 72.8351572 57.6233779 72.4970968 58.5685309 72.4970968 59.1514241 72.8351572M70.4580297 66.2771957C71.0409229 66.6152562 71.0409229 67.1632081 70.4580297 67.5012686 69.8751366 67.839329 68.9305687 67.839329 68.3476756 67.5012686 67.7647824 67.1632081 67.7647824 66.6152562 68.3476756 66.2771957 68.9305687 65.9391352 69.8751366 65.9391352 70.4580297 66.2771957M81.764928 59.718999C82.3478211 60.0570595 82.3478211 60.6050114 81.764928 60.9436598 81.1820348 61.2811323 80.237467 61.2811323 79.6545738 60.9436598 79.0716807 60.6050114 79.0710954 60.0570595 79.6545738 59.718999 80.237467 59.3809385 81.1820348 59.3809385 81.764928 59.718999M93.0718848 53.1610375C93.6547779 53.499098 93.6547779 54.0470499 93.0718848 54.3856983 92.4889916 54.7231708 91.5438385 54.7231708 90.9615306 54.3851103 90.3780522 54.0470499 90.3780522 53.499098 90.9609454 53.1610375 91.5438385 52.822977 92.4889916 52.822977 93.0718848 53.1610375M70.4586149 79.3934127C71.0415081 79.7314732 71.0415081 80.2794251 70.4586149 80.6180735 69.8757218 80.9555461 68.9305687 80.9555461 68.3482608 80.6174856 67.7647824 80.2794251 67.7647824 79.7314732 68.3482608 79.3934127 68.9305687 79.0553523 69.8757218 79.0553523 70.4586149 79.3934127M81.7652206 72.8354512C82.3481137 73.1735117 82.3481137 73.7214636 81.7652206 74.0595241 81.1823274 74.3975845 80.2377596 74.3975845 79.6548664 74.0595241 79.0719733 73.7214636 79.0719733 73.1735117 79.6548664 72.8354512 80.2377596 72.4973907 81.1823274 72.4973907 81.7652206 72.8354512M93.0721188 66.2774897C93.655012 66.6155501 93.655012 67.1635021 93.0721188 67.5015625 92.4892257 67.839623 91.5446579 67.839623 90.9617647 67.5015625 90.3782863 67.1635021 90.3782863 66.6155501 90.9617647 66.2774897 91.5440726 65.9394292 92.4892257 65.9394292 93.0721188 66.2774897M104.378783 59.7192342C104.961676 60.0572947 104.961676 60.6052466 104.378783 60.943895 103.79589 61.2813675 102.851322 61.2813675 102.268429 60.943307 101.685536 60.6052466 101.685536 60.0572947 102.268429 59.7192342 102.851322 59.3811737 103.79589 59.3811737 104.378783 59.7192342M104.37849 46.603076C104.961384 46.9411364 104.961384 47.4890883 104.37849 47.8271488 103.795597 48.1652093 102.851029 48.1652093 102.268136 47.8271488 101.685243 47.4890883 101.684658 46.9411364 102.268136 46.603076 102.851029 46.2650155 103.795597 46.2650155 104.37849 46.603076M115.685389 40.0451144C116.268282 40.3831749 116.268282 40.9311268 115.685389 41.2691873 115.102495 41.6072478 114.157342 41.6072478 113.575035 41.2691873 112.991556 40.9311268 112.991556 40.3831749 113.575035 40.0451144 114.157342 39.707054 115.102495 39.707054 115.685389 40.0451144M126.991994 33.4868589C127.574887 33.8249194 127.574887 34.3728713 126.991994 34.7115197 126.409101 35.0489923 125.464533 35.0489923 124.88164 34.7115197 124.298747 34.3728713 124.298747 33.8249194 124.88164 33.4868589 125.464533 33.1487985 126.409101 33.1487985 126.991994 33.4868589M115.685681 53.1612727C116.268574 53.4993331 116.268574 54.047285 115.685681 54.3853455 115.102788 54.723406 114.157635 54.723406 113.575327 54.3853455 112.991849 54.047285 112.991849 53.4993331 113.575327 53.1612727 114.157635 52.8232122 115.102788 52.8232122 115.685681 53.1612727M126.992287 46.603076C127.57518 46.9411364 127.57518 47.4890883 126.992287 47.8277367 126.409394 48.1652093 125.464826 48.1652093 124.881933 47.8277367 124.29904 47.4890883 124.29904 46.9411364 124.881933 46.603076 125.464826 46.2650155 126.409394 46.2650155 126.992287 46.603076M138.299185 40.0451144C138.882078 40.3831749 138.882078 40.9311268 138.299185 41.2697752 137.716292 41.6072478 136.771724 41.6072478 136.188831 41.2691873 135.605353 40.9311268 135.605353 40.3831749 136.188831 40.0451144 136.771724 39.707054 137.716292 39.707054 138.299185 40.0451144"/>
      </g>
      <path fill="#343287" d="M137.537913,64.2220232 L137.537913,152.907337 C137.537913,155.550676 134.688993,157.202762 132.410092,155.881093 L40.3802746,102.502815 C36.841364,100.450347 34.6601966,96.6558385 34.6601966,92.5503146 L34.6601966,3.86441331 C34.6601966,1.22107441 37.5091161,-0.431012399 39.7880177,0.890657049 L131.817835,54.2689351 C135.35733,56.3214031 137.537913,60.1159114 137.537913,64.2220232"/>
      <polygon fill="#FFF" points="112.528 106.499 114.396 107.583 114.396 105.416 112.528 104.332"/>
      <polygon fill="#FFF" points="117.359 109.302 119.227 110.385 119.227 108.218 117.359 107.135"/>
      <polygon fill="#6B73CA" points="122.191 112.104 124.059 113.188 124.059 111.02 122.191 109.937"/>
      <polygon fill="#6B73CA" points="127.022 114.906 128.89 115.99 128.89 113.823 127.022 112.739"/>
      <polygon fill="#FFF" points="98.033 103.671 99.902 104.754 99.902 102.587 98.033 101.504"/>
      <polygon fill="#FFF" points="102.865 106.473 104.733 107.557 104.733 105.389 102.865 104.306"/>
      <polygon fill="#FFF" points="107.696 109.275 109.564 110.359 109.564 108.192 107.696 107.108"/>
      <polygon fill="#FFF" points="112.528 112.078 114.396 113.161 114.396 110.994 112.528 109.91"/>
      <polygon fill="#FFF" points="117.359 114.88 119.227 115.964 119.227 113.796 117.359 112.713"/>
      <polygon fill="#6B73CA" points="122.191 117.682 124.059 118.766 124.059 116.599 122.191 115.515"/>
      <polygon fill="#6B73CA" points="127.022 120.485 128.89 121.568 128.89 119.401 127.022 118.317"/>
      <polygon fill="#FFF" points="98.033 109.249 99.902 110.333 99.902 108.165 98.033 107.082"/>
      <polygon fill="#FFF" points="102.865 112.051 104.733 113.135 104.733 110.968 102.865 109.884"/>
      <polygon fill="#FFF" points="107.696 114.854 109.564 115.937 109.564 113.77 107.696 112.686"/>
      <polygon fill="#FFF" points="112.528 117.656 114.396 118.739 114.396 116.572 112.528 115.489"/>
      <polygon fill="#FFF" points="117.359 120.458 119.227 121.542 119.227 119.375 117.359 118.291"/>
      <polygon fill="#6B73CA" points="122.191 123.26 124.059 124.344 124.059 122.177 122.191 121.093"/>
      <polygon fill="#6B73CA" points="127.022 126.063 128.89 127.146 128.89 124.979 127.022 123.896"/>
      <polygon fill="#FFF" points="98.033 114.827 99.902 115.911 99.902 113.744 98.033 112.66"/>
      <polygon fill="#FFF" points="102.865 117.63 104.733 118.713 104.733 116.546 102.865 115.463"/>
      <polygon fill="#FFF" points="107.696 120.432 109.564 121.515 109.564 119.348 107.696 118.265"/>
      <polygon fill="#FFF" points="112.528 123.234 114.396 124.318 114.396 122.151 112.528 121.067"/>
      <polygon fill="#FFF" points="117.359 126.036 119.227 127.12 119.227 124.953 117.359 123.869"/>
      <polygon fill="#FF5A70" points="122.191 128.838 124.059 129.922 124.059 127.755 122.191 126.671"/>
      <polygon fill="#6B73CA" points="127.022 131.641 128.89 132.724 128.89 130.557 127.022 129.474"/>
      <polygon fill="#FFF" points="98.033 120.405 99.902 121.489 99.902 119.322 98.033 118.238"/>
      <polygon fill="#FFF" points="102.865 123.208 104.733 124.291 104.733 122.124 102.865 121.041"/>
      <polygon fill="#FFF" points="107.696 126.01 109.564 127.094 109.564 124.926 107.696 123.843"/>
      <polygon fill="#FFF" points="112.528 128.812 114.396 129.896 114.396 127.729 112.528 126.645"/>
      <polygon fill="#FFF" points="117.359 131.615 119.227 132.698 119.227 130.531 117.359 129.447"/>
      <path fill="#FFF" d="M44.5651666 49.2030843C44.4732848 49.2030843 44.3989601 49.128417 44.3989601 49.0366998L44.3989601 37.9559595C44.3989601 37.8642423 44.4732848 37.789575 44.5651666 37.789575 44.6570483 37.789575 44.731373 37.8642423 44.731373 37.9559595L44.731373 49.0366998C44.731373 49.128417 44.6570483 49.2030843 44.5651666 49.2030843M58.3373049 57.1912474C58.2454232 57.1912474 58.1710984 57.1165801 58.1710984 57.0248629L58.1710984 29.9071219C58.1710984 29.8154047 58.2454232 29.7407374 58.3373049 29.7407374 58.4291867 29.7407374 58.5035114 29.8154047 58.5035114 29.9071219L58.5035114 57.0248629C58.5035114 57.1165801 58.4291867 57.1912474 58.3373049 57.1912474"/>
      <polygon fill="#FFF" points="60.614 61.71 56.06 59.069 56.06 61.259 60.614 63.9"/>
      <polygon fill="#FFF" points="46.606 53.585 42.053 50.944 42.053 53.134 46.606 55.776"/>
      <path fill="#FFF" d="M72.1094433,65.1788813 C72.0175615,65.1788813 71.9432368,65.1042141 71.9432368,65.0124968 L71.9432368,53.9317566 C71.9432368,53.8400393 72.0175615,53.765372 72.1094433,53.765372 C72.201325,53.765372 72.2756498,53.8400393 72.2756498,53.9317566 L72.2756498,65.0124968 C72.2756498,65.1042141 72.201325,65.1788813 72.1094433,65.1788813"/>
      <polygon fill="#FFF" points="74.386 69.698 69.832 67.057 69.832 69.247 74.386 71.889"/>
      <path fill="#FFF" d="M85.881289,73.1176582 C85.7894073,73.1176582 85.7150825,73.0429909 85.7150825,72.9512737 L85.7150825,45.8335327 C85.7150825,45.7418155 85.7894073,45.6671482 85.881289,45.6671482 C85.9731708,45.6671482 86.0474955,45.7418155 86.0474955,45.8335327 L86.0474955,72.9512737 C86.0474955,73.0429909 85.9731708,73.1176582 85.881289,73.1176582"/>
      <polygon fill="#FFF" points="88.158 77.686 83.605 75.045 83.605 77.235 88.158 79.877"/>
      <path fill="#CACACA" d="M99.6534274,81.1052334 C99.5615456,81.1052334 99.4872209,81.0305661 99.4872209,80.9388488 L99.4872209,69.8586965 C99.4872209,69.7669792 99.5615456,69.692312 99.6534274,69.692312 C99.7453091,69.692312 99.8196339,69.7669792 99.8196339,69.8586965 L99.8196339,80.9388488 C99.8196339,81.0305661 99.7453091,81.1052334 99.6534274,81.1052334"/>
      <polygon fill="#FFF" points="101.93 85.674 97.377 83.032 97.377 85.223 101.93 87.865"/>
      <path fill="#FFF" d="M113.425566,89.0934552 C113.333684,89.0934552 113.259359,89.018788 113.259359,88.9270707 L113.259359,61.8093298 C113.259359,61.7176125 113.333684,61.6429452 113.425566,61.6429452 C113.517447,61.6429452 113.591772,61.7176125 113.591772,61.8093298 L113.591772,88.9270707 C113.591772,89.018788 113.517447,89.0934552 113.425566,89.0934552"/>
      <polygon fill="#FFF" points="115.703 93.662 111.149 91.021 111.149 93.211 115.703 95.853"/>
      <path fill="#FFF" d="M127.197763,97.0816183 C127.105881,97.0816183 127.031556,97.0069511 127.031556,96.9152338 L127.031556,85.8344935 C127.031556,85.7427763 127.105881,85.668109 127.197763,85.668109 C127.289644,85.668109 127.363969,85.7427763 127.363969,85.8344935 L127.363969,96.9152338 C127.363969,97.0069511 127.289644,97.0816183 127.197763,97.0816183"/>
      <polygon fill="#FFF" points="129.475 101.65 124.921 99.009 124.921 101.199 129.475 103.84"/>
    </g>
    <g transform="translate(80.952 36.938)">
      <mask id="icon_empty_no_search_result-o" fill="#fff">
        <use xlink:href="#icon_empty_no_search_result-m"/>
      </mask>
      <path fill="url(#icon_empty_no_search_result-n)" d="M9.76833485,2.57729315 C7.69117379,4.01619343 5.54303913,5.5034106 3.67229299,4.42747615 L3.67229299,4.42747615 C3.65987261,4.42040539 3.64745223,4.4127454 3.63503185,4.40567463 L3.63503185,4.40567463 L0.861737944,2.82123447 C0.583166515,2.6621423 0.357825296,2.79412988 0.359003553,3.11526037 L0.359003553,3.11526037 C0.360191083,3.43639086 0.585532302,3.8246936 0.864103731,3.984375 L0.864103731,3.984375 C0.864695177,3.98496423 0.865286624,3.98555346 0.865878071,3.98555346 L0.865878071,3.98555346 L3.62852593,5.56351209 C3.64686078,5.57470746 3.66519563,5.58531361 3.68293904,5.59591975 L3.68293904,5.59591975 C5.99017288,6.92227706 8.18976342,5.39970608 10.516515,3.78933978 L10.516515,3.78933978 C12.8249318,2.1907581 15.2120109,0.537967225 17.5630118,1.85018301 L17.5630118,1.85018301 C17.5837125,1.86137838 17.6050045,1.87316299 17.6262966,1.88553682 L17.6262966,1.88553682 C19.9122384,3.20010953 21.9953139,6.52042203 24.199636,10.0328236 L24.199636,10.0328236 C26.455414,13.6283066 28.7880801,17.3451711 31.4738399,18.8895436 L31.4738399,18.8895436 C34.177343,20.4451115 36.1332575,16.8620023 38.2045041,13.0685379 L38.2045041,13.0685379 C40.2402639,9.34106727 42.5469063,5.11569709 45.3917652,6.75140029 L45.3917652,6.75140029 C48.2259782,8.38180041 50.350455,13.654822 52.4063239,18.7551991 L52.4063239,18.7551991 C54.488808,23.9221592 56.45596,28.8051104 59.2765696,30.4272613 L59.2765696,30.4272613 C59.2895814,30.434332 59.3025933,30.441992 59.3156051,30.449652 L59.3156051,30.449652 C62.0818016,32.0063983 64.3854868,32.6792993 66.6134668,33.3298095 L66.6134668,33.3298095 C68.7627843,33.9573397 70.7932211,34.5501054 73.2429936,35.8776411 L73.2429936,35.8776411 C75.577434,37.1403616 77.4600091,39.672284 79.4466788,42.3473894 L79.4466788,42.3473894 C81.644495,45.3070929 83.9168335,48.3669657 87.0609645,50.1747241 L87.0609645,50.1747241 C87.089354,50.1912225 87.1183348,50.207721 87.1467243,50.2242194 L87.1467243,50.2242194 L92.0663785,53.0537031 C92.3461328,53.2139738 92.5720655,53.0837539 92.5720655,52.7632126 L92.5720655,52.7632126 C92.5720655,52.4420821 92.3461328,52.0520117 92.0663785,51.8911518 L92.0663785,51.8911518 L87.1425842,49.058722 C87.117152,49.0445805 87.0929026,49.0310282 87.0680619,49.0162974 L87.0680619,49.0162974 C84.2249773,47.3811835 82.0815742,44.4963121 80.0097361,41.7051284 L80.0097361,41.7051284 C77.977525,38.9699215 75.8743403,36.1380809 73.2134213,34.6985914 L73.2134213,34.6985914 C70.6565969,33.3139003 68.4782985,32.6775316 66.3721565,32.0623752 L66.3721565,32.0623752 C64.200364,31.4283635 61.9546406,30.7725502 59.3049591,29.2812084 L59.3049591,29.2812084 C59.2960874,29.2759053 59.2872157,29.2711915 59.2777525,29.2658884 L59.2777525,29.2658884 C57.0267061,27.9707603 55.2020928,23.4437042 53.2710191,18.6520838 L53.2710191,18.6520838 C51.0708371,13.1928655 48.7961328,7.54745037 45.3917652,5.58943822 L45.3917652,5.58943822 C41.9099181,3.58664458 39.5630573,7.88566853 37.2930846,12.0432772 L37.2930846,12.0432772 C35.4483621,15.4225128 33.5403549,18.9166482 31.4738399,17.7275815 L31.4738399,17.7275815 C29.1707461,16.4035811 26.9841674,12.9182842 24.8691538,9.54788709 L24.8691538,9.54788709 C22.6204732,5.96359943 20.2954959,2.25851958 17.6251137,0.722985526 L17.6251137,0.722985526 C17.5996815,0.708254769 17.5736579,0.693524013 17.5476342,0.678793256 L17.5476342,0.678793256 C16.7870337,0.253958241 16.0453594,0.0760107032 15.3190628,0.0765984753 L15.3190628,0.0765984753 C13.3814832,0.0765984753 11.5527298,1.34285576 9.76833485,2.57729315" mask="url(#icon_empty_no_search_result-o)"/>
    </g>
    <g transform="translate(52.381 34.555)">
      <path fill="#8B92DF" d="M41.0977286 58.5910414C36.88905 56.1684676 33.4770857 50.2782765 33.4770857 45.4337162 33.4770857 40.5891559 36.88905 38.6253672 41.0977286 41.0473537 45.3064071 43.4699275 48.7177821 49.3607061 48.7177821 54.2046789 48.7177821 59.0492392 45.3064071 61.0130279 41.0977286 58.5910414M41.0977286 38.3651344C35.60205 35.2023949 31.14705 37.7665401 31.14705 44.0926066 31.14705 50.4180855 35.60205 58.1105212 41.0977286 61.2732607 46.5934071 64.4360002 51.0478179 61.871855 51.0478179 55.5457886 51.0478179 49.2203096 46.5934071 41.5284613 41.0977286 38.3651344M70.412925 75.4628233C66.2042464 73.0408369 62.7928714 67.1500583 62.7928714 62.305498 62.7928714 57.4609378 66.2042464 55.4971491 70.412925 57.919723 74.6216036 60.3417094 78.0335679 66.2324879 78.0335679 71.0770482 78.0335679 75.9216085 74.6216036 77.8853972 70.412925 75.4628233M70.412925 55.2375037C64.9172464 52.0747642 60.4628357 54.638322 60.4628357 60.9643884 60.4628357 67.2898674 64.9172464 74.9823031 70.412925 78.1450426 75.9086036 81.3077821 80.3636036 78.7436368 80.3636036 72.4181578 80.3636036 66.0920914 75.9086036 58.4002432 70.412925 55.2375037"/>
      <polygon fill="#6FD1F6" points="74.47 4.682 75.114 6.876 75.758 5.424 77.406 6.372 77.406 2.677 72.822 .038 72.822 3.734"/>
      <path fill="#FFF" d="M47.38965 48.4927738L49.3130786 48.087445C47.5210607 44.0412062 44.5115786 40.3292168 41.0984357 38.3648407L41.0984357 41.0476474C43.7125071 42.551476 46.0166143 45.3940645 47.38965 48.4927738M78.0333911 71.076872C78.0333911 73.1046908 77.4299625 74.6190932 76.4258196 75.5272647L78.2643911 78.2288693C79.5755518 77.0434294 80.3634268 75.0661298 80.3634268 72.4179816 80.3634268 66.0925026 75.9084268 58.400067 70.4127482 55.2373275L70.4127482 57.9195467C74.6214268 60.3415332 78.0333911 66.2323117 78.0333911 71.076872"/>
      <g transform="translate(31.821 45.232)">
        <mask id="icon_empty_no_search_result-q" fill="#fff">
          <use xlink:href="#icon_empty_no_search_result-p"/>
        </mask>
        <polygon fill="#6FD1F6" points=".215 34.865 84.907 83.95 84.907 49.306 .215 .201" mask="url(#icon_empty_no_search_result-q)"/>
      </g>
      <path fill="#4FACCF" d="M116.728543,129.795739 C116.932436,129.795739 117.131614,129.691763 117.2424,129.503197 C117.408579,129.220642 117.314293,128.857021 117.030846,128.690777 L32.0364,80.0965539 C31.7523643,79.9303103 31.3881857,80.0254745 31.2214179,80.3080298 C31.0552393,80.5899976 31.149525,80.9542061 31.4329714,81.1204497 L116.427418,129.714086 C116.521704,129.769892 116.626007,129.795739 116.728543,129.795739"/>
      <g transform="translate(0 110.437)">
        <mask id="icon_empty_no_search_result-t" fill="#fff">
          <use xlink:href="#icon_empty_no_search_result-r"/>
        </mask>
        <path fill="url(#icon_empty_no_search_result-s)" d="M10.786875,0.297828552 C5.01776786,0.297828552 0.341785714,2.72627674 0.341785714,5.72218525 C0.341785714,8.71750633 5.01776786,11.146542 10.786875,11.146542 L63.9009643,11.146542 L63.9009643,0.297828552 L10.786875,0.297828552 Z" mask="url(#icon_empty_no_search_result-t)" opacity=".604"/>
      </g>
      <path fill="#000073" d="M8.83345179,117.698025 C10.4027196,119.009763 10.7262375,118.877003 10.9289518,119.785762 C11.1310768,120.693934 8.62189821,120.150558 7.43625536,119.710571 C7.43625536,119.710571 6.46746964,119.344013 5.97364821,118.700774 C5.48041607,118.057534 4.98718393,118.379448 4.05670179,118.057534 C3.12680893,117.735621 3.01307679,116.840373 3.41791607,115.427597 C3.82275536,114.01482 6.52639821,115.402337 7.11038036,115.856423 C7.6943625,116.310508 8.83345179,117.698025 8.83345179,117.698025"/>
      <path fill="#FFD6D6" d="M9.19138393,42.683296 C9.96924107,41.0096992 10.7553482,42.1117236 11.1731518,40.0545331 C11.5909554,37.9973426 10.7635982,35.2910386 7.78299107,33.3301871 C4.80179464,31.3687482 2.90252679,33.7196552 2.57429464,37.1813981 C2.24724107,40.6425536 4.26966964,43.1896632 4.26966964,43.1896632 L7.07054464,44.1448294 L9.19138393,42.683296 Z"/>
    </g>
    <g transform="translate(53.571 102.474)">
      <mask id="icon_empty_no_search_result-w" fill="#fff">
        <use xlink:href="#icon_empty_no_search_result-u"/>
      </mask>
      <path fill="url(#icon_empty_no_search_result-v)" d="M0.354699248,8.06537099 C0.354699248,8.06537099 1.02518797,23.3759747 1.45319549,26.9337821 L1.45319549,26.9337821 C1.88120301,30.4915896 2.4518797,43.9491807 2.27030075,45.8882177 L2.27030075,45.8882177 C2.07800752,47.931879 5.10338346,48.1701899 5.5612782,45.8882177 L5.5612782,45.8882177 C6.24642857,42.4693281 6.98289474,33.194384 7.54680451,27.2819485 L7.54680451,27.2819485 C8.1112782,21.3695131 9.25996241,17.6756941 10.3229323,9.93233348 L10.3229323,9.93233348 L10.0364662,0.192392462 L0.354699248,8.06537099 Z" mask="url(#icon_empty_no_search_result-w)"/>
    </g>
    <path fill="#000073" d="M68.2947219,147.887228 C69.7415658,149.030405 70.0405005,148.914705 70.2274706,149.706174 C70.4138971,150.498155 68.0995991,150.024604 67.0060416,149.641157 C67.0060416,149.641157 66.1119551,149.321702 65.6570309,148.761121 C65.2021066,148.20054 64.7466389,148.480574 63.888968,148.20054 C63.0312972,147.919993 62.9263983,147.139787 63.2997949,145.908556 C63.6731916,144.677325 66.1668504,145.886542 66.7054764,146.282277 C67.2441023,146.678011 68.2947219,147.887228 68.2947219,147.887228"/>
    <g transform="translate(61.905 100.09)">
      <mask id="icon_empty_no_search_result-z" fill="#fff">
        <use xlink:href="#icon_empty_no_search_result-x"/>
      </mask>
      <path fill="url(#icon_empty_no_search_result-y)" d="M0.283333333,6.3911817 C0.283333333,6.3911817 0.943888889,21.8859003 1.36555556,25.4859032 L1.36555556,25.4859032 C1.78722222,29.0870826 2.34944444,42.7065056 2.17,44.6688601 L2.17,44.6688601 C1.98111111,46.7365089 4.96166667,46.9782738 5.41277778,44.6688601 L5.41277778,44.6688601 C6.08777778,41.2094455 6.81333333,31.8229672 7.36944444,25.8388447 L7.36944444,25.8388447 C7.925,19.8547221 8.30555556,20.5194286 6.11777778,12.6829516 L6.11777778,12.6829516 L2.94777778,0.374117953 L0.283333333,6.3911817 Z" mask="url(#icon_empty_no_search_result-z)"/>
    </g>
    <g transform="translate(52.381 65.535)">
      <path fill="#000655" d="M9.81230159,5.11775645 C8.70572562,5.39818881 8.51241497,5.87647879 7.94552154,6.36602897 C7.38996599,6.84592755 6.88373016,7.26040979 6.3712585,6.92796608 C5.38373016,6.28828004 5.64393424,5.66896957 5.1473356,5.11775645 C4.65130385,4.56600713 4.59518141,4.62767008 4.97329932,4.06841397 C5.35141723,3.50969405 5.57590703,3.56063301 6.34007937,3.5670674 C7.00787982,3.5729656 8.05493197,3.3359654 8.47273243,3.2228273 L8.73293651,3.49575286 C8.73293651,3.49575286 10.1694444,2.05981051 8.79869615,0.986875243 C7.42794785,-0.0860600252 4.91320862,-0.361130386 3.46422902,0.67963291 C3.46422902,0.67963291 1.68815193,0.347189198 0.648469388,2.8732252 C-0.391213152,5.39926121 2.26638322,9.82880556 2.99314059,10.1912764 C3.55890023,10.4733174 4.03735828,10.2239846 4.29246032,9.19555391 C4.54756236,8.1671232 4.63769841,7.61162049 4.01354875,7.27113378 C3.3888322,6.93011088 3.09801587,5.85181362 3.7680839,5.61106003 C4.43871882,5.37084263 4.69835601,5.46038796 5.07647392,6.01910787 C5.45459184,6.57782779 6.06910431,9.17088873 6.58951247,9.59609496 C7.10935374,10.020765 8.21366213,9.23147928 9.09631519,9.19340911 C9.43588435,9.17839553 9.73577098,9.19823491 9.73577098,9.19823491 C11.5526644,8.95855372 11.0838435,4.79550053 9.81230159,5.11775645"/>
      <path fill="#FFD6D6" d="M9.98673469,8.79050878 C9.78605442,8.58299956 9.01791383,9.19051364 8.28492063,7.7400939 C8.10804989,7.3894194 6.60521542,7.80229304 6.36655329,7.48593532 C6.12789116,7.17011379 9.09614512,6.91970861 9.95498866,6.61514727 C10.8143991,6.31058594 9.88979592,5.15882934 10.1879819,4.92182914 C10.4861678,4.68482895 11.1959184,6.20227363 11.3036281,6.86823345 C11.410771,7.53419327 11.6256236,8.17709652 11.6256236,8.17709652 C11.6256236,8.17709652 11.8240363,10.6870465 9.98673469,8.79050878"/>
    </g>
    <g transform="translate(50 73.876)">
      <mask id="icon_empty_no_search_result-C" fill="#fff">
        <use xlink:href="#icon_empty_no_search_result-A"/>
      </mask>
      <path fill="url(#icon_empty_no_search_result-B)" d="M13.2119628,1.94552306 C14.4053426,4.71592455 16.9152149,8.91907106 16.9152149,8.91907106 L16.9152149,8.91907106 C15.78223,7.67300292 14.8977933,5.9987447 11.4152149,5.31095709 L11.4152149,5.31095709 L11.4163763,5.31037372 C10.912892,4.71300772 11.3803717,3.30243059 11.3803717,3.30243059 L11.3803717,3.30243059 C11.3803717,3.30243059 8.92566783,4.41957501 6.53019744,3.80529142 L6.53019744,3.80529142 C6.53019744,3.80529142 6.40940767,5.0338586 4.98083624,7.30139927 L4.98083624,7.30139927 L1.80778165,9.39976401 C-1.73228804,12.0418252 1.28745645,25.364137 1.28745645,25.364137 L1.28745645,25.364137 C2.3873403,31.1079511 1.34204413,44.3211736 1.66144019,50.6821882 L1.66144019,50.6821882 C2.05226481,58.474781 19.6300813,56.9411138 20.0214866,44.1718321 L20.0214866,44.1718321 C20.1504065,39.9511847 15.7787456,15.3652569 15.7787456,15.3652569 L15.7787456,15.3652569 C15.7787456,15.3652569 17.5754936,17.3545323 22.4889663,17.5756278 L22.4889663,17.5756278 C27.4198606,17.7973066 15.514518,1.24781824 15.0087108,0.324934435 L15.0087108,0.324934435 C14.9483159,0.214095041 14.8495935,0.166259092 14.7288037,0.166259092 L14.7288037,0.166259092 C14.1248548,0.166259092 12.9628339,1.36682474 13.2119628,1.94552306" mask="url(#icon_empty_no_search_result-C)"/>
    </g>
    <g transform="translate(41.667 76.26)">
      <path fill="#FFD6D6" d="M9.21914626,25.0579906 C9.78581293,23.7358233 9.73088095,24.8569157 11.1267313,25.8038579 C11.351085,25.9562394 13.1268333,26.4855645 14.573568,26.6127401 C16.0197245,26.7404885 15.2905748,29.0651655 12.9232959,29.2559288 C10.556017,29.447265 10.5490782,28.5089158 9.51173129,28.0311482 C8.15577891,27.4067278 9.21914626,25.0579906 9.21914626,25.0579906"/>
      <path fill="#D0D4F6" d="M9.48085374,6.75995231 C2.96013946,14.0650981 -2.82737755,21.4808064 1.70017347,25.5320918 C4.23398299,27.7994825 9.42939116,28.6816912 10.0047313,28.1025269 C11.4323844,26.66636 10.0006837,25.468504 10.0006837,25.468504 C10.0006837,25.468504 6.12364286,23.1169024 6.12364286,21.6555295 C6.12364286,21.0511593 10.7419762,14.7324832 10.7529626,13.6108179 C10.7992211,8.83657978 9.48085374,6.75995231 9.48085374,6.75995231"/>
      <path fill="#000655" d="M19.4263163,0.380151721 C19.4263163,0.380151721 16.9815544,1.47718389 14.5969286,0.873959412 C14.5969286,0.873959412 14.4766565,2.08040836 13.0542075,4.30712587 C13.0542075,4.30712587 12.9310442,4.38789952 12.7367585,4.51450219 C16.5264864,7.15310802 18.3525408,10.5158124 19.3147177,9.97159275 C20.3370306,9.39242851 19.4610102,2.35251817 19.4610102,2.35251817 L19.4621667,2.35079958 C18.9608401,1.76418813 19.4263163,0.380151721 19.4263163,0.380151721"/>
    </g>
    <text fill="#9397B5" font-family="PingFangTC-Semibold, PingFang TC" font-size="30.556" font-weight="500">
      <tspan x="25.794" y="57.794"></tspan>
    </text>
    <path fill="#9397B5" fill-rule="nonzero" d="M58.7223609,12.8968254 C59.8487211,12.8968254 60.767138,13.2211538 61.4602828,13.907967 C62.1534276,14.5757021 62.5,15.491453 62.5,16.6552198 C62.5,17.609127 62.2747279,18.3913309 61.8588411,19.0018315 C61.7028835,19.1926129 61.2003535,19.7077228 60.3685797,20.5090049 C60.0566646,20.7760989 59.8313925,21.1004274 59.6754349,21.4438339 C59.5021487,21.8253968 59.4155056,22.245116 59.4155056,22.7029915 L59.4155056,22.9700855 L57.4227144,22.9700855 L57.4227144,22.7029915 C57.4227144,21.978022 57.5266861,21.3484432 57.7692868,20.8333333 C57.9945588,20.3182234 58.3931171,19.7840354 58.9649615,19.2307692 C59.5194774,18.6775031 59.8660498,18.3150183 60.0046787,18.143315 C60.3165939,17.7235958 60.4725515,17.2657204 60.4725515,16.7887668 C60.4725515,16.159188 60.2992653,15.6631563 59.9873501,15.3006716 C59.6581063,14.9381868 59.1902336,14.7664835 58.6010605,14.7664835 C57.8559299,14.7664835 57.3187426,15.0144994 56.9721702,15.5296093 C56.6775837,15.9684066 56.5389547,16.5979853 56.5389547,17.4183455 L54.5634921,17.4183455 C54.5634921,16.0065629 54.9273931,14.9000305 55.6898524,14.0987485 C56.434983,13.2974664 57.440043,12.8968254 58.7223609,12.8968254 Z M58.4104457,23.9049145 C58.7916753,23.9049145 59.1209191,24.0384615 59.3808484,24.3055556 C59.6234491,24.5726496 59.762078,24.9160562 59.762078,25.3357753 C59.762078,25.7554945 59.6234491,26.1179792 59.3808484,26.3850733 C59.1035905,26.6521673 58.7916753,26.7857143 58.4104457,26.7857143 C58.0292161,26.7857143 57.7173009,26.6330891 57.4747002,26.3659951 C57.1974423,26.0989011 57.076142,25.7554945 57.076142,25.3357753 C57.076142,24.9160562 57.1974423,24.5726496 57.4747002,24.3055556 C57.7173009,24.0384615 58.0292161,23.9049145 58.4104457,23.9049145 Z" opacity=".494"/>
    <path fill="#9397B5" fill-rule="nonzero" d="M9.16683995,51.5873016 C10.5747903,51.5873016 11.7228114,51.981129 12.5892424,52.8151164 C13.4556734,53.6259376 13.8888889,54.7379208 13.8888889,56.1510662 C13.8888889,57.3093821 13.6072988,58.2592011 13.0874402,59.0005233 C12.8924932,59.2321865 12.2643308,59.857677 11.2246136,60.8306624 C10.8347196,61.1549908 10.5531295,61.5488182 10.3581826,61.965812 C10.1415748,62.4291383 10.033271,62.9387973 10.033271,63.4947889 L10.033271,63.8191174 L7.54228183,63.8191174 L7.54228183,63.4947889 C7.54228183,62.6144689 7.67224648,61.8499804 7.97549733,61.2244898 C8.25708741,60.5989992 8.75528523,59.9503423 9.4700908,59.2785191 C10.1632356,58.6066959 10.5964511,58.1665358 10.7697373,57.958039 C11.1596312,57.44838 11.3545782,56.8923884 11.3545782,56.3132304 C11.3545782,55.5487419 11.1379705,54.9464177 10.7480765,54.5062576 C10.3365218,54.0660976 9.75168088,53.8576007 9.01521453,53.8576007 C8.08380121,53.8576007 7.41231718,54.1587629 6.97910168,54.7842534 C6.61086851,55.3170788 6.43758231,56.0815672 6.43758231,57.0777189 L3.96825397,57.0777189 C3.96825397,55.3634114 4.42313024,54.019765 5.37620434,53.0467796 C6.30761766,52.0737943 7.56394261,51.5873016 9.16683995,51.5873016 Z M8.776946,64.954267 C9.25348305,64.954267 9.66503778,65.1164312 9.9899494,65.4407596 C10.2932002,65.7650881 10.4664864,66.1820818 10.4664864,66.6917408 C10.4664864,67.2013998 10.2932002,67.6415598 9.9899494,67.9658883 C9.643377,68.2902167 9.25348305,68.452381 8.776946,68.452381 C8.30040896,68.452381 7.91051501,68.2670504 7.60726416,67.942722 C7.26069176,67.6183935 7.10906633,67.2013998 7.10906633,66.6917408 C7.10906633,66.1820818 7.26069176,65.7650881 7.60726416,65.4407596 C7.91051501,65.1164312 8.30040896,64.954267 8.776946,64.954267 Z" opacity=".492"/>
    <path fill="#9397B5" fill-rule="nonzero" d="M16.015977,12.8968254 C16.8607472,12.8968254 17.5495599,13.1523569 18.0694185,13.6934824 C18.589277,14.2195767 18.8492063,14.9410774 18.8492063,15.8579846 C18.8492063,16.6095479 18.6802523,17.2258297 18.3683371,17.7068302 C18.251369,17.8571429 17.8744715,18.262987 17.2506412,18.8943001 C17.0167048,19.1047379 16.8477507,19.3602694 16.7307826,19.6308321 C16.6008179,19.9314574 16.5358356,20.2621453 16.5358356,20.6228956 L16.5358356,20.8333333 L15.0412421,20.8333333 L15.0412421,20.6228956 C15.0412421,20.0517076 15.1192209,19.5556758 15.3011714,19.1498316 C15.4701255,18.7439875 15.7690442,18.3231121 16.1979275,17.8872054 C16.6138144,17.4512987 16.8737437,17.1657047 16.9777154,17.0304233 C17.2116518,16.6997354 17.3286199,16.3389851 17.3286199,15.9632035 C17.3286199,15.4671717 17.1986553,15.0763588 16.9647189,14.7907648 C16.7177861,14.5051708 16.3668815,14.3698894 15.9250017,14.3698894 C15.3661537,14.3698894 14.9632633,14.5652958 14.703334,14.97114 C14.4823941,15.3168591 14.3784224,15.8128908 14.3784224,16.4592352 L12.8968254,16.4592352 C12.8968254,15.3469216 13.1697512,14.4751082 13.7415956,13.8437951 C14.3004436,13.212482 15.0542386,12.8968254 16.015977,12.8968254 Z M15.8666155,21.8253968 C16.1482335,21.8253968 16.3914491,21.9173762 16.5834613,22.101335 C16.7626728,22.2852938 16.8650794,22.5218123 16.8650794,22.8108904 C16.8650794,23.0999685 16.7626728,23.3496268 16.5834613,23.5335856 C16.3786482,23.7175444 16.1482335,23.8095238 15.8666155,23.8095238 C15.5849974,23.8095238 15.3545827,23.7044045 15.1753712,23.5204457 C14.9705581,23.3364869 14.8809524,23.0999685 14.8809524,22.8108904 C14.8809524,22.5218123 14.9705581,22.2852938 15.1753712,22.101335 C15.3545827,21.9173762 15.5849974,21.8253968 15.8666155,21.8253968 Z" opacity=".276"/>
  </g>
</svg>
