<svg xmlns="http://www.w3.org/2000/svg" width="24" height="24" viewBox="0 0 24 24">
  <path d="M19.5621094,11.5464844 C17.8957031,8.03613281 15.3767578,6.26953125 12,6.26953125 C8.62148437,6.26953125 6.10429687,8.03613281 4.43789062,11.5482422 C4.30253906,11.8330078 4.30253906,12.1669922 4.43789062,12.4535156 C6.10429687,15.9638672 8.62324219,17.7304688 12,17.7304688 C15.3785156,17.7304688 17.8957031,15.9638672 19.5621094,12.4517578 C19.6974609,12.1669922 19.6974609,11.8365234 19.5621094,11.5464844 Z M12,16.4648438 C9.16464844,16.4648438 7.08867187,15.0269531 5.62441406,12 C7.08867187,8.97304688 9.16464844,7.53515625 12,7.53515625 C14.8353516,7.53515625 16.9113281,8.97304688 18.3755859,12 C16.9130859,15.0269531 14.8371094,16.4648438 12,16.4648438 Z M11.9296875,8.90625 C10.2210937,8.90625 8.8359375,10.2914063 8.8359375,12 C8.8359375,13.7085938 10.2210937,15.09375 11.9296875,15.09375 C13.6382812,15.09375 15.0234375,13.7085938 15.0234375,12 C15.0234375,10.2914062 13.6382812,8.90625 11.9296875,8.90625 Z M11.9296875,13.96875 C10.8416016,13.96875 9.9609375,13.0880859 9.9609375,12 C9.9609375,10.9119141 10.8416016,10.03125 11.9296875,10.03125 C13.0177734,10.03125 13.8984375,10.9119141 13.8984375,12 C13.8984375,13.0880859 13.0177734,13.96875 11.9296875,13.96875 Z"/>
</svg>
