<svg xmlns="http://www.w3.org/2000/svg" width="32" height="32" viewBox="0 0 32 32">
  <g fill="none" fill-rule="evenodd">
    <path fill="#2E384D" fill-rule="nonzero" d="M21.3333333,15.5 C21.3333333,13.85 19.9619048,12.5 18.2857143,12.5 C16.6095238,12.5 15.2380952,13.85 15.2380952,15.5 C15.2380952,17.15 16.6095238,18.5 18.2857143,18.5 C19.9619048,18.5 21.3333333,17.15 21.3333333,15.5 Z M18.2857143,2 C10.712381,2 4.57142857,8.045 4.57142857,15.5 L0,15.5 L6.0952381,21.5 L12.1904762,15.5 L7.61904762,15.5 C7.61904762,9.695 12.3885714,5 18.2857143,5 C24.1828571,5 28.952381,9.695 28.952381,15.5 C28.952381,21.305 24.1828571,26 18.2857143,26 C15.9847619,26 13.8514286,25.265 12.0990476,24.05 L9.9352381,26.21 C12.2514286,27.95 15.1466667,29 18.2857143,29 C25.8590476,29 32,22.955 32,15.5 C32,8.045 25.8590476,2 18.2857143,2 Z" transform="matrix(-1 0 0 1 32 0)"/>
    <g transform="translate(14 14)">
      <circle cx="9" cy="9" r="9" fill="#DC5B0A" fill-rule="nonzero"/>
      <rect width="10.125" height="2.813" x="3.938" y="7.594" fill="#FFF" rx="1.406"/>
    </g>
  </g>
</svg>
