<svg xmlns="http://www.w3.org/2000/svg" width="32" height="32" viewBox="0 0 32 32">
  <g fill="none">
    <path fill="#FFF" d="M31.6,24.7 C29.8,20.7 27.8,16.9 25.6,13.2 C23.4,9.3 20.9,5.6 18.1,2 C17.2,0.9 15.6,0.7 14.5,1.6 C14.4,1.7 14.2,1.8 14.1,2 C11.2,5.4 8.7,9.1 6.5,13 C4.3,16.8 2.3,20.7 0.6,24.7 C-0.5,27.2 0.4,28.7 2.9,29.1 C7.2,29.7 11.6,30 16,30 C20.4,30 24.9,29.7 29.3,29.1 C31.8,28.7 32.6,27.1 31.6,24.7 Z"/>
    <path fill="#FF8000" d="M31.4624321,24.6667916 C29.6624321,20.6667916 27.6624321,16.8667916 25.4624321,13.1667916 C23.2624321,9.26679156 20.7624321,5.56679156 17.9624321,1.96679156 C17.0624321,0.86679156 15.4624321,0.66679156 14.3624321,1.56679156 C14.2624321,1.66679156 14.0624321,1.76679156 13.9624321,1.96679156 C11.0624321,5.36679156 8.56243208,9.06679156 6.36243208,12.9667916 C4.16243208,16.7667916 2.16243208,20.6667916 0.462432075,24.6667916 C-0.637567925,27.1667916 0.262432075,28.6667916 2.76243208,29.0667916 C7.06243208,29.6667916 11.4624321,29.9667916 15.8624321,29.9667916 C20.2624321,29.9667916 24.7624321,29.6667916 29.1624321,29.0667916 C31.6624321,28.6667916 32.4624321,27.0667916 31.4624321,24.6667916 Z M15.8624321,27.2667916 C14.6624321,27.2667916 13.6624321,26.2667916 13.6624321,25.0667916 C13.6624321,23.8667916 14.6624321,22.8667916 15.8624321,22.8667916 C17.0624321,22.8667916 18.0624321,23.8667916 18.0624321,25.0667916 C18.0624321,26.2667916 17.1624321,27.2667916 15.8624321,27.2667916 C15.9624321,27.2667916 15.8624321,27.2667916 15.8624321,27.2667916 Z M19.0624321,10.4667916 L17.0624321,21.6667916 L14.6624321,21.6667916 L12.6624321,10.4667916 L12.6624321,9.86679156 C12.6624321,8.26679156 13.7624321,7.46679156 15.8624321,7.46679156 C17.9624321,7.46679156 19.0624321,8.26679156 19.0624321,9.86679156 C19.1624321,10.0667916 19.0624321,10.2667916 19.0624321,10.4667916 Z"/>
  </g>
</svg>
