<svg xmlns="http://www.w3.org/2000/svg" width="24" height="24" viewBox="0 0 24 24">
  <g fill="none" stroke="#002989" transform="translate(3.45 3.45)">
    <path fill="#E1E8FE" stroke-width=".881" d="M6.75936353,1.40799167 C3.14378015,2.04510466 0.440636475,5.20438595 0.440636475,8.9505641 C0.440636475,13.1807138 3.86985033,16.6099276 8.1,16.6099276 C11.8461781,16.6099276 15.0054594,13.906784 15.6425724,10.2912006 C11.8015396,10.2912006 11.6219793,10.2912006 7.2,10.2912006 L6.75936353,10.2912006 L6.75936353,9.8505641 C6.75936353,6.25898274 6.75936353,6.13886261 6.75936353,1.40799167 Z"/>
    <path fill="#002989" stroke-width=".969" d="M16.6017364,8.51529988 C16.3594924,4.19836782 12.9016322,0.740507598 8.58470012,0.498263565 C8.58470012,5.15350444 8.58470012,5.47946568 8.58470012,8.51529988 C12.4460899,8.51529988 12.7486796,8.51529988 16.6017364,8.51529988 Z"/>
  </g>
</svg>
