<svg xmlns="http://www.w3.org/2000/svg" width="24" height="24" viewBox="0 0 24 24">
  <path d="M3.99780911,8.8519619 C3.44675922,8.8519619 3,8.38879286 3,7.81755238 C3,7.2463119 3.44675922,6.78318333 3.99780911,6.78318333 L14.0530542,6.78318333 L14.0530542,8.8519619 L3.99780911,8.8519619 Z M3.99780911,13.0030786 C3.44675922,13.0030786 3,12.5399905 3,11.9687095 C3,11.3974286 3.44675922,10.9343 3.99780911,10.9343 L14.0530542,10.9343 L14.0530542,13.0030786 L3.99780911,13.0030786 Z M3.99780911,15.0853762 L11.1939826,15.0853762 C10.9783341,15.4696571 10.8628764,15.9074881 10.8628764,16.3639381 C10.8628764,16.6365048 10.904538,16.902231 10.983449,17.1541548 L3.99780911,17.1541548 C3.44675922,17.1541548 3,16.6910667 3,16.1197857 C3,15.5485048 3.44675922,15.0854167 3.99780911,15.0854167 L3.99780911,15.0853762 Z M17.5,17.2096234 L19.006962,15.6495928 C19.3906715,15.2523706 20.0237417,15.2414165 20.4209639,15.625126 C20.818186,16.0088356 20.8291401,16.6419058 20.4454306,17.0391279 L17.1491575,20.4514815 C16.7468535,20.8679529 16.0760171,20.8567354 15.6878623,20.4270463 L12.6053512,17.0146928 C12.2351368,16.6048638 12.2672508,15.9725138 12.6770797,15.6022994 C13.0869086,15.232085 13.7192587,15.264199 14.0894731,15.6740279 L15.5,17.2354875 L15.5,4.97636326 C15.5,4.42407851 15.9477153,3.97636326 16.5,3.97636326 C17.0522847,3.97636326 17.5,4.42407851 17.5,4.97636326 L17.5,17.2096234 Z"/>
</svg>
