<svg xmlns="http://www.w3.org/2000/svg" width="24" height="24" viewBox="0 0 24 24">
  <path d="M12,23 C5.92486775,23 1,18.0751322 1,12 C1,5.92486775 5.92486775,1 12,1 C18.0751322,1 23,5.92486775 23,12 C23,18.0751322 18.0751322,23 12,23 Z M12,21.625 C17.3157407,21.625 21.625,17.3157407 21.625,12 C21.625,6.68425928 17.3157407,2.375 12,2.375 C6.68425928,2.375 2.375,6.68425928 2.375,12 C2.375,17.3157407 6.68425928,21.625 12,21.625 Z M8.775,7.875 L15.225,7.875 C15.7220563,7.875 16.125,8.27794373 16.125,8.775 L16.125,15.225 C16.125,15.7220563 15.7220563,16.125 15.225,16.125 L8.775,16.125 C8.27794373,16.125 7.875,15.7220563 7.875,15.225 L7.875,8.775 C7.875,8.27794373 8.27794373,7.875 8.775,7.875 Z"/>
</svg>
