<svg xmlns="http://www.w3.org/2000/svg" width="66" height="13" viewBox="0 0 66 13">
  <path fill="#646464" fill-rule="evenodd" d="M63.065,8.832 L55.861,8.832 L55.861,11.898 L51.407,11.898 L51.407,2.71 L51.405,2.71 C51.405,2.701 51.407,2.693 51.407,2.681 L51.407,2.653 L51.408,2.653 C51.423,1.895 51.713,1.287 52.288,0.837 C52.864,0.383 53.684,0.159 54.751,0.159 L55.009,0.159 L55.013,0.158 L62.943,0.158 C62.982,0.158 63.016,0.158 63.054,0.159 L63.228,0.159 L63.212,0.163 C64.139,0.194 64.832,0.386 65.282,0.746 C65.759,1.142 66,1.789 66,2.693 L66,6.457 C66,8.043 65.022,8.832 63.065,8.832 Z M61.466,3.21 L55.799,3.21 L55.799,6.253 L61.466,6.253 L61.466,3.21 Z M44.851,8.77 L38.614,8.77 L38.614,11.898 L34.16,11.898 L34.16,2.709 C34.16,1.923 34.452,1.302 35.041,0.835 C35.616,0.382 36.437,0.158 37.504,0.158 L45.982,0.158 C47.05,0.158 47.87,0.382 48.444,0.835 C49.02,1.287 49.307,1.913 49.307,2.709 L49.307,11.898 L44.851,11.898 L44.851,8.77 Z M44.851,3.21 L38.614,3.21 L38.614,6.609 L44.851,6.609 L44.851,3.21 Z M21.655,4.721 C21.603,4.627 21.479,4.618 21.479,4.618 C21.157,4.578 21.081,4.733 21.063,4.839 C21.074,6.446 21.098,11.898 21.098,11.898 L16.889,11.898 L16.889,1.578 L16.895,1.573 C16.9,1.146 17.023,0.799 17.267,0.541 C17.511,0.286 17.859,0.158 18.311,0.158 L21.91,0.158 C22.321,0.158 22.631,0.263 22.867,0.477 C22.875,0.479 22.882,0.488 22.888,0.5 C22.905,0.511 22.921,0.525 22.934,0.539 L22.932,0.539 C22.936,0.544 22.941,0.548 22.944,0.552 C23.87,1.829 26.765,5.835 27.517,7.005 C27.579,7.071 27.666,7.088 27.666,7.088 C27.803,7.113 27.866,7.059 27.896,6.988 L27.896,0.158 L28.56,0.158 L32.16,0.158 L32.16,11.898 L27.789,11.898 C27.789,11.898 22.467,6.026 21.655,4.721 Z M8.118,7.726 C13.699,8.687 15.529,11.031 16.071,12.003 L12.901,12.003 C12.059,10.389 9.515,8.618 8.118,7.726 Z M10.911,8.096 L10.911,2.84 L4.701,2.84 L4.701,9.036 L9.366,9.036 C9.432,9.084 9.498,9.131 9.565,9.179 C10.647,9.968 11.805,10.952 12.43,11.858 C12.093,11.909 11.728,11.938 11.328,11.938 L11.328,11.941 L3.84,11.941 C1.28,11.941 0,10.908 0,8.842 L0,3.118 C0,1.041 1.28,0.001 3.84,0.001 L11.318,0.001 L11.318,-3.55271368e-14 C11.331,-3.55271368e-14 11.344,0.001 11.358,0.001 L11.731,0.001 L11.731,0.01 C14.013,0.118 15.156,1.153 15.156,3.118 L15.156,8.842 C15.156,9.338 15.081,9.773 14.933,10.149 C14.059,9.434 12.777,8.681 10.911,8.096 Z"/>
</svg>
