<svg xmlns="http://www.w3.org/2000/svg" width="24" height="24" viewBox="0 0 24 24">
  <path d="M16.8122436,12.5588021 L10.6740267,17.5461033 C10.3654088,17.7968553 9.91194994,17.7499458 9.66119792,17.4413279 C9.55692126,17.3129874 9.5,17.1526642 9.5,16.9873012 L9.5,7.01269877 C9.5,6.61505375 9.82235498,6.29269877 10.22,6.29269877 C10.385363,6.29269877 10.5456862,6.34962002 10.6740267,6.45389669 L16.8122436,11.4411979 C17.1208615,11.6919499 17.167771,12.1454088 16.917019,12.4540267 C16.8857901,12.4924622 16.8506791,12.5275732 16.8122436,12.5588021 Z M12,23 C5.92486775,23 1,18.0751322 1,12 C1,5.92486775 5.92486775,1 12,1 C18.0751322,1 23,5.92486775 23,12 C23,18.0751322 18.0751322,23 12,23 Z M12,21.625 C17.3157407,21.625 21.625,17.3157407 21.625,12 C21.625,6.68425928 17.3157407,2.375 12,2.375 C6.68425928,2.375 2.375,6.68425928 2.375,12 C2.375,17.3157407 6.68425928,21.625 12,21.625 Z"/>
</svg>
