<svg xmlns="http://www.w3.org/2000/svg" width="32" height="32" viewBox="0 0 32 32">
  <g fill="none">
    <circle cx="16" cy="16" r="15" fill="#D4140A" stroke="#D4140A" stroke-width="2"/>
    <path fill="#FFF" d="M16,26 C14.9090909,26 14,25.0909091 14,24 C14,22.9090909 14.9090909,22 16,22 C17.0909091,22 18,22.9090909 18,24 C18,25.0909091 17.1818182,26 16,26 C16.0909091,26 16,26 16,26 Z M18.7613793,9.03030303 L17.0234483,20.3434343 L14.937931,20.3434343 L13.2,9.03030303 L13.2,8.42424242 C13.2,6.80808081 14.1558621,6 15.9806897,6 C17.8055172,6 18.7613793,6.80808081 18.7613793,8.42424242 C18.8482759,8.62626263 18.7613793,8.82828283 18.7613793,9.03030303 Z"/>
  </g>
</svg>
