<svg xmlns="http://www.w3.org/2000/svg" width="40" height="40" viewBox="0 0 40 40">
  <g fill="none">
    <path stroke="#FFF" stroke-linecap="round" stroke-linejoin="round" stroke-width="2.5" d="M20,32 C26.0751322,32 31,27.0751322 31,21 C31,14.9248678 26.0751322,10 20,10 C13.9248678,10 9,14.9248678 9,21" transform="rotate(90 20 21)"/>
    <circle cx="19.8" cy="20.7" r="4" fill="#A6ACD3"/>
    <path fill="#FFF" d="M17.8254934,6.95569074 L22.0482177,12.8675047 C22.1766213,13.0472698 22.1349846,13.2970898 21.9552195,13.4254934 C21.8873792,13.4739507 21.8060935,13.5 21.7227243,13.5 L13.2772757,13.5 C13.0563618,13.5 12.8772757,13.3209139 12.8772757,13.1 C12.8772757,13.0166308 12.903325,12.935345 12.9517823,12.8675047 L17.1745066,6.95569074 C17.3029102,6.77592571 17.5527302,6.73428904 17.7324953,6.86269263 C17.7684135,6.8883485 17.7998375,6.91977254 17.8254934,6.95569074 Z" transform="matrix(0 1 1 0 7.5 -7.5)"/>
  </g>
</svg>
