<svg xmlns="http://www.w3.org/2000/svg" width="200" height="80" viewBox="0 0 200 80">
  <defs>
    <linearGradient id="icon_nc_empty-a" x1="19.939%" x2="39.689%" y1="97.627%" y2="66.353%">
      <stop offset="0%" stop-color="#DBDCDC"/>
      <stop offset="100%" stop-color="#C6C7C7"/>
    </linearGradient>
    <linearGradient id="icon_nc_empty-b" x1="35.878%" x2="108.216%" y1="54.214%" y2="32.865%">
      <stop offset="0%" stop-color="#54C0D1"/>
      <stop offset="99.952%" stop-color="#DFE0E0"/>
    </linearGradient>
    <linearGradient id="icon_nc_empty-c" x1="6.067%" x2="94.554%" y1="61.063%" y2="28.698%">
      <stop offset="0%" stop-color="#F5F5F5"/>
      <stop offset="100%" stop-color="#E0E0E0"/>
    </linearGradient>
    <linearGradient id="icon_nc_empty-d" x1="56.43%" x2="43.687%" y1="-4.305%" y2="103.121%">
      <stop offset="0%" stop-color="#C2C2C2"/>
      <stop offset="100%" stop-color="#ADADAD"/>
    </linearGradient>
    <linearGradient id="icon_nc_empty-e" x1="85.603%" x2="30.771%" y1="50.821%" y2="50.098%">
      <stop offset="0%" stop-color="#D9D9D9"/>
      <stop offset="100%" stop-color="#EDEDED"/>
    </linearGradient>
    <linearGradient id="icon_nc_empty-f" x1="66.344%" x2="-55.034%" y1="58.226%" y2="-11.395%">
      <stop offset="0%" stop-color="#E6A117"/>
      <stop offset="100%" stop-color="#FAAF19"/>
    </linearGradient>
    <linearGradient id="icon_nc_empty-g" x1="67.167%" x2="31.8%" y1="45.409%" y2="92.71%">
      <stop offset="0%" stop-color="#EFEFF0"/>
      <stop offset="100%" stop-color="#C3C4C4"/>
    </linearGradient>
    <linearGradient id="icon_nc_empty-h" x1="49.819%" x2="53.078%" y1="52.693%" y2="3.325%">
      <stop offset="0%" stop-color="#EBA417"/>
      <stop offset="100%" stop-color="#FAAF19"/>
    </linearGradient>
    <linearGradient id="icon_nc_empty-i" x1="48.239%" x2="48.568%" y1="56.835%" y2="-.083%">
      <stop offset="0%" stop-color="#C5C5C6"/>
      <stop offset="100%" stop-color="#A9AAAA"/>
    </linearGradient>
    <linearGradient id="icon_nc_empty-j" x1="42.717%" x2="57.104%" y1="66.921%" y2="8.935%">
      <stop offset="0%" stop-color="#A5A5A6"/>
      <stop offset="100%" stop-color="#BABBBB"/>
    </linearGradient>
    <linearGradient id="icon_nc_empty-k" x1="42.727%" x2="63.74%" y1="64.237%" y2="-17.802%">
      <stop offset="0%" stop-color="#A5A5A6"/>
      <stop offset="100%" stop-color="#BABBBB"/>
    </linearGradient>
    <linearGradient id="icon_nc_empty-l" x1="42.965%" x2="81.443%" y1="57.632%" y2="-80.938%">
      <stop offset="0%" stop-color="#A5A5A6"/>
      <stop offset="100%" stop-color="#BABBBB"/>
    </linearGradient>
    <linearGradient id="icon_nc_empty-m" x1="90.131%" x2="9.525%" y1="63.459%" y2="36.531%">
      <stop offset="0%" stop-color="#43A84F"/>
      <stop offset="100%" stop-color="#5CE66A"/>
    </linearGradient>
  </defs>
  <g fill="none">
    <path fill="url(#icon_nc_empty-a)" d="M76.0390637,9.27901769 L96.4624575,9.28794822 C96.8638742,9.28875053 97.1892416,9.61412221 97.1900387,10.0155389 L97.2046156,44.3792836 C97.2054122,44.780945 96.8799393,45.1066942 96.4782777,45.1068645 C96.4780688,45.1068646 96.47786,45.1068646 96.4776514,45.1062383 L76.0542575,45.0973078 C75.6528409,45.0965054 75.3274734,44.7711338 75.3266764,44.3697171 L75.3120995,10.0059723 C75.3113029,9.604311 75.6367758,9.27856182 76.0384374,9.27839144 C76.0386463,9.27839135 76.0388551,9.27839135 76.0390637,9.27901769 Z" transform="rotate(-9.7 86.258 27.193)"/>
    <polygon fill="url(#icon_nc_empty-b)" points="75.245 13.846 97.122 13.855 97.133 39.709 75.256 39.699" transform="rotate(-9.7 86.189 26.777)"/>
    <path fill="url(#icon_nc_empty-c)" d="M103.231435,0.52027972 L87.0054783,3.31748252 C86.4688225,3.3751494 85.9772753,3.64358768 85.6394479,4.06348377 C85.3016206,4.48337986 85.1453218,5.02016951 85.205087,5.55524476 L86.8428261,15.1048951 C87.1211309,16.1739827 88.2050516,16.8251636 89.2826087,16.5706294 L91.7504348,16.151049 L92.5356522,20.6993007 L95.525087,15.4797203 L105.508565,13.8013986 C106.045221,13.7437317 106.536768,13.4752934 106.874596,13.0553973 C107.212423,12.6355013 107.368722,12.0987116 107.308957,11.5636364 L105.665609,2.01398601 C105.405089,0.932395897 104.316776,0.264563445 103.231435,0.52027972 Z"/>
    <path fill="#A7A7A8" d="M91.2512609 8.03916084C90.5465717 8.16036906 90.0735823 8.82813096 90.1944661 9.53113348 90.31535 10.234136 90.9843919 10.7065208 91.6892986 10.5865773 92.3942053 10.4666339 92.8683983 9.79972181 92.7487826 9.0965035 92.6260344 8.39327287 91.9570029 7.92089539 91.2512609 8.03916084L91.2512609 8.03916084zM96.1644783 7.20559441C95.6480437 7.29481136 95.2363707 7.68559676 95.1214826 8.19567021 95.0065945 8.70574367 95.2111255 9.23461545 95.6396728 9.5355953 96.0682201 9.83657516 96.6363555 9.85036696 97.0790744 9.57053756 97.5217933 9.29070817 97.7518755 8.77238686 97.662 8.25734266 97.5365683 7.55638359 96.8683793 7.08709713 96.1644783 7.20559441L96.1644783 7.20559441zM100.808478 6.41118881C100.103789 6.53239703 99.6307996 7.20015893 99.7516835 7.90316146 99.8725674 8.60616398 100.541609 9.07854877 101.246516 8.9586053 101.951423 8.83866182 102.425616 8.17174978 102.306 7.46853147 102.183252 6.76530084 101.51422 6.29292336 100.808478 6.41118881z"/>
    <path fill="url(#icon_nc_empty-d)" d="M103.662521,50.5691717 L121.595625,50.5797742 C122.419888,50.5802616 123.087962,51.248337 123.088448,52.0725991 L123.104715,79.6481513 C123.105202,80.4731024 122.436841,81.1422518 121.61189,81.1427385 C121.611302,81.1427388 121.610714,81.1427388 121.610126,81.1427385 L103.677022,81.1321359 C102.852759,81.1316486 102.184685,80.4635732 102.184199,79.639311 L102.167932,52.0637588 C102.167445,51.2388078 102.835806,50.5696583 103.660757,50.5691717 C103.661345,50.5691713 103.661933,50.5691713 103.662521,50.5691717 Z" transform="rotate(-76.21 112.636 65.856)"/>
    <path fill="url(#icon_nc_empty-e)" d="M129.536217,59.8265734 C129.355603,59.4024973 128.989532,59.0848058 128.543478,58.965035 L101.739522,52.413986 C101.284052,52.3014528 100.802044,52.409214 100.438304,52.7048951 L100.438304,52.7048951 L111.919304,68.7160839 L129.530609,59.8265734"/>
    <path fill="url(#icon_nc_empty-f)" d="M119.942507,31.1723743 L128.354079,31.1777946 L128.359814,40.0576733 L119.948242,40.0522531 C119.669507,40.0520735 119.443402,39.8264653 119.443222,39.5483431 L119.438138,31.675634 C119.437958,31.3975118 119.663772,31.1721948 119.942507,31.1723743 L119.942507,31.1723743 Z" transform="rotate(-15.19 123.899 35.615)"/>
    <path fill="url(#icon_nc_empty-g)" d="M145.206913,42.965035 C140.780192,39.3409497 135.000532,37.7992834 129.35113,38.7356643 L127.017913,30.165035 C132.364682,28.1241168 136.568028,23.8804995 138.549391,18.5230769 L145.206913,42.965035 Z"/>
    <path fill="url(#icon_nc_empty-h)" d="M148.039304,42.3888112 L141.353739,17.834965 C141.17383,17.1470897 140.534349,16.679799 139.822565,16.7160839 C139.39549,16.7492416 139.005562,16.970869 138.759254,17.3204488 C138.512947,17.6700285 138.435988,18.1110458 138.549391,18.5230769 L145.234957,43.0769231 C145.411697,43.7596577 146.043029,44.2261198 146.749304,44.1958042 C147.177713,44.1634397 147.569551,43.942864 147.818759,43.5937811 C148.067967,43.2446982 148.148773,42.8032084 148.039304,42.3888112 L148.039304,42.3888112 Z"/>
    <polygon fill="url(#icon_nc_empty-i)" points="129.132 38.797 131.993 49.292 129.951 49.846 124.449 40.062"/>
    <path fill="url(#icon_nc_empty-j)" d="M163.973609,25.4937063 C162.337194,19.4399786 158.342959,14.2897071 152.879609,11.1888112 C152.492409,10.9678973 151.998978,11.1018988 151.7775,11.4881119 C151.556022,11.874325 151.690366,12.3664987 152.077565,12.5874126 C157.163916,15.4935464 160.884295,20.296319 162.420028,25.9388752 C163.955762,31.5814313 163.181011,37.6014163 160.266261,42.6741259 C160.044783,43.060339 160.179127,43.5525126 160.566326,43.7734265 C160.953526,43.9943404 161.446957,43.8603389 161.668435,43.4741259 C164.81699,38.0294468 165.647241,31.5534662 163.973609,25.4937063 Z"/>
    <path fill="url(#icon_nc_empty-k)" d="M150.658565,16.9454545 C150.271366,16.7245407 149.777935,16.8585422 149.556457,17.2447553 C149.334978,17.6309684 149.469322,18.123142 149.856522,18.3440559 C157.045065,22.4619789 159.534259,31.6074812 155.420348,38.786014 C155.30788,38.9735434 155.276614,39.1985999 155.333721,39.4095674 C155.390828,39.620535 155.531407,39.7993115 155.723217,39.9048951 C155.910535,40.0175223 156.135639,40.0495562 156.34706,39.9936725 C156.558481,39.9377887 156.738139,39.798766 156.844957,39.6083916 C159.03873,35.785087 159.619394,31.2489379 158.459128,26.9984739 C157.298863,22.7480099 154.492776,19.1316505 150.658565,16.9454545 L150.658565,16.9454545 Z"/>
    <path fill="url(#icon_nc_empty-l)" d="M148.392652,22.6573427 C148.14019,22.4760188 147.805761,22.4554485 147.532876,22.6044591 C147.259992,22.7534698 147.097171,23.0455678 147.114283,23.3554059 C147.131396,23.6652441 147.3254,23.9377345 147.613043,24.0559441 C149.464474,25.1129473 150.818668,26.8607546 151.377293,28.9143205 C151.935918,30.9678865 151.653142,33.1587271 150.591261,35.0041958 C150.47673,35.1906402 150.443701,35.4157197 150.499855,35.6270839 C150.55601,35.8384481 150.696454,36.0176743 150.888522,36.1230769 C151.041412,36.2102765 151.218551,36.2456139 151.393304,36.2237762 C151.643218,36.1885628 151.86379,36.0425753 151.993435,35.8265734 C153.268761,33.6044005 153.605854,30.9675953 152.930417,28.4973038 C152.25498,26.0270122 150.622457,23.9260062 148.392652,22.6573427 Z"/>
    <path fill="#B4B4B5" d="M117.966812,34.6889388 L119.649126,34.6900231 L119.652313,39.6251541 L117.969999,39.6240701 C117.618172,39.6238965 117.331049,39.3423803 117.324703,38.9913758 L117.322347,35.3431837 C117.319227,35.1705924 117.385733,35.0040767 117.506921,34.8810496 C117.628108,34.7580226 117.793816,34.6888014 117.966812,34.6889388 Z" transform="rotate(-15.19 118.487 37.157)"/>
    <path fill="url(#icon_nc_empty-m)" d="M58.3618696,37.6391608 C50.0217391,36.3300699 42.3153913,41.1692308 41.1712174,48.4531469 C40.7898261,50.841958 40.8795652,52.8783217 41.8498696,55.0153846 C41.8498696,55.0153846 38.7706957,58.7636364 36.3028696,61.7846154 C36.3028696,61.7846154 40.1167826,61.3874126 46.1629565,60.3972028 C48.5013134,62.2484965 51.2657205,63.4887334 54.2058261,64.0055944 C62.5515652,65.3146853 70.2466957,60.4755245 71.3964783,53.1916084 C72.5462609,45.9076923 66.7076087,38.9482517 58.3618696,37.6391608 Z"/>
    <path fill="#FFF" d="M51.8221304 48.3300699C51.2799024 48.241818 50.7378143 48.4883111 50.4489681 48.9544611 50.1601219 49.4206111 50.1814924 50.0144701 50.5031017 50.4587641 50.824711 50.9030581 51.3831219 51.1101504 51.917611 50.983349 52.4521001 50.8565477 52.8572398 50.4208643 52.9438696 49.8797203 53.0617854 49.1431433 52.5601829 48.4501938 51.8221304 48.3300699L51.8221304 48.3300699zM56.9933478 49.1412587C56.4511198 49.0530068 55.9090317 49.2994999 55.6201855 49.7656499 55.3313393 50.2317999 55.3527098 50.8256589 55.6743191 51.2699529 55.9959284 51.7142469 56.5543393 51.9213392 57.0888284 51.7945378 57.6233175 51.6677365 58.0284572 51.2320531 58.115087 50.6909091 58.2330028 49.9543322 57.7314003 49.2613827 56.9933478 49.1412587L56.9933478 49.1412587zM61.872913 49.9076923C61.3306851 49.8194404 60.7885969 50.0659335 60.4997507 50.5320835 60.2109045 50.9982334 60.232275 51.5920925 60.5538843 52.0363865 60.8754936 52.4806805 61.4339045 52.6877727 61.9683936 52.5609714 62.5028827 52.4341701 62.9080225 51.9984866 62.9946522 51.4573427 63.112568 50.7207657 62.6109655 50.0278162 61.872913 49.9076923L61.872913 49.9076923z"/>
  </g>
</svg>
