<svg xmlns="http://www.w3.org/2000/svg" width="24" height="24" viewBox="0 0 24 24">
  <g fill="none" fill-rule="evenodd" transform="translate(4 5)">
    <path fill="#1C2231" d="M11.7377474,3.79282105 C11.7377474,4.44566316 11.2086947,4.97471579 10.5558526,4.97471579 C9.90374737,4.97471579 9.37395789,4.44566316 9.37395789,3.79282105 C9.37395789,3.14071579 9.90374737,2.61092632 10.5558526,2.61092632 C11.2086947,2.61092632 11.7377474,3.14071579 11.7377474,3.79282105"/>
    <path stroke="#1C2231" stroke-linecap="round" stroke-linejoin="bevel" stroke-width="1.4" d="M7.48292632,8.64057895 C8.10850526,8.99278947 8.82987368,9.19321053 9.5984,9.19321053 C11.9842947,9.19321053 13.9185053,7.259 13.9185053,4.87310526 C13.9185053,2.48647368 11.9842947,0.552263158 9.5984,0.552263158 C7.21250526,0.552263158 5.27829474,2.48647368 5.27829474,4.87310526 C5.27829474,5.07057895 5.29155789,5.26510526 5.31734737,5.45594737 L5.13682105,6.03436842 L0.552926316,10.6182632 L0.552926316,13.9384737 L3.18124211,13.9384737 L3.18124211,12.0646842 L4.97397895,12.0646842 L4.97397895,10.4355263 L6.6444,10.4355263 L6.6444,7.90889474 L7.48292632,8.64057895 Z"/>
  </g>
</svg>
