<svg xmlns="http://www.w3.org/2000/svg" width="390" height="390" viewBox="0 0 390 390">
  <g fill="none" fill-rule="evenodd" transform="translate(10 10)">
    <g fill="#F3F6FB" transform="translate(5.468 90.831)">
      <path d="M240.536407,98.46 C246.153143,98.46 250.706407,103.013264 250.706407,108.63 C250.706407,114.246736 246.153143,118.8 240.536407,118.8 L140.163593,118.8 C134.546857,118.8 129.993593,114.246736 129.993593,108.63 C129.993593,103.013264 134.546857,98.46 140.163593,98.46 L159.611616,98.46 C165.228352,98.46 169.781616,93.9067359 169.781616,88.29 C169.781616,82.7668764 165.378862,78.2720709 159.89155,78.1237782 L159.611616,78.12 L221.088384,78.12 C215.471648,78.12 210.918384,82.6732641 210.918384,88.29 C210.918384,93.9067359 215.471648,98.46 221.088384,98.46 L221.088384,98.46 L240.536407,98.46 Z M301.23,57.78 C306.846736,57.78 311.4,62.3332641 311.4,67.95 C311.4,73.5667359 306.846736,78.12 301.23,78.12 L79.47,78.12 C73.8532641,78.12 69.3,73.5667359 69.3,67.95 C69.3,62.3332641 73.8532641,57.78 79.47,57.78 L301.23,57.78 Z M301.23,17.1 C306.846736,17.1 311.4,21.6532641 311.4,27.27 C311.4,32.863249 306.884736,37.4019015 301.300405,37.4397614 L241.319582,37.44 C235.702846,37.44 231.149582,41.9932641 231.149582,47.61 C231.149582,53.1331236 235.552336,57.6279291 241.039648,57.7762218 L241.319582,57.78 L139.380418,57.78 C144.997154,57.78 149.550418,53.2267359 149.550418,47.61 C149.550418,42.0868764 145.147664,37.5920709 139.660352,37.4437782 L139.380418,37.44 L79.4,37.439 L79.1900656,37.4362218 C73.7027534,37.2879291 69.3,32.7931236 69.3,27.27 C69.3,21.6532641 73.8532641,17.1 79.47,17.1 L301.23,17.1 Z" transform="rotate(-8 190.35 67.95)"/>
      <path d="M177.536407,145.26 C183.153143,145.26 187.706407,149.813264 187.706407,155.43 C187.706407,161.046736 183.153143,165.6 177.536407,165.6 L77.1635933,165.6 C71.5468574,165.6 66.9935933,161.046736 66.9935933,155.43 C66.9935933,149.813264 71.5468574,145.26 77.1635933,145.26 L96.6116156,145.26 C102.228352,145.26 106.781616,140.706736 106.781616,135.09 C106.781616,129.566876 102.378862,125.072071 96.89155,124.923778 L96.6116156,124.92 L158.088384,124.92 C152.471648,124.92 147.918384,129.473264 147.918384,135.09 C147.918384,140.706736 152.471648,145.26 158.088384,145.26 L158.088384,145.26 L177.536407,145.26 Z M238.23,104.58 C243.846736,104.58 248.4,109.133264 248.4,114.75 C248.4,120.366736 243.846736,124.92 238.23,124.92 L16.47,124.92 C10.8532641,124.92 6.3,120.366736 6.3,114.75 C6.3,109.133264 10.8532641,104.58 16.47,104.58 L238.23,104.58 Z M238.23,63.9 C243.846736,63.9 248.4,68.4532641 248.4,74.07 C248.4,79.663249 243.884736,84.2019015 238.300405,84.2397614 L178.319582,84.24 C172.702846,84.24 168.149582,88.7932641 168.149582,94.41 C168.149582,99.9331236 172.552336,104.427929 178.039648,104.576222 L178.319582,104.58 L76.3804178,104.58 C81.9971537,104.58 86.5504178,100.026736 86.5504178,94.41 C86.5504178,88.8868764 82.1476644,84.3920709 76.6603522,84.2437782 L76.3804178,84.24 L16.4,84.239 L16.1900656,84.2362218 C10.7027534,84.0879291 6.3,79.5931236 6.3,74.07 C6.3,68.4532641 10.8532641,63.9 16.47,63.9 L238.23,63.9 Z" transform="rotate(172 127.35 114.75)"/>
    </g>
    <circle cx="70.268" cy="148.431" r="6.3" fill="#5374FC"/>
    <path stroke="#5374FC" stroke-linecap="round" stroke-linejoin="round" stroke-width="3.24" d="M322.2,221.713425 C324.631704,219.313425 327.276365,219.313425 330.133983,221.713425 C332.991602,224.113425 335.446941,224.113425 337.5,221.713425" transform="rotate(45 329.85 221.713)"/>
    <circle cx="285.368" cy="297.831" r="3.6" stroke="#6800FC" stroke-linecap="round" stroke-linejoin="round" stroke-width="2.7"/>
    <path stroke="#5374FC" stroke-linecap="round" stroke-linejoin="round" stroke-width="3.24" d="M0,208.213425 C2.43170379,205.813425 5.07636495,205.813425 7.93398349,208.213425 C10.791602,210.613425 13.2469409,210.613425 15.3,208.213425" transform="rotate(-45 7.65 208.213)"/>
    <polygon fill="#EA4C4C" points="36.987 15.475 32.49 17.839 33.349 12.832 29.711 9.286 34.738 8.556 36.987 4 39.235 8.556 44.262 9.286 40.624 12.832 41.483 17.839" transform="rotate(45 36.987 11.65)"/>
    <path stroke="#EA4C4C" stroke-width="2.7" d="M177.390155,337.571159 L176.873817,334.560678 L179.061059,332.428644 L176.038365,331.98942 L174.686575,329.250394 L173.334785,331.98942 L170.31209,332.428644 L172.499332,334.560678 L171.982994,337.571159 L174.686575,336.149803 L177.390155,337.571159 Z" transform="rotate(45 174.687 333.85)"/>
    <polygon fill="#F3F6FB" points="117.987 51.025 113.49 53.389 114.349 48.382 110.711 44.836 115.738 44.106 117.987 39.55 120.235 44.106 125.262 44.836 121.624 48.382 122.483 53.389" transform="rotate(45 117.987 47.2)"/>
    <path fill="#00BD2A" d="M240.013782,65.7272078 C241.007895,65.7272078 241.813782,66.5330952 241.813782,67.5272078 L241.813782,70.6772078 L244.963782,70.6772078 C245.957895,70.6772078 246.763782,71.4830952 246.763782,72.4772078 C246.763782,73.4713203 245.957895,74.2772078 244.963782,74.2772078 L241.813782,74.2772078 L241.813782,77.4272078 C241.813782,78.4213203 241.007895,79.2272078 240.013782,79.2272078 C239.01967,79.2272078 238.213782,78.4213203 238.213782,77.4272078 L238.213782,74.2772078 L235.063782,74.2772078 C234.06967,74.2772078 233.263782,73.4713203 233.263782,72.4772078 C233.263782,71.4830952 234.06967,70.6772078 235.063782,70.6772078 L238.213782,70.6772078 L238.213782,67.5272078 C238.213782,66.5330952 239.01967,65.7272078 240.013782,65.7272078 Z" transform="rotate(45 240.014 72.477)"/>
    <path fill="red" d="M154.417841,30.5312662 C155.146857,30.5312662 155.737841,31.1222504 155.737841,31.8512662 L155.737841,34.1602662 L158.047841,34.1612662 C158.776857,34.1612662 159.367841,34.7522504 159.367841,35.4812662 C159.367841,36.2102821 158.776857,36.8012662 158.047841,36.8012662 L155.737841,36.8012662 L155.737841,39.1112662 C155.737841,39.8402821 155.146857,40.4312662 154.417841,40.4312662 C153.688825,40.4312662 153.097841,39.8402821 153.097841,39.1112662 L153.097841,36.8012662 L150.787841,36.8012662 C150.058825,36.8012662 149.467841,36.2102821 149.467841,35.4812662 C149.467841,34.7522504 150.058825,34.1612662 150.787841,34.1612662 L153.097841,34.1612662 L153.097841,31.8512662 C153.097841,31.1222504 153.688825,30.5312662 154.417841,30.5312662 Z" transform="rotate(35 154.418 35.481)"/>
    <path stroke="#6800FC" stroke-linecap="round" stroke-linejoin="round" stroke-width="2.7" d="M152.6265,273.919059 C153.209545,273.019059 153.983988,273.010618 154.94983,273.893737 C155.793955,274.810618 156.531981,275.269059 157.163907,275.269059 C157.795833,275.269059 158.53146,274.794557 159.370788,273.845552 C160.129705,272.994557 160.885249,272.569059 161.637417,272.569059 C162.389586,272.569059 163.132058,272.994557 163.864834,273.845552 C164.645287,274.794557 165.40501,275.269059 166.144003,275.269059 C166.882995,275.269059 167.618842,274.794557 168.351542,273.845552 C169.124956,272.994557 169.886185,272.569059 170.635229,272.569059 C171.384272,272.569059 172.123934,272.994557 172.854214,273.845552 C173.290547,274.497129 173.747976,274.822917 174.2265,274.822917" transform="rotate(25 163.426 273.92)"/>
    <path stroke="#E9007F" stroke-linecap="round" stroke-linejoin="round" stroke-width="3.6" d="M325.4265,102.919059 C326.009545,102.019059 326.783988,102.010618 327.74983,102.893737 C328.593955,103.810618 329.331981,104.269059 329.963907,104.269059 C330.595833,104.269059 331.33146,103.794557 332.170788,102.845552 C332.929705,101.994557 333.685249,101.569059 334.437417,101.569059 C335.189586,101.569059 335.932058,101.994557 336.664834,102.845552 C337.445287,103.794557 338.20501,104.269059 338.944003,104.269059 C339.682995,104.269059 340.418842,103.794557 341.151542,102.845552 C341.924956,101.994557 342.686185,101.569059 343.435229,101.569059 C344.184272,101.569059 344.923934,101.994557 345.654214,102.845552 C346.090547,103.497129 346.547976,103.822917 347.0265,103.822917" transform="rotate(-25 336.227 102.92)"/>
    <g transform="translate(93.868 97.131)">
      <path fill="#FFC300" d="M32.6274117,0.709022433 C35.2186231,0.709022433 37.319215,2.79929301 37.319215,5.37777243 L37.319215,28.1214412 C37.319215,43.2609021 24.9856558,55.53386 9.77143957,55.53386 L0.801213034,55.53386 L5.91521303,46.7240224 L11.6588515,45.1226044 C20.7042268,42.6006948 27.1915863,34.7348576 27.9366916,25.4446508 L27.9647487,25.0512701 L28.7967798,11.7301611 C28.7997911,11.6819498 28.8012978,11.6336571 28.8012978,11.5853528 C28.8012978,10.6781998 28.2812953,9.89190309 27.5217233,9.50551777 L32.6274117,0.709022433 Z" transform="translate(103.032 9.338)"/>
      <path fill="#FFC300" d="M32.7104639,0.709022433 C35.3016753,0.709022433 37.4022671,2.79929301 37.4022671,5.37777243 L37.4022671,28.1214412 C37.4022671,43.2609021 25.068708,55.53386 9.85449177,55.53386 L0.884265231,55.53386 L5.99826523,46.7240224 L11.7419037,45.1226044 C20.787279,42.6006948 27.2746385,34.7348576 28.0197438,25.4446508 L28.0478009,25.0512701 L28.879832,11.7301611 L28.8832202,11.6577918 L28.8832202,11.6577918 L28.88435,11.5853528 C28.88435,10.6781998 28.3643475,9.89190309 27.6047755,9.50551777 L32.7104639,0.709022433 Z" transform="matrix(-1 0 0 1 38.434 9.338)"/>
      <rect width="91.49" height="3.502" x="24.705" y="136.294" fill="#FFC300" rx="1.751"/>
      <path fill="#FFC300" d="M70.6972412,0.58779431 L109.41052,0.58779431 C110.702866,0.58779431 111.75052,1.63544799 111.75052,2.92779431 L111.75052,41.5316655 C111.75052,52.8491581 107.482388,63.4628555 98.9461251,73.3727577 C87.1007066,87.1243182 75.0553492,89.2035006 76.7372898,105.539805 L70.6970753,105.587794 L70.6972412,105.589808 L70.5650753,105.588794 L70.433354,105.589808 L70.4330753,105.587794 L64.3933054,105.539805 C66.0584266,89.3668636 54.2694231,87.1673276 42.5398787,73.7818288 L42.1844701,73.3727577 C33.6482069,63.4628555 29.3800753,52.8491581 29.3800753,41.5316655 L29.3800753,41.5316655 L29.3800753,2.92779431 C29.3800753,1.63544799 30.427729,0.58779431 31.7200753,0.58779431 L31.7200753,0.58779431 L70.6972412,0.58779431 Z"/>
      <rect width="22.286" height="3.502" x="9.457" y="146.798" fill="#FFC300" rx="1.751"/>
      <rect width="58.648" height="31.514" x="41.126" y="105.047" fill="#EC610A" rx="3"/>
      <rect width="39.88" height="17.508" x="50.51" y="112.05" fill="#FFC300"/>
      <polygon fill="#EC610A" points="70.45 49.605 57.351 56.458 59.852 41.944 49.255 31.664 63.9 29.547 70.45 16.341 77 29.547 91.645 31.664 81.048 41.944 83.549 56.458"/>
      <rect width="11.73" height="3.502" x="69.277" y="146.798" fill="#FFC300" rx="1.751"/>
      <rect width="48.091" height="3.502" x="92.736" y="146.798" fill="#FFC300" rx="1.751"/>
    </g>
    <circle cx="36.968" cy="277.131" r="7.2" stroke="#00FF89" stroke-width="3.6"/>
    <rect width="10.8" height="10.8" x="218.768" y="178.131" stroke="red" stroke-width="3.6" transform="rotate(6 224.168 183.531)"/>
  </g>
</svg>
