<svg xmlns="http://www.w3.org/2000/svg" xmlns:xlink="http://www.w3.org/1999/xlink" width="530" height="463" viewBox="0 0 530 463">
  <defs>
    <polygon id="icon_empty_backup-a" points=".219 .006 8.081 .006 8.081 2.88 .219 2.88"/>
    <polygon id="icon_empty_backup-c" points="0 .182 5.306 .182 5.306 4.688 0 4.688"/>
    <polygon id="icon_empty_backup-e" points="1.68 1.44 3.12 1.44 3.12 2.88 1.68 2.88"/>
    <polygon id="icon_empty_backup-g" points="0 .927 17.298 .927 17.298 31.524 0 31.524"/>
    <polygon id="icon_empty_backup-i" points="1.68 161.948 63.908 161.948 63.908 .199 1.68 .199"/>
    <polygon id="icon_empty_backup-k" points=".185 .044 4.591 .044 4.591 10.423 .185 10.423"/>
    <polygon id="icon_empty_backup-m" points=".093 .375 11.085 .375 11.085 4.406 .093 4.406"/>
    <polygon id="icon_empty_backup-o" points="0 .785 33.458 .785 33.458 53.706 0 53.706"/>
    <polygon id="icon_empty_backup-q" points=".216 .003 4.324 .003 4.324 4.409 .216 4.409"/>
    <polygon id="icon_empty_backup-s" points=".154 .067 4.324 .067 4.324 4.474 .154 4.474"/>
    <polygon id="icon_empty_backup-u" points="0 .639 58.969 .639 58.969 27.759 0 27.759"/>
    <polygon id="icon_empty_backup-w" points=".14 .516 115.272 .516 115.272 28.766 .14 28.766"/>
  </defs>
  <g fill="none" fill-rule="evenodd" transform="translate(1 16)">
    <g opacity=".5" transform="translate(427.2 140.6)">
      <path fill="#69A1AC" d="M64.1602729,40.1200265 C65.6731113,37.9629032 68.4805065,32.4845182 70.6097983,31.7137133 C71.981259,31.2172437 71.5813902,36.3528415 71.5983269,37.3320874 C71.6642834,41.1206352 71.2954549,44.8851608 70.8399813,48.6419004 C70.0194005,55.4171649 67.3361733,61.4510529 63.6559282,67.2175001 C61.7621521,70.184688 59.540903,73.1878545 56.4643691,75.0392376 C55.0482376,75.891837 53.3442757,76.0345904 51.9457568,76.7691741 C50.3169776,77.6243255 51.2040076,76.9330254 50.4699722,78.6302954 C49.4506087,80.9867279 49.1245582,84.0267771 48.6529147,86.5411744 C46.4873592,98.0836243 41.2445899,159.100025 42.1534851,170.840902 C42.2342095,171.881562 40.7831431,172.13042 40.710705,170.859992 C40.3256842,164.123826 43.6573574,117.475985 45.338243,102.220799 C47.0191286,86.9656132 48.7201081,73.4884198 50.425677,68.2106032 C52.4947864,61.8074899 56.2317163,54.1072518 59.3424494,48.1360716 C60.7873616,45.361996 62.3623443,42.6834858 64.1602729,40.1200265 Z"/>
      <path fill="#C1DEE2" d="M75.3890874,114.939996 C79.3257003,112.049891 83.586788,117.50438 80.0245589,120.394929 C78.0552743,121.992649 75.9965021,121.424296 74.8374695,120.092832 C74.0850725,121.009964 73.3808543,121.968915 72.7041922,122.778896 C70.6425754,125.24706 68.694036,127.774134 66.831797,130.360132 C62.9632833,135.732478 59.648037,141.408248 56.1817109,146.980231 C52.7609005,152.479476 49.367443,158.006887 46.2668664,163.64546 C43.6402379,168.422698 40.1392758,174.042736 39.24,179.28 C40.6044398,168.172669 45.7818707,157.496558 51.9472879,147.704595 C58.0625368,137.993072 65.0804953,127.387011 74.5491694,119.72289 C73.5854901,118.305735 73.5587382,116.282855 75.3890874,114.939996 Z"/>
      <path fill="#69A1AC" d="M0.688750777,87.8510765 C2.89167863,88.281897 6.4912379,93.2652629 8.30710736,95.1639641 C10.4651462,97.4203042 12.423023,99.8252415 14.2685522,102.345018 C18.2415988,107.768731 21.7947907,113.535265 24.8162125,119.548749 C29.741921,129.351932 33.6880541,139.41524 36.5519317,150.090357 C38.3050151,156.624982 39.440064,163.397867 40.1127551,170.123455 C40.2397956,171.39186 41.569632,181.171027 39.6534192,181.434602 C37.9299877,181.671936 38.4622914,174.009081 38.3791482,172.966743 C37.4393058,161.207232 34.6238044,149.765326 30.7074676,138.681397 C29.8544333,136.266868 29.0619343,133.309502 27.6977312,131.136659 C26.7153139,129.571595 27.690686,130.117383 25.9642167,129.525082 C24.4817677,129.016192 22.792728,129.140543 21.2746666,128.51762 C17.9768284,127.165198 15.3362059,124.539745 13.0215197,121.898847 C8.52327285,116.766495 4.95864107,111.214092 3.10054913,104.63774 C2.06980818,100.991368 1.12260986,97.3237856 0.596972956,93.5646597 C0.460999841,92.5930361 -0.730138422,87.5735883 0.688750777,87.8510765 Z"/>
      <path fill="#89C5CC" d="M9.38209066,4.93777147 C17.6800637,19.3285481 24.4989979,35.136439 28.902033,51.1474417 C31.5697467,60.8483349 33.4353589,70.8028766 35.2889933,80.6855105 C38.1590117,95.9875368 40.8737199,111.288383 41.6459259,126.862219 C42.4228146,142.526309 43.9590597,160.592997 38.8299004,175.68 C41.3919411,160.362593 38.9527044,144.058405 38.5208146,128.645935 C38.3144248,121.288271 37.7163456,114.002541 36.9317774,106.687872 C36.1704322,99.5922496 34.9266094,92.5304151 33.7683302,85.4905643 C33.2041109,82.0620297 32.6115536,78.6386537 32.0082479,75.2171502 C31.8281405,74.1963405 31.7520593,71.1672418 31.1045179,70.4698816 C30.4527827,69.7679298 27.1275438,69.481768 26.0835728,68.9667177 C23.9813739,67.9293433 22.003972,66.4558283 20.25392,64.8988709 C16.8990474,61.9142231 13.980477,58.014418 11.6769078,54.170097 C6.34704612,45.2749429 4.21617002,34.4196159 4.32387311,24.1178957 C4.34456687,22.1177671 7.56122327,0.579582474 6.26936233,0.282983855 C6.34714331,0.191890576 6.42071817,0.0978340248 6.49009309,0 C7.46814253,1.63756243 8.42789239,3.2862224 9.38209066,4.93777147 Z"/>
      <path fill="#89C5CC" d="M98.9446183,56.8394235 C99.072653,56.6547496 99.9059567,55.3703979 99.4863311,55.4524798 C100.340704,55.285358 98.3111951,56.8689831 100.44,55.897278 C99.4292287,56.8518866 100.012577,58.0919383 100.026068,59.3767369 C100.048079,61.4626791 99.6990698,63.531516 99.3062005,65.5727019 C98.6854056,68.7991938 97.7605886,71.9362869 96.4182336,74.9373119 C93.4925291,81.4772281 88.5245329,87.7730925 82.6265981,91.8618005 C79.7149509,93.8805598 76.861407,94.5678728 73.5406717,95.4972334 C71.4431546,96.0843713 71.2768182,97.1693854 70.163451,99.2047906 C67.8455043,103.444104 65.5688378,107.668169 63.5246146,112.050517 C61.0836764,117.283503 58.7141141,122.522256 56.4789292,127.847361 C48.9489919,145.784695 42.8203215,164.368041 39.601731,183.6 C39.5229264,172.266665 42.1447083,160.5943 45.4518326,149.791747 C47.8608737,141.921252 50.9969928,134.334333 54.3419701,126.824219 C55.1525258,125.004806 56.3808494,122.664423 56.7250661,120.655712 C56.9660867,119.248309 56.2292155,117.894801 55.8918351,116.412211 C54.5765396,110.638732 54.6706796,104.170575 55.8257046,98.3662255 C57.0992083,91.9658288 60.782122,88.9951876 67.0122462,88.0886127 C69.2907273,87.7569969 72.1867356,87.8785363 74.2759905,86.9070343 C76.5522025,85.8491004 77.4911743,82.3716853 78.7855117,80.139458 C82.2620581,74.1432242 86.3926984,68.3924698 91.1358145,63.3401454 C92.4491383,61.9410925 93.8614958,60.6503713 95.3598493,59.4540311 C96.30471,58.6992069 98.3007015,57.7692647 98.9446183,56.8394235 Z"/>
      <path fill="#C1DEE2" d="M29.0849232,171.36 L51.1950768,171.36 C52.1891894,171.36 52.9950768,172.165887 52.9950768,173.16 C52.9950768,173.247891 52.9886395,173.335664 52.9758165,173.422614 L51.2669024,185.010457 C50.7459456,188.542972 47.7146661,191.16 44.1439436,191.16 L36.1360564,191.16 C32.5653339,191.16 29.5340544,188.542972 29.0130976,185.010457 L27.3041835,173.422614 C27.1591457,172.439139 27.8388337,171.524298 28.822309,171.37926 C28.9092595,171.366437 28.9970323,171.36 29.0849232,171.36 Z"/>
    </g>
    <path fill="#E2E8FF" d="M528,356.2004 C528,375.2 409.803973,390.602 263.999455,390.602 C118.197116,390.602 0,375.2 0,356.2004 C0,337.202 118.197116,321.8 263.999455,321.8 C409.803973,321.8 528,337.202 528,356.2004"/>
    <g transform="translate(129.6 80.6)">
      <rect width="66.528" height="265.104" x="209.664" y="4.032" fill="#101E52"/>
      <rect width="5.04" height="265.104" x="276.192" y="4.032" fill="#3E59B8"/>
      <rect width="87.696" height="269.136" x="121.968" fill="#16286D"/>
      <rect width="83.664" height="226.8" x="121.968" y="4.032" fill="#233383"/>
      <rect width="85.68" height="273.168" x="36.288" fill="#3D58B7"/>
      <rect width="43.344" height="37.296" x="57.456" y="71.568" fill="#29449B" rx="5.04"/>
      <rect width="66.528" height="157.248" x="121.968" y="41.328" fill="#3E59B8"/>
      <rect width="4.032" height="226.8" x="205.632" y="4.032" fill="#152667"/>
      <rect width="49.392" height="37.296" x="121.968" y="4.032" fill="#2F439D"/>
      <g transform="translate(128.016 4.032)">
        <path fill="#5164D0" d="M0,0 L69.552,0 L69.552,5.04 C69.552,7.82351514 67.2955151,10.08 64.512,10.08 L5.04,10.08 C2.25648486,10.08 -5.47296129e-16,7.82351514 0,5.04 L0,0 L0,0 Z"/>
        <polygon fill="#FFF" points="13.104 7.056 58.464 7.056 56.448 10.08 11.088 10.08"/>
      </g>
      <g transform="translate(121.968 146.16)">
        <rect width="73.584" height="19.152" fill="#16286D"/>
        <rect width="6.048" height="19.152" fill="#071C57"/>
        <rect width="3.024" height="12.096" x="17.136" y="4.032" fill="#4052AA"/>
        <rect width="3.024" height="12.096" x="26.41" y="4.032" fill="#4052AA"/>
        <rect width="3.024" height="12.096" x="35.683" y="4.032" fill="#4052AA"/>
        <rect width="3.024" height="12.096" x="44.957" y="4.032" fill="#4052AA"/>
        <rect width="3.024" height="12.096" x="54.23" y="4.032" fill="#4052AA"/>
        <rect width="3.024" height="12.096" x="63.504" y="4.032" fill="#4052AA"/>
        <rect width="3.024" height="12.096" x="21.773" y="4.032" fill="#4052AA"/>
        <rect width="3.024" height="12.096" x="31.046" y="4.032" fill="#4052AA"/>
        <rect width="3.024" height="12.096" x="40.32" y="4.032" fill="#4052AA"/>
        <rect width="3.024" height="12.096" x="49.594" y="4.032" fill="#4052AA"/>
        <rect width="3.024" height="12.096" x="58.867" y="4.032" fill="#4052AA"/>
        <rect width="3.024" height="12.096" x="68.141" y="4.032" fill="#4052AA"/>
        <circle cx="9.072" cy="9.072" r="1.008" fill="#3AF9F0"/>
        <circle cx="9.072" cy="5.04" r="1.008" fill="#EF63BE"/>
      </g>
      <g transform="translate(121.968 172.368)">
        <rect width="73.584" height="19.152" fill="#16286D"/>
        <rect width="6.048" height="19.152" fill="#071C57"/>
        <rect width="3.024" height="12.096" x="17.136" y="4.032" fill="#4052AA"/>
        <rect width="3.024" height="12.096" x="26.41" y="4.032" fill="#4052AA"/>
        <rect width="3.024" height="12.096" x="35.683" y="4.032" fill="#4052AA"/>
        <rect width="3.024" height="12.096" x="44.957" y="4.032" fill="#4052AA"/>
        <rect width="3.024" height="12.096" x="54.23" y="4.032" fill="#4052AA"/>
        <rect width="3.024" height="12.096" x="63.504" y="4.032" fill="#4052AA"/>
        <rect width="3.024" height="12.096" x="21.773" y="4.032" fill="#4052AA"/>
        <rect width="3.024" height="12.096" x="31.046" y="4.032" fill="#4052AA"/>
        <rect width="3.024" height="12.096" x="40.32" y="4.032" fill="#4052AA"/>
        <rect width="3.024" height="12.096" x="49.594" y="4.032" fill="#4052AA"/>
        <rect width="3.024" height="12.096" x="58.867" y="4.032" fill="#4052AA"/>
        <rect width="3.024" height="12.096" x="68.141" y="4.032" fill="#4052AA"/>
        <circle cx="9.072" cy="9.072" r="1.008" fill="#3AF9F0"/>
        <circle cx="9.072" cy="5.04" r="1.008" fill="#EF63BE"/>
      </g>
      <g transform="translate(121.968 198.576)">
        <rect width="73.584" height="19.152" fill="#16286D"/>
        <rect width="6.048" height="19.152" fill="#071C57"/>
        <rect width="3.024" height="12.096" x="17.136" y="4.032" fill="#4052AA"/>
        <rect width="3.024" height="12.096" x="26.41" y="4.032" fill="#4052AA"/>
        <rect width="3.024" height="12.096" x="35.683" y="4.032" fill="#4052AA"/>
        <rect width="3.024" height="12.096" x="44.957" y="4.032" fill="#4052AA"/>
        <rect width="3.024" height="12.096" x="54.23" y="4.032" fill="#4052AA"/>
        <rect width="3.024" height="12.096" x="63.504" y="4.032" fill="#4052AA"/>
        <rect width="3.024" height="12.096" x="21.773" y="4.032" fill="#4052AA"/>
        <rect width="3.024" height="12.096" x="31.046" y="4.032" fill="#4052AA"/>
        <rect width="3.024" height="12.096" x="40.32" y="4.032" fill="#4052AA"/>
        <rect width="3.024" height="12.096" x="49.594" y="4.032" fill="#4052AA"/>
        <rect width="3.024" height="12.096" x="58.867" y="4.032" fill="#4052AA"/>
        <rect width="3.024" height="12.096" x="68.141" y="4.032" fill="#4052AA"/>
        <circle cx="9.072" cy="9.072" r="1.008" fill="#3AF9F0"/>
        <circle cx="9.072" cy="5.04" r="1.008" fill="#EF63BE"/>
      </g>
      <g transform="translate(121.968 93.744)">
        <rect width="73.584" height="19.152" fill="#16286D"/>
        <rect width="6.048" height="19.152" fill="#071C57"/>
        <rect width="3.024" height="12.096" x="17.136" y="4.032" fill="#4052AA"/>
        <rect width="3.024" height="12.096" x="26.41" y="4.032" fill="#4052AA"/>
        <rect width="3.024" height="12.096" x="35.683" y="4.032" fill="#4052AA"/>
        <rect width="3.024" height="12.096" x="44.957" y="4.032" fill="#4052AA"/>
        <rect width="3.024" height="12.096" x="54.23" y="4.032" fill="#4052AA"/>
        <rect width="3.024" height="12.096" x="63.504" y="4.032" fill="#4052AA"/>
        <rect width="3.024" height="12.096" x="21.773" y="4.032" fill="#4052AA"/>
        <rect width="3.024" height="12.096" x="31.046" y="4.032" fill="#4052AA"/>
        <rect width="3.024" height="12.096" x="40.32" y="4.032" fill="#4052AA"/>
        <rect width="3.024" height="12.096" x="49.594" y="4.032" fill="#4052AA"/>
        <rect width="3.024" height="12.096" x="58.867" y="4.032" fill="#4052AA"/>
        <rect width="3.024" height="12.096" x="68.141" y="4.032" fill="#4052AA"/>
        <circle cx="9.072" cy="9.072" r="1.008" fill="#3AF9F0"/>
        <circle cx="9.072" cy="5.04" r="1.008" fill="#EF63BE"/>
      </g>
      <g transform="translate(121.968 119.952)">
        <rect width="73.584" height="19.152" fill="#16286D"/>
        <rect width="6.048" height="19.152" fill="#071C57"/>
        <rect width="3.024" height="12.096" x="17.136" y="4.032" fill="#4052AA"/>
        <rect width="3.024" height="12.096" x="26.41" y="4.032" fill="#4052AA"/>
        <rect width="3.024" height="12.096" x="35.683" y="4.032" fill="#4052AA"/>
        <rect width="3.024" height="12.096" x="44.957" y="4.032" fill="#4052AA"/>
        <rect width="3.024" height="12.096" x="54.23" y="4.032" fill="#4052AA"/>
        <rect width="3.024" height="12.096" x="63.504" y="4.032" fill="#4052AA"/>
        <rect width="3.024" height="12.096" x="21.773" y="4.032" fill="#4052AA"/>
        <rect width="3.024" height="12.096" x="31.046" y="4.032" fill="#4052AA"/>
        <rect width="3.024" height="12.096" x="40.32" y="4.032" fill="#4052AA"/>
        <rect width="3.024" height="12.096" x="49.594" y="4.032" fill="#4052AA"/>
        <rect width="3.024" height="12.096" x="58.867" y="4.032" fill="#4052AA"/>
        <rect width="3.024" height="12.096" x="68.141" y="4.032" fill="#4052AA"/>
        <circle cx="9.072" cy="9.072" r="1.008" fill="#3AF9F0"/>
        <circle cx="9.072" cy="5.04" r="1.008" fill="#EF63BE"/>
      </g>
      <g transform="translate(121.968 67.536)">
        <rect width="73.584" height="19.152" fill="#16286D"/>
        <rect width="6.048" height="19.152" fill="#071C57"/>
        <rect width="3.024" height="12.096" x="17.136" y="4.032" fill="#4052AA"/>
        <rect width="3.024" height="12.096" x="26.41" y="4.032" fill="#4052AA"/>
        <rect width="3.024" height="12.096" x="35.683" y="4.032" fill="#4052AA"/>
        <rect width="3.024" height="12.096" x="44.957" y="4.032" fill="#4052AA"/>
        <rect width="3.024" height="12.096" x="54.23" y="4.032" fill="#4052AA"/>
        <rect width="3.024" height="12.096" x="63.504" y="4.032" fill="#4052AA"/>
        <rect width="3.024" height="12.096" x="21.773" y="4.032" fill="#4052AA"/>
        <rect width="3.024" height="12.096" x="31.046" y="4.032" fill="#4052AA"/>
        <rect width="3.024" height="12.096" x="40.32" y="4.032" fill="#4052AA"/>
        <rect width="3.024" height="12.096" x="49.594" y="4.032" fill="#4052AA"/>
        <rect width="3.024" height="12.096" x="58.867" y="4.032" fill="#4052AA"/>
        <rect width="3.024" height="12.096" x="68.141" y="4.032" fill="#4052AA"/>
        <circle cx="9.072" cy="9.072" r="1.008" fill="#3AF9F0"/>
        <circle cx="9.072" cy="5.04" r="1.008" fill="#EF63BE"/>
      </g>
      <g transform="translate(121.968 41.328)">
        <rect width="73.584" height="19.152" fill="#16286D"/>
        <rect width="6.048" height="19.152" fill="#071C57"/>
        <rect width="3.024" height="12.096" x="17.136" y="4.032" fill="#4052AA"/>
        <rect width="3.024" height="12.096" x="26.41" y="4.032" fill="#4052AA"/>
        <rect width="3.024" height="12.096" x="35.683" y="4.032" fill="#4052AA"/>
        <rect width="3.024" height="12.096" x="44.957" y="4.032" fill="#4052AA"/>
        <rect width="3.024" height="12.096" x="54.23" y="4.032" fill="#4052AA"/>
        <rect width="3.024" height="12.096" x="63.504" y="4.032" fill="#4052AA"/>
        <rect width="3.024" height="12.096" x="21.773" y="4.032" fill="#4052AA"/>
        <rect width="3.024" height="12.096" x="31.046" y="4.032" fill="#4052AA"/>
        <rect width="3.024" height="12.096" x="40.32" y="4.032" fill="#4052AA"/>
        <rect width="3.024" height="12.096" x="49.594" y="4.032" fill="#4052AA"/>
        <rect width="3.024" height="12.096" x="58.867" y="4.032" fill="#4052AA"/>
        <rect width="3.024" height="12.096" x="68.141" y="4.032" fill="#4052AA"/>
        <circle cx="9.072" cy="9.072" r="1.008" fill="#3AF9F0"/>
        <circle cx="9.072" cy="5.04" r="1.008" fill="#EF63BE"/>
      </g>
      <rect width="29.232" height="21.168" x="64.512" y="79.632" fill="#16286D" rx="2.016"/>
      <circle cx="65.016" cy="59.976" r="2.52" fill="#FFF"/>
      <circle cx="50.904" cy="133.56" r="2.52" fill="#FFF"/>
      <circle cx="89.208" cy="133.56" r="2.52" fill="#FFF"/>
      <circle cx="50.904" cy="144.648" r="2.52" fill="#FFF"/>
      <circle cx="89.208" cy="144.648" r="2.52" fill="#FFF"/>
      <circle cx="74.088" cy="59.976" r="2.52" fill="#3AF9F0"/>
      <circle cx="59.976" cy="133.56" r="2.52" fill="#3AF9F0"/>
      <circle cx="98.28" cy="133.56" r="2.52" fill="#3AF9F0"/>
      <circle cx="59.976" cy="144.648" r="2.52" fill="#3AF9F0"/>
      <circle cx="98.28" cy="144.648" r="2.52" fill="#3AF9F0"/>
      <circle cx="83.16" cy="59.976" r="2.52" fill="#EF63BE"/>
      <circle cx="69.048" cy="133.56" r="2.52" fill="#EF63BE"/>
      <circle cx="107.352" cy="133.56" r="2.52" fill="#EF63BE"/>
      <circle cx="69.048" cy="144.648" r="2.52" fill="#EF63BE"/>
      <circle cx="107.352" cy="144.648" r="2.52" fill="#EF63BE"/>
      <circle cx="92.232" cy="59.976" r="2.52" fill="#7185CD"/>
      <rect width="36.288" height="273.168" fill="#172778"/>
      <rect width="4.032" height="14.112" x="207.648" y="9.072" fill="#0B1743"/>
      <rect width="4.032" height="14.112" x="207.648" y="112.896" fill="#0B1743"/>
      <rect width="4.032" height="14.112" x="207.648" y="240.912" fill="#0B1743"/>
      <g stroke="#17296E" stroke-width="1.008" transform="translate(121.992 24.192)">
        <path d="M3.55271368e-15,-3.90798505e-14 L29.2123125,-3.90798505e-14 C37.0338281,0.945422 40.9445859,4.68133612 40.9445859,11.2077424 C40.9445859,17.7341486 40.9445859,19.3331017 40.9445859,16.0046017"/>
        <path d="M0 2.90070605L9.69658594 2.90070605C18.6881953 3.75966777 23.184 8.33960175 23.184 16.640508M-2.13162821e-13 2.90070605C8.04825 3.75966777 12.072375 8.33960175 12.072375 16.640508"/>
        <path d="M1.992375,-3.90798505e-14 L31.2046875,-3.90798505e-14 C39.0262031,0.945422 42.9369609,4.68133612 42.9369609,11.2077424 C42.9369609,17.7341486 42.9369609,19.3331017 42.9369609,16.0046017"/>
        <path d="M8.040375,-3.90798505e-14 L37.2526875,-3.90798505e-14 C45.0742031,0.945422 48.9849609,4.68133612 48.9849609,11.2077424 C48.9849609,17.7341486 48.9849609,19.3331017 48.9849609,16.0046017"/>
      </g>
      <g stroke="#17296E" stroke-width="1.008" transform="matrix(1 0 0 -1 120.96 226.8)">
        <path d="M0.984375,0 L30.470238,0 C38.364996,0.538686592 42.312375,2.66735173 42.312375,6.3859954 C42.312375,10.1046391 42.312375,11.0156974 42.312375,9.11917046"/>
        <path d="M.984375 1.008L10.6809609 1.008C19.6725703 1.51213152 24.168375 4.20013152 24.168375 9.072M.984375 1.008C9.048375 1.51213152 13.080375 4.20013152 13.080375 9.072"/>
        <path d="M3.000375,0 L32.486238,0 C40.380996,0.538686592 44.328375,2.66735173 44.328375,6.3859954 C44.328375,10.1046391 44.328375,11.0156974 44.328375,9.11917046"/>
        <path d="M9.048375,0 L38.534238,0 C46.428996,0.538686592 50.376375,2.66735173 50.376375,6.3859954 C50.376375,10.1046391 50.376375,11.0156974 50.376375,9.11917046"/>
      </g>
    </g>
    <path fill="#96A3C5" d="M107.955233,104.639213 C109.638404,104.909282 110.786706,106.499454 110.517657,108.190091 L106.35,134.409 L161.685443,142.963881 L165.45995,119.220606 C165.728999,117.529969 167.309931,116.376231 168.997407,116.647381 C170.681654,116.917451 171.829956,118.506541 171.560907,120.197178 L149.743711,257.487969 C149.737542,257.579119 149.727332,257.670776 149.712939,257.762747 C149.69783,257.858979 149.678469,257.953477 149.655078,258.046078 L140.785368,313.850019 C140.908998,314.27331 140.944238,314.729887 140.87274,315.194605 C140.799246,315.669768 140.621848,316.103087 140.367359,316.474755 L132.002929,369.103132 C132.018104,369.327922 132.008901,369.557844 131.973028,369.789757 C131.935713,370.031182 131.871612,370.261766 131.784236,370.47893 L122.579987,428.387885 C122.336767,429.913239 121.024883,431 119.533275,431 C119.371846,431 119.208264,430.987037 119.04253,430.96111 C117.358283,430.69212 116.211058,429.101949 116.480107,427.411312 L125.303443,371.890881 L69.975,363.286 L61.3397929,417.623118 C61.0965726,419.148472 59.7846893,420.236314 58.2930813,420.236314 C58.1316519,420.236314 57.9669939,420.22335 57.8023359,420.196343 C56.1180887,419.927354 54.9708635,418.337183 55.2388364,416.646546 L104.417776,107.213518 C104.685749,105.522881 106.266681,104.369143 107.955233,104.639213 Z M78.655,308.669 L70.948,357.163 L126.276443,365.765881 L133.985443,317.261881 L78.655,308.669 Z M87.801,251.122 L79.628,302.546 L134.958443,311.136881 L143.108443,259.857881 L87.801,251.122 Z M96.404,196.991 L88.774,244.998 L144.081443,253.734881 L151.724443,205.643881 L96.404,196.991 Z M105.377,140.533 L97.377,190.867 L152.697443,199.519881 L160.712443,149.087881 L105.377,140.533 Z"/>
    <g transform="translate(360 184.8)">
      <path fill="#30193B" d="M18.672192,187.086272 C18.349632,185.459072 21.097152,185.476352 22.721472,184.934912 C22.237632,185.257472 21.762432,185.715392 22.537152,185.925632 C23.666112,186.228032 26.128512,185.816192 26.842752,184.975232 C27.130752,185.585792 27.214272,186.441152 27.217155,187.028672 C27.222912,187.788992 18.960192,188.523392 18.672192,187.086272"/>
      <path fill="#FF97A6" d="M22.536288,185.924768 C21.761568,185.717408 22.236768,185.259488 22.720608,184.934048 C23.731488,184.597088 24.578208,184.358048 24.765408,184.268768 C25.255008,184.035488 25.384608,183.568928 25.384608,183.568928 L25.897248,183.447968 C25.897248,183.447968 26.761248,184.795808 26.841888,184.974368 C26.127648,185.815328 23.668128,186.227168 22.536288,185.924768"/>
      <g transform="translate(70.32 185.5)">
        <mask id="icon_empty_backup-b" fill="#fff">
          <use xlink:href="#icon_empty_backup-a"/>
        </mask>
        <path fill="#30193B" d="M8.078208,2.205792 C8.173248,0.457632 5.900928,0.650592 4.420608,0.103392 C4.855488,0.414432 5.275968,0.849312 4.558848,1.019232 C3.510528,1.261152 1.258368,0.808992 0.627648,0.011232 C0.345408,0.567072 0.238848,1.347552 0.218688,1.888992 C0.189888,2.585952 8.009088,3.550752 8.078208,2.205792" mask="url(#icon_empty_backup-b)"/>
      </g>
      <path fill="#FF97A6" d="M74.88,186.518048 C75.59712,186.348128 75.17664,185.913248 74.74176,185.602208 C73.82592,185.259488 73.0512,185.017568 72.88416,184.925408 C72.43776,184.697888 72.33408,184.263008 72.33408,184.263008 L71.86752,184.139168 C71.86752,184.139168 71.02944,185.351648 70.9488,185.510048 C71.57952,186.307808 73.83168,186.759968 74.88,186.518048"/>
      <path fill="#7F65C1" d="M27.919584,66.930656 C27.887904,67.212896 19.878624,76.938656 18.260064,84.495776 C13.378464,107.267936 25.385184,183.567776 25.385184,183.567776 L28.034784,182.712416 L37.751904,94.762976 L69.092064,184.486496 L72.841824,184.264736 C72.841824,184.264736 68.876064,143.642336 65.615904,120.418016 C63.686304,106.666016 61.546464,85.803296 49.303584,66.901856 C45.602784,66.034976 33.685344,66.556256 27.919584,66.930656"/>
      <path fill="#6B54B2" d="M70.832736,184.383392 L72.840096,184.265312 C72.840096,184.265312 68.874336,143.642912 65.614176,120.418592 C63.687456,106.666592 61.544736,85.803872 49.301856,66.902432 C47.524896,66.484832 43.852896,66.389792 39.875616,66.444512 C38.026656,66.470432 45.572256,89.804192 52.397856,114.638432 C61.455456,147.600032 70.832736,184.383392 70.832736,184.383392"/>
      <path fill="#F9CB9D" d="M27.241632,39.306272 C25.090272,46.497632 24.283872,49.443872 25.323552,59.224352 C25.625952,62.084192 51.534432,68.247392 52.096032,66.732512 C52.300512,66.185312 53.901792,61.911392 54.765792,59.644832 C58.910112,48.758432 60.309792,45.622112 59.416992,41.189792 C58.794912,38.105312 58.740192,34.591712 43.827552,30.611552 C39.150432,29.361632 35.392032,30.193952 33.698592,30.948512 C30.697632,32.279072 28.140192,36.302432 27.241632,39.306272"/>
      <path d="M52.126848,24.433664 C52.112448,24.430784 52.118208,24.407744 52.132608,24.410624"/>
      <path fill="#FFE5B0" d="M42.2352,30.266816 C42.2352,30.266816 38.10816,36.634496 36.31392,44.375936 C34.416,52.549376 34.85376,62.157056 35.11872,63.657536 C35.11872,63.657536 28.728,62.649536 25.88544,60.210176 C25.46496,59.847296 25.19712,59.354816 25.14816,58.798976 C24.8688,55.593536 24.00768,42.495296 27.8784,35.591936 C32.30784,27.686336 42.2352,30.266816 42.2352,30.266816"/>
      <path fill="#F9CB9D" d="M47.190816,60.11312 C48.089376,57.37424 50.969376,48.49232 50.969376,48.49232 C50.969376,48.49232 53.846496,31.50896 58.586976,38.6312 C61.841376,43.51856 56.864736,58.9928 51.816096,67.50032 C49.978656,70.60784 45.143136,66.3656 47.190816,60.11312"/>
      <path fill="#F9CB9D" d="M43.627392,60.11312 C43.627392,60.11312 21.966912,60.9512 20.728512,64.00112 C19.487232,67.04816 22.324032,70.50128 28.135872,72.1256 C30.655872,72.82832 46.657152,75.10064 51.423552,68.01296 C55.870272,61.40336 43.627392,60.11312 43.627392,60.11312"/>
      <path fill="#FF97A6" d="M42.910272,25.904768 C42.910272,25.904768 41.510592,30.178688 41.847552,30.720128 C42.181632,31.258688 43.564032,32.085248 44.554752,31.091648 C45.548352,30.100928 45.196992,26.178368 45.196992,26.178368 L42.910272,25.904768 Z"/>
      <path fill="#C95D77" d="M42.105888,28.680512 C42.932448,29.161472 44.792928,29.026112 45.279648,28.234112 C45.406368,27.436352 45.268128,27.882752 45.250848,27.197312 L42.604128,26.886272 C42.416928,27.502592 42.275808,27.954752 42.105888,28.680512"/>
      <polygon fill="#30193B" points="51.047 61.508 50.569 64.04 37.289 67.669 26.996 65.399 37.94 64.431"/>
      <polygon fill="#295A6E" points="4.193 57.787 37.403 64.549 51.048 61.508 5.135 52.819"/>
      <polygon fill="#3B2B5B" points="3.724 60.262 37.287 67.667 37.751 40.111 3.614 34.717"/>
      <polygon fill="#30193B" points="38.675 67.009 37.289 67.669 37.753 40.11 39.288 40.052"/>
      <polygon fill="#30193B" points="39.279 40.052 6.387 34.876 3.605 34.715 37.744 40.112"/>
      <path fill="#FF97A6" d="M19.240128,64.689152 C18.759168,64.000832 18.615168,63.004352 18.736128,62.425472 C18.819648,62.028032 19.061568,61.987712 19.061568,61.987712 C19.061568,61.987712 19.038528,61.466432 19.395648,61.503872 C19.617408,61.526912 20.029248,62.578112 20.547648,63.214592 C20.864448,63.606272 21.276288,63.954752 21.549888,64.167872 C21.549888,64.167872 21.374208,63.142592 21.693888,63.131072 C22.007808,63.119552 22.180608,64.378112 22.301568,64.988672 C22.411008,65.530112 19.865088,65.579072 19.240128,64.689152"/>
      <path fill="#FF97A6" d="M21.256704,63.929696 C20.767104,62.970656 20.369664,61.392416 20.130624,61.470176 C19.756224,61.596896 19.857024,62.201696 20.136384,63.034016 C20.418624,63.866336 21.256704,63.929696 21.256704,63.929696"/>
      <path fill="#FFE5B0" d="M39.675744,30.747776 C37.855584,32.392256 33.198624,36.588416 26.214624,36.107456 C19.898784,35.675456 12.992544,36.435776 8.085024,27.899456 C5.311584,23.078336 12.200544,25.255616 12.200544,25.255616 L28.014624,28.155776 C28.014624,28.155776 41.688864,28.924736 39.675744,30.747776"/>
      <path fill="#FFE5B0" d="M14.703552,34.342304 C9.240192,33.296864 -3.261888,12.353504 2.057472,5.859104 C4.036032,3.442784 6.040512,3.964064 6.040512,3.964064 L20.575872,27.830624 C20.575872,27.830624 20.860992,35.517344 14.703552,34.342304"/>
      <g transform="translate(0 .5)">
        <mask id="icon_empty_backup-d" fill="#fff">
          <use xlink:href="#icon_empty_backup-c"/>
        </mask>
        <path fill="#FFA9BA" d="M4.688352,4.539776 C4.498272,4.695296 4.239072,4.732736 4.043232,4.631936 C3.547872,4.375616 2.372832,3.767936 1.433952,3.289856 C1.433952,3.289856 -0.000288,2.543936 -0.000288,1.677056 C-0.000288,1.677056 0.192672,1.406336 0.532512,1.740416 C0.532512,1.740416 -0.178848,0.720896 0.071712,0.355136 C0.328032,-0.010624 0.826272,0.311936 0.826272,0.311936 C0.826272,0.311936 1.923552,1.190336 2.652192,1.481216 C3.239712,1.711616 3.429792,1.774976 3.668832,1.625216 C3.668832,1.625216 3.182112,0.864896 3.510432,0.761216 C3.838752,0.657536 4.892832,2.106176 4.869792,2.699456 C4.869792,2.699456 5.082912,3.324416 5.278752,3.595136 C5.411232,3.779456 5.033952,4.254656 4.688352,4.539776" mask="url(#icon_empty_backup-d)"/>
      </g>
      <path fill="#FCD9BB" d="M47.190816,60.11312 C47.640096,58.19504 48.193056,56.3144 48.754656,54.43376 C49.313376,52.556 49.935456,50.69552 50.569056,48.84368 C51.228576,47.00048 51.842016,45.13424 52.634016,43.31984 C53.028576,42.41552 53.434656,41.51984 53.883936,40.64144 C54.120096,40.20656 54.362016,39.77456 54.624096,39.35408 C54.889056,38.94224 55.154016,38.49872 55.565856,38.2136 C54.952416,38.97104 54.655776,39.92432 54.295776,40.82864 C53.944416,41.73584 53.607456,42.65168 53.296416,43.57616 L51.461856,49.1432 C50.819616,50.99792 50.168736,52.84688 49.451616,54.6728 C48.740256,56.5016 48.017376,58.32464 47.190816,60.11312"/>
      <path fill="#FFCB48" d="M40.25808,15.53504 C40.25808,15.53504 39.34224,21.70112 39.65328,23.72864 C39.96432,25.75904 44.2152,18.30848 44.2152,18.30848 L40.25808,15.53504 Z"/>
      <path fill="#FF97A6" d="M46.574784,26.928608 C47.335104,26.338208 48.553344,23.040608 48.553344,23.040608 C48.901824,20.480288 43.559424,19.080608 42.568704,19.221728 C41.480064,19.377248 40.901184,20.560928 40.449024,21.430688 C39.999744,22.300448 39.507264,24.016928 39.691584,25.013408 C39.861504,25.920608 40.999104,27.202208 41.819904,27.573728 C44.270784,28.679648 45.258624,28.385888 46.574784,26.928608"/>
      <path fill="#FFCB48" d="M51.662592,17.2393909 C51.815232,17.230784 54.326592,18.915584 53.356032,20.986304 C52.385472,23.059904 46.547712,27.089024 46.547712,27.089024 C46.547712,27.089024 49.047552,22.164224 46.239552,20.277824 C44.641152,19.200704 51.662592,17.2393909 51.662592,17.2393909"/>
      <path fill="#FFCB48" d="M46.240128,20.27696 C46.240128,20.27696 39.089088,20.38928 37.453248,14.24912 C35.817408,8.11184 40.074048,5.6696 40.074048,5.6696 C40.074048,5.6696 39.518208,9.33872 40.796928,10.89104 C40.796928,10.89104 41.623488,8.74256 42.369408,8.41136 C42.369408,8.41136 42.205248,11.2136 43.642368,12.4808 C45.079488,13.75088 52.115328,13.01648 52.345728,16.78064 C52.573248,20.55056 46.240128,20.27696 46.240128,20.27696"/>
      <path fill="#FFE5B0" d="M37.453824,14.249696 C37.347264,13.863776 37.226304,13.477856 37.134144,13.089056 C37.079424,12.688736 36.981504,12.291296 36.967104,11.885216 C36.895104,11.073056 36.944064,10.246496 37.128384,9.440096 C37.327104,8.639456 37.664064,7.864736 38.124864,7.167776 C38.594304,6.470816 39.147264,5.851616 39.896064,5.356256 C40.054464,5.252576 40.273344,5.295776 40.379904,5.457056 C40.425984,5.529056 40.443264,5.609696 40.434624,5.690336 L40.428864,5.724896 C40.328064,6.577376 40.293504,7.470176 40.377024,8.328416 C40.449024,9.178016 40.647744,10.047776 41.114304,10.632416 L40.414464,10.744736 C40.604544,10.258016 40.809024,9.797216 41.059584,9.336416 C41.189184,9.111776 41.330304,8.887136 41.494464,8.665376 C41.670144,8.446496 41.842944,8.216096 42.202944,8.037536 C42.401664,7.939616 42.637824,8.020256 42.735744,8.216096 C42.767424,8.276576 42.781824,8.339936 42.778944,8.406176 L42.778944,8.434976 C42.738624,9.566816 42.908544,10.819616 43.493184,11.741216 C43.798464,12.222176 44.184384,12.441056 44.769024,12.605216 C45.321984,12.780896 45.926784,12.898976 46.525824,13.022816 C47.723904,13.282016 48.965184,13.483616 50.120064,14.002016 C50.704704,14.243936 51.243264,14.609696 51.683904,15.061856 C52.127424,15.537056 52.314624,16.170656 52.346304,16.781216 C52.233984,16.173536 51.980544,15.611936 51.539904,15.205856 C51.081984,14.822816 50.560704,14.531936 49.984704,14.353376 C48.849984,13.955936 47.634624,13.800416 46.422144,13.618976 C45.814464,13.526816 45.201024,13.449056 44.576064,13.287776 C44.262144,13.207136 43.945344,13.109216 43.625664,12.904736 C43.274304,12.711776 43.087104,12.432416 42.871104,12.158816 C42.122304,10.995296 41.952384,9.687776 41.961024,8.388896 L42.537024,8.786336 C42.444864,8.826656 42.286464,8.987936 42.162624,9.163616 C42.033024,9.342176 41.912064,9.540896 41.799744,9.751136 C41.572224,10.160096 41.356224,10.603616 41.180544,11.041376 L41.169024,11.064416 C41.088384,11.268896 40.855104,11.366816 40.647744,11.286176 C40.581504,11.257376 40.521024,11.208416 40.480704,11.153696 C39.838464,10.295456 39.682944,9.313376 39.605184,8.391776 C39.541824,7.455776 39.590784,6.542816 39.717504,5.615456 L40.253184,5.981216 C39.651264,6.352736 39.060864,6.899936 38.611584,7.510496 C38.153664,8.123936 37.799424,8.820896 37.569024,9.561056 C37.370304,10.309856 37.214784,11.081696 37.223424,11.876576 C37.206144,12.668576 37.318464,13.460576 37.453824,14.249696"/>
    </g>
    <g transform="translate(182.4)">
      <path fill="#FFCB48" d="M16.80868,15.45968 C16.889568,18.60752 18.548448,29.53136 37.527648,30.78128 C37.527648,30.78128 52.552608,30.58544 56.524128,22.49552 C56.786208,21.9656 56.429088,21.32624 55.841568,21.26864 C53.799648,21.06416 49.606368,19.80272 47.351328,13.1384 C44.298528,4.11536 42.305568,-4.26256 33.547488,3.26864 C33.547488,3.26864 28.576608,-0.14416 25.238688,7.22288 C22.108128,14.132 21.267168,15.72176 17.595168,14.8232 C17.189088,14.7224 16.797408,15.0392 16.80868,15.45968"/>
      <path fill="#FCD98B" d="M41.690976,1.146944 C41.042976,0.746624 40.314336,0.484544 39.577056,0.493184 C38.836896,0.490304 38.119776,0.706304 37.445856,1.005824 C36.098016,1.610624 34.911456,2.558144 33.802656,3.563264 L33.595296,3.744704 L33.327456,3.589184 C32.567136,3.145664 31.616736,2.886464 30.726816,2.923904 C29.828256,2.955584 28.970016,3.301184 28.244256,3.854144 C27.535776,4.438784 26.928096,5.164544 26.426976,5.973824 C25.931616,6.783104 25.537056,7.670144 25.105056,8.577344 C24.232416,10.360064 23.414496,12.197504 22.112736,13.807424 C21.790176,14.210624 21.381216,14.561984 20.926176,14.844224 C20.450976,15.100544 19.912416,15.209984 19.394016,15.218624 C18.875616,15.195584 18.371616,15.126464 17.887776,14.982464 C17.637216,14.924864 17.421216,14.818304 17.202336,14.907584 C16.986336,14.988224 16.816416,15.207104 16.807776,15.460544 C16.784736,15.209984 16.917216,14.942144 17.159136,14.815424 C17.406816,14.665664 17.706336,14.766464 17.928096,14.795264 C18.414816,14.887424 18.904416,14.901824 19.379616,14.875904 C19.851936,14.818304 20.286816,14.662784 20.675616,14.423744 C21.047136,14.158784 21.384096,13.833344 21.660576,13.444544 C22.227936,12.681344 22.662816,11.794304 23.080416,10.910144 C23.503776,10.020224 23.906976,9.118784 24.307296,8.211584 C25.070496,6.425984 25.974816,4.438784 27.682656,3.116864 C28.538016,2.477504 29.609376,2.039744 30.706656,2.042624 C31.798176,2.048384 32.837856,2.345024 33.768096,2.944064 L33.292896,2.972864 C34.502496,2.013824 35.786976,1.103744 37.264416,0.547904 C38.001696,0.277184 38.805216,0.141824 39.591456,0.222464 C40.383456,0.285824 41.114976,0.654464 41.690976,1.146944"/>
      <path fill="#30193B" d="M23.165088,53.884064 C23.165088,53.884064 16.307808,62.149664 12.088608,71.247584 C10.219488,75.276704 7.618848,83.078624 10.346208,87.836384 C12.336288,91.312544 19.455648,93.558944 19.455648,93.558944 L37.069728,83.406944 L39.247008,58.434464 L23.165088,53.884064 Z"/>
      <path fill="#FFE5B0" d="M1.711392,50.469824 C1.832352,51.235904 4.663392,63.392384 16.315872,66.468224 L18.976992,58.467584 L9.519072,49.559744 L1.711392,50.469824 Z"/>
      <path fill="#30193B" d="M24.50112,161.509952 C25.04256,160.683392 25.55232,155.669312 23.1504,153.394112 C23.44992,153.831872 23.856,156.006272 23.19648,156.132992 C22.23168,156.311552 21.15168,154.145792 20.8032,153.085952 C20.42304,153.739712 20.20128,154.615232 20.23296,155.300672 C20.3712,158.517632 23.23104,163.448192 24.50112,161.509952"/>
      <path fill="#FF97A6" d="M21.14016,151.1264 C21.15456,152.08256 21.1632,152.60096 21.15744,152.60672 C21.03072,152.73056 20.91264,152.89472 20.8032,153.08768 C20.67936,154.37792 21.91776,157.37024 23.44992,157.06784 C24.20448,156.91808 24.53856,155.48384 23.59104,154.0496 C22.8912,152.99264 22.55136,152.5232 22.42752,152.3936 C22.55424,152.03072 22.69536,151.63904 22.85088,151.20992 C23.9568,148.16 21.10272,148.74752 21.14016,151.1264"/>
      <path fill="#30193B" d="M42.785088 55.453376C42.785088 55.453376 51.330048 66.616256 55.627008 74.985536 57.651648 78.936896 57.617088 85.163456 55.972608 90.655616 54.826368 94.491776 47.154048 98.103296 47.154048 98.103296L28.987008 84.086336 26.703168 57.881216 42.785088 55.453376zM39.570432 161.240096C39.129792 160.355936 39.210432 155.315936 41.865792 153.340256 41.517312 153.740576 40.857792 155.851616 41.500032 156.053216 42.436032 156.346976 43.760832 154.322336 44.233152 153.308576 44.535552 154.002656 44.653632 154.901216 44.544192 155.575136 44.022912 158.754656 40.604352 163.313696 39.570432 161.240096"/>
      <path fill="#FF97A6" d="M44.129472,151.323104 C44.002752,152.270624 43.933632,152.783264 43.939392,152.791904 C44.048832,152.930144 44.146752,153.105824 44.233152,153.307424 C44.204352,154.606304 42.623232,157.431584 41.140032,156.950624 C40.402752,156.714464 40.241472,155.251424 41.353152,153.935264 C42.168192,152.973344 42.562752,152.544224 42.700992,152.431904 C42.620352,152.057504 42.522432,151.645664 42.418752,151.205024 C41.681472,148.045664 44.443392,148.967264 44.129472,151.323104"/>
      <path fill="#FFE5B0" d="M16.3167345,24.605984 C19.150656,22.114784 27.672576,19.168544 43.296576,21.581984 C44.848896,21.821024 46.360896,22.284704 47.893056,23.027744 C47.098176,28.266464 46.686336,30.383264 46.686336,30.383264 C45.240576,33.807584 47.049216,42.433184 46.435776,45.892064 C45.646656,50.344544 45.108096,60.133664 45.108096,60.133664 C45.108096,60.133664 34.616256,61.469984 29.489856,61.559264 C25.279296,61.631264 17.033856,60.127904 16.835136,57.628064 C16.434816,52.660064 17.244096,46.223264 16.809216,39.049184 C16.310976,30.829664 16.3167345,24.605984 16.3167345,24.605984"/>
      <g transform="translate(0 159.068)">
        <mask id="icon_empty_backup-f" fill="#fff">
          <use xlink:href="#icon_empty_backup-e"/>
        </mask>
        <path fill="#3B2B5B" mask="url(#icon_empty_backup-f)"/>
      </g>
      <path fill="#F9CB9D" d="M47.735232,22.95488 C51.798912,26.18912 52.562112,27.97184 54.390912,30.96128 C58.114752,37.04384 62.979072,55.56512 63.684672,58.80512 C65.018112,64.92512 52.726272,52.90112 52.726272,52.90112 C52.726272,52.90112 53.509632,47.7488 49.457472,40.09664 C48.489792,38.26784 45.434112,31.8944 45.434112,31.8944 C45.434112,31.8944 46.519872,28.11296 47.735232,22.95488"/>
      <g transform="translate(1.68 22.028)">
        <mask id="icon_empty_backup-h" fill="#fff">
          <use xlink:href="#icon_empty_backup-g"/>
        </mask>
        <path fill="#FFE5B0" d="M17.288928,0.926592 C12.634848,3.230592 11.511648,4.814592 9.092448,7.346112 C4.170528,12.507072 0.175968,23.937792 0.011808,27.249792 C-0.376992,35.215872 8.657568,29.605632 8.657568,29.605632 C8.657568,29.605632 9.173088,25.432512 12.971808,17.621952 C13.876128,15.758592 16.640928,8.665152 16.640928,8.665152 C16.640928,8.665152 17.386848,6.222912 17.288928,0.926592" mask="url(#icon_empty_backup-h)"/>
      </g>
      <path fill="#F9CB9D" d="M33.214272,20.699264 C33.214272,20.699264 35.714112,20.765504 36.811392,20.843264 C38.818752,20.987264 40.978752,21.226304 43.297152,21.583424 C44.849472,21.822464 46.358592,22.286144 47.893632,23.029184 C47.095872,28.267904 47.064192,32.550464 47.064192,32.550464 C47.064192,36.461504 47.049792,42.434624 46.436352,45.890624 C45.644352,50.343104 45.108672,60.132224 45.108672,60.132224 C45.108672,60.132224 38.703552,61.529024 36.534912,61.710464 C34.786752,61.860224 29.038272,61.770944 29.038272,61.770944 C29.038272,61.770944 33.294912,60.333824 33.027072,49.836224 C32.730432,38.281664 33.214272,20.699264 33.214272,20.699264"/>
      <path fill="#FF97A6" d="M35.064672,16.550912 C35.064672,16.550912 35.254752,22.256192 34.776672,22.837952 C34.301472,23.413952 32.720352,24.056192 32.017632,22.549952 C31.317792,21.043712 32.746272,16.254272 32.746272,16.254272 L35.064672,16.550912 Z"/>
      <path fill="#C95D77" d="M35.076192,20.696672 C34.131552,21.065312 32.872992,20.192672 32.132832,18.787232 C32.230752,17.761952 32.207712,18.358112 32.412192,17.514272 L35.024352,16.221152 C35.038752,17.039072 35.110752,19.746272 35.076192,20.696672"/>
      <path fill="#F9CB9D" d="M31.968384,19.712288 C31.968384,19.712288 31.703424,21.535328 33.304704,23.369888 L31.559424,25.149728 C31.559424,25.149728 29.765184,23.384288 31.968384,19.712288"/>
      <path fill="#FFE5B0" d="M35.084544,20.111456 C35.084544,20.111456 35.372544,21.753056 33.175104,23.348576 L34.456704,25.620896 C34.456704,25.620896 37.518144,23.374496 35.084544,20.111456"/>
      <path fill="#FF97A6" d="M30.460704,14.753792 C30.221664,14.079872 30.570144,12.000512 30.763104,10.978112 C30.846624,10.557632 31.071264,10.163072 31.439904,9.941312 C33.409824,8.737472 37.274784,9.800192 37.960224,10.390592 C38.792544,11.104832 38.645664,12.415232 38.562144,13.394432 C38.472864,14.370752 37.243104,19.171712 34.101024,18.647552 C30.679584,18.068672 30.786144,16.694912 30.460704,14.753792"/>
      <path fill="#AACBE8" d="M63.55824,70.567904 L13.34544,70.544864 L13.70832,42.787424 C13.73712,40.650464 15.49392,38.942624 17.63088,38.9682528 L60.08784,39.527264 C62.2248,39.553184 63.93552,41.309984 63.9070784,43.444064 L63.55824,70.567904 Z"/>
      <path fill="#D5EAF5" d="M42.785088,53.546528 C42.762048,55.225568 41.385408,56.567648 39.709248,56.544608 C38.030208,56.524448 36.688128,55.147808 36.711168,53.468768 C36.728448,51.789728 38.107968,50.447648 39.787008,50.470688 C41.466048,50.490848 42.808128,51.870368 42.785088,53.546528"/>
      <mask id="icon_empty_backup-j" fill="#fff">
        <use xlink:href="#icon_empty_backup-i"/>
      </mask>
      <polygon fill="#D5EAF5" points="15.118 71.928 61.126 71.928 61.126 70.566 15.118 70.566" mask="url(#icon_empty_backup-j)"/>
      <polygon fill="#AACBE8" points="13.655 73.719 63.56 73.719 63.56 71.928 13.655 71.928" mask="url(#icon_empty_backup-j)"/>
      <path fill="#3B2B5B" d="M23.53632 152.245568L20.04864 152.245568C20.04864 152.245568 7.57536 91.169408 20.04576 76.824128 22.56864 73.923968 30.16032 71.608448 33.45504 78.099968 37.32288 85.706048 23.53632 152.245568 23.53632 152.245568M41.617824 152.152832L45.079584 152.564672C45.079584 152.564672 64.649184 93.377792 53.949984 77.664512 51.787104 74.487872 44.520864 71.296832 40.483104 77.353472 35.751264 84.455552 41.617824 152.152832 41.617824 152.152832" mask="url(#icon_empty_backup-j)"/>
    </g>
    <g transform="translate(81.6 191)">
      <path fill="#90B8D6" d="M46.1781907,25.9257888 C46.1781907,25.9257888 51.7478803,29.684448 66.9587731,30.3806592 C66.9587731,30.3806592 78.5167603,5.0174208 85.2144883,6.440688 C98.4513139,9.2519712 86.9682355,22.8148704 86.9682355,22.8148704 C86.9682355,22.8148704 76.2210259,38.5589376 64.0329235,37.6291872 C48.3329203,36.42624 42.4371571,31.5175104 42.3754675,30.6009792 C42.0582067,25.983072 46.1781907,25.9257888 46.1781907,25.9257888"/>
      <g transform="translate(88.128 .692)">
        <mask id="icon_empty_backup-l" fill="#fff">
          <use xlink:href="#icon_empty_backup-k"/>
        </mask>
        <path fill="#FF97A6" d="M1.75683168,10.3559213 C1.75683168,10.3559213 0.37322208,6.34169088 0.61557408,4.81267008 C0.94605408,2.70641088 2.98621728,-0.58516992 3.21975648,0.14629248 C3.42685728,0.80725248 2.85843168,4.58353728 3.29466528,5.18280768 C4.04815968,6.21390528 5.43617568,11.0477261 1.75683168,10.3559213" mask="url(#icon_empty_backup-l)"/>
      </g>
      <path fill="#3B2B5B" d="M14.3604576,175.48914 C13.8537216,174.471261 11.2098816,173.532698 9.1124352,172.898176 C9.738144,173.290346 10.3594464,173.854365 9.3768192,174.136375 C7.9359264,174.554983 4.7677248,174.10553 3.8291616,173.06562 C3.481056,173.845552 3.3973344,174.92512 3.4105536,175.665396 C3.4237728,176.617178 15.180048,177.14154 14.3604576,175.48914"/>
      <path fill="#FF97A6" d="M9.37770048,174.138137 C10.3603277,173.856128 9.73902528,173.292108 9.10891008,172.899939 C7.81342848,172.503363 6.71623488,172.22576 6.47388288,172.120006 C5.83936128,171.842403 5.65869888,171.256352 5.65869888,171.256352 L5.00214528,171.119753 C5.00214528,171.119753 3.93579648,172.842656 3.83004288,173.067382 C4.76860608,174.107292 7.93680768,174.552339 9.37770048,174.138137"/>
      <g transform="translate(20.542 172.541)">
        <mask id="icon_empty_backup-n" fill="#fff">
          <use xlink:href="#icon_empty_backup-m"/>
        </mask>
        <path fill="#3B2B5B" d="M11.0443565,3.33740736 C10.5376205,2.31952896 7.89378048,1.38096576 5.79633408,0.75085056 C6.42204288,1.13861376 7.04334528,1.70263296 6.05631168,1.98904896 C4.61982528,2.40325056 1.45162368,1.95379776 0.51306048,0.91829376 C0.16495488,1.69382016 0.08123328,2.77338816 0.09445248,3.51366336 C0.10767168,4.46544576 11.8639469,4.98980736 11.0443565,3.33740736" mask="url(#icon_empty_backup-n)"/>
      </g>
      <path fill="#FF97A6" d="M26.598793,174.529866 C27.5858266,174.247857 26.9645242,173.683837 26.334409,173.291668 C25.0389274,172.895092 23.9417338,172.617489 23.6993818,172.511735 C23.0648602,172.234132 22.8841978,171.648081 22.8841978,171.648081 L22.2276442,171.511482 C22.2276442,171.511482 21.1612954,173.234385 21.0555418,173.459111 C21.994105,174.494615 25.1623066,174.944068 26.598793,174.529866"/>
      <path fill="#FF97A6" d="M14.1586445,59.081305 C14.1233933,59.3985658 12.3960845,66.8982586 6.73386048,73.490233 C-6.44568192,88.8200986 4.76419968,171.942428 4.76419968,171.942428 L5.80411008,171.968867 L24.4519949,85.9955962 L27.3778445,112.751257 L21.9006893,172.722361 L22.9053485,172.51526 C22.9053485,172.51526 43.8974381,123.639471 44.4614573,110.473148 C46.7483789,57.1160506 38.6450093,63.5890522 37.9267661,59.2839994 C35.1727661,60.5221978 19.4595437,61.5841402 14.1586445,59.081305"/>
      <path fill="#6B54B2" d="M47.7486317,27.8491824 C43.0690349,25.2097488 33.6393389,20.5830288 27.0077069,28.2105072 C23.6279981,32.096952 20.2526957,49.9516848 20.2526957,49.9516848 C20.2526957,49.9516848 20.4686093,50.0882832 20.2526957,49.9516848 C14.9782349,53.7632208 8.35100928,57.1958064 5.69395008,64.46196 C0.48558528,78.694632 0.74556288,96.9767856 0.74556288,96.9767856 C7.46532288,99.9202608 14.0837357,101.594693 19.9839053,102.374626 C23.8923821,102.885768 27.1663373,103.463006 30.4579181,103.392504 C40.8349901,103.172184 43.3157933,102.480379 45.0651341,102.017707 C48.5417837,69.441192 42.2626637,61.4523888 41.6105165,57.5395056 C43.4347661,55.164456 56.7068429,32.9033232 47.7486317,27.8491824"/>
      <path fill="#90B8D6" d="M48.6823478,27.2380147 C39.0631766,21.8093299 32.2905398,21.5669779 26.8706678,27.8064403 C23.4424886,31.7457619 20.252255,49.8384403 20.252255,49.8384403 C20.252255,49.8384403 20.472575,49.9794451 20.252255,49.8384403 C20.252255,49.8384403 24.3237686,53.3547475 27.0337046,54.5797267 C30.7218614,56.2409395 37.1992694,57.6289555 41.6144822,57.5364211 C43.4607638,55.1305267 57.7639382,32.3626579 48.6823478,27.2380147"/>
      <path fill="#AACBE8" d="M41.6210918,24.0861168 C34.760327,21.8873232 30.9355718,23.1255216 26.8684646,27.8095248 C23.4446918,31.74444 20.2500518,49.8415248 20.2500518,49.8415248 C20.2500518,49.8415248 20.4703718,49.9781232 20.2500518,49.8415248 C20.2500518,49.8415248 20.6995046,50.559768 22.7264486,52.278264 C27.2518214,56.1074256 33.4560326,56.5877232 33.4560326,56.5877232 C33.4560326,56.5877232 36.1615622,54.8736336 39.7527782,46.5543504 C42.8416646,39.3939504 42.6786278,24.4254096 41.6210918,24.0861168"/>
      <path fill="#FF97A6" d="M42.6019565,18.0616867 C42.6019565,18.0616867 39.0680237,25.0590499 39.1429325,26.0196451 C39.2134349,26.9802403 40.2092813,28.5753571 41.7030509,27.0551491 C43.2012269,25.5349411 44.7875309,18.8636515 44.7875309,18.8636515 L42.6019565,18.0616867 Z"/>
      <path fill="#C95D77" d="M43.574449,15.369817 C43.574449,15.369817 40.3181194,22.4112442 40.027297,23.477593 C39.7805386,24.4073434 41.1773674,25.8878938 42.6755434,24.3632794 C44.169313,22.8430714 45.755617,16.1717818 45.755617,16.1717818 L43.574449,15.369817 Z"/>
      <path fill="#FF5E4D" d="M49.8870576,16.9191072 C49.5257328,17.6417568 48.41532,13.6936224 46.917144,12.7065888 C46.917144,12.7065888 39.1971312,15.9937632 39.2852592,17.2495872 C39.2852592,17.2495872 40.1841648,15.7954752 41.0037552,13.3322976 C41.0037552,13.3322976 39.1354416,17.7783552 39.8360592,19.1223072 C39.8360592,19.1223072 33.10308,20.5279488 34.0548624,13.3631424 C34.0548624,13.3631424 31.0673232,14.0329152 30.0053808,10.8514944 C28.9434384,7.6612608 29.68812,2.4440832 36.1258704,1.4438304 C42.5636208,0.4435776 43.8238512,5.7621024 42.9910416,7.6171968 C42.9910416,7.6171968 56.1177072,4.4489952 49.8870576,16.9191072"/>
      <path fill="#FF97A6" d="M49.7108016,18.8169437 C49.9884048,18.1780157 49.8650256,15.8117789 49.6975824,13.8333053 C49.560984,12.1941245 48.0980592,10.9911773 46.4588784,11.1674333 C43.9251984,11.4450365 41.1315408,11.8988957 40.4000784,12.4408829 C39.250008,13.2869117 39.316104,15.0054077 39.3337296,16.2832637 C39.3513552,17.5567133 39.844872,19.8304157 40.6644624,20.8615133 C41.4179568,21.8044829 43.5109968,22.5711965 44.6654736,22.4874749 C48.150936,22.2539357 49.098312,21.3021533 49.7108016,18.8169437"/>
      <g transform="translate(0 49.162)">
        <mask id="icon_empty_backup-p" fill="#fff">
          <use xlink:href="#icon_empty_backup-o"/>
        </mask>
        <path fill="#7F65C1" d="M33.4577952,7.42566528 L19.93896,0.78522048 C19.93896,0.78522048 20.1548736,0.92181888 19.93896,0.78522048 C14.5499328,4.59235008 7.7640768,8.02493568 5.0497344,15.2866829 C-0.2687904,29.5149485 -8.67361738e-19,47.8015085 -8.67361738e-19,47.8015085 C6.8827968,50.7493901 13.65984,52.4238221 19.6922016,53.2037549 C21.0053088,53.3756045 23.4464544,53.7060845 23.4464544,53.7060845 C23.4464544,53.7060845 29.0910528,41.8925261 30.976992,25.5932525 C32.9863104,8.24966208 33.4577952,7.42566528 33.4577952,7.42566528" mask="url(#icon_empty_backup-p)"/>
      </g>
      <path fill="#F97D73" d="M36.1258704,1.44294912 C37.0644336,1.42532352 37.9985904,1.37685312 38.8842768,1.61920512 C39.7611504,1.83952512 40.6071792,2.19644352 41.2505136,2.79571392 C41.9070672,3.37735872 42.3477072,4.16169792 42.5900592,4.98569472 C42.8368176,5.80087872 42.8676624,6.73944192 42.5856528,7.43124672 L42.2595792,8.22880512 L43.0967952,8.05254912 C44.4010896,7.77494592 45.793512,7.66478592 47.1198384,7.75291392 C48.4285392,7.86307392 49.7901168,8.22439872 50.5392048,9.21143232 C51.3103248,10.1808403 51.3587952,11.6261395 51.1120368,12.9480595 C50.8696848,14.2964179 50.3982,15.6139315 49.8870576,16.9182259 C50.6008944,15.7152787 51.2310096,14.4418291 51.6143664,13.0582195 C51.7685904,12.3620083 51.918408,11.6437651 51.874344,10.8990835 C51.8346864,10.1588083 51.6452112,9.37446912 51.1825392,8.73554112 C50.72868,8.08780032 50.0633136,7.61631552 49.362696,7.33430592 C48.6620784,7.04348352 47.9262096,6.91129152 47.1991536,6.84519552 C45.7362288,6.71300352 44.3085552,6.86722752 42.885288,7.18008192 L43.3964304,7.79697792 C43.8018192,6.73503552 43.6608144,5.69953152 43.3567728,4.74774912 C43.0306992,3.79156032 42.4314288,2.93671872 41.6426832,2.32422912 C40.858344,1.71173952 39.9021552,1.35482112 38.9503728,1.25347392 C37.994184,1.11687552 37.0424016,1.25788032 36.1258704,1.44294912"/>
      <polygon fill="#FF97A6" points="87.432 62.104 91.398 63.47 92.491 60.289 87.868 59.817"/>
      <path fill="#FF97A6" d="M89.8892381,62.715263 C90.0082109,63.0413366 93.2292893,64.191407 93.5906141,63.8433014 C93.9475325,63.4951958 90.6251069,62.2702166 90.6251069,62.2702166 L89.8892381,62.715263 Z"/>
      <path fill="#FF97A6" d="M90.8013629,62.7064502 C90.9511805,63.0193046 94.2691997,63.8477078 94.5908669,63.464351 C94.9169405,63.0809942 91.6121405,61.6885718 91.6121405,61.6885718 L90.8013629,62.7064502 Z"/>
      <g transform="translate(91.044 58.975)">
        <mask id="icon_empty_backup-r" fill="#fff">
          <use xlink:href="#icon_empty_backup-q"/>
        </mask>
        <path fill="#FF97A6" d="M0.58796928,1.71125792 C0.69372288,2.04173792 3.83989248,3.37247072 4.21884288,3.04639712 C4.59779328,2.72032352 1.44721728,1.31468192 1.44721728,1.31468192 L0.58796928,1.71125792 Z" mask="url(#icon_empty_backup-r)"/>
      </g>
      <g transform="translate(91.044 59.81)">
        <mask id="icon_empty_backup-t" fill="#fff">
          <use xlink:href="#icon_empty_backup-s"/>
        </mask>
        <path fill="#FF97A6" d="M0.39012192,1.87374816 C0.61925472,2.29235616 4.29419232,3.79053216 4.32503712,3.20888736 C4.33825632,2.87400096 1.04667552,1.19956896 1.04667552,1.19956896 L0.39012192,1.87374816 Z" mask="url(#icon_empty_backup-t)"/>
      </g>
      <path fill="#FF97A6" d="M89.5534704,59.9868202 C89.5534704,59.9868202 92.1356208,59.1055402 92.4088176,59.2509514 C92.6908272,59.3963626 90.8577648,60.2512042 90.8577648,60.2512042 L89.5534704,59.9868202 Z"/>
      <path fill="#AACBE8" d="M27.8810554,28.3224298 C26.7177658,28.5427498 26.1713722,29.9043274 26.753017,30.935425 C28.8548698,34.680865 34.9180762,44.5864522 44.2816762,52.6105066 C50.2126906,57.6998986 76.0782586,70.9807882 84.7103962,66.098497 C92.1175546,61.9036042 86.4244858,54.2364682 86.4244858,54.2364682 L51.0587194,47.0540362 C51.0587194,47.0540362 35.4027802,26.8991626 27.8810554,28.3224298"/>
      <path fill="#B2D4ED" d="M32.4553392 39.7107706C33.896232 42.2797018 35.6940432 44.6239066 37.663704 46.8050746 38.655144 47.889049 39.6950544 48.9333658 40.7966544 49.9071802 41.9070672 50.8765882 43.0879824 51.7578682 44.2821168 52.6083034 43.3215216 51.4846714 42.312456 50.4315418 41.3033904 49.387225 40.3119504 48.3208762 39.3205104 47.2589338 38.3511024 46.1793658 36.3814416 44.0422618 34.4866896 41.8434682 32.4553392 39.7107706M47.9980339 43.3469318C46.6893331 41.6372486 45.3013171 39.9848486 43.8956755 38.3456678 42.5208787 36.6800486 40.9433875 35.1906854 39.3438643 33.732167 37.7179027 32.3088998 36.0038131 30.9517286 34.1134675 29.8589414 33.1572787 29.3301734 32.1658387 28.8498758 31.1215219 28.510583 30.0816115 28.202135 28.9359475 28.0302854 27.8828179 28.3211078 28.9623859 28.2417926 30.0067027 28.5017702 30.9672979 28.9424102 31.9367059 29.3522054 32.8532371 29.8853798 33.7345171 30.471431 35.4794515 31.6699718 37.1406643 33.005111 38.7269683 34.4283782 40.3220851 35.847239 41.8907635 37.301351 43.3845331 38.8391846 44.8871155 40.3682054 46.4029171 41.8884134 47.9980339 43.3469318"/>
    </g>
    <g transform="translate(31.2 14.6)">
      <path fill="#E2F1FF" d="M480.463872,114.828192 C480.463872,114.828192 490.318272,108.108192 494.352192,115.497312 C496.328832,119.118432 499.914432,125.984352 470.824512,125.177952 C464.660352,125.008032 450.226752,125.640672 449.046912,120.838752 C448.160832,117.225312 455.191872,112.915872 461.645952,116.493792 C461.645952,116.493792 463.956672,105.842592 471.136512,103.942752 C476.061312,102.639072 481.545792,109.453152 480.463872,114.828192"/>
      <g transform="translate(0 12.924)">
        <mask id="icon_empty_backup-v" fill="#fff">
          <use xlink:href="#icon_empty_backup-u"/>
        </mask>
        <path fill="#E2F1FF" d="M39.791136,14.598528 C39.791136,14.598528 52.242336,6.108288 57.339936,15.444288 C59.837856,20.018688 64.367136,28.695168 27.610656,27.676608 C19.823136,27.460608 1.585056,28.259328 0.096096,22.193088 C-1.025184,17.626368 7.859616,12.182208 16.014816,16.703808 C16.014816,16.703808 18.933216,3.244608 28.006176,0.843648 C34.228896,-0.802752 41.158176,7.806528 39.791136,14.598528" mask="url(#icon_empty_backup-v)"/>
      </g>
      <g transform="translate(285.12 .444)">
        <mask id="icon_empty_backup-x" fill="#fff">
          <use xlink:href="#icon_empty_backup-w"/>
        </mask>
        <path fill="#E2F1FF" d="M34.170816,14.65104 C22.230336,7.98288 -1.468224,11.0472 0.226176,22.05264 C1.726656,31.79952 43.133376,28.35024 59.209536,27.372 C73.568256,26.49744 115.603776,28.188 115.269696,19.3032 C115.035456,13.1112 87.439296,-1.81392 70.811136,13.64496 C70.811136,13.64496 74.274816,1.55376 62.758656,0.58032 C51.098496,-0.40464 51.629376,10.2024 51.629376,10.2024 C51.629376,10.2024 45.025536,-1.00848 35.701056,3.5208 C29.373696,6.59376 34.170816,14.65104 34.170816,14.65104" mask="url(#icon_empty_backup-x)"/>
      </g>
    </g>
  </g>
</svg>
