<svg xmlns="http://www.w3.org/2000/svg" width="32" height="16" viewBox="0 0 32 16">
  <g fill="none" fill-rule="evenodd">
    <path fill="#666" d="M8,0 L24,0 C28.418278,-8.11624501e-16 32,3.581722 32,8 C32,12.418278 28.418278,16 24,16 L8,16 C3.581722,16 5.41083001e-16,12.418278 0,8 C-5.41083001e-16,3.581722 3.581722,8.11624501e-16 8,0 Z M8,15 C11.8659932,15 15,11.8659932 15,8 C15,4.13400675 11.8659932,1 8,1 C4.13400675,1 1,4.13400675 1,8 C1,11.8659932 4.13400675,15 8,15 Z"/>
    <circle cx="8" cy="8" r="7" fill="#FFF" fill-rule="nonzero"/>
  </g>
</svg>
