<svg xmlns="http://www.w3.org/2000/svg" xmlns:xlink="http://www.w3.org/1999/xlink" width="44" height="19" viewBox="0 0 44 19">
  <defs>
    <polygon id="icon_about_qts_station-a" points=".037 0 12.126 0 12.126 18.953 .037 18.953"/>
  </defs>
  <g fill="none" fill-rule="evenodd">
    <polygon fill="#4B37FF" points="18.089 3.39 22.3 3.39 22.3 18.724 25.746 18.724 25.746 3.39 29.957 3.39 29.957 .324 18.089 .324"/>
    <g transform="translate(0 .047)">
      <g transform="translate(31.85)">
        <mask id="icon_about_qts_station-b" fill="#fff">
          <use xlink:href="#icon_about_qts_station-a"/>
        </mask>
        <path fill="#4B37FF" d="M6.98424478,8.01204414 C3.83880768,7.2385404 3.78397186,7.18324613 3.78397186,5.08362768 C3.78397186,3.48118379 4.19437271,2.98386708 6.51914883,2.98386708 C7.77685458,2.98386708 9.1527693,3.12416384 10.4192938,3.34685711 L11.7638269,0.606450623 C9.96071812,0.193094015 8.04873518,1.42144638e-05 6.46454755,1.42144638e-05 C1.84192068,1.42144638e-05 0.337805544,1.65775237 0.337805544,5.00061521 C0.337805544,8.89613641 0.939498507,9.75265262 5.34296972,10.7471913 C8.62528529,11.4654955 8.67988657,11.6312362 8.67988657,13.6757025 C8.67988657,15.443887 8.26967335,15.9687798 5.7805774,15.9687798 C4.20586525,15.9687798 2.75597612,15.7162835 1.28563497,15.3034007 L0.0373108742,17.8476476 C1.24093134,18.427882 3.64756247,18.9526327 5.72597612,18.9526327 C11.1141467,18.9526327 12.1262874,17.1567299 12.1262874,13.6757025 C12.1262874,10.0012162 11.8801595,9.20004165 6.98424478,8.01204414" mask="url(#icon_about_qts_station-b)"/>
      </g>
      <path fill="#4B37FF" d="M9.04473006,15.8859142 L9.04463625,15.8859142 L6.89267036,15.8859142 C4.32167249,15.8859142 3.44641023,14.8360339 3.44641023,13.0954728 L3.44641023,5.85708878 C3.44641023,4.11657506 4.32167249,3.06674214 6.89267036,3.06674214 L9.04463625,3.06674214 L9.04473006,3.06674214 C11.6156341,3.06674214 12.4908964,4.11652768 12.4908964,5.85708878 L12.4908964,12.9680165 L10.4047898,10.8409641 L6.74125032,10.8409641 L11.2781288,15.4540788 C10.746423,15.7350988 10.0172802,15.8859142 9.04473006,15.8859142 M15.9372972,13.2889317 L15.9372972,5.66367731 C15.9372972,2.59709626 14.1867727,1.89526185e-05 9.04473006,1.89526185e-05 L9.04463625,1.89526185e-05 L6.89267036,1.89526185e-05 C1.75048699,1.89526185e-05 9.38166311e-06,2.59714364 9.38166311e-06,5.66367731 L9.38166311e-06,13.2889317 C9.38166311e-06,16.3555127 1.75048699,18.95259 6.89267036,18.95259 L9.04463625,18.95259 L9.04473006,18.95259 C11.0762354,18.95259 12.5765979,18.5460564 13.6505638,17.8664628 L14.447067,18.6763082 L18.0892631,18.6763082 L15.3909092,15.9249566 C15.7704913,15.1320264 15.9372972,14.2329142 15.9372972,13.2889317"/>
    </g>
  </g>
</svg>
