<svg xmlns="http://www.w3.org/2000/svg" xmlns:xlink="http://www.w3.org/1999/xlink" width="230" height="200" viewBox="0 0 230 200">
  <defs>
    <path id="icon_empty_overview_log-a" d="M20.5639207,4.51162924 C20.4913415,4.05679364 20.6350355,3.83355833 18.8237549,2.55217381 C17.0124742,1.27078928 14.0880812,-0.240497127 11.1426632,0.417222447 C7.32019654,1.27078928 5.80198237,3.81654967 4.32796377,5.05419101 C2.99917561,6.16992758 1.66592768,6.3000446 0.875801668,7.68449125 C0.0856756602,9.06893791 -0.334700984,13.0519257 0.352350841,14.6354366 C1.30010316,16.8198077 3.16908279,17.4080772 4.53342474,18.0373988 C6.87329292,19.1166953 10.180644,17.9768144 10.2607623,17.787991 C10.8805117,16.3273602 14.2164919,12.2070081 16.2230033,10.4759062 C17.6984898,9.20294194 20.9045673,6.64637787 20.5639207,4.51162924 Z"/>
  </defs>
  <g fill="none" fill-rule="evenodd" transform="translate(1 10)">
    <g opacity=".6">
      <path fill="#B6BED9" d="M217.90962,48.2788693 C221.087411,69.8032897 144.020554,83.8429325 77.6873236,74.0450043 C11.354093,64.247076 -19.076448,25.9850612 12.5766637,5.5975556 C44.2297754,-14.78995 214.731828,26.7544489 217.90962,48.2788693 Z" opacity=".939" transform="translate(9.233 92.065)"/>
    </g>
    <g transform="translate(39.199 8.809)">
      <rect width="52.364" height="99.46" fill="#EBF6FF" rx="2.635"/>
      <circle cx="26.018" cy="88.262" r="4.94" fill="#FFF"/>
      <g transform="translate(4.61 9.221)">
        <rect width="42.492" height="16.672" fill="#FFF" rx="1.317"/>
        <g fill="#DDE3E9" transform="translate(12.844 5.002)">
          <rect width="23.39" height="2.501" rx=".988"/>
          <rect width="15.7" height="2.501" y="4.168" rx=".988"/>
        </g>
        <circle cx="6.916" cy="8.337" r="3.952" fill="#C5CFD6"/>
        <g transform="translate(0 25)">
          <rect width="42.492" height="14.185" fill="#FFF" rx="1.317"/>
          <g fill="#DDE3E9" transform="translate(12.844 4.26)">
            <rect width="23.39" height="2.13" rx=".988"/>
            <rect width="15.7" height="2.13" y="3.55" rx=".988"/>
          </g>
          <circle cx="6.916" cy="7.1" r="3.952" fill="#C5CFD6"/>
        </g>
        <g transform="translate(0 48)">
          <rect width="42.492" height="14.185" fill="#FFF" rx="1.317"/>
          <g fill="#DDE3E9" transform="translate(12.844 4.26)">
            <rect width="23.39" height="2.13" rx=".988"/>
            <rect width="15.7" height="2.13" y="3.55" rx=".988"/>
          </g>
          <circle cx="6.916" cy="7.1" r="3.952" fill="#AFB9C5"/>
        </g>
        <g transform="translate(0 71)">
          <rect width="42.492" height="14.185" fill="#FFF" rx="1.317"/>
          <g fill="#DDE3E9" transform="translate(12.844 4.26)">
            <rect width="23.39" height="2.13" rx=".988"/>
            <rect width="15.7" height="2.13" y="3.55" rx=".988"/>
          </g>
          <circle cx="6.916" cy="7.1" r="3.952" fill="#C5CFD6"/>
        </g>
      </g>
    </g>
    <g transform="translate(60.375 17.376)">
      <rect width="52.364" height="99.46" x=".561" fill="#D1D6E8" rx="2.635"/>
      <circle cx="26.579" cy="88.262" r="4.94" fill="#FFF"/>
      <g transform="translate(5.172 9.221)">
        <rect width="42.492" height="17.534" fill="#FFF" rx="1.317"/>
        <g fill="#DDE3E9" transform="translate(2.964 5.26)">
          <rect width="23.39" height="2.63" rx=".988"/>
          <rect width="15.7" height="2.63" y="4.384" rx=".988"/>
        </g>
        <g transform="translate(35.647 6.462)">
          <circle cx="2.305" cy="2.305" r="2.305" fill="#DDE3E9"/>
          <circle cx="2.305" cy="2.305" r="1" fill="#F2F2F2"/>
        </g>
        <g transform="translate(0 26)">
          <rect width="42.492" height="14.185" fill="#FFF" rx="1.317"/>
          <g fill="#DDE3E9" transform="translate(12.844 4.26)">
            <rect width="23.39" height="2.13" rx=".988"/>
            <rect width="15.7" height="2.13" y="3.55" rx=".988"/>
          </g>
          <circle cx="6.916" cy="7.1" r="3.952" fill="#C5CFD6"/>
        </g>
        <g transform="translate(0 49)">
          <rect width="42.492" height="14.185" fill="#FFF" rx="1.317"/>
          <g transform="translate(2.964 4.26)">
            <rect width="23.39" height="2.13" fill="#DDE3E9" rx=".988"/>
            <rect width="15.7" height="2.13" y="3.55" fill="#AFB9C5" rx=".988"/>
          </g>
          <g transform="translate(35.647 4.795)">
            <circle cx="2.305" cy="2.305" r="2.305" fill="#DDE3E9"/>
            <circle cx="2.305" cy="2.305" r="1" fill="#F2F2F2"/>
          </g>
        </g>
        <g transform="translate(0 72)">
          <rect width="42.492" height="14.185" fill="#FFF" rx="1.317"/>
          <g fill="#DDE3E9" transform="translate(12.844 4.26)">
            <rect width="23.39" height="2.13" rx=".988"/>
            <rect width="15.7" height="2.13" y="3.55" rx=".988"/>
          </g>
          <circle cx="6.916" cy="7.1" r="3.952" fill="#C5CFD6"/>
        </g>
      </g>
    </g>
    <g transform="translate(82.666 25.612)">
      <rect width="110.328" height="113.95" fill="#C1C7DB" rx="2.635"/>
      <rect width="23.054" height="26.676" x="82.005" y="14.161" fill="#FFF" rx="2.635"/>
      <g fill="#DDE3E9" transform="translate(85.298 19.102)">
        <circle cx="8.233" cy="5.269" r="5.269"/>
        <rect width="16.467" height="1.976" y="11.856" rx=".988"/>
        <rect width="11.197" height="1.976" x="2.635" y="15.149" rx=".988"/>
      </g>
      <path fill="#505F98" d="M2.63469176,0 L107.693026,0 C109.148126,-2.67297549e-16 110.327718,1.17959168 110.327718,2.63469176 L110.327718,8.89208471 L0,8.89208471 L0,2.63469176 C-1.78198366e-16,1.17959168 1.17959168,2.67297549e-16 2.63469176,0 Z"/>
      <g fill="#F2F2F2" transform="translate(2.964 3.293)">
        <circle cx="1.317" cy="1.317" r="1.317"/>
        <circle cx="5.269" cy="1.317" r="1.317"/>
        <circle cx="9.221" cy="1.317" r="1.317"/>
      </g>
      <g transform="translate(82.005 43.472)">
        <rect width="23.054" height="63.891" fill="#FFF" rx="2.635"/>
        <g transform="translate(5.928 5.928)">
          <rect width="11" height="10" fill="#DDE3E9" rx="1.317"/>
          <rect width="11" height="10" y="18" fill="#AFB9C5" rx="1.317"/>
          <rect width="11" height="10" y="36" fill="#DDE3E9" rx="1.317"/>
          <rect width="11" height="10" y="72" fill="#DDE3E9" rx="1.317"/>
          <rect width="11" height="10" y="54" fill="#C5CFD6" rx="1.317"/>
        </g>
      </g>
      <g transform="translate(5.27 14.49)">
        <rect width="75.111" height="14.947" fill="#FFF" rx="1.317"/>
        <g fill="#DDE3E9" transform="translate(2.964 4.484)">
          <rect width="56.009" height="2.242" rx=".988"/>
          <rect width="37.595" height="2.242" y="3.737" rx=".988"/>
        </g>
        <g transform="translate(64.774 5.169)">
          <circle cx="2.305" cy="2.305" r="2.305" fill="#DDE3E9"/>
          <circle cx="2.305" cy="2.305" r="1" fill="#F2F2F2"/>
        </g>
        <g transform="translate(0 23)">
          <rect width="75.111" height="12.598" fill="#FFF" rx="1.317"/>
          <g fill="#DDE3E9" transform="translate(2.964 3.775)">
            <rect width="56.009" height="1.888" rx=".944"/>
            <rect width="37.595" height="1.888" y="3.146" rx=".944"/>
          </g>
          <g transform="translate(64.774 3.987)">
            <circle cx="2.305" cy="2.305" r="2.305" fill="#DDE3E9"/>
            <circle cx="2.305" cy="2.305" r="1" fill="#F2F2F2"/>
          </g>
        </g>
        <g transform="translate(0 44)">
          <rect width="75.111" height="12.598" fill="#FFF" rx="1.317"/>
          <g fill="#DDE3E9" transform="translate(2.964 3.775)">
            <rect width="56.009" height="1.888" rx=".944"/>
            <rect width="37.595" height="1.888" y="3.146" rx=".944"/>
          </g>
          <g transform="translate(64.774 3.987)">
            <circle cx="2.305" cy="2.305" r="2.305" fill="#DDE3E9"/>
            <circle cx="2.305" cy="2.305" r="1" fill="#AFB9C5"/>
          </g>
        </g>
        <g transform="translate(0 107)">
          <rect width="75.111" height="12.598" fill="#FFF" rx="1.317"/>
          <g fill="#DDE3E9" transform="translate(2.964 3.775)">
            <rect width="56.009" height="1.888" rx=".944"/>
            <rect width="37.595" height="1.888" y="3.146" rx=".944"/>
          </g>
          <g transform="translate(64.774 3.987)">
            <circle cx="2.305" cy="2.305" r="2.305" fill="#DDE3E9"/>
            <circle cx="2.305" cy="2.305" r="1" fill="#F2F2F2"/>
          </g>
        </g>
        <g transform="translate(0 86)">
          <rect width="75.111" height="12.598" fill="#FFF" rx="1.317"/>
          <g fill="#DDE3E9" transform="translate(2.964 3.775)">
            <rect width="56.009" height="1.888" rx=".944"/>
            <rect width="37.595" height="1.888" y="3.146" rx=".944"/>
          </g>
          <g transform="translate(64.774 3.987)">
            <circle cx="2.305" cy="2.305" r="2.305" fill="#DDE3E9"/>
            <circle cx="2.305" cy="2.305" r="1" fill="#F2F2F2"/>
          </g>
        </g>
        <g transform="translate(0 65)">
          <rect width="75.111" height="12.598" fill="#FFF" rx="1.317"/>
          <g fill="#DDE3E9" transform="translate(2.964 3.775)">
            <rect width="56.009" height="1.888" rx=".944"/>
            <rect width="37.595" height="1.888" y="3.146" rx=".944"/>
          </g>
          <g transform="translate(64.774 3.987)">
            <circle cx="2.305" cy="2.305" r="2.305" fill="#DDE3E9"/>
            <circle cx="2.305" cy="2.305" r="1" fill="#F2F2F2"/>
          </g>
        </g>
      </g>
    </g>
    <g transform="translate(164.997 .88)">
      <rect width="1.976" height="8.233" y="10.539" fill="#DDE3E9" rx=".988"/>
      <rect width="1.976" height="13.503" x="4.611" y="5.269" fill="#DDE3E9" rx=".988"/>
      <rect width="1.976" height="16.137" x="9.221" y="2.635" fill="#DDE3E9" rx=".988"/>
      <rect width="1.976" height="13.503" x="13.832" y="5.269" fill="#DDE3E9" rx=".988"/>
      <rect width="1.976" height="18.772" x="18.443" fill="#C5CFD6" rx=".988"/>
    </g>
    <g transform="translate(144.909 4.504)">
      <path fill="#F2F2F2" d="M9.56759758,9.38737382 C9.08079297,9.90245606 8.39118487,10.2258974 7.62419123,10.2258974 C6.15043507,10.2258974 4.9557243,9.03893584 4.9557243,7.57473882 C4.9557243,6.11054181 6.15043507,4.92358024 7.62419123,4.92358024 L7.62419123,0 C3.43164847,0 0,3.40938994 0,7.57473882 C0,11.7400877 3.43164847,15.1494776 7.62419123,15.1494776 C9.82643887,15.1494776 11.816734,14.2238446 13.1734588,12.7513153 L9.56759758,9.38737382 Z"/>
      <path fill="#AFB9C5" d="M7.57473882,0 L7.57473882,4.92358024 C9.03893584,4.92358024 10.2258974,6.11054181 10.2258974,7.57473882 L15.1494776,7.57473882 C15.1494776,3.40938994 11.7400877,0 7.57473882,0 Z"/>
      <path fill="#C5CFD6" d="M10.2333808,7.57473882 C10.2333808,8.41627174 9.83706777,9.164301 9.22142118,9.64727755 L12.250115,13.5027953 C14.013103,12.1224853 15.1494776,9.98283503 15.1494776,7.57473882 L10.2333808,7.57473882 Z"/>
    </g>
    <g transform="translate(0 62.304)">
      <g transform="translate(30.64)">
        <path fill="#B28B67" d="M2.85189142,12.0199541 C1.26137798,10.1349817 0.184885214,7.82492201 0.364767787,5.23643381 C0.883059569,-2.22172146 11.1657515,-0.581022322 13.165948,3.183214 C15.1661444,6.94745032 14.9284691,16.4957479 12.3433934,17.168522 C11.312469,17.4368232 9.11629399,16.7795928 6.88109986,15.4193277 L8.28408681,25.4408067 L0,25.4408067 L2.85189142,12.0199541 Z" transform="translate(13.232 3.604)"/>
        <path fill="#191847" d="M27.1800999,8.47698503 C27.098042,7.98906181 26.8974976,7.44722836 26.735682,6.98560716 C26.5270602,6.39051658 26.211346,5.85396728 25.8639105,5.34829168 C25.209801,4.39625362 24.4251156,3.53653979 23.5587468,2.82300107 C21.976217,1.51965591 19.961733,0.767881298 17.9807355,1.01202102 C16.9805279,1.13527834 16.0095807,1.52048713 15.183171,2.16165077 C14.4365191,2.74094827 13.7183252,3.59371551 12.751497,3.65498794 C11.6995084,3.72160388 10.7351943,2.78411208 9.89150649,2.20511145 C8.9402447,1.55237016 7.92826862,1.07673705 6.81647504,0.891851082 C4.95396403,0.582223485 3.20426926,1.21756863 1.92065693,2.76042245 C0.554719242,4.40225024 -0.438213416,6.8099833 0.458806719,8.98539176 C0.62554366,9.38977787 0.840049637,9.73069477 1.14790049,10.0132485 C1.43023529,10.2723501 1.86144045,10.5480166 1.97591496,10.9620211 C2.09750401,11.4020901 1.73428815,11.9698099 1.59344171,12.3668932 C1.391667,12.9358005 1.22599992,13.5329692 1.28489545,14.1513338 C1.38166386,15.166841 2.01373434,16.1362752 2.68116354,16.8037409 C3.36036114,17.4829623 4.19629254,17.8724459 5.08914024,18.0519884 C5.68531708,18.1718614 6.29459965,18.2380024 6.90051217,18.1929981 C7.20130197,18.170674 7.46673306,18.0863057 7.75816163,18.0192147 C8.04156629,17.9539644 8.19995836,18.0299612 8.44040833,18.1868827 C9.5573907,18.915977 10.7584102,19.1980558 12.0481742,19.0896416 C13.1366984,18.9980892 14.3913177,18.7317441 15.2792975,17.9787227 C16.2654366,17.1424016 16.2458048,15.9891502 16.0137532,14.7569926 C16.2596059,14.8800125 16.9397664,14.9561874 16.5333284,14.4658299 C16.3723152,14.2716224 16.0681018,14.1925976 15.8615128,14.078365 C15.6209558,13.9453705 15.3767079,13.7734872 15.1899111,13.55654 C14.4356632,12.6805581 15.1974536,10.8978394 16.1454523,10.6040643 C17.5539168,10.167617 17.8692566,12.1787418 18.8747066,12.6989636 C19.4528029,12.9980823 20.0575386,12.5892432 20.4906695,12.1717952 C21.070852,11.6125656 21.4662705,10.8717155 21.8076613,10.1178035 C22.0888727,9.49694523 22.3505593,8.86735923 22.6371735,8.24958835 C22.7710124,7.96109736 23.2343667,7.14555668 23.0016732,6.81936416 C24.0104932,6.61625083 25.1341087,7.03951739 26.0029382,7.59459091 C26.3620351,7.82406563 26.635811,8.07705186 26.8273686,8.48215044 C26.8683976,8.56895303 26.9577305,8.82698593 27.0699048,8.83755423 C27.2787405,8.8572659 27.2006946,8.59958924 27.1800999,8.47698503"/>
      </g>
      <g transform="translate(0 57.115)">
        <path fill="#C5CFD6" d="M5.08562698,0 L45.3264501,0 C48.0210798,3.40345016e-15 50.2055089,2.18442904 50.2055089,4.87905882 L50.2055089,37.4351597 C50.2055089,40.1297894 48.0210798,42.3142185 45.3264501,42.3142185 L5.08562698,42.3142185 C2.39099719,42.3142185 0.206568152,40.1297894 0.206568152,37.4351597 L0.206568152,4.87905882 C0.206568152,2.18442904 2.39099719,-2.1695398e-15 5.08562698,0 Z M10.9499406,9.55482353 C10.2762832,9.55482353 9.73017591,10.1009308 9.73017591,10.7745882 L9.73017591,31.5396303 C9.73017591,32.2132877 10.2762832,32.759395 10.9499406,32.759395 L39.4621364,32.759395 C40.1357939,32.759395 40.6819011,32.2132877 40.6819011,31.5396303 L40.6819011,10.7745882 C40.6819011,10.1009308 40.1357939,9.55482353 39.4621364,9.55482353 L10.9499406,9.55482353 Z" transform="translate(14.419 14.4)"/>
        <path fill="#B28B67" d="M99.6043802,54.7102785 C92.8390018,46.5289424 88.2613851,40.4636658 85.8715302,36.5144484 C81.7795182,29.7524295 78.4304021,23.7354816 77.3735045,21.4370346 C74.8531966,15.9560929 83.1756606,13.3896162 85.0592232,15.9461092 C87.91007,19.8154629 93.9984672,31.9912296 103.324415,52.4734092 L99.6043802,54.7102785 Z"/>
        <path fill="#2F3676" d="M85.7408909,52.3315707 L73.1501312,20.9451256 C70.4572182,15.223586 83.4617951,11.4626789 85.4408827,14.1253688 C89.9340242,20.1704992 100.613183,44.0176618 101.951839,45.8187081 L85.7408909,52.3315707 Z"/>
        <path fill="#B28B67" d="M1.6506802,46.8792441 C1.30525914,42.597361 0.66350962,27.7743738 1.3056061,20.9133621 C1.49011888,18.9417825 1.68451548,17.0355813 1.8804205,15.2473955 C2.46271954,9.93227457 12.4146095,10.1002889 11.6243047,15.1499202 C9.65613333,27.7254978 6.1919273,45.3494417 5.94363466,46.8722496 C5.59564191,49.00653 1.86776657,49.570274 1.6506802,46.8792441 Z" transform="rotate(39 28.254 118.013)"/>
        <path fill="#E4E4E4" d="M0.917814718,2.84180415 C0.528887055,3.84646215 0.334423224,4.59574447 0.334423224,5.08965111 C0.334423224,5.67882563 0.434888711,6.53857778 0.635819684,7.66890756 C1.33541252,7.66890756 7.62277114,7.66890756 19.4978955,7.66890756 C19.988054,6.08577514 19.7051061,5.23109289 18.6490518,5.10486081 C17.5929975,4.97862873 16.7157153,4.86465126 16.0172051,4.76292842 L7.21886579,0.930902008 C7.0644608,0.8636525 6.88477433,0.934305977 6.81752482,1.08871097 C6.8170592,1.08978001 6.81659973,1.09085172 6.81614641,1.09192604 L6.24141189,2.45398709 C5.26378182,2.89962282 4.46935589,3.12244069 3.8581341,3.12244069 C3.34983381,3.12244069 2.64330515,2.91715752 1.73854811,2.50659119 L1.73853049,2.50663003 C1.4318267,2.36745205 1.07036811,2.50325856 0.931190141,2.80996235 C0.926431952,2.82044788 0.921971689,2.83106607 0.917814718,2.84180415 Z" transform="rotate(30 -49.605 120.15)"/>
        <path fill="#E4E4E4" d="M0.917814718,2.84180415 C0.528887055,3.84646215 0.334423224,4.59574447 0.334423224,5.08965111 C0.334423224,5.67882563 0.434888711,6.53857778 0.635819684,7.66890756 C1.33541252,7.66890756 7.62277114,7.66890756 19.4978955,7.66890756 C19.988054,6.08577514 19.7051061,5.23109289 18.6490518,5.10486081 C17.5929975,4.97862873 16.7157153,4.86465126 16.0172051,4.76292842 L7.21886579,0.930902008 C7.0644608,0.8636525 6.88477433,0.934305977 6.81752482,1.08871097 C6.8170592,1.08978001 6.81659973,1.09085172 6.81614641,1.09192604 L6.24141189,2.45398709 C5.26378182,2.89962282 4.46935589,3.12244069 3.8581341,3.12244069 C3.34983381,3.12244069 2.64330515,2.91715752 1.73854811,2.50659119 L1.73853049,2.50663003 C1.4318267,2.36745205 1.07036811,2.50325856 0.931190141,2.80996235 C0.926431952,2.82044788 0.921971689,2.83106607 0.917814718,2.84180415 Z" transform="translate(95.526 50.4)"/>
        <path fill="#40508C" d="M68.6195669,22.5127876 C58.1547723,20.824477 51.145311,19.6700167 47.5911828,19.0494068 C37.4605166,17.2804238 34.5063282,11.8817576 36.2530021,0.102701951 L54.9185824,0.102701951 C57.3886719,0.809098283 67.7096643,5.17793044 85.8815597,13.2091984 C89.1510421,14.8164722 88.542157,19.5555258 87.9445537,21.1168343 C87.9201811,21.1805104 82.4084603,30.5334377 71.4093911,49.175616 L56.1401595,39.542785 L68.6482427,23.647885 C68.9785692,22.9890169 68.9690106,22.6106511 68.6195669,22.5127876 Z"/>
      </g>
      <g transform="translate(6.858 20.852)">
        <path fill="#B28B67" d="M61.7410938,33.8587459 L71.4828166,43.2951897 C74.3172988,44.4957225 76.6397532,45.8213531 78.4501798,47.2720816 C78.8573177,47.7597208 79.3005535,48.6940627 77.3849902,48.2759581 C75.4694269,47.8578535 73.4356046,47.5036128 73.075578,48.1221759 C72.7155514,48.7407391 73.7763991,49.6885977 73.1110254,50.4981377 C72.6674428,51.0378311 71.1756399,49.3211722 68.6356165,45.348161 L58.5055132,39.4178107 L61.7410938,33.8587459 Z M14.104111,25.3184381 L21.6344358,25.3464997 C15.8991006,43.7972525 12.8546007,53.4577742 12.5009361,54.3280648 C11.7051908,56.2862187 13.3890948,59.268453 14.109199,60.8710835 C11.7638437,61.913161 12.0137438,58.0539228 9.05514111,59.4206655 C6.35466578,60.6681648 4.30042092,62.92855 1.18041187,61.0169817 C0.796825093,60.7819656 0.376476478,59.8970876 1.39209187,59.2056022 C3.92236021,57.4828599 7.56863016,54.4677506 8.06129865,53.475304 C8.73314016,52.1219258 10.7474109,42.7363038 14.104111,25.3184381 Z"/>
        <path fill="#80CAC8" d="M35.3683453,5.61383827 L38.2865606,4.85014022 C44.3862054,20.8215612 69.3399252,29.8889083 71.3475422,35.8832771 C72.0837884,38.0815706 70.5555278,39.3590918 71.456093,39.9695017 L67.8504745,43.1052093 C67.1323402,42.4068571 65.861771,43.9103953 62.871392,43.1980514 C59.8810131,42.4857075 37.0651829,25.0087811 35.3683453,5.61383827 Z" transform="rotate(5 53.462 24.123)"/>
        <path fill="#92D7D5" d="M42.0524803,6.2932639 C41.709637,28.0615746 54.3827491,33.6143327 51.5598927,42.346898 C49.2288245,49.5581064 26.9166584,57.310125 23.0556758,50.2414388 C21.4927993,47.3801249 20.7837158,43.919568 20.7032615,40.1571949 C19.7164752,43.0476868 18.9360369,45.5360539 18.3619456,47.6222989 C17.371558,51.2213629 13.5320366,51.7934503 13.5320366,53.179939 L8.47352137,51.7934503 C8.81662854,49.9098478 6.43192223,48.9926456 7.07132417,44.7845134 C9.93622037,25.9296096 17.6336804,12.2622824 30.1637042,3.78253167 L30.3036006,1.79602533 C30.3520903,1.12458445 30.9344685,0.618332626 31.6061232,0.663763573 L41.1793327,1.32846789 C41.8514553,1.3739325 42.3584237,1.95655533 42.3117614,2.62859475 C42.3117337,2.62899416 42.3117058,2.62939356 42.3104801,2.6297086 L42.0524803,6.2932639 Z"/>
      </g>
    </g>
    <g transform="matrix(-1 0 0 1 163.115 40.5)">
      <path fill="#B28B67" d="M2.85189142,12.0199541 C1.26137798,10.1349817 0.184885214,7.82492201 0.364767787,5.23643381 C0.883059569,-2.22172146 11.1657515,-0.581022322 13.165948,3.183214 C15.1661444,6.94745032 14.9284691,16.4957479 12.3433934,17.168522 C11.312469,17.4368232 9.11629399,16.7795928 6.88109986,15.4193277 L8.28408681,25.4408067 L0,25.4408067 L2.85189142,12.0199541 Z" transform="translate(8.726 3.604)"/>
      <g transform="translate(.787 .816)">
        <mask id="icon_empty_overview_log-b" fill="#fff">
          <use xlink:href="#icon_empty_overview_log-a"/>
        </mask>
        <use fill="#5C63AB" xlink:href="#icon_empty_overview_log-a"/>
        <path fill="#000" fill-opacity=".2" d="M4.29979438,4.18205042 C4.92113071,8.1479199 6.55223725,11.7750391 9.193114,15.0634079 C6.1137566,12.6510425 4.08489611,9.27792526 3.10653256,4.94405628 L4.29979438,4.18205042 Z M2.7608131,5.69530542 C3.78004252,9.95610501 6.42653109,13.9822413 10.7002788,17.7737143 C5.75514218,14.7599328 2.64860963,10.8707453 1.38068114,6.106152 L2.7608131,5.69530542 Z" mask="url(#icon_empty_overview_log-b)"/>
      </g>
    </g>
    <g transform="matrix(-1 0 0 1 174.83 98.1)">
      <polygon fill="#997659" points="14.844 0 27.686 42.147 33.907 77.99 38.785 77.99 32.211 0"/>
      <path fill="#B28B67" d="M10.2498465,0 C11.1221138,23.1407671 10.095573,35.0771939 9.90034913,37.1796332 C9.70512526,39.2820725 7.03187149,52.9144016 0.703267739,78.6954192 L5.90084756,76.9034188 C15.9026157,53.2584103 19.3108617,40.9696818 20.4579888,37.8648097 C21.6051159,34.7599376 24.6518285,22.1383344 29.5981266,0 L10.2498465,0 Z"/>
      <path fill="#E4E4E4" d="M0.601270929,2.11709176 C0.200423643,3.17846052 0,3.96937948 0,4.48984864 C0,5.10763328 0.102521047,6.00913471 0.30756314,7.19435294 C1.0214699,7.19435294 7.43747013,7.19435294 19.5555638,7.19435294 C20.0557511,5.53434413 19.767014,4.63815879 18.6893525,4.50579692 C17.6116909,4.37343505 16.7164592,4.25392288 16.0036572,4.1472604 L7.02385947,0.128507047 C6.87013718,0.0597112935 6.68975067,0.128557851 6.62095492,0.282280137 C6.61966168,0.285169832 6.61841353,0.288079492 6.61721091,0.291008057 L6.02784777,1.72619764 C5.03021504,2.1934733 4.21953487,2.42711113 3.59580726,2.42711113 C3.07652832,2.42711113 2.35451359,2.21137896 1.42976308,1.7799146 L1.42979729,1.77984127 C1.12451743,1.63740568 0.761572337,1.76941706 0.619136749,2.07469692 C0.612650477,2.08859884 0.606690966,2.10274051 0.601270929,2.11709176 Z" transform="translate(.17 74.684)"/>
      <path fill="#E4E4E4" d="M0.601270929,2.11709176 C0.200423643,3.17846052 0,3.96937948 0,4.48984864 C0,5.10763328 0.102521047,6.00913471 0.30756314,7.19435294 C1.0214699,7.19435294 7.43747013,7.19435294 19.5555638,7.19435294 C20.0557511,5.53434413 19.767014,4.63815879 18.6893525,4.50579692 C17.6116909,4.37343505 16.7164592,4.25392288 16.0036572,4.1472604 L7.02385947,0.128507047 C6.87013718,0.0597112935 6.68975067,0.128557851 6.62095492,0.282280137 C6.61966168,0.285169832 6.61841353,0.288079492 6.61721091,0.291008057 L6.02784777,1.72619764 C5.03021504,2.1934733 4.21953487,2.42711113 3.59580726,2.42711113 C3.07652832,2.42711113 2.35451359,2.21137896 1.42976308,1.7799146 L1.42979729,1.77984127 C1.12451743,1.63740568 0.761572337,1.76941706 0.619136749,2.07469692 C0.612650477,2.08859884 0.606690966,2.10274051 0.601270929,2.11709176 Z" transform="translate(32.249 74.684)"/>
      <polygon fill="#69A1AC" points="13.138 0 18.598 21.473 35.276 21.473 32.789 0"/>
      <path fill="#89C5CC" d="M10.0663386,0 C8.26972487,5.40622943 7.92845923,12.5639848 9.04254168,21.4732662 L26.0615678,21.4732662 L30.7414243,0 L10.0663386,0 Z"/>
    </g>
    <g transform="scale(-1 1) rotate(8 -453.689 -1144.366)">
      <path fill="#B28B67" d="M38.8157101,8.90445617 L51.8526959,4.99410494 C54.2847563,3.10242595 56.5787473,1.71931909 58.7346689,0.844784329 C59.3616864,0.726862435 60.3997431,0.795348619 59.1025613,2.26562415 C57.8053795,3.73589969 56.5071177,5.34069953 56.8774849,5.9571924 C57.247852,6.57368526 58.5972914,6.10894846 58.9878449,7.08551044 C59.2482139,7.73655176 57.0125112,8.20284118 52.2807367,8.48437871 L42.1442225,14.4449149 L38.8157101,8.90445617 Z M37.6636899,31.8705853 L48.635085,39.9204297 C51.6107532,40.7227055 54.0968279,41.7208721 56.0933089,42.9149295 C56.5649124,43.3443049 57.1348895,44.2138613 55.1790358,44.0635802 C53.223182,43.9132991 51.1591531,43.8431149 50.8892833,44.5096723 C50.6194135,45.1762297 51.8029902,45.9733592 51.2574658,46.8727197 C50.8937828,47.4722934 49.1755985,45.9688847 46.1029128,42.3624936 L35.2383536,37.860977 L37.6636899,31.8705853 Z"/>
      <path fill="#2026A2" d="M16.6444578,13.4807262 C25.2964729,22.6862068 35.8501087,28.6921696 50.2441932,34.0183755 L47.0461327,40.406683 C32.193895,39.0103933 24.2536982,37.8944163 18.0307566,28.6742298 C16.4689244,26.3601499 13.6770706,18.3972993 12.0044128,14.2622251 L16.6444578,13.4807262 Z" transform="rotate(15 31.124 26.944)"/>
      <path fill="#F2F2F2" d="M3.91988391,47.2776807 L30.4039971,47.2776807 C24.4049021,28.9966123 21.3403365,16.4496234 21.2103006,9.6367141 C21.2036712,9.2893854 20.5616678,8.67734317 20.2776314,8.75749555 C18.2005042,9.34364125 15.9778141,9.12447607 13.6095611,8.1 C7.33099813,18.1894236 5.15976219,30.6115468 3.91988391,47.2776807 Z"/>
      <path fill="#1F28CF" d="M15.8695509,8.11628808 C23.4611138,8.17840012 35.7778646,9.56354629 49.9825242,5.00702521 L51.384918,12.0086542 C40.64917,18.9076198 29.7783256,24.2518806 20.2527571,23.4929637 C24.3891608,41.2213264 24.1984526,55.7338621 15.0664185,55.7338621 C10.7054179,55.7338621 5.99831444,55.7338621 0.945108112,55.7338621 C-1.29768195,40.6738176 4.59680922,19.7926871 10.0614311,9.26041344 C10.2701086,8.85821764 10.7144038,8.1 11.7609014,8.1 C12.6727316,8.1 14.040477,8.1 15.8641376,8.1 C15.8659423,8.10542936 15.8677467,8.11085872 15.8695509,8.11628808 Z"/>
    </g>
  </g>
</svg>
