<svg xmlns="http://www.w3.org/2000/svg" xmlns:xlink="http://www.w3.org/1999/xlink" width="16" height="16" viewBox="0 0 16 16">
  <defs>
    <path id="icon_clear_hover-a" d="M4.96946294,4.16633354 L8.182,7.379 L11.3944981,4.16633354 C11.6162762,3.94455549 11.9758494,3.94455549 12.1976275,4.16633354 C12.4194055,4.3881116 12.4194055,4.74768488 12.1976275,4.96946294 L8.985,8.182 L12.1976275,11.3944981 C12.4194055,11.6162762 12.4194055,11.9758494 12.1976275,12.1976275 C11.9758494,12.4194055 11.6162762,12.4194055 11.3944981,12.1976275 L8.182,8.985 L4.96946294,12.1976275 C4.74768488,12.4194055 4.3881116,12.4194055 4.16633354,12.1976275 C3.94455549,11.9758494 3.94455549,11.6162762 4.16633354,11.3944981 L7.379,8.182 L4.16633354,4.96946294 C3.94455549,4.74768488 3.94455549,4.3881116 4.16633354,4.16633354 C4.3881116,3.94455549 4.74768488,3.94455549 4.96946294,4.16633354 Z"/>
  </defs>
  <g fill="none" fill-rule="evenodd">
    <circle cx="8" cy="8" r="8" fill="#B0B0B0" fill-rule="nonzero"/>
    <use fill="#2B2B2B" fill-rule="nonzero" xlink:href="#icon_clear_hover-a"/>
  </g>
</svg>
