<svg xmlns="http://www.w3.org/2000/svg" width="40" height="40" viewBox="0 0 40 40">
  <g fill="none">
    <rect width="23.143" height="6" x="8.032" y="9" fill="#FFF" rx="3"/>
    <path fill="#FFF" d="M15.0526825,24.28 C15.052214,24.3216835 15.0519792,24.3634231 15.0519792,24.4052174 C15.0519792,26.5718746 15.6831558,28.5913634 16.7719648,30.2904348 L11.0371965,30.2904348 C9.37746081,30.2904348 8.03197916,28.9449531 8.03197916,27.2852174 C8.03197916,25.6254817 9.37746081,24.28 11.0371965,24.28 L15.0526825,24.28 Z"/>
    <path fill="#A6ACD3" d="M19.8046864,16.64 C17.7337273,18.0624195 16.1772513,20.1775549 15.4708005,22.6504348 L11.0371965,22.6504348 C9.37746081,22.6504348 8.03197916,21.3049531 8.03197916,19.6452174 C8.03197916,17.9854817 9.37746081,16.64 11.0371965,16.64 L19.8046864,16.64 Z"/>
    <path stroke="#FFF" stroke-linecap="round" stroke-linejoin="round" stroke-width="2.112" d="M25.4719645,30.6260255 C28.6596037,30.6262728 31.2434869,27.9444761 31.2432292,24.636065 C31.2429714,21.327654 28.6586704,18.6454565 25.4710312,18.6452092 C22.283392,18.644962 19.6995088,21.3267587 19.6997665,24.6351698" transform="scale(-1 1) rotate(-1 0 2943.38)"/>
    <path fill="#FFF" d="M31.4032161,23.4752382 L34.1094375,26.7777389 C34.1849276,26.8698621 34.1714437,27.0057395 34.0793205,27.0812295 C34.0407676,27.1128215 33.9924617,27.1300836 33.9426181,27.1300801 L28.5306898,27.1296906 C28.4115872,27.129682 28.3150424,27.0331233 28.3150509,26.9140207 C28.3150545,26.8641904 28.3323144,26.815899 28.3638966,26.7773553 L31.0696035,23.4752441 C31.1450903,23.3831182 31.2809672,23.3696295 31.3730931,23.4451163 C31.3841037,23.4541382 31.3941939,23.464228 31.4032161,23.4752382 Z" transform="rotate(179 31.237 25.263)"/>
  </g>
</svg>
