<svg xmlns="http://www.w3.org/2000/svg" width="16" height="16" viewBox="0 0 16 16">
  <path fill="#5A6374" fill-rule="evenodd" d="M7.36373181,13.2314167 C7.53922304,13.4101667 7.76961152,13.5 8,13.5 C8.23038848,13.5 8.46077696,13.4101667 8.63626819,13.2314167 L12.2360882,9.56475 C12.5879706,9.20633333 12.5879706,8.627 12.2360882,8.26858333 C11.8842058,7.91016667 11.3154342,7.91016667 10.9635518,8.26858333 L8.899955,10.3705 L8.899955,3.41666667 C8.899955,2.91066667 8.49677516,2.5 8,2.5 C7.50322484,2.5 7.100045,2.91066667 7.100045,3.41666667 L7.100045,10.3705 L5.03644818,8.26858333 C4.68456577,7.91016667 4.11579421,7.91016667 3.7639118,8.26858333 C3.4120294,8.627 3.4120294,9.20633333 3.7639118,9.56475 L7.36373181,13.2314167 Z" transform="matrix(1 0 0 -1 0 16)"/>
</svg>
