<svg xmlns="http://www.w3.org/2000/svg" width="24" height="24" viewBox="0 0 24 24">
  <path fill="#1C2231" d="M11.3333333,5 C9.11746033,5 7.33333333,6.784127 7.33333333,9 L7.33333333,9.66666667 C6.6,9.66666667 6,10.2666667 6,11 L6,17.6666667 C6,18.4 6.6,19 7.33333333,19 L15.3333333,19 C16.0666667,19 16.6666667,18.4 16.6666667,17.6666667 L16.6666667,11 C16.6666667,10.2666667 16.0666667,9.66666667 15.3333333,9.66666667 L15.3333333,9 C15.3333333,6.784127 13.5492067,5 11.3333333,5 Z M7.32141113,10.9099121 L15.2799072,10.9099121 L15.2799072,17.6473389 L7.32141113,17.6473389 L7.32141113,10.9099121 Z M11.3333333,6.33333333 C12.8507933,6.33333333 14,7.48253967 14,9 L14,9.66666667 L8.66666667,9.66666667 L8.66666667,9 C8.66666667,7.48253967 9.815873,6.33333333 11.3333333,6.33333333 Z M11.3333333,13 C12.0666667,13 12.6666667,13.6 12.6666667,14.3333333 C12.6666667,15.0666667 12.0666667,15.6666667 11.3333333,15.6666667 C10.6,15.6666667 10,15.0666667 10,14.3333333 C10,13.6 10.6,13 11.3333333,13 Z"/>
</svg>
