<svg xmlns="http://www.w3.org/2000/svg" width="24" height="24" viewBox="0 0 24 24">
  <g fill="none" transform="translate(4 3)">
    <g stroke="#002989" stroke-width=".837">
      <path fill="#6B91FE" fill-opacity=".2" d="M15.6502326,4.49742239 L12.5013953,4.49742239 L12.5013953,0.669767442 C12.5013953,0.531054063 12.3889459,0.418604651 12.2502326,0.418604651 L4.06976744,0.418604651 C3.93105406,0.418604651 3.81860465,0.531054063 3.81860465,0.669767442 L3.81860465,6.53683125 L0.669767442,6.53683125 C0.531054063,6.53683125 0.418604651,6.64928066 0.418604651,6.78799404 L0.418604651,16.3253064 C0.418604651,16.4640198 0.531054063,16.5764692 0.669767442,16.5764692 L10.2102326,16.5764692 C10.3489459,16.5764692 10.4613953,16.4640198 10.4613953,16.3253064 L10.4613953,13.1774545 L15.6502326,13.1774545 C15.7889459,13.1774545 15.9013953,13.0650051 15.9013953,12.9262917 L15.9013953,4.74858518 C15.9013953,4.6098718 15.7889459,4.49742239 15.6502326,4.49742239 Z"/>
      <path stroke-opacity=".7" d="M4.08,6.54591588 L10.1154367,6.54591588 C10.3003879,6.54591588 10.4503204,6.69584843 10.4503204,6.8807996 L10.4503204,13.0626395"/>
      <path stroke-opacity=".4" d="M7.48,4.50334821 L11.9105948,4.50334821 C12.095546,4.50334821 12.2454785,4.65328076 12.2454785,4.83823194 L12.2454785,12.8230753 C12.2454785,13.0080264 12.095546,13.157959 11.9105948,13.157959 L9.39640137,13.157959" transform="matrix(-1 0 0 1 19.725 0)"/>
      <path stroke-opacity=".2" d="M5.68536632,2.21845142 L10.2933272,2.21845142 C10.4782784,2.21845142 10.628211,2.36838397 10.628211,2.55333514 L10.628211,10.547145 C10.628211,10.7320961 10.4782784,10.8820287 10.2933272,10.8820287 L7.60121237,10.8820287" transform="rotate(90 8.157 6.55)"/>
    </g>
    <path fill="#24B726" stroke="#FFF" stroke-width="1.507" d="M14.2608779,8.38188054 L18.367278,13.5704157 C18.9698692,14.3318042 18.8411386,15.4375283 18.0797501,16.0401195 C17.7691844,16.2859127 17.3847244,16.4196432 16.9886621,16.4196432 L8.775862,16.4196432 C7.80486834,16.4196432 7.01772246,15.6324973 7.01772246,14.6615037 C7.01772246,14.2654414 7.1514529,13.8809814 7.39724614,13.5704157 L11.5036462,8.38188054 C12.1062374,7.62049203 13.2119615,7.49176141 13.97335,8.09435265 C14.0799907,8.17875206 14.1764785,8.27523986 14.2608779,8.38188054 Z" transform="rotate(90 12.882 12.067)"/>
  </g>
</svg>
