<svg xmlns="http://www.w3.org/2000/svg" xmlns:xlink="http://www.w3.org/1999/xlink" width="230" height="200" viewBox="0 0 230 200">
  <defs>
    <rect id="icon_empty_overview_calender-b" width="91.199" height="27.522" x="45.906" y="21.412" rx="4.312"/>
    <filter id="icon_empty_overview_calender-a" width="118.6%" height="161.8%" x="-9.3%" y="-23.6%" filterUnits="objectBoundingBox">
      <feOffset dy="2" in="SourceAlpha" result="shadowOffsetOuter1"/>
      <feGaussianBlur in="shadowOffsetOuter1" result="shadowBlurOuter1" stdDeviation="2.5"/>
      <feColorMatrix in="shadowBlurOuter1" values="0 0 0 0 0.364288746   0 0 0 0 0.405706094   0 0 0 0 0.568189538  0 0 0 0.320039336 0"/>
    </filter>
  </defs>
  <g fill="none" fill-rule="evenodd" transform="translate(20 18)">
    <rect width="52.753" height="27.241" x="91.3" y="13.16" fill="#505F98" fill-rule="nonzero"/>
    <g fill-rule="nonzero" transform="translate(2)">
      <path fill="#E1E6FB" d="M31.8997526,45.4838746 C31.8997526,45.4838746 14.6037526,17.3778746 13.7389526,10.0270746 C12.8741526,2.67627456 12.0093526,0.0818745562 12.0093526,0.0818745562 C12.0093526,0.0818745562 17.1981526,-0.782925444 18.9277526,3.10867456 C20.6573526,7.00027456 25.8461526,2.24387456 27.5757526,12.6214746 C27.5757526,12.6214746 28.0081526,17.8102746 31.8997526,16.0806746 C35.7913526,14.3510746 31.8997526,45.4838746 31.8997526,45.4838746 Z"/>
      <path fill="#9AA7DA" d="M34.0617526,49.8078746 C34.0617526,49.8078746 21.7124086,26.8906746 17.6305526,17.8102746 C14.6037526,11.0734826 12.0093526,0.0818745562 12.0093526,0.0818745562 C12.0093526,0.0818745562 6.79460855,1.99308256 7.25295255,6.13547456 C7.68535255,10.0270746 3.79375255,11.3242746 4.65855255,16.0806746 C5.59253655,21.2262346 13.0298166,22.1904866 8.55015255,26.8906746 C5.83035655,29.7401906 7.87128455,34.6046906 9.84735255,37.7006746 C11.1142846,39.6810666 17.3624646,41.4841746 15.9009526,40.7274746 C12.5541766,38.9978746 34.0617526,49.8078746 34.0617526,49.8078746 Z"/>
      <ellipse cx="21.526" cy="20.378" fill="#BAC5F4" rx="1" ry="11.242" transform="rotate(-24.72 21.526 20.378)"/>
      <path fill="#E1E6FB" d="M37.7760686,63.8565506 C37.7760686,63.8565506 11.4429086,43.9661506 7.96641255,37.4325866 C4.48991655,30.8990226 2.73869655,28.7845866 2.73869655,28.7845866 C2.73869655,28.7845866 7.25727655,26.0907346 10.2840766,29.0872666 C13.3108766,32.0837986 16.4155086,25.7664346 21.7988886,34.8035946 C21.7988886,34.8035946 22.3912766,41.1469026 26.2828766,39.8497026 C30.3171686,38.5179106 37.7760686,63.8565506 37.7760686,63.8565506 Z"/>
      <path fill="#F8F8FF" d="M41.3606646,67.1038746 C41.3606646,67.1038746 21.5221526,50.2402746 14.4178206,43.2656626 C9.14686455,38.0768626 2.74302055,28.7932346 2.74302055,28.7932346 C2.74302055,28.7932346 -1.42099145,32.4729586 0.511836552,36.1440346 C2.32791655,39.6032346 -0.824279448,42.2365506 1.71390855,46.3529986 C4.45532455,50.8067186 11.7369406,48.9992866 9.27226055,55.0009986 C7.77615655,58.6461306 11.4342606,62.4339546 14.4134966,64.6002786 C16.3117326,65.9839586 22.7890846,65.3915706 21.1546126,65.2186106 C17.3927326,64.8510706 41.3606646,67.1038746 41.3606646,67.1038746 Z"/>
      <ellipse cx="16.374" cy="49.48" fill="#E1E6FB" rx="1" ry="11.242" transform="rotate(-46.04 16.374 49.48)"/>
    </g>
    <path fill="#E1E6FB" fill-rule="nonzero" d="M166.691196,79.844916 C166.691196,79.844916 187.247492,46.420396 188.566312,37.51728 C189.885132,28.614164 190.97478,25.492236 190.97478,25.492236 C190.97478,25.492236 185.2671,24.195036 183.156988,28.864956 C181.046876,33.534876 175.533776,27.502896 173.103688,40.051144 C173.103688,40.051144 172.368608,46.346888 168.139736,44.06814 C163.910864,41.789392 166.691196,79.844916 166.691196,79.844916 Z"/>
    <path fill="#9AA7DA" fill-rule="nonzero" d="M164.096796,84.9948 C164.096796,84.9948 178.915144,57.662796 183.88342,46.796584 C187.571792,38.732324 190.987752,25.47494 190.987752,25.47494 C190.987752,25.47494 196.673812,28.039072 195.960352,33.054912 C195.290132,37.772396 199.5363,39.540912 198.342876,45.274536 C197.045676,51.492448 188.760892,52.331304 193.495672,58.246536 C196.366808,61.83978 193.867536,67.664208 191.523928,71.343932 C190.0235,73.696188 183.009972,75.607396 184.666064,74.755568 C188.449564,72.82274 164.096796,84.9948 164.096796,84.9948 Z"/>
    <path fill="#BAC5F4" fill-rule="nonzero" d="M178.577872,49.317476 C175.421352,56.062916 173.24638,61.744652 173.717696,62.008416 C174.189012,62.27218 177.129332,57.014196 180.285852,50.268756 C183.442372,43.523316 185.617344,37.84158 185.146028,37.577816 C184.674712,37.314052 181.730068,42.567712 178.577872,49.317476 Z"/>
    <path fill="#F8F8FF" fill-rule="nonzero" d="M159.271212,101.936232 C159.271212,101.936232 189.435436,78.915256 193.61242,71.123408 C197.789404,63.33156 199.830332,60.849584 199.830332,60.849584 C199.830332,60.849584 194.957184,57.390384 191.454744,60.879852 C187.952304,64.36932 184.826052,56.555852 178.41356,67.318288 C178.41356,67.318288 177.444984,75.010684 173.194492,73.25514 C168.788336,71.434736 159.271212,101.936232 159.271212,101.936232 Z"/>
    <path fill="#E1E6FB" fill-rule="nonzero" d="M155.137468,105.719732 C155.137468,105.719732 177.955216,86.09742 186.170816,77.933708 C192.267656,71.880108 199.830332,60.849584 199.830332,60.849584 C199.830332,60.849584 204.262432,65.51518 201.93612,69.929984 C199.748176,74.068052 203.116572,77.401856 200.102744,82.296624 C196.842448,87.5892 188.860344,85.068308 191.303404,92.488292 C192.782212,96.989576 188.527396,101.438972 185.133056,103.938244 C182.971056,105.538124 175.814836,104.521984 177.63524,104.370644 C181.825196,104.06364 155.137468,105.719732 155.137468,105.719732 Z"/>
    <path fill="#FFF" fill-rule="nonzero" d="M185.448708,82.901984 C180.502052,88.159968 176.800708,92.765028 177.163924,93.184456 C177.52714,93.603884 181.838168,89.677692 186.784824,84.415384 C191.73148,79.153076 195.432824,74.55234 195.069608,74.132912 C194.706392,73.713484 190.395364,77.644 185.448708,82.901984 Z"/>
    <rect width="21.62" height="27.674" x="147.08" y="13.16" fill="#C1C7DB" fill-rule="nonzero"/>
    <rect width="150.908" height="111.127" x="22.27" y="31.377" fill="#C1C7DB" fill-rule="nonzero"/>
    <rect width="147.016" height="111.127" x="26.161" y="31.377" fill="#F8F8FF" fill-rule="nonzero"/>
    <rect width="143.989" height="7.783" x="27.458" y="33.107" fill="#FFF" fill-rule="nonzero"/>
    <rect width="143.989" height="100.317" x="27.458" y="40.458" fill="#D5DAEB" fill-rule="nonzero"/>
    <rect width="17.728" height="19.89" x="49.94" y="44.349" fill="#6A79B4" fill-rule="nonzero"/>
    <rect width="17.728" height="19.89" x="69.83" y="44.349" fill="#6A79B4" fill-rule="nonzero"/>
    <rect width="17.728" height="19.89" x="89.288" y="44.349" fill="#6A79B4" fill-rule="nonzero"/>
    <rect width="17.728" height="19.89" x="110.479" y="44.349" fill="#FFF" fill-rule="nonzero"/>
    <rect width="17.728" height="19.89" x="129.937" y="44.349" fill="#FFF" fill-rule="nonzero"/>
    <rect width="17.728" height="19.89" x="149.828" y="44.349" fill="#FFF" fill-rule="nonzero"/>
    <rect width="17.728" height="19.89" x="51.24" y="67.266" fill="#FFF" fill-rule="nonzero"/>
    <rect width="17.728" height="19.89" x="71.131" y="67.266" fill="#FFF" fill-rule="nonzero"/>
    <rect width="17.728" height="19.89" x="90.589" y="67.266" fill="#E1E6FB" fill-rule="nonzero"/>
    <rect width="17.728" height="19.89" x="110.479" y="67.266" fill="#FFF" fill-rule="nonzero"/>
    <rect width="17.728" height="19.89" x="129.937" y="67.266" fill="#FFF" fill-rule="nonzero"/>
    <rect width="17.728" height="19.89" x="149.828" y="67.266" fill="#FFF" fill-rule="nonzero"/>
    <rect width="17.728" height="19.89" x="51.24" y="89.319" fill="#FFF" fill-rule="nonzero"/>
    <rect width="17.728" height="19.89" x="71.131" y="89.319" fill="#FFF" fill-rule="nonzero"/>
    <rect width="17.728" height="19.89" x="90.589" y="89.319" fill="#E1E6FB" fill-rule="nonzero"/>
    <rect width="17.728" height="19.89" x="110.479" y="89.319" fill="#FFF" fill-rule="nonzero"/>
    <rect width="17.728" height="19.89" x="129.937" y="89.319" fill="#E1E6FB" fill-rule="nonzero"/>
    <rect width="17.728" height="19.89" x="149.828" y="89.319" fill="#FFF" fill-rule="nonzero"/>
    <rect width="17.728" height="19.89" x="51.673" y="111.804" fill="#E1E6FB" fill-rule="nonzero"/>
    <rect width="17.728" height="19.89" x="71.563" y="111.804" fill="#E1E6FB" fill-rule="nonzero"/>
    <rect width="17.728" height="19.89" x="91.021" y="111.804" fill="#FFF" fill-rule="nonzero"/>
    <rect width="17.728" height="19.89" x="110.912" y="111.804" fill="#FFF" fill-rule="nonzero"/>
    <rect width="17.728" height="19.89" x="130.37" y="111.804" fill="#BAC5F4" fill-rule="nonzero"/>
    <rect width="17.728" height="19.89" x="150.26" y="111.804" fill="#FFF" fill-rule="nonzero"/>
    <circle cx="31.566" cy="37.215" r="1.513" fill="#BAC5F4" fill-rule="nonzero"/>
    <circle cx="36.323" cy="37.215" r="1.513" fill="#BAC5F4" fill-rule="nonzero"/>
    <circle cx="41.079" cy="37.215" r="1.513" fill="#BAC5F4" fill-rule="nonzero"/>
    <rect width="15.999" height="3.892" x="31.782" y="66.834" fill="#FFF" fill-rule="nonzero" rx="1.946"/>
    <rect width="15.999" height="3.892" x="31.782" y="89.319" fill="#FFF" fill-rule="nonzero" rx="1.946"/>
    <rect width="15.999" height="3.892" x="31.782" y="111.804" fill="#FFF" fill-rule="nonzero" rx="1.946"/>
    <rect width="9.945" height="3.027" x="52.97" y="68.564" fill="#BAC5F4" fill-rule="nonzero" rx="1.513"/>
    <rect width="5.189" height="2.162" x="52.97" y="74.185" fill="#BAC5F4" fill-rule="nonzero" rx="1.081"/>
    <rect width="9.513" height="2.594" x="73.293" y="68.564" fill="#BAC5F4" fill-rule="nonzero" rx="1.297"/>
    <rect width="9.513" height="2.594" x="132.099" y="114.83" fill="#FFF" fill-rule="nonzero" rx="1.297"/>
    <rect width="9.513" height="2.594" x="151.557" y="91.481" fill="#F5F5FC" fill-rule="nonzero" rx="1.297"/>
    <rect width="9.513" height="2.594" x="151.125" y="68.996" fill="#F5F5FC" fill-rule="nonzero" rx="1.297"/>
    <rect width="9.513" height="2.594" x="131.667" y="68.996" fill="#F5F5FC" fill-rule="nonzero" rx="1.297"/>
    <circle cx="75.022" cy="74.617" r="1.73" fill="#BAC5F4" fill-rule="nonzero"/>
    <circle cx="114.371" cy="71.59" r="1.73" fill="#BAC5F4" fill-rule="nonzero"/>
    <circle cx="120.424" cy="71.59" r="1.73" fill="#BAC5F4" fill-rule="nonzero"/>
    <circle cx="120.424" cy="93.21" r="1.73" fill="#BAC5F4" fill-rule="nonzero"/>
    <circle cx="114.371" cy="93.21" r="1.73" fill="#BAC5F4" fill-rule="nonzero"/>
    <circle cx="119.992" cy="115.263" r="1.73" fill="#BAC5F4" fill-rule="nonzero"/>
    <circle cx="113.938" cy="115.263" r="1.73" fill="#BAC5F4" fill-rule="nonzero"/>
    <circle cx="61.186" cy="115.695" r="1.73" fill="#BAC5F4" fill-rule="nonzero"/>
    <circle cx="55.132" cy="115.695" r="1.73" fill="#BAC5F4" fill-rule="nonzero"/>
    <circle cx="114.371" cy="48.241" r="1.73" fill="#BAC5F4" fill-rule="nonzero"/>
    <circle cx="94.048" cy="48.241" r="1.73" fill="#FFF" fill-rule="nonzero"/>
    <circle cx="100.102" cy="48.241" r="1.73" fill="#FFF" fill-rule="nonzero"/>
    <circle cx="74.59" cy="48.241" r="1.73" fill="#FFF" fill-rule="nonzero"/>
    <circle cx="80.644" cy="48.241" r="1.73" fill="#FFF" fill-rule="nonzero"/>
    <circle cx="55.132" cy="48.241" r="1.73" fill="#FFF" fill-rule="nonzero"/>
    <circle cx="61.186" cy="48.241" r="1.73" fill="#FFF" fill-rule="nonzero"/>
    <text fill="#BAC5F4" font-family="Helvetica" font-size="12.107">
      <tspan x="120.632" y="61.269">4</tspan>
    </text>
    <text fill="#FFF" font-family="Helvetica" font-size="12.107">
      <tspan x="79.328" y="61.269">2</tspan>
    </text>
    <text fill="#BAC5F4" font-family="Helvetica" font-size="12.107">
      <tspan x="61.033" y="83.667">7</tspan>
    </text>
    <text fill="#BAC5F4" font-family="Helvetica" font-size="12.107">
      <tspan x="114.063" y="83.693">10</tspan>
    </text>
    <text fill="#BAC5F4" font-family="Helvetica" font-size="12.107">
      <tspan x="93.871" y="106.078">15</tspan>
    </text>
    <text fill="#BAC5F4" font-family="Helvetica" font-size="12.107">
      <tspan x="152.245" y="106.943">18</tspan>
    </text>
    <text fill="#BAC5F4" font-family="Helvetica" font-size="12.107">
      <tspan x="74.098" y="127.435">28</tspan>
    </text>
    <g fill-rule="nonzero" transform="translate(0 40)">
      <rect width="91.199" height="27.522" x="45.906" y="21.412" fill="#F2F2F2" rx="4.312"/>
      <use fill="#000" filter="url(#icon_empty_overview_calender-a)" xlink:href="#icon_empty_overview_calender-b"/>
      <use fill="#FFF" xlink:href="#icon_empty_overview_calender-b"/>
      <rect width="21.098" height="4.777" x="57.022" y="27.326" fill="#6C63FF"/>
      <rect width="64.656" height="2.502" x="57.022" y="35.06" fill="#6C63FF" opacity=".3"/>
      <rect width="25.862" height="2.502" x="57.022" y="40.518" fill="#6C63FF" opacity=".3"/>
      <ellipse cx="19.667" cy="10.458" fill="#3F3D56" rx="8.11" ry="8.131"/>
      <path fill="#3F3D56" d="M14.9617286,73.7130192 C15.7988518,79.6017969 14.7779698,85.606576 13.1876624,91.3361361 C12.8904723,92.4028942 12.5705959,93.4787505 12.0147824,94.4363308 C11.4589688,95.3939111 10.6853671,96.2172937 10.0320026,97.1180106 C8.67082649,98.9967786 7.87226987,101.212178 7.12589166,103.404832 C5.06815187,109.472031 3.33994785,115.646602 1.94888534,121.901372 C1.86506384,122.157749 1.86506384,122.434259 1.94888534,122.690636 C2.14625587,123.145544 2.74517334,123.204682 3.23746535,123.202468 L9.6032321,123.168289 C9.83009478,122.731578 9.41039883,122.258474 9.14950675,121.839959 C8.24205603,120.425197 9.11320872,118.587371 9.91403397,117.106647 C11.8603684,113.510395 13.3670271,109.691931 14.4013777,105.733959 C14.8369541,104.066723 15.1908599,102.363094 15.8986714,100.791389 C16.7539437,98.8853263 18.0947021,97.2453847 19.183643,95.4621472 C20.4495367,93.3900435 21.3728678,91.1405259 22.2893931,88.8819101 C23.5688986,85.7475974 24.8597472,82.5746175 25.3633824,79.2264982 C25.8375254,76.0830873 25.6038568,72.8805384 25.2953236,69.7166567 C25.3244168,69.5257205 25.2601256,69.3324095 25.1225599,69.1971898 C24.9849942,69.06197 24.7909504,69.0013516 24.6011238,69.0342954 L16.0597439,68.5930352 C14.2992895,68.5020537 13.8818622,68.1153823 14.1495602,69.8485799 C14.3355876,71.1427917 14.7757012,72.4028856 14.9617286,73.7130192 Z"/>
      <path fill="#000" d="M14.9617286,73.7130192 C15.7988518,79.6017969 14.7779698,85.606576 13.1876624,91.3361361 C12.8904723,92.4028942 12.5705959,93.4787505 12.0147824,94.4363308 C11.4589688,95.3939111 10.6853671,96.2172937 10.0320026,97.1180106 C8.67082649,98.9967786 7.87226987,101.212178 7.12589166,103.404832 C5.06815187,109.472031 3.33994785,115.646602 1.94888534,121.901372 C1.86506384,122.157749 1.86506384,122.434259 1.94888534,122.690636 C2.14625587,123.145544 2.74517334,123.204682 3.23746535,123.202468 L9.6032321,123.168289 C9.83009478,122.731578 9.41039883,122.258474 9.14950675,121.839959 C8.24205603,120.425197 9.11320872,118.587371 9.91403397,117.106647 C11.8603684,113.510395 13.3670271,109.691931 14.4013777,105.733959 C14.8369541,104.066723 15.1908599,102.363094 15.8986714,100.791389 C16.7539437,98.8853263 18.0947021,97.2453847 19.183643,95.4621472 C20.4495367,93.3900435 21.3728678,91.1405259 22.2893931,88.8819101 C23.5688986,85.7475974 24.8597472,82.5746175 25.3633824,79.2264982 C25.8375254,76.0830873 25.6038568,72.8805384 25.2953236,69.7166567 C25.3244168,69.5257205 25.2601256,69.3324095 25.1225599,69.1971898 C24.9849942,69.06197 24.7909504,69.0013516 24.6011238,69.0342954 L16.0597439,68.5930352 C14.2992895,68.5020537 13.8818622,68.1153823 14.1495602,69.8485799 C14.3355876,71.1427917 14.7757012,72.4028856 14.9617286,73.7130192 Z" opacity=".1"/>
      <path fill="#3F3D56" d="M16.6405124,59.3948053 C14.9050129,61.8967966 13.0855742,64.7763611 13.6618054,67.7719271 C14.0996504,70.0464646 15.828344,71.8092312 17.4594866,73.458271 C23.97952,80.0225863 30.3906593,87.3147537 32.6093763,96.3105497 C33.1810702,98.6351271 33.4578427,101.021117 33.9501347,103.361616 C34.8439737,107.615001 36.4456242,111.681875 38.0336629,115.723728 L42.2805323,126.500487 C44.9844818,126.5671 47.4412673,124.931036 48.4285109,122.406319 C47.8704287,122.363103 47.1421995,121.821763 46.8155172,121.366855 C45.0006158,118.848942 44.628561,115.610001 44.1634925,112.539375 C43.6485142,109.145765 42.9611203,105.77945 42.2714578,102.415409 L39.2314979,87.5353839 C38.8798607,85.818108 38.5282236,84.0985576 38.069961,82.4085762 C36.2958948,75.8510845 32.9337899,69.671166 32.4142744,62.8907695 C32.3371411,61.8945221 32.2894999,60.8004695 31.6157178,60.0612448 C30.9079062,59.2810784 29.7463693,59.1514298 28.6959951,59.0900173 C24.4468571,58.8079746 20.7807563,58.3917342 16.6405124,59.3948053 Z"/>
      <path fill="#F2F2F2" d="M5.17714125 121.748978C4.7144536 121.638833 4.24148386 121.577842 3.76605539 121.567015 2.84218085 121.599827 1.98789059 122.067707 1.46113058 122.829383 1.19609223 123.255202.987873275 123.714018.841795469 124.194106L.226997611 125.963696C.0455074688 126.48229-.13144542 127.080494.138521167 127.555872.337905502 127.854607.62721234 128.081714.964301316 128.204115 2.45252048 128.86828 4.12903568 128.904673 5.75110383 129.06389 7.32553081 129.218559 8.88634604 129.496053 10.4403554 129.789468 10.9757513 129.889548 11.5088786 129.991902 12.0510804 130.046491 13.2625271 130.169316 14.4830483 130.046491 15.694495 129.937313L16.9445084 129.816762C17.3629322 129.79867 17.7767898 129.722113 18.1741041 129.589309 18.5751828 129.452903 18.9030905 129.15784 19.0815548 128.77275 19.390088 128.006231 18.727649 127.09869 17.9177493 126.95312 17.5887984 126.887158 17.2485044 126.916727 16.9150162 126.873511 16.537045 126.808542 16.1683412 126.697795 15.8170009 126.543703 14.217619 125.913656 12.6023567 125.276785 11.1958081 124.285087 10.8056043 124.009868 10.3972515 123.625471 10.4403554 123.147818 10.4809122 122.943236 10.548828 122.745078 10.6422632 122.558713 10.8329805 122.070641 10.8394341 121.529553 10.6604122 121.037047 10.5832789 120.82779 10.4335495 120.60716 10.2225672 120.58214 9.62364974 120.509355 9.6962458 121.385052 9.60776936 121.719409 9.48753214 122.174316 9.26974396 122.215258 8.84324213 122.174316 7.61818367 122.042393 6.39312521 121.980981 5.17714125 121.748978zM40.9919523 127.851562C41.0028874 128.740316 41.3076891 129.600304 41.8585677 130.29669 42.026989 130.504431 42.2372646 130.674175 42.4756342 130.794814 42.8309967 130.941202 43.215448 131.002719 43.5986044 130.974502 44.6785217 130.950946 45.7455972 130.73451 46.749727 130.335357 47.1034753 130.174733 47.4672147 130.037215 47.8386679 129.923666 48.3061525 129.827785 48.7788359 129.759432 49.254291 129.718957 51.1304453 129.448287 52.7774684 128.338313 54.5901012 127.776502 55.1316868 127.641958 55.6625062 127.467092 56.1781399 127.253359 56.895026 126.914452 57.4757945 126.343544 58.0452198 125.790831 58.3803911 125.49272 58.6694086 125.146222 58.9027607 124.76274 59.2362488 124.139517 59.2566665 123.398017 59.2702782 122.692911 59.2825136 122.583003 59.263645 122.471861 59.2158312 122.372201 59.1640273 122.300427 59.0933344 122.244513 59.0116548 122.210709 58.4603785 121.937764 57.807014 122.074237 57.1967534 122.18114 54.9916481 122.574635 52.7343645 122.50185 50.4952298 122.429064 50.0584542 122.489259 49.635875 122.247556 49.4652733 121.839959L48.6145382 120.475237C48.3717952 120.084016 47.9861286 119.635932 47.546015 119.77013 47.1943779 119.877033 47.0514544 120.309195 47.0650662 120.679945 47.0786779 121.050695 47.1921093 121.41917 47.1217818 121.780821 47.0204072 122.183156 46.7576809 122.52559 46.3958213 122.727029 46.0384584 122.921851 45.6570806 123.068682 45.2615079 123.16374 44.0092259 123.518568 42.5527675 123.921161 41.5840638 124.844623 40.8830582 125.508788 40.9488484 126.975865 40.9919523 127.851562z"/>
      <path fill="#FBBEBE" d="M40.5518387 37.6206573C41.0403604 37.246394 41.4596052 36.7891041 41.7905089 36.269582 42.0756057 35.6834097 42.2545826 35.0511229 42.3190989 34.4021867L42.6752733 32.1458454C42.8726439 30.9016734 43.1040438 29.5847162 43.9320926 28.636234 44.7601413 27.6877518 46.409433 27.3488458 47.2510936 28.2859552 47.6186111 28.6930974 47.7638032 29.2526337 47.8545483 29.7962482 48.3788002 33.0794721 47.3930002 36.4242044 45.1730314 38.8943984 44.154418 40.0134708 42.9044046 40.902815 41.8268069 41.960475 40.8875954 42.87029 40.0731584 43.9143027 39.206543 44.9037266 37.1108287 47.2937885 34.710418 49.396848 32.0671745 51.1587048 32.0989353 49.4664489 32.3144548 47.6513679 32.0671745 45.9704847 31.8834157 44.7558816 31.3865865 44.1008148 32.5594665 43.3070012 35.2818186 41.4509786 38.0291257 39.7723699 40.5518387 37.6206573zM17.6750062 20.9755915C17.5865297 22.1856455 17.0851632 23.4229939 16.0869674 24.121277 18.9136764 25.1129753 21.7018187 26.2062697 24.4513944 27.4011601 23.9205357 26.8893892 23.7594632 26.1046737 23.7345083 25.3677235 23.6641809 23.4411902 24.3288885 21.5465005 25.2998608 19.886088 25.4543267 19.675471 25.5434891 19.4238999 25.5562156 19.1627851 25.5244549 18.6259942 24.8892394 18.3780697 24.3674552 18.2529701 22.5872626 17.8200014 20.7704206 17.5557511 18.9408999 17.4637056 18.1582237 17.4386856 17.2303553 17.190761 17.4073082 18.189283 17.5751866 19.1218434 17.7453336 20.0316585 17.6750062 20.9755915z"/>
      <ellipse cx="23.142" cy="14.975" fill="#FBBEBE" rx="6.631" ry="6.648"/>
      <path fill="#FF6584" d="M29.7078026,32.9328354 C29.4762852,32.4336088 29.1942527,31.9595354 28.8661421,31.5180731 C27.6637699,29.78715 26.4296369,28.0585015 24.8869707,26.6255428 C23.7184006,25.5806835 22.4536533,24.6492626 21.1097071,23.8437834 C20.3845594,23.3454131 19.5872675,22.9618386 18.745798,22.7065146 C18.2464721,22.5955682 17.7388281,22.5263365 17.2280867,22.4995317 L15.506199,22.3585104 C15.3552157,22.3384399 15.2019854,22.3430488 15.0524736,22.3721576 C14.5851365,22.4904335 14.3718856,23.0727152 14.4717052,23.5435444 C14.5715248,24.0143737 14.9254305,24.396496 15.238501,24.7535984 C15.3156343,28.2768571 13.7525505,31.7523504 13.5415682,35.27106 C13.171782,41.4123114 16.9172848,47.1464206 17.2167436,53.3035937 C17.2476158,53.5818258 17.21821,53.8634609 17.1305358,54.1292509 C17.080626,54.256625 17.0057613,54.3726264 16.9490456,54.497726 C16.7720927,54.8843973 16.7788986,55.3233831 16.7471378,55.7487216 C16.6235341,57.2656944 15.9610136,58.6878117 14.880058,59.7564568 C15.1609884,60.1060883 15.5221522,60.3823492 15.9327008,60.5616431 C16.6563928,60.8778038 17.5207396,60.9050982 18.2898041,61.1257284 C20.2952701,61.7125591 22.350646,62.3039388 24.435514,62.1788393 C24.6945267,61.6137376 24.8549015,61.0082648 24.909657,60.3887782 C25.2045785,60.2045407 25.5448725,60.5980357 25.590245,60.9437654 C25.6356176,61.2894951 25.5698274,61.6920882 25.8171077,61.9422874 C26.064388,62.1924865 26.3774585,62.1538193 26.6791859,62.1151522 C27.9518855,61.95366 29.1746754,61.5237724 30.4224201,61.2349062 C31.6701648,60.9460399 33.0041174,60.8072931 34.2178327,61.221259 C34.4628444,60.9096473 34.3584875,60.4479162 34.1588484,60.1067356 C33.9592092,59.7655549 33.6756309,59.465316 33.5621995,59.0854682 C33.5051187,58.8666206 33.480655,58.6405084 33.4896035,58.4144796 C33.4896035,56.46975 33.8888818,54.5045496 33.5100211,52.5962126 C33.3988584,52.0366763 33.2219055,51.4907873 33.1084742,50.9289765 C32.8816115,49.839473 32.9156409,48.7158515 32.9451331,47.6036026 C32.9746252,46.4913538 32.8407762,45.2881234 32.81809,44.1599528 C32.8173869,43.693729 32.7870773,43.2280231 32.7273449,42.7656613 C32.6502116,42.2811848 32.5004822,41.808081 32.4596469,41.3190554 C32.3371411,40.0771579 32.836239,38.8443585 32.7613743,37.597912 C32.6365998,35.7054967 30.4428377,34.6774057 29.7078026,32.9328354 Z"/>
      <path fill="#FBBEBE" d="M14.7416718,32.0412167 C13.135484,36.3127982 12.3505391,40.843677 11.5655943,45.3427123 L9.75069284,55.9102138 C9.23571456,58.8966816 8.71846766,61.9013457 8.7388853,64.9310297 C8.7388853,65.7817067 8.79333234,66.6483055 8.57100692,67.4694136 C8.28062269,68.5475444 7.55919937,69.4459867 7.01246032,70.4263124 C5.90309084,72.4282517 5.53355668,74.7583553 5.968892,77.0065496 C6.15491939,77.9504826 6.66309179,79.0217898 7.61818367,79.1309676 C8.40312853,79.2174001 9.08144794,78.5919022 9.53971055,77.9459336 C10.5923534,76.4652096 11.1141375,74.6774231 11.5814747,72.916931 C13.085946,67.1635938 14.1380338,61.3008135 14.72806,55.3825211 C14.7841423,54.6333586 14.8894843,53.8887244 15.0433991,53.1534743 C15.243757,52.3954568 15.5000624,51.6534277 15.810195,50.9335256 C16.5043948,49.2079098 17.1993508,47.482294 17.895063,45.7566781 C19.4989821,41.7694138 21.1119758,37.7639532 23.3148124,34.0746533 C21.1369307,33.4468809 18.8705725,32.7099308 16.6926908,32.088982 C16.0642812,31.9024699 15.390499,32.0139223 14.7416718,32.0412167 Z"/>
      <path fill="#FF6584" d="M18.5166667,35.2801582 C16.9921495,34.9503502 15.4154539,35.0527044 13.8591759,35.0140373 C13.6381622,35.0301515 13.4180329,34.9725768 13.233035,34.8502706 C12.9176958,34.5796006 13.0515448,34.0723787 13.2103487,33.6879819 L13.9635328,31.8683519 C14.0871541,31.4922023 14.2933694,31.148651 14.5669875,30.8630063 C14.9503854,30.5218256 15.4903186,30.4376677 15.998491,30.3762552 C17.6523199,30.1851941 19.35379,30.121507 20.9577091,30.5695909 C22.5616283,31.0176748 24.0702651,32.0366676 24.7871512,33.544686 C25.0866099,34.1724584 25.2249961,34.9639975 24.8279864,35.5349064 C24.2381435,36.3833089 22.9155341,37.3317911 21.9286814,36.8677854 C20.7467269,36.3127982 19.8415448,35.5690245 18.5166667,35.2801582 Z"/>
      <path fill="#3F3D56" d="M26.6224702,4.648961 C25.3138469,4.63510191 24.0298495,5.00596418 22.9291458,5.71571911 C20.805484,3.69814386 17.7626222,2.98368538 14.9662658,3.84604924 C14.5605547,1.52136642 12.4812847,-0.12923112 10.1313959,0.00795986615 C7.78150708,0.145150852 5.90737171,2.02655573 5.77352007,4.38273926 C5.63966843,6.73892278 7.28861451,8.82151348 9.60776936,9.22533055 C8.66993159,12.0487203 9.34528725,15.1602258 11.3685365,17.3375549 C13.3917857,19.5148841 16.4397151,20.4102091 19.315007,19.6718197 C22.1902989,18.9334303 24.4336262,16.6792839 25.1637432,13.7948765 C25.6422779,13.8930821 26.1294765,13.9426147 26.617933,13.9427214 C29.8166967,13.9427214 32.4120058,11.8615196 32.4120058,9.29584121 C32.4120058,6.73016286 29.8166967,4.648961 26.6224702,4.648961 Z"/>
      <path fill="#000" d="M27.7772013 11.6181441C27.2886734 11.6194717 26.8013289 11.5699243 26.3230115 11.4702991 26.0958065 12.3022208 25.7373754 13.092363 25.2612942 13.8107982 25.7098897 13.8974694 26.1656227 13.9416384 26.6224702 13.9427214 29.6125203 13.9427214 32.0671745 12.1230914 32.3825136 9.79396494 31.3185277 10.9039393 29.651087 11.6181441 27.7772013 11.6181441zM18.5075922 17.4341366C15.9342933 17.4304112 13.5150042 16.204224 11.9862366 14.1288669 10.457469 12.0535099 10.0001215 9.37455944 10.7534259 6.90757678 8.5376356 6.51672408 6.9218217 4.5868911 6.92171525 2.33120723 6.92125108 2.05200327 6.94631078 1.77334421 6.99657993 1.49872649 5.84396112 2.74721499 5.46394656 4.52739723 6.00591316 6.13951543 6.54787976 7.75163363 7.9251817 8.93795359 9.59642622 9.23215416 8.29615069 13.5127059 10.6896948 18.0421906 14.9524224 19.3677112 19.2151501 20.6932318 23.7450365 18.3166292 25.0888785 14.0496247 23.5675489 16.1755061 21.117258 17.4356 18.5075922 17.4341366L18.5075922 17.4341366z" opacity=".1"/>
    </g>
  </g>
</svg>
