<svg xmlns="http://www.w3.org/2000/svg" width="24" height="24" viewBox="0 0 24 24">
  <g fill="none" fill-rule="evenodd">
    <g transform="translate(4 5)">
      <path fill="#1C2231" d="M11.7377474,3.79282105 C11.7377474,4.44566316 11.2086947,4.97471579 10.5558526,4.97471579 C9.90374737,4.97471579 9.37395789,4.44566316 9.37395789,3.79282105 C9.37395789,3.14071579 9.90374737,2.61092632 10.5558526,2.61092632 C11.2086947,2.61092632 11.7377474,3.14071579 11.7377474,3.79282105"/>
      <path stroke="#1C2231" stroke-linecap="round" stroke-linejoin="bevel" stroke-width="1.4" d="M7.48292632,8.64057895 C8.10850526,8.99278947 8.82987368,9.19321053 9.5984,9.19321053 C11.9842947,9.19321053 13.9185053,7.259 13.9185053,4.87310526 C13.9185053,2.48647368 11.9842947,0.552263158 9.5984,0.552263158 C7.21250526,0.552263158 5.27829474,2.48647368 5.27829474,4.87310526 C5.27829474,5.07057895 5.29155789,5.26510526 5.31734737,5.45594737 L5.13682105,6.03436842 L0.552926316,10.6182632 L0.552926316,13.9384737 L3.18124211,13.9384737 L3.18124211,12.0646842 L4.97397895,12.0646842 L4.97397895,10.4355263 L6.6444,10.4355263 L6.6444,7.90889474 L7.48292632,8.64057895 Z"/>
    </g>
    <g fill-rule="nonzero" transform="translate(11 11)">
      <path fill="#FF8000" d="M7.12184403,1.8444651 L10.7246569,7.70600626 C11.1096647,8.33238884 10.9139918,9.15228275 10.2876093,9.53729057 C10.0779253,9.66617338 9.83661715,9.73440459 9.59049093,9.73440459 L2.38193935,9.73440459 C1.64669371,9.73440459 1.05065935,9.13837023 1.05065935,8.40312459 C1.05065935,8.15683454 1.11898136,7.91537226 1.24802594,7.70559551 L4.85376464,1.84405434 C5.23899932,1.21781126 6.05896406,1.02243534 6.68520714,1.40767002 C6.86298052,1.51702767 7.01255078,1.66665211 7.12184403,1.8444651 Z"/>
      <path fill="#FFF" d="M5.98813834,8.42872902 C5.70875918,8.42872902 5.47594322,8.18768219 5.47594322,7.89842599 C5.47594322,7.60916979 5.70875918,7.36812296 5.98813834,7.36812296 C6.2675175,7.36812296 6.50033346,7.60916979 6.50033346,7.89842599 C6.50033346,8.18768219 6.29079909,8.42872902 5.98813834,8.42872902 C6.01141993,8.42872902 5.98813834,8.42872902 5.98813834,8.42872902 Z M6.56543018,4.22554697 L6.20209965,6.85465495 L5.76610301,6.85465495 L5.40277248,4.22554697 L5.40277248,4.0847019 C5.40277248,3.70911504 5.60260428,3.52132161 5.98410133,3.52132161 C6.36559839,3.52132161 6.56543018,3.70911504 6.56543018,4.0847019 C6.58359671,4.13165025 6.56543018,4.17859861 6.56543018,4.22554697 Z"/>
    </g>
  </g>
</svg>
