<svg xmlns="http://www.w3.org/2000/svg" width="24" height="24" viewBox="0 0 24 24">
  <g fill="none" transform="translate(6.5 3)">
    <rect width="10.163" height="17.163" x=".419" y=".419" fill="#FFF" stroke="#002989" stroke-width=".837" rx="1.256"/>
    <polyline fill="#6B91FE" points="10.154 .857 10.154 17.143 .846 17.143" opacity=".203"/>
    <rect width="5.077" height="1.286" x="1.692" y="2.571" fill="#6B91FE"/>
    <rect width="5.077" height="1.286" x="1.692" y="9" fill="#6B91FE"/>
    <rect width="1.269" height="1.286" x="7.615" y="2.571" fill="#002989"/>
    <rect width="1.269" height="1.286" x="7.615" y="9" fill="#002989"/>
    <rect width="1.269" height="1.286" x="7.615" y="4.714" fill="#002989"/>
    <rect width="1.269" height="1.286" x="7.615" y="11.143" fill="#002989"/>
    <rect width="1.269" height="1.286" x="7.615" y="6.857" fill="#002989"/>
    <rect width="1.269" height="1.286" x="7.615" y="13.286" fill="#002989"/>
    <rect width="5.077" height="1.286" x="1.692" y="4.714" fill="#6B91FE"/>
    <rect width="5.077" height="1.286" x="1.692" y="11.143" fill="#6B91FE"/>
    <rect width="5.077" height="1.286" x="1.692" y="6.857" fill="#6B91FE"/>
    <rect width="5.077" height="1.286" x="1.692" y="13.286" fill="#6B91FE"/>
  </g>
</svg>
