<svg xmlns="http://www.w3.org/2000/svg" width="24" height="24" viewBox="0 0 24 24">
  <path fill="#1C2231" d="M13.2500371,20 L13.2500371,17.25 C13.2500371,16.8357864 13.5858235,16.5 14.0000371,16.5 C14.4142507,16.5 14.7500371,16.8357864 14.7500371,17.25 L14.7500371,20 L17.2189567,20 C16.907947,19.2929251 16.7500371,18.5766657 16.7500371,17.8542132 L16.7500371,15.9938441 C14.7814621,15.9879108 9.25127002,15.9891247 7.2500371,15.9952266 L7.2500371,18.0343366 C7.2500371,18.7050564 7.10465992,19.3614699 6.81860061,20 L9.2500371,20 L9.2500371,18.25 C9.2500371,17.8357864 9.58582354,17.5 10.0000371,17.5 C10.4142507,17.5 10.7500371,17.8357864 10.7500371,18.25 L10.7500371,20 L13.2500371,20 Z M5.7500371,15.25 C5.7500371,12.0520384 8.15186711,9.41505418 11.2500371,9.04453749 L11.2500371,3.25 C11.2500371,2.83578644 11.5858235,2.5 12.0000371,2.5 C12.4142507,2.5 12.7500371,2.83578644 12.7500371,3.25 L12.7500371,9.04453749 C15.8482071,9.41505418 18.2500371,12.0520384 18.2500371,15.25 L18.2500371,17.8542132 C18.2500371,18.6585772 18.5330042,19.4779895 19.1171571,20.3237807 C19.4607555,20.8212745 19.1046526,21.5 18.5000371,21.5 L5.5000371,21.5 C4.88077298,21.5 4.52832318,20.7919537 4.90164226,20.2978677 C5.47413565,19.5401755 5.7500371,18.7909201 5.7500371,18.0343366 L5.7500371,15.25 Z M12.0000371,10.5 C9.63355065,10.5 7.67126146,12.2305742 7.30967398,14.4952181 C9.36698055,14.4888388 14.6171268,14.4878377 16.6903492,14.4948984 C16.3286281,12.2304113 14.3664122,10.5 12.0000371,10.5 Z"/>
</svg>
