<svg xmlns="http://www.w3.org/2000/svg" width="32" height="16" viewBox="0 0 32 16">
  <g fill="none">
    <path fill="#1973E8" d="M8,0 L24,0 C28.418278,-8.11624501e-16 32,3.581722 32,8 C32,12.418278 28.418278,16 24,16 L8,16 C3.581722,16 5.41083001e-16,12.418278 0,8 C-5.41083001e-16,3.581722 3.581722,8.11624501e-16 8,0 Z M24,15 C27.8659932,15 31,11.8659932 31,8 C31,4.13400675 27.8659932,1 24,1 C20.1340068,1 17,4.13400675 17,8 C17,11.8659932 20.1340068,15 24,15 Z"/>
    <circle cx="24" cy="8" r="7" fill="#FFF"/>
  </g>
</svg>
