<svg xmlns="http://www.w3.org/2000/svg" width="30" height="30" viewBox="0 0 30 30">
  <g fill="#1C2231" transform="translate(2 1)">
    <path d="M18.902,14.5 C22.8232727,14.5 26,17.748 26,21.75 C26,25.752 22.8232727,29 18.902,29 C14.9878182,29 11.8181818,25.752 11.8181818,21.75 C11.8181818,17.748 14.9878182,14.5 18.902,14.5 Z M18.9090909,27.55 C22.0432727,27.55 24.5818182,24.9545 24.5818182,21.75 C24.5818182,18.5455 22.0432727,15.95 18.9090909,15.95 C15.7749091,15.95 13.2363636,18.5455 13.2363636,21.75 C13.2363636,24.9545 15.7749091,27.55 18.9090909,27.55 Z M19.2636364,18.125 L19.2636364,21.93125 L22.4545455,23.867 L21.9227273,24.75875 L18.2,22.475 L18.2,18.125 L19.2636364,18.125 Z"/>
    <path d="M25.2121212,17.7222222 L25.2121212,12.8888889 L23.6363636,12.8888889 L23.6363636,6.44444444 C23.6363636,5.1097563 22.5781276,4.02777778 21.2727273,4.02777778 L3.93939394,4.02777778 C2.63399362,4.02777778 1.57575758,5.1097563 1.57575758,6.44444444 L1.57575758,22.5555556 C1.57575758,23.8902437 2.63399362,24.9722222 3.93939394,24.9722222 L9.45454545,24.9722222 L9.45454545,26.5833333 L21.2727273,26.5833333 L3.93939394,26.5833333 C1.76372674,26.5833333 0,24.7800358 0,22.5555556 L0,6.44444444 C0,4.2199642 1.76372674,2.41666667 3.93939394,2.41666667 L21.2727273,2.41666667 C23.4483945,2.41666667 25.2121212,4.2199642 25.2121212,6.44444444 L25.2121212,17.7222222 Z"/>
    <polygon points=".809 10.537 24.424 10.537 24.424 8.925 .809 8.925"/>
    <path d="M5.90909091.805555556L5.90909091 5.63888889C5.90909091 6.08378494 6.26183626 6.44444444 6.6969697 6.44444444 7.13210314 6.44444444 7.48484848 6.08378494 7.48484848 5.63888889L7.48484848.805555556C7.48484848.360659507 7.13210314 0 6.6969697 0 6.26183626 0 5.90909091.360659507 5.90909091.805555556zM17.7272727.805555556L17.7272727 5.63888889C17.7272727 6.08378494 18.0800181 6.44444444 18.5151515 6.44444444 18.950285 6.44444444 19.3030303 6.08378494 19.3030303 5.63888889L19.3030303.805555556C19.3030303.360659507 18.950285 0 18.5151515 0 18.0800181 0 17.7272727.360659507 17.7272727.805555556z"/>
  </g>
</svg>
