<svg xmlns="http://www.w3.org/2000/svg" width="24" height="24" viewBox="0 0 24 24">
  <path fill="#1C2231" d="M12.1822673,15.6666667 C12.9156006,15.6666667 13.5156006,15.0666667 13.5156006,14.3333333 C13.5156006,13.6 12.9156006,13 12.1822673,13 C11.4489339,13 10.8489339,13.6 10.8489339,14.3333333 C10.8489339,15.0666667 11.4489339,15.6666667 12.1822673,15.6666667 Z M16.1822673,9.66666667 L12.6666667,9.66666667 L12.6666667,8.33333333 C12.6666667,6.49333333 11.1733333,5 9.33333333,5 C7.49333333,5 6,6.49333333 6,8.33333333 L7.26666667,8.33333333 C7.26666667,7.19333333 8.19333333,6.26666667 9.33333333,6.26666667 C10.4733333,6.26666667 11.4,7.19333333 11.4,8.33333333 L11.4,9.66666667 L8.18226725,9.66666667 C7.44893392,9.66666667 6.84893392,10.2666667 6.84893392,11 L6.84893392,17.6666667 C6.84893392,18.4 7.44893392,19 8.18226725,19 L16.1822673,19 C16.9156006,19 17.5156006,18.4 17.5156006,17.6666667 L17.5156006,11 C17.5156006,10.2666667 16.9156006,9.66666667 16.1822673,9.66666667 Z M16.1822673,17.6666667 L8.18226725,17.6666667 L8.18226725,11 L16.1822673,11 L16.1822673,17.6666667 Z" transform="matrix(-1 0 0 1 23.516 0)"/>
</svg>
