<?xml version="1.0" encoding="UTF-8"?>
<svg width="24px" height="24px" viewBox="0 0 24 24" version="1.1" xmlns="http://www.w3.org/2000/svg" xmlns:xlink="http://www.w3.org/1999/xlink">
    <title>icon_tree_folder open</title>
    <g id="symbol" stroke="none" stroke-width="1" fill="none" fill-rule="evenodd">
        <g id="icon-/-tree-/-folder-open" stroke="#1C2231" stroke-width="1.5">
            <path d="M8.64089182,4.75 C8.98567657,4.75 9.31515023,4.89241158 9.55138286,5.14355032 L9.55138286,5.14355032 L12.4766015,8.25334821 L19,8.25334821 C19.345178,8.25334821 19.657678,8.39325923 19.8838835,8.61946474 C20.110089,8.84567025 20.25,9.15817025 20.25,9.50334821 L20.25,9.50334821 L20.25,18 C20.25,18.345178 20.110089,18.657678 19.8838835,18.8838835 C19.657678,19.110089 19.345178,19.25 19,19.25 L19,19.25 L5,19.25 C4.65482203,19.25 4.34232203,19.110089 4.11611652,18.8838835 C3.88991102,18.657678 3.75,18.345178 3.75,18 L3.75,18 L3.75,6 C3.75,5.65482203 3.88991102,5.34232203 4.11611652,5.11611652 C4.34232203,4.88991102 4.65482203,4.75 5,4.75 L5,4.75 Z" id="Rectangle-Copy"></path>
            <path d="M21.4358526,10.2619629 C21.6429594,10.2619629 21.8304594,10.3459095 21.9661827,10.4816328 C22.0873005,10.6027507 22.1671857,10.7651012 22.1829763,10.9458226 L22.1829763,10.9458226 L20.612121,18.2678186 C20.5492204,18.5545793 20.3907664,18.8001246 20.1746431,18.9739798 C19.9585197,19.147835 19.6847269,19.25 19.3911487,19.25 L19.3911487,19.25 L5.48624599,19.25 C5.14106802,19.25 4.82856802,19.110089 4.60236251,18.8838835 C4.3915031,18.6730241 4.25562667,18.3871817 4.23816105,18.0697841 L4.23816105,18.0697841 L5.68841615,11.2441442 C5.75131672,10.9573836 5.90977068,10.7118383 6.12589406,10.5379831 C6.34201743,10.3641279 6.6158102,10.2619629 6.90938837,10.2619629 L6.90938837,10.2619629 Z" id="Rectangle" fill="#FFFFFF"></path>
        </g>
    </g>
</svg>