<svg xmlns="http://www.w3.org/2000/svg" width="24" height="24" viewBox="0 0 24 24">
  <g fill="none" fill-rule="evenodd" stroke="#1C2231" stroke-width="1.5">
    <path d="M5,4.75 C4.30964406,4.75 3.75,5.30964406 3.75,6 L3.75,18 C3.75,18.6903559 4.30964406,19.25 5,19.25 L19,19.25 C19.6903559,19.25 20.25,18.6903559 20.25,18 L20.25,9.50334821 C20.25,8.81299228 19.6903559,8.25334821 19,8.25334821 L12.4766015,8.25334821 L9.55138286,5.14355032 C9.31515023,4.89241158 8.98567657,4.75 8.64089182,4.75 L5,4.75 Z"/>
    <path fill="#FFF" d="M6.90938837,10.2619629 C6.32223202,10.2619629 5.81421728,10.670623 5.68841615,11.2441442 L4.26527376,17.7321814 C4.24597842,17.8201479 4.23624599,17.9099421 4.23624599,18 C4.23624599,18.6903559 4.79589005,19.25 5.48624599,19.25 L19.3911487,19.25 C19.9783051,19.25 20.4863198,18.8413399 20.612121,18.2678186 L22.168436,11.1726541 C22.1800132,11.1198741 22.1858526,11.0659976 22.1858526,11.0119629 C22.1858526,10.5977493 21.8500662,10.2619629 21.4358526,10.2619629 L6.90938837,10.2619629 Z"/>
  </g>
</svg>
