<svg xmlns="http://www.w3.org/2000/svg" width="24" height="24" viewBox="0 0 24 24">
  <path d="M12.0254565,14.7900609 C10.4121605,14.7900609 9.10432565,13.5395458 9.10432565,11.9969574 C9.10432565,10.454369 10.4121605,9.20385396 12.0254565,9.20385396 C13.6387525,9.20385396 14.9465873,10.454369 14.9465873,11.9969574 C14.9465873,13.5395458 13.6387525,14.7900609 12.0254565,14.7900609 Z M12,6 C15.6645291,6 19.0454066,8.14180824 20.882038,11.6057022 C21.0402163,11.8581213 21.0345659,12.1768665 20.8935298,12.3725617 C19.0884785,15.8244407 15.666233,18 12,18 C8.32837998,18 4.94151037,15.8498949 3.13862509,12.4255419 C2.95954788,12.168699 2.95954788,11.831301 3.10647019,11.6274383 C4.91152152,8.17555931 8.33376694,6 12,6 Z M12,17.0141988 C15.2188734,17.0141988 18.2544856,15.1113496 19.9369707,12.0036584 C18.2648575,8.88840228 15.2450771,6.98580122 12,6.98580122 C8.78112651,6.98580122 5.74551439,8.88865048 4.06302924,11.9963416 C5.7351424,15.1115977 8.75492288,17.0141988 12,17.0141988 Z"/>
</svg>
