<svg xmlns="http://www.w3.org/2000/svg" width="24" height="24" viewBox="0 0 24 24">
  <g fill="none" stroke="#002989" stroke-width=".832" transform="translate(4 3.5)">
    <path fill="#6B91FE" fill-opacity=".2" d="M15.6541493,4.46098426 L12.5038433,4.46098426 L12.5038433,0.665850673 C12.5038433,0.527948484 12.3920515,0.416156671 12.2541493,0.416156671 L4.06585067,0.416156671 C3.92794848,0.416156671 3.81615667,0.527948484 3.81615667,0.665850673 L3.81615667,6.48339805 L0.665850673,6.48339805 C0.527948484,6.48339805 0.416156671,6.59518986 0.416156671,6.73309205 L0.416156671,16.1875976 C0.416156671,16.3254998 0.527948484,16.4372916 0.665850673,16.4372916 L10.2141493,16.4372916 C10.3520515,16.4372916 10.4638433,16.3254998 10.4638433,16.1875976 L10.4638433,13.0666019 L15.6541493,13.0666019 C15.7920515,13.0666019 15.9038433,12.9548101 15.9038433,12.8169079 L15.9038433,4.71067826 C15.9038433,4.57277607 15.7920515,4.46098426 15.6541493,4.46098426 Z"/>
    <path stroke-opacity=".7" d="M4.08,6.49136658 L10.1173951,6.49136658 C10.3012647,6.49136658 10.4503204,6.64042233 10.4503204,6.82429191 L10.4503204,12.9537842"/>
    <path stroke-opacity=".4" d="M7.48,4.46582031 L11.9125532,4.46582031 C12.0964228,4.46582031 12.2454785,4.61487606 12.2454785,4.79874565 L12.2454785,12.715384 C12.2454785,12.8992536 12.0964228,13.0483093 11.9125532,13.0483093 L9.39640137,13.0483093" transform="matrix(-1 0 0 1 19.725 0)"/>
    <path stroke-opacity=".2" d="M5.7059615,2.16386608 L10.2746904,2.16386608 C10.45856,2.16386608 10.6076158,2.31292183 10.6076158,2.49679142 L10.6076158,10.494518 C10.6076158,10.6783876 10.45856,10.8274434 10.2746904,10.8274434 L7.60584217,10.8274434" transform="rotate(90 8.157 6.496)"/>
  </g>
</svg>
