<svg xmlns="http://www.w3.org/2000/svg" width="40" height="40" viewBox="0 0 40 40">
  <path fill="#FFF" d="M26.9983905,25.1369794 C27.3825022,25.5338128 27.3721893,26.1668937 26.975356,26.5510054 C26.5785227,26.9351171 25.9454417,26.9248041 25.56133,26.5279708 L19.8199313,20.596419 C19.44394,20.2079751 19.4447382,19.5910407 19.8217332,19.2035708 L25.5631319,13.3026475 C25.948269,12.9068094 26.5813746,12.8981345 26.9772127,13.2832716 C27.3730509,13.6684088 27.3817258,14.3015143 26.9965886,14.6973525 L21.9319363,19.902726 L26.9983905,25.1369794 Z M19.459929,25.1369794 C19.8440407,25.5338128 19.8337277,26.1668937 19.4368944,26.5510054 C19.0400611,26.9351171 18.4069801,26.9248041 18.0228685,26.5279708 L12.2814697,20.596419 C11.9054785,20.2079751 11.9062766,19.5910407 12.2832716,19.2035708 L18.0246704,13.3026475 C18.4098075,12.9068094 19.042913,12.8981345 19.4387512,13.2832716 C19.8345893,13.6684088 19.8432642,14.3015143 19.4581271,14.6973525 L14.3934747,19.902726 L19.459929,25.1369794 Z"/>
</svg>
