<svg xmlns="http://www.w3.org/2000/svg" width="30" height="30" viewBox="0 0 30 30">
  <g fill="none" fill-rule="evenodd" transform="translate(4 2.5)">
    <path fill="#1C2231" fill-rule="nonzero" d="M22,18.5 L22,14.5 L20.5,14.5 L20.5,4.5 C20.5,3.67157288 19.8284271,3 19,3 L3,3 C2.17157288,3 1.5,3.67157288 1.5,4.5 L1.5,22.5 C1.5,23.3284271 2.17157288,24 3,24 L10,24 L10,25.5 L14.5,25.5 L3,25.5 C1.34314575,25.5 0,24.1568542 0,22.5 L0,4.5 C0,2.84314575 1.34314575,1.5 3,1.5 L19,1.5 C20.6568542,1.5 22,2.84314575 22,4.5 L22,18.5 Z"/>
    <rect width="14" height="1.5" x="4" y="7.5" fill="#1C2231" rx=".75"/>
    <rect width="14" height="1.5" x="4" y="12" fill="#1C2231" rx=".75"/>
    <rect width="10" height="1.5" x="4" y="16.5" fill="#1C2231" rx=".75"/>
    <rect width="10.5" height="2.5" x="5.75" y=".75" fill="#EFEFEF" stroke="#1C2231" stroke-width="1.5" rx="1.25"/>
    <polyline stroke="#1C2231" stroke-linecap="round" stroke-linejoin="round" stroke-width="1.5" points="13 21.457 15.848 24.5 21 17.5"/>
  </g>
</svg>
