<?xml version="1.0" encoding="UTF-8"?>
<svg width="186px" height="76px" viewBox="0 0 186 76" version="1.1" xmlns="http://www.w3.org/2000/svg" xmlns:xlink="http://www.w3.org/1999/xlink">
    <title>ic_dadca</title>
    <defs>
        <radialGradient cx="50%" cy="238.802333%" fx="50%" fy="238.802333%" r="278.272505%" gradientTransform="translate(0.500000,2.388023),scale(0.202282,1.000000),rotate(86.386643),scale(1.000000,1.139819),translate(-0.500000,-2.388023)" id="radialGradient-1">
            <stop stop-color="#778E9D" offset="0%"></stop>
            <stop stop-color="#2C2C2C" offset="100%"></stop>
        </radialGradient>
        <linearGradient x1="54.9031217%" y1="100%" x2="54.9031217%" y2="0%" id="linearGradient-2">
            <stop stop-color="#2D3031" offset="0%"></stop>
            <stop stop-color="#3D424A" offset="83.0666987%"></stop>
            <stop stop-color="#616365" offset="100%"></stop>
        </linearGradient>
        <linearGradient x1="50%" y1="97.6465737%" x2="50%" y2="-4.1048507%" id="linearGradient-3">
            <stop stop-color="#2C2C2C" offset="0%"></stop>
            <stop stop-color="#4E565E" offset="100%"></stop>
        </linearGradient>
        <linearGradient x1="50%" y1="0%" x2="50%" y2="100%" id="linearGradient-4">
            <stop stop-color="#7E8C95" offset="0%"></stop>
            <stop stop-color="#3E3E3E" offset="100%"></stop>
        </linearGradient>
        <radialGradient cx="50%" cy="27.9279989%" fx="50%" fy="27.9279989%" r="70.3537027%" gradientTransform="translate(0.500000,0.279280),scale(0.972268,1.000000),rotate(90.000000),translate(-0.500000,-0.279280)" id="radialGradient-5">
            <stop stop-color="#92FFB2" offset="0%"></stop>
            <stop stop-color="#67BD54" offset="100%"></stop>
        </radialGradient>
        <linearGradient x1="50%" y1="105.622562%" x2="50%" y2="0.447073699%" id="linearGradient-6">
            <stop stop-color="#3A3A3A" offset="0%"></stop>
            <stop stop-color="#68686B" offset="60.1833454%"></stop>
            <stop stop-color="#B3B3B3" offset="100%"></stop>
        </linearGradient>
        <polygon id="path-7" points="1.75 0.69575 10.85 0.69575 10.85 37.5705 1.75 37.5705"></polygon>
        <filter x="-49.5%" y="-12.2%" width="198.9%" height="124.4%" filterUnits="objectBoundingBox" id="filter-8">
            <feMorphology radius="1" operator="erode" in="SourceAlpha" result="shadowSpreadInner1"></feMorphology>
            <feGaussianBlur stdDeviation="4" in="shadowSpreadInner1" result="shadowBlurInner1"></feGaussianBlur>
            <feOffset dx="0" dy="0" in="shadowBlurInner1" result="shadowOffsetInner1"></feOffset>
            <feComposite in="shadowOffsetInner1" in2="SourceAlpha" operator="arithmetic" k2="-1" k3="1" result="shadowInnerInner1"></feComposite>
            <feColorMatrix values="0 0 0 0 0   0 0 0 0 0   0 0 0 0 0  0 0 0 0.5 0" type="matrix" in="shadowInnerInner1"></feColorMatrix>
        </filter>
        <linearGradient x1="50%" y1="-2.48949813e-15%" x2="50%" y2="96.8501626%" id="linearGradient-9">
            <stop stop-color="#131313" offset="0%"></stop>
            <stop stop-color="#617178" offset="100%"></stop>
        </linearGradient>
        <polygon id="path-10" points="1.75 0.69575 10.85 0.69575 10.85 37.5705 1.75 37.5705"></polygon>
        <filter x="-49.5%" y="-12.2%" width="198.9%" height="124.4%" filterUnits="objectBoundingBox" id="filter-11">
            <feMorphology radius="1" operator="erode" in="SourceAlpha" result="shadowSpreadInner1"></feMorphology>
            <feGaussianBlur stdDeviation="4" in="shadowSpreadInner1" result="shadowBlurInner1"></feGaussianBlur>
            <feOffset dx="0" dy="0" in="shadowBlurInner1" result="shadowOffsetInner1"></feOffset>
            <feComposite in="shadowOffsetInner1" in2="SourceAlpha" operator="arithmetic" k2="-1" k3="1" result="shadowInnerInner1"></feComposite>
            <feColorMatrix values="0 0 0 0 0   0 0 0 0 0   0 0 0 0 0  0 0 0 0.5 0" type="matrix" in="shadowInnerInner1"></feColorMatrix>
        </filter>
        <polygon id="path-12" points="1.75 0.69575 10.85 0.69575 10.85 37.5705 1.75 37.5705"></polygon>
        <filter x="-49.5%" y="-12.2%" width="198.9%" height="124.4%" filterUnits="objectBoundingBox" id="filter-13">
            <feMorphology radius="1" operator="erode" in="SourceAlpha" result="shadowSpreadInner1"></feMorphology>
            <feGaussianBlur stdDeviation="4" in="shadowSpreadInner1" result="shadowBlurInner1"></feGaussianBlur>
            <feOffset dx="0" dy="0" in="shadowBlurInner1" result="shadowOffsetInner1"></feOffset>
            <feComposite in="shadowOffsetInner1" in2="SourceAlpha" operator="arithmetic" k2="-1" k3="1" result="shadowInnerInner1"></feComposite>
            <feColorMatrix values="0 0 0 0 0   0 0 0 0 0   0 0 0 0 0  0 0 0 0.5 0" type="matrix" in="shadowInnerInner1"></feColorMatrix>
        </filter>
        <polygon id="path-14" points="0.7 0.69575 9.8 0.69575 9.8 37.5705 0.7 37.5705"></polygon>
        <filter x="-49.5%" y="-12.2%" width="198.9%" height="124.4%" filterUnits="objectBoundingBox" id="filter-15">
            <feMorphology radius="1" operator="erode" in="SourceAlpha" result="shadowSpreadInner1"></feMorphology>
            <feGaussianBlur stdDeviation="4" in="shadowSpreadInner1" result="shadowBlurInner1"></feGaussianBlur>
            <feOffset dx="0" dy="0" in="shadowBlurInner1" result="shadowOffsetInner1"></feOffset>
            <feComposite in="shadowOffsetInner1" in2="SourceAlpha" operator="arithmetic" k2="-1" k3="1" result="shadowInnerInner1"></feComposite>
            <feColorMatrix values="0 0 0 0 0   0 0 0 0 0   0 0 0 0 0  0 0 0 0.5 0" type="matrix" in="shadowInnerInner1"></feColorMatrix>
        </filter>
        <linearGradient x1="37.4391293%" y1="29.0462753%" x2="60.7543458%" y2="103.045157%" id="linearGradient-16">
            <stop stop-color="#9DEDFF" offset="0%"></stop>
            <stop stop-color="#E3FAFF" offset="34.6865968%"></stop>
            <stop stop-color="#F8FEFF" offset="47.7194725%"></stop>
            <stop stop-color="#D2F3FF" offset="64.7014993%"></stop>
            <stop stop-color="#40C8FF" offset="100%"></stop>
        </linearGradient>
        <linearGradient x1="50%" y1="100%" x2="50%" y2="3.061617e-15%" id="linearGradient-17">
            <stop stop-color="#535454" offset="0%"></stop>
            <stop stop-color="#858585" offset="100%"></stop>
        </linearGradient>
        <linearGradient x1="127.403945%" y1="86.7015362%" x2="0%" y2="41.5497922%" id="linearGradient-18">
            <stop stop-color="#505050" offset="0%"></stop>
            <stop stop-color="#FFFFFF" offset="100%"></stop>
        </linearGradient>
        <linearGradient x1="4.71459538%" y1="50%" x2="97.3062681%" y2="50%" id="linearGradient-19">
            <stop stop-color="#FFFFFF" stop-opacity="0" offset="0%"></stop>
            <stop stop-color="#FFFFFF" stop-opacity="0.5" offset="51.6257225%"></stop>
            <stop stop-color="#FFFFFF" stop-opacity="0" offset="100%"></stop>
        </linearGradient>
        <radialGradient cx="50%" cy="0%" fx="50%" fy="0%" r="98.2817016%" gradientTransform="translate(0.500000,0.000000),scale(0.988512,1.000000),rotate(90.000000),translate(-0.500000,-0.000000)" id="radialGradient-20">
            <stop stop-color="#92FFB2" offset="0%"></stop>
            <stop stop-color="#67BD54" offset="100%"></stop>
        </radialGradient>
        <radialGradient cx="50%" cy="0%" fx="50%" fy="0%" r="100%" gradientTransform="translate(0.500000,0.000000),scale(0.988512,1.000000),rotate(90.000000),translate(-0.500000,-0.000000)" id="radialGradient-21">
            <stop stop-color="#FFECA5" offset="0%"></stop>
            <stop stop-color="#F7A41C" offset="100%"></stop>
        </radialGradient>
        <linearGradient x1="50%" y1="0%" x2="50%" y2="100%" id="linearGradient-22">
            <stop stop-color="#FAD961" offset="0%"></stop>
            <stop stop-color="#F76B1C" offset="100%"></stop>
        </linearGradient>
        <linearGradient x1="50%" y1="0%" x2="50%" y2="100%" id="linearGradient-23">
            <stop stop-color="#046AFE" offset="0%"></stop>
            <stop stop-color="#0553F8" offset="100%"></stop>
        </linearGradient>
    </defs>
    <g id="sample" stroke="none" stroke-width="1" fill="none" fill-rule="evenodd">
        <g id="01_00_overview" transform="translate(-590.000000, -158.000000)">
            <g id="Group" transform="translate(478.000000, 134.000000)">
                <g id="ic/ic_dadca" transform="translate(112.000000, 24.000000)">
                    <g id="Group">
                        <path d="M4.75005318,75.1221098 C2.12667125,75.1221098 2.13162821e-13,73.0800559 2.13162821e-13,70.5610549 C2.13162821e-13,68.0420538 2.12667125,66 4.75005318,66 L179.249947,66 C181.873329,66 184,68.0420538 184,70.5610549 C184,73.0800559 181.873329,75.1221098 179.249947,75.1221098 L4.75005318,75.1221098 Z" id="Rectangle" fill="#D7F1FF"></path>
                        <g id="TR004" transform="translate(61.000000, 0.000000)">
                            <g>
                                <g id="ic/left/tr004_base">
                                    <g>
                                        <path d="M0.463453258,12.052 L8.15911448,0.866387038 C8.53227437,0.324000613 9.14846138,3.23151353e-16 9.80681641,-8.8817842e-16 L53.3755262,-8.8817842e-16 C54.0392229,-1.45418674e-15 54.659689,0.329245905 55.0317384,0.878857197 L55.0317384,0.878857197 L63,12.65 L31.5,12.65 L0.463453258,12.052 Z" id="Combined-Shape" fill="url(#radialGradient-1)"></path>
                                        <path d="M2,11.132 L61,11.132 C62.1045695,11.132 63,12.0274305 63,13.132 L63,66.1835 C63,67.2880695 62.1045695,68.1835 61,68.1835 L2,68.1835 C0.8954305,68.1835 1.3527075e-16,67.2880695 0,66.1835 L0,13.132 C-1.3527075e-16,12.0274305 0.8954305,11.132 2,11.132 Z" id="Rectangle-24" fill="url(#linearGradient-2)"></path>
                                        <polygon id="Rectangle-26" fill-opacity="0.3" fill="#000000" points="13.3 22.95975 58.1 22.95975 58.1 64.70475 13.3 64.70475"></polygon>
                                        <path d="M2,11.1409058 L11.4583907,11.1409058 L11.4583907,11.1409058 L11.55,68.0909659 L1.98033776,67.9968809 C0.883492185,67.9860972 -3.93772798e-13,67.0938761 -3.95239397e-13,65.9969775 L-3.95239397e-13,13.1409058 C-3.95374668e-13,12.0363363 0.8954305,11.1409058 2,11.1409058 Z" id="Rectangle-24" fill="url(#linearGradient-3)"></path>
                                        <path d="M4.87692308,42.4159874 L7.72307692,42.4159874 C8.27536167,42.4159874 8.72307692,42.8637026 8.72307692,43.4159874 L8.72307692,46.1288749 C8.72307692,46.6811596 8.27536167,47.1288749 7.72307692,47.1288749 L4.87692308,47.1288749 C4.32463833,47.1288749 3.87692308,46.6811596 3.87692308,46.1288749 L3.87692308,43.4159874 C3.87692308,42.8637026 4.32463833,42.4159874 4.87692308,42.4159874 Z" id="Rectangle-25" fill="url(#linearGradient-4)"></path>
                                        <path d="M4.87692308,49.0140299 L7.72307692,49.0140299 C8.27536167,49.0140299 8.72307692,49.4617451 8.72307692,50.0140299 L8.72307692,52.7269173 C8.72307692,53.2792021 8.27536167,53.7269173 7.72307692,53.7269173 L4.87692308,53.7269173 C4.32463833,53.7269173 3.87692308,53.2792021 3.87692308,52.7269173 L3.87692308,50.0140299 C3.87692308,49.4617451 4.32463833,49.0140299 4.87692308,49.0140299 Z" id="Rectangle-25" fill="url(#linearGradient-4)"></path>
                                        <ellipse id="Oval" fill="url(#radialGradient-5)" cx="6.40703486" cy="18.6915425" rx="2.13584842" ry="2.07661712"></ellipse>
                                    </g>
                                </g>
                                <g id="ic/left/disk_n" transform="translate(13.300000, 24.351250)">
                                    <g id="Rectangle-26">
                                        <use fill="url(#linearGradient-6)" fill-rule="evenodd" xlink:href="#path-7"></use>
                                        <use fill="black" fill-opacity="1" filter="url(#filter-8)" xlink:href="#path-7"></use>
                                    </g>
                                    <polygon id="Rectangle-28" fill-opacity="0.3" fill="url(#linearGradient-9)" points="1.4 27.83 9.1 27.83 9.1 35.48325 1.4 35.48325"></polygon>
                                    <ellipse id="Oval-7" fill-opacity="0.2" fill="#FFFFFF" cx="5.25" cy="22.611875" rx="1.75" ry="1.739375"></ellipse>
                                </g>
                                <g id="ic/left/disk_n" transform="translate(23.800000, 24.351250)">
                                    <g id="Rectangle-26">
                                        <use fill="url(#linearGradient-6)" fill-rule="evenodd" xlink:href="#path-10"></use>
                                        <use fill="black" fill-opacity="1" filter="url(#filter-11)" xlink:href="#path-10"></use>
                                    </g>
                                    <polygon id="Rectangle-28" fill-opacity="0.3" fill="url(#linearGradient-9)" points="1.4 27.83 9.1 27.83 9.1 35.48325 1.4 35.48325"></polygon>
                                    <ellipse id="Oval-7" fill-opacity="0.2" fill="#FFFFFF" cx="5.25" cy="22.611875" rx="1.75" ry="1.739375"></ellipse>
                                </g>
                                <g id="ic/left/disk_n" transform="translate(34.650000, 24.245833)">
                                    <g id="Rectangle-26">
                                        <use fill="url(#linearGradient-6)" fill-rule="evenodd" xlink:href="#path-12"></use>
                                        <use fill="black" fill-opacity="1" filter="url(#filter-13)" xlink:href="#path-12"></use>
                                    </g>
                                    <polygon id="Rectangle-28" fill-opacity="0.3" fill="url(#linearGradient-9)" points="1.4 27.83 9.1 27.83 9.1 35.48325 1.4 35.48325"></polygon>
                                    <ellipse id="Oval-7" fill-opacity="0.2" fill="#FFFFFF" cx="5.25" cy="22.611875" rx="1.75" ry="1.739375"></ellipse>
                                </g>
                                <g id="ic/left/disk_n" transform="translate(46.200000, 24.245833)">
                                    <g id="Rectangle-26">
                                        <use fill="url(#linearGradient-6)" fill-rule="evenodd" xlink:href="#path-14"></use>
                                        <use fill="black" fill-opacity="1" filter="url(#filter-15)" xlink:href="#path-14"></use>
                                    </g>
                                    <polygon id="Rectangle-28" fill-opacity="0.3" fill="url(#linearGradient-9)" points="1.4 27.83 9.1 27.83 9.1 35.48325 1.4 35.48325"></polygon>
                                    <ellipse id="Oval-7" fill-opacity="0.2" fill="#FFFFFF" cx="5.25" cy="22.611875" rx="1.75" ry="1.739375"></ellipse>
                                </g>
                            </g>
                        </g>
                        <g id="Group-3" transform="translate(111.000000, 9.000000)">
                            <g id="Group-8" transform="translate(44.406333, 44.860980) rotate(-9.000000) translate(-44.406333, -44.860980) translate(29.406333, 27.360980)">
                                <path d="M19.8105809,30.2075851 C19.8105809,32.7673535 17.668164,34.8425804 15.0238845,34.8425804 L14.2955977,34.8425804 C11.6513182,34.8425804 9.50907885,32.7673535 9.50907885,30.2077545 L9.50907885,26.600631 C9.50907885,24.0412015 11.6513182,21.9659746 14.2955977,21.9659746 L15.0238845,21.9659746 C17.668164,21.9659746 19.8105809,24.0412015 19.8105809,26.600631 L19.8105809,30.2075851 Z" id="Fill-22" fill="#717071"></path>
                                <path d="M14.4463981,34.8425804 L13.750703,34.8425804 C13.5451181,34.8425804 13.3427587,34.8286881 13.1443039,34.8020895 C12.7018975,34.7426239 12.2795233,34.6191182 11.8863486,34.4408906 C12.4107513,34.2806213 12.899843,34.0757951 13.3436075,33.8336969 C13.821325,33.5729628 14.0993994,33.101134 14.0993994,32.5510342 L14.0993994,29.8918512 L14.0993994,24.2575208 C14.0993994,23.707421 13.821325,23.2355922 13.3436075,22.9748581 C12.9000127,22.7327599 12.4107513,22.5279337 11.8863486,22.367495 C12.2795233,22.1892674 12.7018975,22.0657617 13.1443039,22.0062961 C13.3427587,21.9796975 13.5451181,21.9659746 13.750703,21.9659746 L14.0995691,21.9659746 L14.4463981,21.9659746 C16.9719855,21.9659746 19.0181577,24.0411742 19.0181577,26.6007395 L19.0181577,28.0328288 L19.0181577,30.2076461 C19.0181577,32.7673808 16.9719855,34.8425804 14.4463981,34.8425804" id="Fill-24" fill="#535253"></path>
                                <path d="M9.5570275,26.4279565 C9.58117942,26.2702959 9.61403313,26.115244 9.65558863,25.9631268 L19.663716,25.9631268 C19.7052715,26.115244 19.7381252,26.2702959 19.7622771,26.4279565 L9.5570275,26.4279565 Z M9.50907885,28.1530926 L19.8105809,28.1530926 L19.8105809,27.6880998 L9.50907885,27.6880998 L9.50907885,28.1530926 Z M9.50907885,29.8780656 L19.8105809,29.8780656 L19.8105809,29.4130729 L9.50907885,29.4130729 L9.50907885,29.8780656 Z M19.0815838,32.8628559 C18.9718347,33.0250816 18.8510751,33.1804596 18.7205482,33.3276856 L10.598934,33.3276856 C10.4682295,33.1804596 10.34747,33.0250816 10.2377208,32.8628559 L19.0815838,32.8628559 Z M19.7622771,31.1380459 C19.7381252,31.2955435 19.7052715,31.4509215 19.663716,31.6027126 L9.65558863,31.6027126 C9.61403313,31.4509215 9.58117942,31.2955435 9.5570275,31.1380459 L19.7622771,31.1380459 Z M10.598934,24.2383168 L18.7205482,24.2383168 C18.8512527,24.3855428 18.9720122,24.5409208 19.0817614,24.7031465 L10.2377208,24.7031465 C10.34747,24.5409208 10.4680519,24.3855428 10.598934,24.2383168 L10.598934,24.2383168 Z" id="Fill-26" fill="#231815"></path>
                                <path d="M27.7629061,7.1791805 C25.3651008,2.92729089 20.4347606,0 14.6598359,0 C6.56578522,0 0.131137666,5.7502762 0.00180413959,12.8384562 C-0.101941192,18.5057808 4.28565082,24.2110495 8.76845876,27.2681064 L8.76845876,26.3756777 L8.77124387,26.3756777 C8.77141794,24.948416 9.38884192,23.6578193 10.3873037,22.7251467 C11.3857655,21.7928027 12.7673539,21.2159189 14.2955087,21.2157547 L14.2955087,21.2129622 L14.296205,21.2129622 L15.0234667,21.2129622 L15.0234667,21.2157547 C16.5500549,21.2157547 17.9321656,21.7939525 18.932368,22.7281034 C19.9304817,23.6606117 20.5479057,24.9500586 20.5482538,26.3753492 L20.5508649,26.3753492 L20.5508649,26.3760063 L20.5508649,27.2681064 C25.0336728,24.2110495 29.4212648,18.5057808 29.3178676,12.8384562 C29.2807908,10.8075363 28.7258578,8.88667103 27.7629061,7.1791805 L27.7629061,7.1791805 Z" id="Fill-28" fill="#EFEFEF"></path>
                                <path d="M29.3178509,12.8387848 C29.280868,10.8078648 28.7264749,8.88667103 27.7642182,7.17934476 C26.9642657,5.76046037 25.882647,4.48891787 24.5819354,3.42450819 L24.4939476,3.35321902 L24.4913185,3.3512479 C21.9042677,1.26973563 18.4694143,0 14.6682374,0 C10.8670605,0 7.43220715,1.26973563 4.84533159,3.3512479 L4.75453942,3.42450819 C6.4873026,2.84598182 12.6448692,0.939078728 14.2048118,2.33020305 C14.5125937,2.60468277 14.669289,2.94700218 14.669289,3.34484173 L14.669289,3.62079979 L14.669289,3.93486635 L14.669289,4.80495556 L14.6682374,4.80495556 C10.0835837,4.80495556 6.36548686,8.27939903 6.36548686,12.5638123 C6.36548686,16.5456572 9.62874651,19.8573182 13.7766163,20.2776615 C14.2866649,20.3292394 14.6691138,20.7270789 14.6691138,21.2067203 L14.6691138,21.2132908 L15.0317566,21.2132908 L15.0317566,21.2162475 C16.5575207,21.2164117 17.9388586,21.7944453 18.9382735,22.7285962 C19.9361109,23.6612688 20.5530769,24.9505514 20.5532522,26.3760063 L20.5564072,26.3760063 L20.5564072,26.3766633 L20.5564072,27.2681064 L20.6301977,27.2173498 L20.7134531,27.1600228 C20.7790057,27.1143583 20.8445584,27.0680368 20.910111,27.0212225 L20.9421862,26.998226 L21.1158832,26.872238 L21.1788067,26.8255879 L21.3241092,26.7175044 L21.399302,26.6605059 L21.5149831,26.5719693 L21.610683,26.4978877 L21.7417882,26.394732 L21.8066398,26.3438111 C21.8734194,26.2905907 21.9400236,26.2365489 22.0064527,26.1823428 L22.0637674,26.1350357 L22.2031106,26.0197247 L22.2861907,25.9497496 L22.4053773,25.8487292 L22.4903854,25.7754689 L22.6270995,25.6560514 L22.6779291,25.611701 L22.8425118,25.4646876 L22.8866809,25.4251007 C22.9527594,25.3651456 23.0188379,25.3046976 23.0845658,25.2435926 L23.1229509,25.2074552 L23.2701814,25.0694762 L23.3520346,24.9911238 L23.4727987,24.874663 L23.5457129,24.8037023 L23.6706835,24.6803425 L23.7369373,24.6143097 C23.865764,24.4856935 23.9930132,24.3547777 24.1193861,24.2225478 L24.1619778,24.1772118 L24.3072803,24.0226424 L24.3637187,23.9615374 L24.4958756,23.8174808 L24.5563453,23.7504624 L24.6986682,23.5911294 L24.7353005,23.5499 C24.7899861,23.4879737 24.8443212,23.4255546 24.8981305,23.3626427 L24.9444029,23.3090937 L25.1056554,23.119044 L25.1368543,23.0810998 L25.2828579,22.9046837 L25.3258001,22.851956 L25.4707521,22.6715977 L25.5031779,22.6303683 L25.6444491,22.4503385 L25.681432,22.4028671 C25.7960615,22.2540469 25.9091135,22.1039126 26.0198869,21.9519714 L26.0586226,21.8982581 L26.1799125,21.7300551 L26.233897,21.6536738 L26.3390617,21.5030467 L26.3958506,21.4210806 L26.5194191,21.2385869 L26.5469372,21.1975217 C26.5996948,21.118348 26.6519266,21.0390101 26.7036326,20.9591794 L26.7181803,20.9363471 C26.7627,20.8673576 26.8066939,20.7980396 26.8503373,20.7285573 L26.8950323,20.6569396 L26.9965162,20.4921861 L27.0445414,20.4125196 L27.1469016,20.2407028 L27.1844104,20.1768054 C27.2257751,20.1061733 27.2666141,20.0350484 27.3069272,19.9639235 L27.3227019,19.9361634 C27.3691496,19.8538688 27.4150715,19.7714099 27.4599418,19.6884582 L27.4781703,19.6547847 C27.5160296,19.5851382 27.5531878,19.5156559 27.5898202,19.4460093 L27.6252256,19.3776768 L27.7154919,19.2014251 L27.755104,19.1229084 L27.8415143,18.9474779 L27.8769197,18.8748747 C27.9559685,18.7107782 28.0318623,18.5458604 28.105127,18.379957 L28.133872,18.3139242 L28.2141477,18.1271597 L28.2469241,18.0491359 L28.3175597,17.8763336 L28.3517382,17.7910822 L28.4220232,17.6107239 L28.4502424,17.5368066 C28.4805649,17.4559903 28.5103616,17.3753383 28.5392818,17.2943577 L28.5424368,17.2849948 L28.5455917,17.2767818 C28.574512,17.1954727 28.6022054,17.1139994 28.6297235,17.0323618 L28.6546124,16.9577874 L28.7131541,16.7772649 L28.741198,16.6861001 L28.7922029,16.5175686 L28.8177929,16.4301819 C28.8358462,16.3679271 28.8531984,16.3058365 28.8702,16.2437459 L28.890006,16.1721282 C28.9124411,16.0885195 28.9341752,16.0047465 28.9546823,15.9213021 C29.2065517,14.9032139 29.3367806,13.8703423 29.3178509,12.8387848 L29.3178509,12.8387848 Z" id="Fill-30" fill="#CCCCCC"></path>
                                <path d="M27.7349697,7.17495294 C25.3566175,3.03161473 20.5304698,0.148656878 14.846989,0.00295671138 L14.846989,0 L14.8459525,0 C14.829369,0 14.8126127,0.000985570459 14.7958565,0.000985570459 C14.7858373,0.000821308716 14.7758181,0 14.7657989,0 L14.7657989,0.00164261743 C14.5429579,0.00279244963 14.3209807,0.00689899321 14.1007309,0.0162619126 C14.0181588,0.0197114092 13.936796,0.0267746641 13.8543966,0.0313739929 C13.6909799,0.0405726505 13.5275632,0.0496070464 13.365874,0.0634050328 C13.2684458,0.07161812 13.1725724,0.0834449655 13.0758352,0.0933006701 C12.9305568,0.108084227 12.7852783,0.12253926 12.6413818,0.140936576 C12.5392895,0.153913253 12.4384065,0.170010904 12.3371779,0.184958723 C12.2005367,0.204998655 12.0638955,0.224710065 11.9288089,0.24787097 C11.8249892,0.2657755 11.7223788,0.286143956 11.6195955,0.305855366 C11.4886549,0.330823151 11.3577142,0.355790936 11.2283283,0.383879694 C11.1246813,0.406219291 11.0220708,0.43069429 10.9194603,0.454840767 C10.7926656,0.484736404 10.6662163,0.515124826 10.5408035,0.547812913 C10.4383657,0.574587577 10.3367917,0.603004859 10.2352177,0.631586402 C10.1120506,0.666409892 9.98905617,0.701890428 9.86727099,0.739342106 C9.7665607,0.770223313 9.66654139,0.802418615 9.56686757,0.835270964 C9.4466371,0.874693782 9.32709761,0.915430694 9.20842185,0.957645962 C9.1097845,0.992633714 9.01183812,1.02827851 8.91440998,1.06507314 C8.79694343,1.10942381 8.68034061,1.15525284 8.56460151,1.20206744 C8.46872808,1.24066895 8.37337288,1.27976324 8.27870866,1.32017163 C8.16366054,1.36945015 8.04982163,1.42037129 7.93632821,1.47211374 C7.84408242,1.51432901 7.75149114,1.55638002 7.66028182,1.6002379 C7.5471339,1.65444428 7.43571342,1.71062179 7.32446569,1.76729209 C7.23584754,1.81246407 7.1468839,1.85730753 7.05947497,1.90395786 C6.94788175,1.96374914 6.83784323,2.02584008 6.7281502,2.08809528 C6.64436891,2.13556692 6.56006939,2.182053 6.47767006,2.23083873 C6.36573135,2.29720048 6.25638381,2.36619041 6.14669078,2.43485182 C6.06930106,2.48330903 5.9910476,2.53078068 5.91486709,2.58055198 C5.79999172,2.65545534 5.68822575,2.73347967 5.5757688,2.81133973 C5.50822554,2.85831859 5.43895482,2.90381909 5.37210253,2.95178352 C5.24150737,3.04557698 5.11436711,3.14265567 4.98757233,3.24022714 C4.94231316,3.2752149 4.89532654,3.30839577 4.85041286,3.3438763 C4.81776407,3.3696654 4.78684273,3.39709711 4.75453942,3.42305046 C6.52793883,2.84172816 12.7866602,0.940891265 14.3738406,2.33070987 C14.5593687,2.49300048 14.6892729,2.67943755 14.7657989,2.88673587 L14.7657989,4.8076127 C10.1329527,4.84736404 6.38853368,8.30556652 6.38853368,12.5660233 C6.38853368,16.5488778 9.71283703,19.8610516 13.9376597,20.2813974 C14.3176985,20.3193419 14.6263937,20.5435592 14.7657989,20.8482647 L14.7657989,21.2116117 L14.7657989,21.2145684 C16.319985,21.2147326 17.7268196,21.7927697 18.7449782,22.7272548 C19.7612366,23.659933 20.3898554,24.9495519 20.3900282,26.3753438 L20.3929648,26.3753438 L20.3929648,26.3760009 L20.3929648,27.2681064 C24.9565403,24.2105383 29.4232058,18.5040854 29.3178314,12.8354126 C29.280173,10.8043162 28.7156426,8.88261802 27.7349697,7.17495294" id="Fill-32" fill="#CCCCCC"></path>
                                <path d="M14.6597427,19.6936324 C19.2425366,19.6936324 22.9802739,16.1210343 22.9802739,11.7404347 C22.9802739,7.36000326 19.2425366,3.787237 14.6597427,3.787237 C10.0771231,3.787237 6.3393859,7.36000326 6.3393859,11.7404347 C6.3393859,16.1210343 10.0771231,19.6936324 14.6597427,19.6936324" id="Fill-34" fill="#FFFFFF"></path>
                                <path d="M14.6597427,20.4510798 C19.2425366,20.4510798 22.9802739,16.878444 22.9802739,12.4979662 C22.9802739,8.11732025 19.2425366,4.5446844 14.6597427,4.5446844 C10.0771231,4.5446844 6.3393859,8.11732025 6.3393859,12.4979662 C6.3393859,16.878444 10.0771231,20.4510798 14.6597427,20.4510798" id="Fill-36" fill="#9E9E9F"></path>
                                <path d="M7.92423237,12.4979642 C7.92423237,16.0530003 10.9404889,18.936185 14.6598299,18.936185 C18.3791709,18.936185 21.3954274,16.0530003 21.3954274,12.4979642 C21.3954274,8.9427639 18.3791709,6.0595792 14.6598299,6.0595792 C10.9404889,6.0595792 7.92423237,8.9427639 7.92423237,12.4979642" id="Fill-38" fill="#FFFFFF"></path>
                                <path d="M25.7537552,11.361711 C26.4102111,11.361711 26.9423901,11.8703622 26.9423901,12.4977962 C26.9423901,13.125402 26.4102111,13.6340532 25.7537552,13.6340532 C25.0972993,13.6340532 24.5651204,13.125402 24.5651204,12.4977962 C24.5651204,11.8703622 25.0972993,11.361711 25.7537552,11.361711" id="Fill-40" fill="#949393"></path>
                                <path d="M3.56590457,11.361711 C4.22241172,11.361711 4.75453942,11.8703517 4.75453942,12.4978821 C4.75453942,13.1252402 4.22241172,13.6340532 3.56590457,13.6340532 C2.90939742,13.6340532 2.37726971,13.1252402 2.37726971,12.4978821 C2.37726971,11.8703517 2.90939742,11.361711 3.56590457,11.361711" id="Fill-42" fill="#C1C0BF"></path>
                                <path d="M14.2636183,6.0595792 C17.7646961,6.0595792 20.6030042,8.77261052 20.6030042,12.1191584 C20.6030042,15.4657063 17.7646961,18.1787376 14.2636183,18.1787376 C10.7625404,18.1787376 7.92423237,15.4657063 7.92423237,12.1191584 C7.92423237,8.77261052 10.7625404,6.0595792 14.2636183,6.0595792" id="Fill-44" fill="#ABCD03"></path>
                                <path d="M21.3954274,12.1191584 C21.3954274,8.7817414 18.5476725,6.0595792 15.0560415,6.0595792 L15.0560415,18.1787376 C18.5476725,18.1787376 21.3954274,15.4565754 21.3954274,12.1191584" id="Fill-46" fill="#82C100"></path>
                                <path d="M16.5430596,7.574474 C17.8128078,8.38970222 18.6528495,9.80528059 18.6528495,11.414937 C18.6528495,13.9402993 16.5838236,15.9887698 14.0327043,15.9887698 C11.805002,15.9887698 9.94484943,14.4267523 9.50907885,12.3490946 C9.52373368,15.1525738 11.8245417,17.4212902 14.6598299,17.4212902 C17.5040457,17.4212902 19.8105809,15.1379802 19.8105809,12.322088 C19.8105809,10.1640817 18.4561042,8.31891491 16.5430596,7.574474" id="Fill-48" fill="#FFFFFF"></path>
                            </g>
                            <g id="Group-7" transform="translate(39.778138, 13.191693) rotate(2.000000) translate(-39.778138, -13.191693) translate(20.278138, 0.691693)">
                                <path d="M36.4212391,19.7527179 C37.936893,17.7070797 38.8287386,15.2026603 38.8287386,12.4978821 C38.8287386,5.59663594 33.0228747,0 25.8635229,0 L12.9666936,0 L12.9652157,0 C5.80599827,0 0,5.59663594 0,12.4978821 C0,15.2026603 0.891845617,17.7070797 2.40749949,19.7527179 C4.75897313,22.9264319 8.61185905,24.9957642 12.9652157,24.9957642 L12.9955799,24.9957642 L25.8331588,24.9957642 L25.8635229,24.9957642 C30.2168796,24.9957642 34.0697655,22.9264319 36.4212391,19.7527179" id="Fill-50" fill="#EFEFEF"></path>
                                <path d="M13.9646527,20.7614116 L18.3632397,20.7614116 C18.9933488,20.7614116 19.5071774,21.2592491 19.5071774,21.8694385 L19.5071774,24.9957642 L25.8947092,24.9957642 L25.925084,24.9957642 C30.2577028,24.9957642 34.0922826,22.9264319 36.4326113,19.7527179 C37.9410462,17.7070797 38.8287386,15.2026603 38.8287386,12.4978821 C38.8287386,5.59663594 33.0503078,0 25.925084,0 L19.5071774,0 L19.5071774,4.35516672 L19.5071774,4.63363806 L19.5071774,6.20291972 L13.0887355,6.20291972 L13.0877989,6.20291972 C8.92378002,6.20291972 5.54696266,9.47349332 5.54696266,13.5065758 C5.54696266,17.2523343 8.45986238,20.340515 12.2108112,20.7614116 L13.9646527,20.7614116 Z" id="Fill-52" fill="#CCCCCC"></path>
                                <path d="M14.1276477,18.936185 L25.4932418,18.936185 L27.2815655,18.936185 C31.1050098,18.5200979 34.0741992,15.467293 34.0741992,11.7645287 C34.0741992,7.77777655 30.6319825,4.5446844 26.3872674,4.5446844 L26.3197116,4.5446844 L13.2347117,4.5446844 L13.2337582,4.5446844 C8.98917938,4.5446844 5.54696266,7.77777655 5.54696266,11.7645287 C5.54696266,15.467293 8.51615209,18.5200979 12.3397326,18.936185 L14.1276477,18.936185 Z" id="Fill-54" fill="#FFFFFF"></path>
                                <path d="M31.0404359,18.5426832 L33.037702,21.6167989 C32.233293,22.36356 30.3206083,23.1722328 29.1346975,23.4808694 L26.2226987,19.9991899 L25.4932008,19.9991899 L14.1276887,19.9991899 L12.339765,19.9991899 C8.51616627,19.5742382 5.54696266,16.4566525 5.54696266,12.6752938 C5.54696266,8.60387204 8.98919581,5.3021318 13.233795,5.3021318 L13.2347484,5.3021318 L26.3198107,5.3021318 L26.3873669,5.3021318 C30.6321023,5.3021318 34.0741992,8.60387204 34.0741992,12.6752938 C34.0741992,15.069039 32.8836575,17.1956416 31.0404359,18.5426832" id="Fill-56" fill="#3E3A39"></path>
                                <path d="M12.6271828,9.8468162 C13.9112951,9.8468162 14.9527265,10.8642609 14.9527265,12.1190916 C14.9527265,13.3739222 13.9112951,14.3915006 12.6271828,14.3915006 C11.3429335,14.3915006 10.3015021,13.3739222 10.3015021,12.1190916 C10.3015021,10.8642609 11.3429335,9.8468162 12.6271828,9.8468162 M26.2016928,9.8468162 C27.4859422,9.8468162 28.5272365,10.8642609 28.5272365,12.1190916 C28.5272365,13.3739222 27.4859422,14.3915006 26.2016928,14.3915006 C24.9174435,14.3915006 23.8760121,13.3739222 23.8760121,12.1190916 C23.8760121,10.8642609 24.9174435,9.8468162 26.2016928,9.8468162" id="Fill-58" fill="#ABCD03"></path>
                            </g>
                            <g id="Group" transform="translate(18.119144, 20.097817) rotate(-35.000000) translate(-18.119144, -20.097817) translate(6.619144, 5.097817)" stroke="#0073FF" stroke-width="3">
                                <line x1="11.7449796" y1="12.2342741" x2="11.7449796" y2="29.3241764" id="Line-2" stroke-linecap="round" stroke-linejoin="round"></line>
                                <ellipse id="Oval" fill="url(#linearGradient-16)" cx="11.6114669" cy="10.9870799" rx="10.9816991" ry="10.7005102"></ellipse>
                            </g>
                            <g id="Group-9" transform="translate(61.608950, 26.067028) rotate(-121.000000) translate(-61.608950, -26.067028) translate(54.108950, 15.067028)">
                                <path d="M7.27287243,18.2072398 C7.36790637,18.4527094 7.47932547,18.6399319 7.6373678,18.7719585 L6.19323925,20.8746755 C6.19323925,20.8746755 6.19398403,20.8773105 6.19532463,20.8827191 C5.80371927,20.5228358 5.26703076,20.0009704 4.93664632,19.1457101 C3.75095645,16.0716548 7.02426485,14.6794126 7.02426485,14.6794126 L8.2072735,16.3433355 C8.2072735,16.3433355 6.87769213,17.1834793 7.27287243,18.2072398 M14.2900109,18.0241609 L11.5792724,17.3070026 C11.6147279,17.1035094 11.5971613,16.8725363 11.4925674,16.6177471 C11.0651668,15.5773109 9.34895662,15.7731942 9.34895662,15.7731942 L9.09303196,13.7420677 C9.09303196,13.7420677 12.7942699,12.7525049 14.0756659,15.8764909 C14.1480275,16.0529268 14.2066903,16.2227393 14.2526214,16.3862102 C14.4328001,17.0276927 14.4182956,17.5702472 14.2900109,18.0241609" id="Fill-12" fill="#EFEFEF"></path>
                                <path d="M1.69828371,12.1797044 C6.55330529,11.452418 10.5252589,8.50922626 13.6141444,3.350129" id="Path-24" stroke="#A7A7A7" stroke-width="5" stroke-linecap="round" transform="translate(7.656214, 7.764917) scale(1, -1) rotate(134.000000) translate(-7.656214, -7.764917) "></path>
                                <path d="M5.29644583,20.829971 C5.29494914,20.8240735 5.29411765,20.8211248 5.29411765,20.8211248 L6.91053951,18.5144423 C7.46431367,18.9727369 8.24308976,18.8934316 8.24308976,18.8934316 L8.43799165,21.2105123 C8.43799165,21.2105123 6.7176332,21.7859802 5.29644583,20.829971 M14.1116026,17.6149246 C13.6813882,19.211584 12.0159083,19.8055203 12.0159083,19.8055203 L10.5882353,17.9152294 C10.5882353,17.9152294 10.589732,17.914919 10.5908961,17.9130567 C10.6347989,17.8841901 11.204704,17.4892156 11.3079754,16.8375463 L14.1124341,17.6115102 C14.1127667,17.6130622 14.1130993,17.614459 14.1116026,17.6149246" id="Fill-14" fill="#727171"></path>
                                <path d="M8.37669526,13.6340532 C8.24059509,13.6340532 8.101927,13.6565479 7.96681451,13.7039947 C7.35169708,13.9217585 7.03663212,14.5748607 7.26458507,15.1631253 C7.44236468,15.6222817 7.89748046,15.9063954 8.38123851,15.9063954 C8.51753621,15.9063954 8.65600677,15.8839007 8.79111926,15.8364539 C9.40663176,15.6186902 9.72149919,14.9657769 9.4933487,14.3775123 C9.31576663,13.9183559 8.86065084,13.6340532 8.37669526,13.6340532" id="Fill-16" fill="#717071"></path>
                                <path d="M8.37669526,13.6340532 C8.24059509,13.6340532 8.101927,13.6565479 7.96681451,13.7039947 C7.35169708,13.9217585 7.03663212,14.5748607 7.26458507,15.1631253 C7.44236468,15.6222817 7.89748046,15.9063954 8.38123851,15.9063954 C8.51753621,15.9063954 8.65600677,15.8839007 8.79111926,15.8364539 C9.40663176,15.6186902 9.72149919,14.9657769 9.4933487,14.3775123 C9.31576663,13.9183559 8.86065084,13.6340532 8.37669526,13.6340532" id="Fill-20" fill="#717071"></path>
                            </g>
                            <g id="Group-9" transform="translate(25.113089, 32.691742) scale(-1, 1) rotate(-182.000000) translate(-25.113089, -32.691742) translate(19.113089, 26.191742)">
                                <path d="M2.82132914,9.40094352 C2.92465126,9.65902887 3.04578754,9.85587363 3.2176132,9.99468563 L1.647538,12.205471 C1.647538,12.205471 1.64834773,12.2082414 1.64980525,12.213928 C1.22404685,11.8355486 0.640552164,11.2868621 0.281353938,10.3876461 C-1.0077434,7.155601 2.55103976,5.69180506 2.55103976,5.69180506 L3.83722205,7.44124461 C3.83722205,7.44124461 2.39168401,8.32456723 2.82132914,9.40094352 M10.11396,9.12929776 L7.39001316,8.38726593 C7.42564148,8.17671495 7.40798927,7.93773083 7.30288573,7.67410467 C6.87340255,6.59758257 5.14883,6.80025976 5.14883,6.80025976 L4.89165832,4.69868681 C4.89165832,4.69868681 8.61093085,3.67480246 9.89857066,6.90713917 C9.97128482,7.08969446 10.0302335,7.26539663 10.0763884,7.43453731 C10.257445,8.09826867 10.2428698,8.65964075 10.11396,9.12929776" id="Fill-12" fill="#EFEFEF"></path>
                                <path d="M9.06731264,7.92498921 C11.4946187,4.81157384 10.2912247,2.54925579 5.45713074,1.13803506" id="Path-24" stroke="#A7A7A7" stroke-width="5" stroke-linecap="round" transform="translate(7.870763, 4.531512) scale(1, -1) rotate(134.000000) translate(-7.870763, -4.531512) "></path>
                                <path d="M1.58717465,12.4198234 C1.58567797,12.413926 1.58484647,12.4109772 1.58484647,12.4109772 L3.20126834,10.1042947 C3.7550425,10.5625894 4.53381859,10.4832841 4.53381859,10.4832841 L4.72872048,12.8003647 C4.72872048,12.8003647 3.00836203,13.3758326 1.58717465,12.4198234 M10.300387,9.10929964 C9.87017262,10.7059591 8.20469268,11.2998953 8.20469268,11.2998953 L6.77701967,9.40960447 C6.77701967,9.40960447 6.77851635,9.40929408 6.77968044,9.40743172 C6.82358326,9.37856521 7.39348838,8.98359064 7.49675977,8.3319214 L10.3012184,9.10588532 C10.301551,9.10743728 10.3018836,9.10883405 10.300387,9.10929964" id="Fill-14" fill="#727171"></path>
                                <path d="M4.35599392,4.5446844 C4.21989376,4.5446844 4.08122567,4.56717909 3.94611317,4.61462589 C3.33099574,4.83238965 3.01593078,5.48549191 3.24388374,6.07375653 C3.42166334,6.53291294 3.87677913,6.8170266 4.36053718,6.8170266 C4.49683487,6.8170266 4.63530543,6.79453191 4.77041793,6.74708511 C5.38593042,6.52932135 5.70079785,5.87640812 5.47264736,5.2881435 C5.29506529,4.82898709 4.83994951,4.5446844 4.35599392,4.5446844" id="Fill-16" fill="#717071"></path>
                                <path d="M4.35599392,4.5446844 C4.21989376,4.5446844 4.08122567,4.56717909 3.94611317,4.61462589 C3.33099574,4.83238965 3.01593078,5.48549191 3.24388374,6.07375653 C3.42166334,6.53291294 3.87677913,6.8170266 4.36053718,6.8170266 C4.49683487,6.8170266 4.63530543,6.79453191 4.77041793,6.74708511 C5.38593042,6.52932135 5.70079785,5.87640812 5.47264736,5.2881435 C5.29506529,4.82898709 4.83994951,4.5446844 4.35599392,4.5446844" id="Fill-20" fill="#717071"></path>
                            </g>
                        </g>
                        <g id="ic/tab/raid" transform="translate(33.000000, 39.000000)"></g>
                        <g id="ic/tab/raid" transform="translate(17.000000, 37.000000)">
                            <g id="Group">
                                <path d="M47.707165,19.5255914 L47.1960702,27.6393119 C46.3235139,29.6717385 47.0081595,31.6043943 42.7866555,31.6043943 L5.18368096,31.6043943 C0.962176968,31.6043943 1.15954481,30.5422455 0.244553443,27.6393119 L0.0320877415,19.7096715 L47.707165,19.5255914 Z" id="Combined-Shape" fill="url(#linearGradient-17)"></path>
                                <path d="M28.751277,0.145090556 L34.4525374,0.145090556 C38.4384121,0.145090556 40.6283257,0.344130245 40.9451727,2.84052427 L47.7731822,19.7847007 L1.11910481e-13,19.7847007 L6.82800947,2.84052427 C7.90848445,0.482669589 9.33477012,0.145090556 13.3206448,0.145090556 L18.3109509,0.145090556" id="Combined-Shape" fill="url(#linearGradient-18)"></path>
                                <polygon id="Line" fill="url(#linearGradient-19)" fill-rule="nonzero" points="0.524392009 19.5909951 0.524392009 18.8018795 47.0775601 18.8018795 47.0775601 19.5909951"></polygon>
                                <ellipse id="Oval" fill="url(#radialGradient-20)" cx="8.09894661" cy="24.319883" rx="1.55177227" ry="1.53394626"></ellipse>
                                <ellipse id="Oval" fill="url(#radialGradient-21)" cx="14.4687042" cy="24.319883" rx="1.55177227" ry="1.53394626"></ellipse>
                            </g>
                        </g>
                        <g id="Group-4" transform="translate(37.000000, 26.000000)">
                            <polygon id="Rectangle" fill="#F6F6F6" transform="translate(18.500000, 23.397059) rotate(-270.000000) translate(-18.500000, -23.397059) " points="-4.35294118 5.44117647 41.3529412 5.44117647 41.3529412 41.3529412 -4.35294118 41.3529412"></polygon>
                            <polygon id="Rectangle" fill="#A8A8A8" points="5.44117647 5.44117647 17.4117647 5.44117647 17.4117647 6.52941176 5.44117647 6.52941176"></polygon>
                            <polygon id="Rectangle" fill="#A8A8A8" points="5.44117647 8.70588235 15.2352941 8.70588235 15.2352941 9.79411765 5.44117647 9.79411765"></polygon>
                            <rect id="Rectangle" fill="#A8A8A8" x="5.44117647" y="12.0588235" width="14.1470588" height="1.08823529"></rect>
                            <polygon id="Rectangle" fill="#A8A8A8" points="5.44117647 15.2352941 29.3823529 15.2352941 29.3823529 16.3235294 5.44117647 16.3235294"></polygon>
                            <rect id="Rectangle" fill="#A8A8A8" x="5.44117647" y="18.5882353" width="26.1176471" height="1.08823529"></rect>
                            <polygon id="Rectangle" fill="#A8A8A8" points="5.44117647 21.8529412 26.1176471 21.8529412 26.1176471 22.9411765 5.44117647 22.9411765"></polygon>
                            <polygon id="Rectangle" fill="#E2E2E2" points="5.44117647 26.1176471 31.5588235 26.1176471 31.5588235 40.2647059 5.44117647 40.2647059"></polygon>
                            <g id="Group-2" transform="translate(20.676471, 4.352941)">
                                <path d="M4.08088235,1.63235294 C1.82707326,1.63235294 0,3.4594262 0,5.71323529 C0,7.96704438 1.82707326,9.79411765 4.08088235,9.79411765 C6.33469144,9.79411765 8.16176471,7.96704438 8.16176471,5.71323529 L4.08088235,5.71323529" id="Path" fill="url(#linearGradient-22)"></path>
                                <path d="M4.89705882,0 C7.60162973,0 9.79411765,2.19248792 9.79411765,4.89705882 C7.60162973,4.89705882 6.56268849,4.80834399 4.89705882,4.89705882 L4.89705882,0 Z" id="Path" fill="url(#linearGradient-23)"></path>
                            </g>
                            <polyline id="Path-27" stroke="#8D8D8D" stroke-width="0.5" points="5.44117647 38.0882353 7.51057961 38.0882353 10.8624507 32.8251931 12.3811909 35.1536489 15.5927887 30.4705882 18.7026406 35.1536489 20.3231267 33.7260791 24.4004171 33.7260791 26.0981706 31.7205233 28.652038 35.4731876 31.5588235 35.4731876"></polyline>
                        </g>
                    </g>
                </g>
            </g>
        </g>
    </g>
</svg>