<?xml version="1.0" encoding="UTF-8"?>
<svg width="87px" height="19px" viewBox="0 0 87 19" version="1.1" xmlns="http://www.w3.org/2000/svg" xmlns:xlink="http://www.w3.org/1999/xlink">
    <!-- Generator: Sketch 63.1 (92452) - https://sketch.com -->
    <title>QuTS_hero_station</title>
    <desc>Created with Sketch.</desc>
    <g id="QuTS_hero_station" stroke="none" stroke-width="1" fill="none" fill-rule="evenodd">
        <g fill="#0055AA" fill-rule="nonzero" id="Combined-Shape-Copy">
            <path d="M9.10849654,0 C14.2895051,0 16.0627014,2.603 16.0627014,5.67783333 L16.0627014,5.67783333 L16.0627014,13.3221667 C16.0758942,14.2347209 15.8842691,15.1385218 15.5020816,15.9663333 L15.5020816,15.9663333 L18.2169931,18.7245 L14.5383195,18.7245 L13.7351844,17.9106667 C12.654889,18.5915 11.1431054,19 9.09589835,19 L9.09589835,19 L6.92900843,19 C1.7637476,19 7.10542736e-15,16.397 7.10542736e-15,13.3221667 L7.10542736e-15,13.3221667 L7.10542736e-15,5.67783333 C7.10542736e-15,2.603 1.7637476,0 6.92900843,0 L6.92900843,0 L9.10849654,0 Z M22.9570648,6.72916667 L22.9570648,14.6458333 C22.9570648,15.371 23.2720197,15.732 24.0342106,15.732 C24.8625421,15.732 26.3270825,15.2316667 27.5428085,14.592 L27.5428085,6.72916667 L30.9159758,6.72916667 L30.9159758,18.7213333 L28.3459436,18.7213333 L28.0309887,17.5845 C26.3270825,18.4173333 24.2011367,19 22.6263621,19 C20.3870325,19 19.5838975,17.4166667 19.5838975,15.0005 L19.5838975,6.72916667 L22.9570648,6.72916667 Z M52.1124425,-7.10542736e-15 C53.9137518,0.0082879533 55.7089037,0.212136423 57.4666763,0.608 L57.4666763,0.608 L56.1123701,3.35666667 C54.8146806,3.12431237 53.4998016,3.00249114 52.1817326,2.9925 C49.8416175,2.9925 49.4290265,3.48966667 49.4290265,5.09516667 C49.4290265,7.201 49.4825689,7.258 52.6510155,8.03066667 C57.5832096,9.2245 57.8288745,10.0256667 57.8414727,13.6926667 C57.8414727,17.1823333 56.8241683,18.9841667 51.3974948,18.9841667 C49.3030446,18.9841667 46.8810412,18.4585 45.6684647,17.8758333 L45.6684647,17.8758333 L46.9282844,15.3425 C48.3892804,15.7690517 49.9014155,15.9927898 51.4226912,16.0075 C53.9297325,16.0075 54.3423234,15.4818333 54.3423234,13.7085 C54.3423234,11.6596667 54.2887811,11.495 50.9817543,10.773 C46.5471889,9.76283333 45.9424755,8.91733333 45.9424755,5.01283333 C45.9424755,1.6625 47.4574087,-7.10542736e-15 52.1124425,-7.10542736e-15 Z M43.709445,0.278666667 L43.709445,3.35033333 L39.4701517,3.35033333 L39.4701517,18.7245 L35.9993484,18.7245 L35.9993484,3.35033333 L31.7569055,3.35033333 L31.7569055,0.278666667 L43.709445,0.278666667 Z M9.09589835,3.07483333 L6.92900843,3.07483333 C4.34637802,3.07483333 3.46450422,4.12616667 3.46450422,5.871 L3.46450422,5.871 L3.46450422,13.129 C3.46450422,14.8738333 4.34007892,15.9251667 6.92900843,15.9251667 L6.92900843,15.9251667 L9.10849654,15.9251667 C9.88174882,15.9625864 10.652713,15.8138523 11.3572747,15.4913333 L11.3572747,15.4913333 L6.79042827,10.868 L10.4596532,10.868 L12.5604026,12.9991667 L12.5604026,5.871 C12.5604026,4.12616667 11.6848279,3.07483333 9.09589835,3.07483333 L9.09589835,3.07483333 Z M64.6885928,0.2755 C65.0170374,0.268689687 65.3343767,0.395125366 65.5690296,0.626287336 C65.8036825,0.857449307 65.9358842,1.17386685 65.9358144,1.50416667 L65.9358144,1.50416667 L65.9358144,3.15083333 C66.3093701,3.06841339 66.6903771,3.02490595 67.0728017,3.021 C67.9908008,2.99435948 68.8516957,3.46770125 69.3247294,4.25916667 C69.9924338,3.46116667 71.0475329,3.021 72.4112877,3.021 C73.3497467,2.98290914 74.2720195,3.27520557 75.0191145,3.8475 C75.2224986,3.42314363 75.6497972,3.15355344 76.1183072,3.154 L76.1183072,3.154 L77.482062,3.154 C77.7255557,3.15327921 77.9636544,3.2260899 78.1655142,3.363 C78.4689954,3.21005702 78.785144,3.08396984 79.110379,2.98616667 C79.21269,2.95583744 79.3186753,2.93985324 79.425334,2.93866667 C79.6916953,2.9381822 79.9507655,3.02612144 80.1623285,3.18883333 C80.2930232,3.29278519 80.4003595,3.42336793 80.4772834,3.572 C81.1389126,3.21648477 81.8817534,3.04177645 82.6315751,3.06533333 L82.6315751,3.06533333 L83.3811679,3.06533333 C86.0488361,3.06533333 87,4.71516667 87,6.25733333 L87,6.25733333 L87,8.9015 C87,10.4436667 86.0488361,12.0903333 83.3811679,12.0903333 L83.3811679,12.0903333 L82.6315751,12.0903333 C79.9544582,12.0903333 79.0095935,10.4436667 79.0095935,8.9015 L79.0095935,8.9015 L78.9245556,8.949 L78.9245556,10.868 C78.9245556,11.544825 78.3788464,12.0935 77.70568,12.0935 L77.70568,12.0935 L76.0899613,12.0935 C75.7680132,12.09409 75.4589086,11.9665887 75.2301343,11.7388333 C74.3341234,12.0631685 73.3887928,12.2281878 72.4364841,12.2265254 C71.2302067,12.2265254 70.2853419,11.9256667 69.620787,11.3556667 C69.4268942,11.8030338 68.9880558,12.0926254 68.502697,12.0935 L68.502697,12.0935 L66.8869782,12.0935 C66.418249,12.0947149 65.9905768,11.824889 65.7877855,11.4 C65.5829179,11.8225945 65.1561731,12.0906059 64.6885928,12.0903333 L64.6885928,12.0903333 L63.0728741,12.0903333 C62.3997077,12.0903333 61.8539985,11.5416583 61.8539985,10.8648333 L61.8539985,10.8648333 L61.8539985,1.50416667 C61.8539985,0.826827543 62.3991985,0.277245719 63.0728741,0.2755 L63.0728741,0.2755 L64.6885928,0.2755 Z M72.3860913,4.24333333 C70.3231365,4.24333333 69.712124,5.4055 69.712124,6.77666667 L69.712124,6.77666667 L69.712124,8.493 C69.712124,10.0478333 70.4144734,10.9978333 72.4396336,10.9978333 C73.2412525,10.9962318 74.0364175,10.853696 74.7891974,10.5766667 L74.7891974,10.5766667 L74.7891974,9.291 C74.0732763,9.50914219 73.3321507,9.63262477 72.5845129,9.65833333 C71.6018535,9.65833333 71.3246932,9.35116667 71.3246932,8.56583333 L71.3246932,8.56583333 L71.3246932,8.23333333 L74.9120298,8.23333333 L74.9057307,6.85266667 C74.9057307,5.45616667 74.4490461,4.24333333 72.3860913,4.24333333 Z M64.6885928,1.50416667 L63.0728741,1.50416667 L63.0728741,10.8648333 L64.6885928,10.8648333 L64.6885928,6.35866667 C65.2078442,6.06700697 65.7795098,5.88187425 66.3704522,5.814 C66.742099,5.814 66.8869782,5.98816667 66.8869782,6.33333333 L66.8869782,6.33333333 L66.8869782,10.8648333 L68.502697,10.8648333 L68.502697,6.156 C68.502697,5.00016667 68.118452,4.24016667 67.0444557,4.24016667 C66.2227715,4.27695255 65.4188883,4.49306276 64.6885928,4.8735 L64.6885928,4.8735 L64.6885928,1.50416667 Z M79.4127358,4.16733333 C78.7591419,4.40095195 78.1362127,4.71357767 77.5576512,5.09833333 L77.5576512,5.09833333 L77.4537161,4.3795 L76.0899613,4.3795 L76.0899613,10.8648333 L77.70568,10.8648333 L77.70568,6.68166667 C78.2496256,6.32145324 78.8203281,6.0038494 79.4127358,5.73166667 L79.4127358,5.73166667 L79.4127358,4.16733333 Z M83.3811679,4.294 L82.6315751,4.294 C80.8394816,4.294 80.228469,5.19333333 80.228469,6.25733333 L80.228469,6.25733333 L80.228469,8.89833333 C80.228469,9.95916667 80.8394816,10.8616667 82.6315751,10.8616667 L82.6315751,10.8616667 L83.3811679,10.8616667 C85.1701119,10.8616667 85.7811244,9.95916667 85.7811244,8.89833333 L85.7811244,8.89833333 L85.7811244,6.25733333 C85.7811244,5.19333333 85.1701119,4.294 83.3811679,4.294 L83.3811679,4.294 Z M83.3087282,5.776 C84.0331246,5.776 84.281939,6.07366667 84.281939,6.56133333 L84.281939,6.56133333 L84.281939,8.59433333 C84.281939,9.08516667 84.0331246,9.37966667 83.3087282,9.37966667 L83.3087282,9.37966667 L82.7008652,9.37966667 C81.9764689,9.37966667 81.7276545,9.08516667 81.7276545,8.59433333 L81.7276545,8.59433333 L81.7276545,6.56133333 C81.7276545,6.07366667 81.9764689,5.776 82.7008652,5.776 L82.7008652,5.776 L83.3087282,5.776 Z M72.3986895,5.5765 C73.1923759,5.5765 73.3844984,6.01666667 73.3844984,6.61516667 L73.3844984,6.61516667 L73.3844984,6.93183333 L71.3246932,6.93183333 L71.3246932,6.61516667 C71.3246932,6.004 71.6018535,5.5765 72.3986895,5.5765 Z"></path>
        </g>
    </g>
</svg>