<?xml version="1.0" encoding="UTF-8"?>
<svg width="36px" height="36px" viewBox="0 0 36 36" version="1.1" xmlns="http://www.w3.org/2000/svg" xmlns:xlink="http://www.w3.org/1999/xlink">
    <!-- <title>ic_app_icon</title> -->
    <defs>
        <linearGradient x1="100%" y1="14.0262277%" x2="-69.2438616%" y2="147.123326%" id="linearGradient-1">
            <stop stop-color="#00B9D7" offset="0%"></stop>
            <stop stop-color="#02AEE4" offset="17.7436891%"></stop>
            <stop stop-color="#6C5CA7" offset="29.7827698%"></stop>
            <stop stop-color="#C65CA4" offset="46.3536609%"></stop>
            <stop stop-color="#D15CA2" offset="52.2233436%"></stop>
            <stop stop-color="#D5519D" offset="100%"></stop>
        </linearGradient>
        <filter x="-25.9%" y="-25.9%" width="151.9%" height="151.8%" filterUnits="objectBoundingBox" id="filter-2">
            <feOffset dx="0" dy="0" in="SourceAlpha" result="shadowOffsetOuter1"></feOffset>
            <feGaussianBlur stdDeviation="2" in="shadowOffsetOuter1" result="shadowBlurOuter1"></feGaussianBlur>
            <feColorMatrix values="0 0 0 0 0   0 0 0 0 0   0 0 0 0 0  0 0 0 0.2 0" type="matrix" in="shadowBlurOuter1" result="shadowMatrixOuter1"></feColorMatrix>
            <feMerge>
                <feMergeNode in="shadowMatrixOuter1"></feMergeNode>
                <feMergeNode in="SourceGraphic"></feMergeNode>
            </feMerge>
        </filter>
        <linearGradient x1="28.1335848%" y1="47.2410666%" x2="62.1901762%" y2="18.8512254%" id="linearGradient-3">
            <stop stop-color="#57E1FF" offset="0%"></stop>
            <stop stop-color="#004173" offset="100%"></stop>
        </linearGradient>
        <linearGradient x1="37.6822917%" y1="7.23914332%" x2="75.6770833%" y2="103.841602%" id="linearGradient-4">
            <stop stop-color="#6CE4FF" offset="0%"></stop>
            <stop stop-color="#002E78" offset="100%"></stop>
        </linearGradient>
        <linearGradient x1="30.246447%" y1="74.8331768%" x2="77.3761341%" y2="41.4937633%" id="linearGradient-5">
            <stop stop-color="#701B55" offset="0%"></stop>
            <stop stop-color="#FFA8FE" offset="100%"></stop>
        </linearGradient>
        <linearGradient x1="18.2699301%" y1="-0.222759573%" x2="33.9610876%" y2="98.0651909%" id="linearGradient-6">
            <stop stop-color="#94136A" offset="0%"></stop>
            <stop stop-color="#B83F92" offset="20.9226578%"></stop>
            <stop stop-color="#FFD7F8" offset="100%"></stop>
        </linearGradient>
    </defs>
    <g id="Symbols" stroke="none" stroke-width="1" fill="none" fill-rule="evenodd">
        <g id="ic/app_icon">
            <path d="M18,36 C22.1608977,36 30.4118215,36 34.0908335,36 C32.1650082,33.1549342 32.8810939,28.481789 34.0908335,26.0762658 C35.312286,23.6474517 36,20.9040379 36,18 C36,8.0588745 27.9411255,0 18,0 C8.0588745,0 0,8.0588745 0,18 C0,27.9411255 8.0588745,36 18,36 Z" id="Mask" fill="url(#linearGradient-1)" fill-rule="nonzero"></path>
            <g id="Group-5" filter="url(#filter-2)" transform="translate(2.573892, 2.568969)">
                <g id="Group" transform="translate(9.277301, 8.590121)">
                    <polygon id="Rectangle" fill="#FFFFFF" points="0 6.97123992 6.38726115 4.14489748 6.38726115 6.21734622 0 9.04368866"></polygon>
                    <polygon id="Rectangle-Copy-9" fill="#FFFFFF" transform="translate(3.193631, 7.630517) scale(-1, 1) translate(-3.193631, -7.630517) " points="0 8.00746429 6.38726115 5.18112185 6.38726115 7.25357059 0 10.079913"></polygon>
                    <polygon id="Rectangle-Copy-2" fill="#FFFFFF" points="0 2.82634245 6.38726115 7.36281698e-14 6.38726115 2.07244874 0 4.89879118"></polygon>
                    <polygon id="Rectangle-Copy-5" fill="#FFFFFF" points="2.75887364e-14 3.48391232 2.03777003 3.48391232 2.03777003 10.8140107 9.025612e-15 10.8140107"></polygon>
                    <polygon id="Rectangle-Copy-6" fill="#A6F7F6" points="10.7367523 3.22352806 12.7745223 3.22352806 12.7745223 10.5536264 10.7367523 10.5536264"></polygon>
                    <polygon id="Rectangle-Copy-7" fill="#FFFFFF" transform="translate(3.193631, 11.775415) scale(-1, 1) translate(-3.193631, -11.775415) " points="0 12.1523618 6.38726115 9.32601933 6.38726115 11.3984681 0 14.2248105"></polygon>
                    <polygon id="Rectangle-Copy" fill="#A6F7F6" transform="translate(9.580892, 6.594293) scale(-1, 1) translate(-9.580892, -6.594293) " points="6.38726115 6.97123992 12.7745223 4.14489748 12.7745223 6.21734622 6.38726115 9.04368866"></polygon>
                    <polygon id="Rectangle-Copy-10" fill="#A6F7F6" points="6.38726115 8.00746429 12.7745223 5.18112185 12.7745223 7.25357059 6.38726115 10.079913"></polygon>
                    <polygon id="Rectangle-Copy-4" fill="#A6F7F6" transform="translate(9.580892, 2.449396) scale(-1, 1) translate(-9.580892, -2.449396) " points="6.38726115 2.82634245 12.7745223 0 12.7745223 2.07244874 6.38726115 4.89879118"></polygon>
                    <polygon id="Rectangle-Copy-8" fill="#A6F7F6" transform="translate(9.580892, 11.775415) scale(-1, -1) translate(-9.580892, -11.775415) " points="6.38726115 12.1523618 12.7745223 9.32601933 12.7745223 11.3984681 6.38726115 14.2248105"></polygon>
                    <polygon id="Path-15" fill="#B2C2C3" points="4.36936638 7.11162258 2.03777003 8.15553136 3.19363058 8.66731102 5.56334554 7.64134834"></polygon>
                    <polygon id="Path-15-Copy" fill="#5DBEBD" transform="translate(9.023695, 6.341311) scale(-1, 1) translate(-9.023695, -6.341311) " points="8.44242152 5.5675976 7.31063847 6.06777747 9.63948558 7.11502452 10.7367523 6.62579576"></polygon>
                </g>
                <g id="Group-2" transform="translate(15.426108, 15.431031) rotate(8.000000) translate(-15.426108, -15.431031) translate(1.768643, 1.767782)">
                    <g id="backup" transform="translate(5.612006, 0.000000)">
                        <path d="M3.60644301,5.81480312 C4.94312132,5.05887064 6.48808687,4.62728428 8.13375829,4.62728428 C13.1921049,4.62728428 17.295768,8.70443229 17.333381,13.7473482 C17.333381,13.7243248 17.335201,13.7015035 17.335201,13.6784802 C17.335201,6.89811112 11.8315646,1.40179732 5.04281609,1.40179732 C3.36640714,1.40179732 1.38444282,1.87579506 0.00893815148,2.52347753 L3.60644301,5.81480312 Z" id="Fill-1" fill="url(#linearGradient-3)"></path>
                        <path d="M0,2.52792063 C1.53910115,1.8352013 3.24503432,1.44643026 5.04277565,1.44643026 C11.1514562,1.44643026 16.2168805,5.89740435 17.1711597,11.7283642 L14.8441356,11.7283642 L20.1577814,20.0704191 C21.1450245,18.1755808 21.7029238,16.0220339 21.7029238,13.7380581 C21.7029238,6.15066091 15.5440925,1.42108547e-14 7.946866,1.42108547e-14 C4.98514277,1.42108547e-14 2.2446489,0.937695571 0,2.52792063 Z" id="Fill-5" fill="url(#linearGradient-4)"></path>
                    </g>
                    <g id="restore" transform="translate(0.000000, 7.186025)">
                        <path d="M18.1495226,14.2961708 C16.8178998,15.0611914 15.2759675,15.5030777 13.6302961,15.5139834 C8.57194948,15.5479126 4.44098662,11.4984329 4.36960274,6.45592097 C4.36960274,6.47894429 4.36818719,6.50176566 4.36836964,6.52499094 C4.41388905,13.3049561 9.95432965,18.7643114 16.7430781,18.7186686 C18.4190827,18.7075609 20.3980137,18.2204358 21.7690695,17.5634632 L18.1495226,14.2961708 Z" id="Fill-7" fill="url(#linearGradient-5)"></path>
                        <path d="M21.7780683,17.5591211 C20.2436182,18.2619384 18.5403139,18.6620191 16.7427748,18.6741367 C10.6340943,18.7149324 5.53894348,14.2982913 4.54523135,8.47359222 L7.78921151,8.47359222 L1.58177238,0 C0.557621907,1.93814414 -0.0155941476,4.14950216 0.000322872443,6.49439415 C0.0510802485,14.0817913 6.25136673,20.1910506 13.8483911,20.140157 C16.8099121,20.120163 19.5441371,19.1640892 21.7780683,17.5591211 Z" id="Fill-11" fill="url(#linearGradient-6)"></path>
                    </g>
                </g>
            </g>
        </g>
    </g>
</svg>