<svg xmlns="http://www.w3.org/2000/svg" xmlns:xlink="http://www.w3.org/1999/xlink" width="100" height="100" viewBox="0 0 100 100">
  <defs>
    <linearGradient id="vmbackupcenter_100-a" x1="100%" x2="-71.892%" y1="4.692%" y2="173.077%">
      <stop offset="0%" stop-color="#00B9D7"/>
      <stop offset="17.744%" stop-color="#02AEE4"/>
      <stop offset="29.783%" stop-color="#6C5CA7"/>
      <stop offset="46.354%" stop-color="#C65CA4"/>
      <stop offset="52.223%" stop-color="#D15CA2"/>
      <stop offset="57.209%" stop-color="#D5519D"/>
      <stop offset="64.035%" stop-color="#CB3995"/>
      <stop offset="100%" stop-color="#400A31"/>
    </linearGradient>
    <linearGradient id="vmbackupcenter_100-b" x1="28.134%" x2="62.19%" y1="47.234%" y2="18.77%">
      <stop offset="0%" stop-color="#57E1FF"/>
      <stop offset="100%" stop-color="#004173"/>
    </linearGradient>
    <linearGradient id="vmbackupcenter_100-c" x1="37.682%" x2="75.677%" y1="7.128%" y2="103.981%">
      <stop offset="0%" stop-color="#6CE4FF"/>
      <stop offset="100%" stop-color="#002E78"/>
    </linearGradient>
    <linearGradient id="vmbackupcenter_100-d" x1="30.246%" x2="77.376%" y1="74.898%" y2="41.472%">
      <stop offset="0%" stop-color="#701B55"/>
      <stop offset="100%" stop-color="#FFA8FE"/>
    </linearGradient>
    <linearGradient id="vmbackupcenter_100-e" x1="21.869%" x2="74.121%" y1="15.215%" y2="96.181%">
      <stop offset="0%" stop-color="#94136A"/>
      <stop offset="100%" stop-color="#FFD7F8"/>
    </linearGradient>
    <path id="vmbackupcenter_100-g" d="M0.423531934,0.0316413662 C0.138759638,0.0316413662 -0.0510885591,0.189848197 0.0121941733,0.537903226 L5.2330196,21.3579222 C6.11897785,24.9333966 6.97329474,25.2181689 11.3398033,25.2181689 L12.3106094,25.2108202 C15.8462,25.1480933 16.6622141,24.6219789 17.4782283,21.3579222 L22.6674124,0.537903226 C22.7306951,0.189848197 22.5408469,0.0316413662 22.2560746,0.0316413662 L16.7188355,0.0316413662 C16.4024219,0.0316413662 16.3707805,0.189848197 16.2758564,0.537903226 L11.5612928,19.6809298 L11.523792,19.7805415 C11.4909787,19.846168 11.4347274,19.9024194 11.3081619,19.9024194 C11.1183137,19.9024194 11.0866724,19.7758539 11.055031,19.6809298 L6.40375015,0.537903226 L6.33898423,0.311964095 C6.2752071,0.120632709 6.19808127,0.0316413662 5.96077102,0.0316413662 L0.423531934,0.0316413662 Z"/>
    <filter id="vmbackupcenter_100-f" width="117.6%" height="115.9%" x="-4.4%" y="-7.9%" filterUnits="objectBoundingBox">
      <feOffset dx="1" in="SourceAlpha" result="shadowOffsetOuter1"/>
      <feGaussianBlur in="shadowOffsetOuter1" result="shadowBlurOuter1" stdDeviation=".5"/>
      <feColorMatrix in="shadowBlurOuter1" values="0 0 0 0 0.0347915164   0 0 0 0 0.149930624   0 0 0 0 0.299960371  0 0 0 0.5 0"/>
    </filter>
  </defs>
  <g fill="none" fill-rule="evenodd">
    <rect width="100" height="100" fill="url(#vmbackupcenter_100-a)" fill-rule="nonzero" rx="20"/>
    <g transform="translate(26.62 10.295)">
      <path fill="url(#vmbackupcenter_100-b)" d="M10.4907059,16.9364706 C14.3789412,14.7347059 18.8730588,13.4776471 23.6601176,13.4776471 C38.3742353,13.4776471 50.3112941,25.3529412 50.4207059,40.0411765 C50.4207059,39.9741176 50.426,39.9076471 50.426,39.8405882 C50.426,20.0917647 34.4165882,4.08294118 14.6689412,4.08294118 C9.79247059,4.08294118 4.02717647,5.46352941 0.026,7.35 L10.4907059,16.9364706 Z"/>
      <path fill="url(#vmbackupcenter_100-c)" d="M3.55271368e-15,7.36294118 C4.47705882,5.34529412 9.43941176,4.21294118 14.6688235,4.21294118 C32.4382353,4.21294118 47.1729412,17.1770588 49.9488235,34.1605882 L43.1797925,34.1605882 L58.6365443,58.458052 C61.508315,52.9390562 63.1311765,46.6665337 63.1311765,40.0141176 C63.1311765,17.9147059 45.2158824,-3.55271368e-15 23.1164706,-3.55271368e-15 C14.5011765,-3.55271368e-15 6.52941176,2.73117647 3.55271368e-15,7.36294118 Z"/>
    </g>
    <g transform="translate(10.295 31.225)">
      <path fill="url(#vmbackupcenter_100-d)" d="M52.7947627,41.6397031 C48.9212333,43.8679384 44.4359392,45.1549972 39.6488804,45.1867619 C24.9347627,45.2855855 12.9182921,33.4908796 12.7106451,18.8038208 C12.7106451,18.8708796 12.7065274,18.9373502 12.7070582,19.0049972 C12.8394686,38.7526443 28.9559392,54.6538208 48.7035863,54.5208796 C53.5788804,54.4885266 59.335351,53.0697031 63.3235863,51.1561737 L52.7947627,41.6397031 Z"/>
      <path fill="url(#vmbackupcenter_100-e)" d="M63.3497627,51.1435266 C58.8862333,53.1905855 53.9315274,54.3558796 48.7027039,54.3911737 C30.9332921,54.5099972 16.1121157,41.6458796 13.2215274,24.6805855 L22.6578728,24.6805855 L4.60118425,0 C1.62205458,5.6451303 -0.0453614864,12.0860362 0.000939196828,18.9158796 C0.148586256,41.0152913 18.1844686,58.809409 40.2832921,58.6611737 C48.897998,58.6029384 56.8515274,55.8182325 63.3497627,51.1435266 Z"/>
    </g>
    <g fill-rule="nonzero" transform="translate(29.412 38.235)">
      <path fill="#FFF" d="M33.9951221,0.00275007968 L39.3450931,-3.37507799e-14 C39.6219551,-3.37507799e-14 39.6807882,0.193803368 39.7123678,0.433029401 L42.2244574,24.5220588 C42.2560988,24.9017552 42.0662506,25.059962 41.7498369,25.059962 L36.054391,25.059962 C35.7379773,25.059962 35.6114119,24.9017552 35.5797705,24.5220588 L34.2508331,11.9604364 L29.662835,23.762666 C29.5046282,24.1423624 29.2514973,24.3005693 28.9350836,24.3005693 L25.2035963,24.3005693 C24.8871826,24.3005693 24.6340517,24.1423624 24.4758449,23.762666 L19.8102467,11.9604364 L13.8714449,24.6802657 C13.8398035,25.059962 13.7132381,25.2181689 13.3968244,25.2181689 L11.0365386,25.2181689 C10.720125,25.2181689 10.5302768,25.059962 10.5619181,24.6802657 L16.4307129,0.569544592 C16.4623543,0.284772296 16.4939957,0.0316413662 16.8104093,0.0316413662 L21.6088569,0.0316413662 C22.7851054,-3.37507799e-14 22.5962222,-3.37507799e-14 22.9991367,1.29729602 L27.0119087,13.7931328 L31.9726548,1.29729602 C32.3582839,0.288727467 32.9107718,0.0310233708 33.9951221,0.00275007968 Z"/>
      <use fill="#000" filter="url(#vmbackupcenter_100-f)" xlink:href="#vmbackupcenter_100-g"/>
      <use fill="#FFF" xlink:href="#vmbackupcenter_100-g"/>
    </g>
  </g>
</svg>
