<svg xmlns="http://www.w3.org/2000/svg" viewBox="0 0 70 70"><defs><style>.cls-1{fill:#4b4b4b;}</style></defs><g id="圖層_1" data-name="圖層 1"><path class="cls-1" d="M57,0H53V1.5h4V0ZM49,0H45V1.5h4V0ZM41,0H37V1.5h4V0ZM33,0H29V1.5h4V0ZM25,0H21V1.5h4V0ZM17,0H13V1.5h4V0ZM9.06.61A13,13,0,0,0,5.5,2.38l.86,1.23A11.12,11.12,0,0,1,9.52,2L9.06.61ZM2.63,5.15c-.25.34-.49.7-.72,1.06h0l0,0h0v0h0v0h-.2v0h0v0h0v0h0v0h0v0h0v0h0l0,0h0l0,0h0l0,0h0A13.63,13.63,0,0,0,.74,8.66l1.42.5a11.35,11.35,0,0,1,1.67-3.1l-1.2-.91ZM0,12.58H0v0H0v0H0v.08H0v0H0v0H0v3.58H1.5V13c0-.13,0-.25,0-.37L0,12.58Zm1.49,8H0v4H1.5v-4Zm0,8H0v4H1.5v-4Zm0,8H0v4H1.5v-4Zm0,8H0v4H1.5v-4Zm0,8H0v4H1.5v-4Zm.43,7.55-1.44.4a11.19,11.19,0,0,0,.44,1.31h0v0H1v0H1v0h.09v0h0v0h0a13.4,13.4,0,0,0,1.05,1.94l1.26-.83a11.32,11.32,0,0,1-1.47-3.2Zm3.84,5.81-.95,1.17a13,13,0,0,0,3.45,2l.54-1.4a11.3,11.3,0,0,1-3-1.77Zm6.48,2.54L12.15,70h.19l.49,0h3.32V68.5H13l-.75,0Zm11.9,0h-4V70h4V68.5Zm8,0h-4V70h4V68.5Zm8,0h-4V70h4V68.5Zm8,0h-4V70h4V68.5Zm8,0h-4V70h4V68.5ZM63,66.8a11.35,11.35,0,0,1-3.25,1.37l.36,1.45a11.64,11.64,0,0,0,1.55-.49h1.47l0,0h0c.21-.11.42-.23.62-.36L63,66.8Zm4.56-5.27a11.21,11.21,0,0,1-1.87,3l1.13,1,.13-.15h0v0h.11a13.47,13.47,0,0,0,1.42-2.14h0v0h.08c.12-.25.24-.5.35-.75l-1.38-.6ZM70,54.27H68.5V57c0,.37,0,.75,0,1.12l1.49.15A2.64,2.64,0,0,0,70,58h0v0h0v0h0v0h0v0h0V54.27Zm0-8H68.5v4H70v-4Zm0-8H68.5v4H70v-4Zm0-8H68.5v4H70v-4Zm0-8H68.5v4H70v-4Zm0-8H68.5v4H70v-4ZM68.3,6.56,67,7.31a11.71,11.71,0,0,1,1.25,3.29l1.47-.31,0-.1h0v0h0v0h-.05v0h0v0h0v0h0A12.94,12.94,0,0,0,68.3,6.56ZM62.51,1.22l-.64,1.36a11.33,11.33,0,0,1,2.93,2l1-1.1a13.1,13.1,0,0,0-3.31-2.23ZM57,0V1.5a10.56,10.56,0,0,1,1.49.1l.2-1.49h-.26c-.29,0-.58-.06-.87-.07H57Z"/><path class="cls-1" d="M54.17,24.33h-5.5v-5.5a1.5,1.5,0,0,0-3,0v5.5h-5.5a1.5,1.5,0,0,0,0,3h5.5v5.5a1.5,1.5,0,0,0,3,0v-5.5h5.5a1.5,1.5,0,0,0,0-3Z"/><path class="cls-1" d="M47.09,41.3h0a21.65,21.65,0,0,1-1.23-5,3.52,3.52,0,0,1-1.57-.52A22.76,22.76,0,0,0,45.5,41.3h-23a23,23,0,0,0,1.32-7.55v-.6A16,16,0,0,1,24,29.82l0-.13,0-.15c1-5,5.21-8.7,9.91-8.7a9.45,9.45,0,0,1,5.08,1.5h2.45A11.58,11.58,0,0,0,38,20.12a4.27,4.27,0,0,0-4-4.36,4.28,4.28,0,0,0-4,4.37,12.5,12.5,0,0,0-7.37,9.11l-.05.19s0,.09,0,.09l0,.12a17.91,17.91,0,0,0-.21,3.52v.59a21.43,21.43,0,0,1-1.41,7.55h0a4,4,0,0,0,0,8.05h8c0,.08,0,.16,0,.25a5.11,5.11,0,0,0,10.22,0c0-.09,0-.17,0-.25h8a4,4,0,0,0,0-8.05ZM34,17.26a2.68,2.68,0,0,1,2.46,2.37,10.4,10.4,0,0,0-4.92,0A2.68,2.68,0,0,1,34,17.26Zm0,36a3.61,3.61,0,0,1-3.61-3.61,2,2,0,0,1,0-.25h7.2a2,2,0,0,1,0,.25A3.61,3.61,0,0,1,34,53.21Zm13.09-5.36H20.91a2.53,2.53,0,0,1,0-5.05H47.09a2.53,2.53,0,0,1,0,5.05Z"/></g></svg>