<?xml version="1.0" encoding="UTF-8"?>
<svg width="12px" height="12px" viewBox="0 0 12 12" version="1.1" xmlns="http://www.w3.org/2000/svg" xmlns:xlink="http://www.w3.org/1999/xlink">
    <!-- Generator: Sketch 53.2 (72643) - https://sketchapp.com -->
    <title>slice/checkbox_checked_2</title>
    <desc>Created with Sketch.</desc>
    <g id="slice/checkbox_checked_2" stroke="none" stroke-width="1" fill="none" fill-rule="evenodd">
        <path d="M0.620689655,0 L11.3793103,0 C11.7221078,0 12,0.277892224 12,0.620689655 L12,11.3793103 C12,11.7221078 11.7221078,12 11.3793103,12 L0.620689655,12 C0.277892224,12 0,11.7221078 0,11.3793103 L0,0.620689655 C0,0.277892224 0.277892224,0 0.620689655,0 Z" id="Rectangle" fill="#2A82FD" fill-rule="nonzero"></path>
        <path d="M2.52235991,6.74482759 C2.111003,6.74482759 1.77753233,6.41135692 1.77753233,6 C1.77753233,5.58864308 2.111003,5.25517241 2.52235991,5.25517241 L9.55684267,5.25517241 C9.96819959,5.25517241 10.3016703,5.58864308 10.3016703,6 C10.3016703,6.41135692 9.96819959,6.74482759 9.55684267,6.74482759 L2.52235991,6.74482759 Z" id="Line-27" fill="#FFFFFF" fill-rule="nonzero"></path>
    </g>
</svg>