<?xml version="1.0" encoding="UTF-8"?>
<svg width="12px" height="12px" viewBox="0 0 12 12" version="1.1" xmlns="http://www.w3.org/2000/svg" xmlns:xlink="http://www.w3.org/1999/xlink">
    <!-- Generator: Sketch 53.2 (72643) - https://sketchapp.com -->
    <title>slice/checkbox_on_disabled</title>
    <desc>Created with Sketch.</desc>
    <g id="slice/checkbox_on_disabled" stroke="none" stroke-width="1" fill="none" fill-rule="evenodd">
        <path d="M0.620689655,0 L11.3793103,0 C11.7221078,0 12,0.277892224 12,0.620689655 L12,11.3793103 C12,11.7221078 11.7221078,12 11.3793103,12 L0.620689655,12 C0.277892224,12 0,11.7221078 0,11.3793103 L0,0.620689655 C0,0.277892224 0.277892224,0 0.620689655,0 Z" id="Rectangle" fill="#AEAEAE" fill-rule="nonzero"></path>
        <path d="M4.5301831,7.3928645 L9.04209726,2.85305584 C9.36429227,2.52886888 9.88828838,2.52725409 10.2124753,2.84944911 C10.5366623,3.17164412 10.5382771,3.69564023 10.2160821,4.01982719 L5.12046827,9.14694416 C4.79815067,9.47125446 4.27391129,9.47272897 3.94977445,9.15023693 L1.78720893,6.99864508 C1.46319537,6.67627569 1.46186251,6.15227878 1.7842319,5.82826523 C2.10660128,5.50425167 2.63059819,5.50291881 2.95461175,5.8252882 L4.5301831,7.3928645 Z" id="check" fill="#FFFFFF" fill-rule="nonzero"></path>
    </g>
</svg>