<svg xmlns="http://www.w3.org/2000/svg" viewBox="0 0 20 20"><g id="customize_push" ><path fill="#dd5519" d="M2.62,8H5.17a0,0,0,0,1,0,0v3.46a0,0,0,0,1,0,0H2.62a.9.9,0,0,1-.9-.9V8.9A.9.9,0,0,1,2.62,8Z"/><path fill="#f0b79a" d="M10.69,14.66a7.72,7.72,0,0,0-5.51-3.2V8a7.72,7.72,0,0,0,5.51-3.2Z"/><rect fill="#dd5519" x="10.69" y="4.22" width="1.12" height="11.07" rx="0.56" ry="0.56"/><polygon fill="#e89056" points="5.08 11.45 5.08 15.69 4.26 15.69 3.2 11.45 5.08 11.45"/><path fill="none" stroke="#e89056" stroke-miterlimit="10" fill-rule="envenodd" d="M16.59,3.71a8.9,8.9,0,0,1,0,12.59"/><path fill="none" stroke="#e89056" stroke-miterlimit="10" fill-rule="envenodd" d="M15.16,5.65a6.15,6.15,0,0,1,0,8.69"/><path fill="none" stroke="#e89056" stroke-miterlimit="10" fill-rule="envenodd" d="M13.73,7.57a3.44,3.44,0,0,1,0,4.86"/><rect fill="#c1531d" x="0.81" y="8.8" width="0.91" height="1.92"/></g></svg>
