<svg id="圖層_1" data-name="圖層 1" xmlns="http://www.w3.org/2000/svg" viewBox="0 0 240 80"><defs><style>.cls-1{fill:#a3a2a2;}.cls-2{fill:#747575;}.cls-3{fill:#c4c3c3;}.cls-4{fill:#bfbebe;}</style></defs><path class="cls-1" d="M212.21,46.76S190.33,30.56,235,12.46C235,12.46,251.64,57,212.21,46.76Z"/><path class="cls-2" d="M207.16,51.6a1,1,0,0,1-.34-1.94c4.13-1.5,5.16-4,5.2-4.07a1,1,0,0,1,1.87.71c-.06.14-1.33,3.4-6.38,5.24A1.07,1.07,0,0,1,207.16,51.6Z"/><path class="cls-3" d="M212.15,46.34C231.21,34,235,12.09,235,12.09,191.85,29.59,210.82,45.3,212.15,46.34Z"/><path class="cls-4" d="M134.22,73.41h-1a1.5,1.5,0,0,1,0-3h1c1.32,0,2.67,0,4-.07a1.49,1.49,0,0,1,1.56,1.45,1.51,1.51,0,0,1-1.45,1.55C137,73.39,135.58,73.41,134.22,73.41Zm-10.93-.57h-.17c-1.69-.18-3.39-.41-5-.67a1.51,1.51,0,0,1-1.24-1.72,1.49,1.49,0,0,1,1.72-1.24c1.59.26,3.23.47,4.87.65a1.5,1.5,0,0,1-.15,3Zm25-.26a1.5,1.5,0,0,1-.17-3c1.61-.18,3.26-.4,4.91-.65a1.5,1.5,0,0,1,.44,3c-1.68.25-3.36.48-5,.67ZM163,70.11a1.5,1.5,0,0,1-.31-3c1.6-.35,3.22-.72,4.82-1.13a1.51,1.51,0,0,1,1.82,1.1,1.49,1.49,0,0,1-1.09,1.81c-1.63.41-3.28.8-4.91,1.16A1.84,1.84,0,0,1,163,70.11ZM108.58,70a1.52,1.52,0,0,1-.42-.06c-1.64-.48-3.27-1-4.85-1.59a1.5,1.5,0,0,1,1-2.82c1.51.56,3.08,1.07,4.66,1.53a1.5,1.5,0,0,1-.42,2.94Zm69-3.73a1.5,1.5,0,0,1-.45-2.93c1.6-.5,3.19-1,4.72-1.55a1.5,1.5,0,0,1,1,2.84c-1.55.54-3.17,1.07-4.79,1.57A1.41,1.41,0,0,1,177.54,66.26Zm-82.89-1.8A1.43,1.43,0,0,1,94,64.3c-1.57-.78-3.09-1.58-4.49-2.38A1.5,1.5,0,1,1,91,59.31c1.35.78,2.81,1.55,4.33,2.31a1.5,1.5,0,0,1-.67,2.84Zm97-3.3a1.5,1.5,0,0,1-.58-2.88c2-.82,3.06-1.34,3.07-1.35a1.51,1.51,0,0,1,1.29,2.72c-.05,0-1.17.55-3.2,1.4A1.7,1.7,0,0,1,191.66,61.16ZM82,56.46a1.51,1.51,0,0,1-1-.35,37.14,37.14,0,0,1-3.75-3.63,1.5,1.5,0,0,1,2.25-2A33,33,0,0,0,83,53.81a1.5,1.5,0,0,1-1,2.65ZM73.58,44.35a1.5,1.5,0,0,1-1.45-1.13c-.08-.32-.15-.65-.22-1l-.62-.11a1.5,1.5,0,0,1-1.22-1.73,1.47,1.47,0,0,1,1.52-1.24V39c0-.38,0-.77,0-1.15a1.53,1.53,0,0,1,1.6-1.4A1.49,1.49,0,0,1,74.62,38c0,.31,0,.63,0,.94s0,.46,0,.69l2.07.27a1.5,1.5,0,1,1-.36,3l-1.24-.16A1.51,1.51,0,0,1,74,44.31,1.64,1.64,0,0,1,73.58,44.35Zm12.9-.9a1.5,1.5,0,0,1,0-3c1.66,0,3.3-.12,4.87-.28a1.5,1.5,0,0,1,.3,3c-1.66.17-3.38.27-5.12.29Zm14.76-2.31a1.51,1.51,0,0,1-1.43-1,1.49,1.49,0,0,1,1-1.89,37.22,37.22,0,0,0,4.45-1.79,1.5,1.5,0,1,1,1.3,2.7,39.92,39.92,0,0,1-4.81,1.94A1.58,1.58,0,0,1,101.24,41.14ZM61.79,40a1.31,1.31,0,0,1-.39,0c-1.59-.42-3.23-.9-4.87-1.4a1.5,1.5,0,0,1,.88-2.87c1.61.5,3.21,1,4.76,1.37A1.5,1.5,0,0,1,61.79,40ZM47.5,35.34a1.37,1.37,0,0,1-.52-.1c-1.59-.59-3.16-1.21-4.7-1.84a1.5,1.5,0,1,1,1.13-2.78q2.28.93,4.62,1.82a1.5,1.5,0,0,1-.53,2.9Zm66.65-1.61a1.5,1.5,0,0,1-1-2.61,32.89,32.89,0,0,0,3.32-3.45,1.5,1.5,0,0,1,2.3,1.93,36.54,36.54,0,0,1-3.61,3.74A1.47,1.47,0,0,1,114.15,33.73ZM76.42,30.09a1.51,1.51,0,0,1-1.26-2.31,33,33,0,0,1,3.19-4.16,1.51,1.51,0,0,1,2.12-.11,1.49,1.49,0,0,1,.11,2.12,29.37,29.37,0,0,0-2.89,3.77A1.52,1.52,0,0,1,76.42,30.09Zm-42.76-.57a1.44,1.44,0,0,1-.63-.14q-2.33-1.08-4.55-2.16a1.5,1.5,0,1,1,1.32-2.7c1.46.71,3,1.43,4.49,2.14a1.5,1.5,0,0,1-.63,2.86ZM20.23,22.8a1.53,1.53,0,0,1-.71-.18c-1.55-.84-3-1.65-4.41-2.43a1.5,1.5,0,0,1,1.47-2.62c1.37.77,2.83,1.58,4.36,2.41a1.49,1.49,0,0,1,.61,2A1.51,1.51,0,0,1,20.23,22.8Zm102.79-1a1.56,1.56,0,0,1-.63-.14,1.5,1.5,0,0,1-.72-2,16.46,16.46,0,0,0,1.42-4.33,1.5,1.5,0,1,1,3,.46,19,19,0,0,1-1.67,5.14A1.49,1.49,0,0,1,123,21.76ZM87,19.54a1.5,1.5,0,0,1-.86-2.72c1.36-1,2.81-1.91,4.3-2.79a1.5,1.5,0,1,1,1.53,2.58c-1.43.84-2.8,1.73-4.1,2.65A1.46,1.46,0,0,1,87,19.54ZM7.21,15.29a1.52,1.52,0,0,1-.79-.22C3.71,13.4,2.2,12.38,2.13,12.34A1.5,1.5,0,1,1,3.81,9.85s1.53,1,4.19,2.67a1.5,1.5,0,0,1-.79,2.77Zm93-2.86a1.5,1.5,0,0,1-.55-2.89c1.62-.64,3.25-1.21,4.85-1.68a1.5,1.5,0,1,1,.86,2.87c-1.52.45-3.07,1-4.61,1.6A1.52,1.52,0,0,1,100.16,12.43Zm19.51-2.9a1.31,1.31,0,0,1-.39,0A14.69,14.69,0,0,0,115.43,9c-.21,0-.45,0-.67,0a1.5,1.5,0,0,1-.09-3c.26,0,.53,0,.76,0a17.66,17.66,0,0,1,4.64.56,1.49,1.49,0,0,1,1.05,1.84A1.51,1.51,0,0,1,119.67,9.53Z"/></svg>