<svg id="圖層_1" data-name="圖層 1" xmlns="http://www.w3.org/2000/svg" viewBox="0 0 20 20"><defs></defs><path id="ic_magicbar" data-name="ic magicbar" fill="#195a87" d="M17.16,19,8.89,10.55l.84-.86L18,18.15ZM6.26,11.36,4.76,8.55,2,7,4.76,5.47l1.5-2.82L7.77,5.47,10.53,7,7.77,8.55ZM4.47,7l1.16.65.63,1.18L6.9,7.66,8.06,7,6.9,6.36,6.27,5.18,5.63,6.36ZM16.4,10l-1.2-.86L14,10l.85-1.22L14,7.57l1.2.86,1.2-.86-.85,1.22ZM6.25,16.41,4.31,15l-1.95,1.4,1.37-2-1.37-2,1.95,1.4,1.94-1.4-1.37,2ZM15.85,5l-1.94-1.4L12,5l1.37-2L12,1l1.95,1.4L15.85,1,14.48,3Z"/></svg>
