<svg id="ic_no_harddrive" xmlns="http://www.w3.org/2000/svg" xmlns:xlink="http://www.w3.org/1999/xlink" viewBox="0 0 78 68">
    <defs>
        <style>
            .ic_no_harddrive-cls-1{fill:url(#ic_no_harddrive-gradient_2);}
            .ic_no_harddrive-cls-2{fill:url(#ic_no_harddrive-gradient_2-2);}
            .ic_no_harddrive-cls-3{fill:url(#ic_no_harddrive-gradient_2-3);}
            .ic_no_harddrive-cls-4{fill:url(#ic_no_harddrive-gradient_2-4);}
            .ic_no_harddrive-cls-5{fill:url(#ic_no_harddrive-gradient_2-5);}
            .ic_no_harddrive-cls-6{fill:url(#ic_no_harddrive-gradient_2-6);}
        </style>
        <radialGradient id="ic_no_harddrive-gradient_2" cx="49.49" cy="30.72" r="23.51" gradientUnits="userSpaceOnUse">
            <stop offset="0" stop-color="#858585"/><stop offset="1" stop-color="#b9b9b9"/>
        </radialGradient><radialGradient id="ic_no_harddrive-gradient_2-2" cx="33.49" cy="38.16" r="27.25" xlink:href="#ic_no_harddrive-gradient_2"/>
        <radialGradient id="ic_no_harddrive-gradient_2-3" cx="44.59" cy="24.19" r="11.08" xlink:href="#ic_no_harddrive-gradient_2"/>
        <radialGradient id="ic_no_harddrive-gradient_2-4" cx="30.82" cy="31.39" r="9.87" xlink:href="#ic_no_harddrive-gradient_2"/>
        <radialGradient id="ic_no_harddrive-gradient_2-5" cx="31.24" cy="30.79" r="3.77" xlink:href="#ic_no_harddrive-gradient_2"/>
        <radialGradient id="ic_no_harddrive-gradient_2-6" cx="43.75" cy="34" r="33.76" gradientTransform="translate(36.85 -20.98) rotate(45)" xlink:href="#ic_no_harddrive-gradient_2"/>
    </defs>
    <path class="ic_no_harddrive-cls-1" d="M58,11.21l10.81,32.4H62.38l4,4H69v2.62l4,4V43.61h0l-11.7-35A2,2,0,0,0,59.4,7.21H26l4,4Z"/>
    <path class="ic_no_harddrive-cls-2" d="M9.83,58.76a2,2,0,0,1-2-2V47.61H48l-4-4H8.06l9-26.9-3.16-3.16L3.84,43.61h0V56.75a6,6,0,0,0,6,6H63.15l-4-4Z"/>
    <path class="ic_no_harddrive-cls-3" d="M53.34,34.69a11.38,11.38,0,0,0,2.87-7.39c0-7.51-8-13.62-17.8-13.62a22.81,22.81,0,0,0-5.43.65l2.55,2.55a20.89,20.89,0,0,1,2.88-.2c8.16,0,14.8,4.76,14.8,10.62a8.39,8.39,0,0,1-2,5.28Z"/>
    <path class="ic_no_harddrive-cls-4" d="M22.11,21.85a11,11,0,0,0-1.49,5.45c0,7.51,8,13.62,17.79,13.62A24.71,24.71,0,0,0,41,40.76l-2.85-2.85c-8-.09-14.55-4.81-14.55-10.61a7.8,7.8,0,0,1,.71-3.23Z"/>
    <path class="ic_no_harddrive-cls-5" d="M35,34.55l-2.5-2.5a4.83,4.83,0,0,1-2.34-1.57,3.52,3.52,0,0,1-.63-1.41l-2-2a6.17,6.17,0,0,0,1,4.62C29.82,33.34,32,34.3,35,34.55Z"/>
    <rect class="ic_no_harddrive-cls-6" x="41.75" y="-11.74" width="4" height="91.49" transform="translate(-11.23 40.89) rotate(-45)"/>
</svg>