<?xml version="1.0" encoding="UTF-8"?>
<svg width="78px" height="68px" viewBox="0 0 78 68" version="1.1" xmlns="http://www.w3.org/2000/svg" xmlns:xlink="http://www.w3.org/1999/xlink">
    <!-- Generator: Sketch 53.2 (72643) - https://sketchapp.com -->
    <title>slice/ic_no_harddrive</title>
    <desc>Created with Sketch.</desc>
    <defs>
        <linearGradient x1="50.2269286%" y1="50%" x2="100%" y2="50%" id="linearGradient-1">
            <stop stop-color="#292929" offset="0%"></stop>
            <stop stop-color="#595555" offset="100%"></stop>
        </linearGradient>
        <linearGradient x1="49.9787234%" y1="50%" x2="100%" y2="50%" id="linearGradient-2">
            <stop stop-color="#292929" offset="0.496199324%"></stop>
            <stop stop-color="#595555" offset="100%"></stop>
        </linearGradient>
        <linearGradient x1="49.9787234%" y1="50%" x2="100%" y2="50%" id="linearGradient-3">
            <stop stop-color="#292929" offset="0.496199324%"></stop>
            <stop stop-color="#595555" offset="100%"></stop>
        </linearGradient>
        <linearGradient x1="49.9787234%" y1="50%" x2="100%" y2="50%" id="linearGradient-4">
            <stop stop-color="#292929" offset="0.496199324%"></stop>
            <stop stop-color="#595555" offset="100%"></stop>
        </linearGradient>
        <linearGradient x1="49.9787234%" y1="50%" x2="100%" y2="50%" id="linearGradient-5">
            <stop stop-color="#292929" offset="0.496199324%"></stop>
            <stop stop-color="#595555" offset="100%"></stop>
        </linearGradient>
        <radialGradient cx="49.8572779%" cy="49.9918595%" fx="49.8572779%" fy="49.9918595%" r="844%" gradientTransform="translate(0.498573,0.499919),scale(1.000000,0.043721),rotate(45.000000),translate(-0.498573,-0.499919)" id="radialGradient-6">
            <stop stop-color="#858585" offset="0%"></stop>
            <stop stop-color="#B9B9B9" offset="100%"></stop>
        </radialGradient>
    </defs>
    <g id="slice/ic_no_harddrive" stroke="none" stroke-width="1" fill="none" fill-rule="evenodd">
        <path d="M56.5,11.21 L67.31,43.61 L60.88,43.61 L64.88,47.61 L67.5,47.61 L67.5,50.23 L71.5,54.23 L71.5,43.61 L71.5,43.61 L59.8,8.61 C59.538847,7.77956277 58.7705258,7.21343133 57.9,7.21 L24.5,7.21 L28.5,11.21 L56.5,11.21 Z" id="Path" fill="url(#linearGradient-1)" fill-rule="nonzero"></path>
        <path d="M8.33,58.76 C7.2254305,58.76 6.33,57.8645695 6.33,56.76 L6.33,47.61 L46.5,47.61 L42.5,43.61 L6.56,43.61 L15.56,16.71 L12.4,13.55 L2.34,43.61 L2.34,43.61 L2.34,56.75 C2.34,60.0637085 5.0262915,62.75 8.34,62.75 L61.65,62.75 L57.65,58.75 L8.33,58.76 Z" id="Path" fill="url(#linearGradient-2)" fill-rule="nonzero"></path>
        <path d="M51.84,34.69 C53.6515035,32.6502878 54.6700169,30.0277046 54.71,27.3 C54.71,19.79 46.71,13.68 36.91,13.68 C35.0804825,13.678121 33.257383,13.8963558 31.48,14.33 L34.03,16.88 C34.9842393,16.7469992 35.9465366,16.680173 36.91,16.68 C45.07,16.68 51.71,21.44 51.71,27.3 C51.6733376,29.2382023 50.9666312,31.1039071 49.71,32.58 L51.84,34.69 Z" id="Path" fill="url(#linearGradient-3)" fill-rule="nonzero"></path>
        <path d="M20.61,21.85 C19.6472932,23.5059524 19.133684,25.38459 19.12,27.3 C19.12,34.81 27.12,40.92 36.91,40.92 C37.7755398,40.9120665 38.6400649,40.8586596 39.5,40.76 L36.65,37.91 C28.65,37.82 22.1,33.1 22.1,27.3 C22.103075,26.1849611 22.3451827,25.0835414 22.81,24.07 L20.61,21.85 Z" id="Path" fill="url(#linearGradient-4)" fill-rule="nonzero"></path>
        <path d="M33.5,34.55 L31,32.05 C30.0812855,31.7708895 29.2666074,31.2242892 28.66,30.48 C28.3482154,30.0624297 28.1330372,29.5808404 28.03,29.07 L26.03,27.07 C25.73681,28.6816878 26.0965773,30.3438127 27.03,31.69 C28.32,33.34 30.5,34.3 33.5,34.55 Z" id="Path" fill="url(#linearGradient-5)" fill-rule="nonzero"></path>
        <rect id="Rectangle" fill="url(#radialGradient-6)" fill-rule="nonzero" transform="translate(42.251088, 33.999244) rotate(-45.000000) translate(-42.251088, -33.999244) " x="40.2510878" y="-11.7457556" width="4" height="91.49"></rect>
    </g>
</svg>