<svg id="圖層_1" data-name="圖層 1" xmlns="http://www.w3.org/2000/svg" xmlns:xlink="http://www.w3.org/1999/xlink" viewBox="0 0 100 100"><defs><style>.cls-1{fill:url(#未命名漸層_22);}.cls-2{fill:#c1c0bf;}.cls-3{fill:#efefef;}.cls-11,.cls-3,.cls-4,.cls-5,.cls-6,.cls-7,.cls-8{fill-rule:evenodd;}.cls-4{fill:#3e3a39;}.cls-5{fill:#9fd9f6;}.cls-10,.cls-6{fill:#60bff3;}.cls-7{fill:#c9caca;}.cls-8{fill:#727171;}.cls-9{fill:#fff;}.cls-11{fill:#00abec;}</style><linearGradient id="未命名漸層_22" x1="50" y1="100" x2="50" gradientUnits="userSpaceOnUse"><stop offset="0" stop-color="#0040b0"/><stop offset="1" stop-color="#2974fb"/></linearGradient></defs><circle class="cls-1" cx="50" cy="50" r="50"/><path class="cls-2" d="M73.33,78.43c-3.66,0-7-1.34-9.61-2.36-1-.4-2-.78-2.79-1a2.54,2.54,0,1,1,1.44-4.88c1,.3,2.09.72,3.22,1.17,5.24,2.07,10.65,4.21,15.82-2.82a2.54,2.54,0,1,1,4.1,3C81.61,76.84,77.31,78.43,73.33,78.43Z"/><path class="cls-2" d="M39.52,73.06C34.84,74.15,24.18,76.62,17,87.58a49.68,49.68,0,0,0,4,3.18c6-9.57,15.14-11.7,19.6-12.74a2.54,2.54,0,0,0-1.14-5Z"/><path class="cls-3" d="M76.81,54.43A21.52,21.52,0,0,0,54.67,23.22l-21.2,3h0a21.52,21.52,0,1,0,6.06,42.62h0l21.1-3h0A21.49,21.49,0,0,0,76.81,54.43Z"/><path class="cls-4" d="M39.71,59.71l18.41-2.62,1.18-.17,5.56,5.21a18,18,0,0,0,5.87-4.05l-4-4.73A12.57,12.57,0,0,0,56,32.06h-.11l-21.2,3h0a12.58,12.58,0,0,0,2.08,25Z"/><path class="cls-5" d="M57.5,40A3.82,3.82,0,0,0,55,46.17a3.82,3.82,0,0,1,6.55-.93,3.9,3.9,0,0,0,.24-2A3.82,3.82,0,0,0,57.5,40Z"/><path class="cls-6" d="M33,49.3a3.82,3.82,0,0,1,6.54-.93,3.82,3.82,0,1,0-7.32-.88A3.84,3.84,0,0,0,33,49.3Z"/><path class="cls-6" d="M57.5,40a3.81,3.81,0,1,1-3.24,4.31A3.82,3.82,0,0,1,57.5,40Z"/><path class="cls-6" d="M35.44,43.17a3.82,3.82,0,1,1-3.24,4.32A3.82,3.82,0,0,1,35.44,43.17Z"/><path class="cls-3" d="M62.07,69l-.86.13h-.06l-21.1,3h0a25.2,25.2,0,0,1-4.14.24,25.65,25.65,0,0,0-2.69,5.2,21.58,21.58,0,0,0-1.47,7.23,26.88,26.88,0,0,0,3.44,12.91A50.39,50.39,0,0,0,43,99.51a9.6,9.6,0,0,1,11.6-3.82h0l.89.34,0,0h0a9.14,9.14,0,0,1,1.88,1,9.24,9.24,0,0,1,1.61,1.38c.19.2.35.42.52.63a49.48,49.48,0,0,0,6.09-1.59A26.74,26.74,0,0,0,69,84.85,23.12,23.12,0,0,0,66,74.45,24.79,24.79,0,0,0,62.07,69Z"/><path class="cls-3" d="M91.91,66.24l-3.8.92a2.2,2.2,0,0,1-.17,1.06c-.67,1.57-3,1.15-3,1.15l-.51,3.11s5,1.77,7.06-3c.11-.27.2-.53.28-.78A4.94,4.94,0,0,0,91.91,66.24Z"/><path class="cls-7" d="M91.91,66.24h0A4.88,4.88,0,0,0,89.26,63l-2,2.6h0a2.56,2.56,0,0,1,.89,1.58Z"/><path class="cls-7" d="M84.28,64l.42-3.29a5,5,0,0,0-4.23.34v0l2,3.39A2.54,2.54,0,0,1,84.28,64Z"/><path class="cls-3" d="M81.89,65.35a2,2,0,0,1,.59-.85l-2-3.39v0a7.17,7.17,0,0,0-2,2.63c-2,4.72,2.79,7.13,2.79,7.13l1.9-2.52S81.22,66.93,81.89,65.35Z"/><path class="cls-2" d="M77.64,77.56a2.55,2.55,0,0,1-1-4.88,12.35,12.35,0,0,0,4.79-4.16,2.54,2.54,0,1,1,4.1,3,17,17,0,0,1-6.86,5.81A2.42,2.42,0,0,1,77.64,77.56Z"/><path class="cls-8" d="M82.31,69.53A1.25,1.25,0,1,1,83,71.17,1.26,1.26,0,0,1,82.31,69.53Z"/><circle class="cls-9" cx="50.11" cy="83.05" r="8.83" transform="translate(-23.22 19.56) rotate(-18.01)"/><circle class="cls-10" cx="50.11" cy="83.05" r="7.94" transform="translate(-42.45 112.05) rotate(-76.29)"/><path class="cls-11" d="M48.89,75.2l2.43,15.7a7.94,7.94,0,1,0-2.43-15.7Z"/></svg>