<svg xmlns="http://www.w3.org/2000/svg" xmlns:xlink="http://www.w3.org/1999/xlink" width="24" height="192" preserveAspectRatio="xMidYMid"><symbol id="a"><path fill="#fff" fill-rule="evenodd" d="M0 0h6v6H0V0zm8 0h6v6H8V0zm8 0h6v6h-6V0zM0 8h6v6H0V8zm16 0h6v6h-6V8zM0 16h6v6H0v-6zm8 0h6v6H8v-6zm8 0h4l3 3v4h-4l-3-3z"/></symbol><symbol id="c"><path fill="#a1a3a1" fill-rule="evenodd" d="M0 0h4l3 3v4H3L0 4z"/></symbol><symbol id="b"><path fill="#a1a3a1" d="M0 0h6v6H0z"/></symbol><use xlink:href="#a"/><use xlink:href="#b"/><use y="24" xlink:href="#a"/><use x="8" y="24" xlink:href="#b"/><use y="48" xlink:href="#a"/><use x="16" y="48" xlink:href="#b"/><use y="72" xlink:href="#a"/><use x="16" y="80" xlink:href="#b"/><g><use y="96" xlink:href="#a"/><use x="16" y="112" xlink:href="#c"/></g><g><use y="120" xlink:href="#a"/><use x="8" y="136" xlink:href="#b"/></g><g><use y="144" xlink:href="#a"/><use y="160" xlink:href="#b"/></g><g><use y="168" xlink:href="#a"/><use y="176" xlink:href="#b"/></g></svg>