<svg id="圖層_1" data-name="圖層 1" xmlns="http://www.w3.org/2000/svg" viewBox="0 0 384 190"><defs><style>.cls-1{fill:#d2d2d3;}.cls-2{fill:#fff;opacity:0.5;}.cls-3{fill:#a3a2a2;}.cls-4{fill:#d7d7d8;}</style></defs><path class="cls-1" d="M380.06,115H345.55a3.88,3.88,0,0,1,0-7.12h8c1.61,0,2.93-1.64,2.93-3.64s-1.32-3.64-2.93-3.64H316.6c-1.61,0-2.93,1.64-2.93,3.64s1.32,3.64,2.93,3.64h18.84a3.88,3.88,0,0,1,0,7.12H325.19c-1.61,0-2.94,1.64-2.94,3.64s1.33,3.64,2.94,3.64h54.87c1.62,0,2.94-1.64,2.94-3.64S381.68,115,380.06,115Z"/><path class="cls-1" d="M67.7,54.62c1.61,0,2.93-1.63,2.93-3.64h0c0-2-1.32-3.63-2.93-3.63H48.85a3.56,3.56,0,0,1-2.33-3.57,3.56,3.56,0,0,1,2.33-3.56H59.11c1.61,0,2.93-1.64,2.93-3.64h0c0-2-1.32-3.64-2.93-3.64H4.23c-1.61,0-2.93,1.64-2.93,3.64h0c0,2,1.32,3.64,2.93,3.64H38.74a3.89,3.89,0,0,1,0,7.13h-8c-1.61,0-2.94,1.63-2.94,3.63h0c0,2,1.33,3.64,2.94,3.64h37Z"/><path class="cls-1" d="M261,63.36H246.13c-2.61-.39-4.66-3.16-4.66-6.51s2.05-6.11,4.66-6.5h71c2.9,0,5.28-2.94,5.28-6.55s-2.38-6.54-5.28-6.54h-61c-2.64-.35-4.73-3.15-4.73-6.52s2.09-6.16,4.73-6.51H267.4c2.9,0,5.28-2.95,5.28-6.55s-2.38-6.55-5.28-6.55H200.91c-2.91,0-5.29,3-5.29,6.55s2.38,6.55,5.29,6.55h36c2.65.35,4.73,3.14,4.73,6.51s-2.08,6.17-4.73,6.52H220c-2.91,0-5.29,2.94-5.29,6.54s2.38,6.55,5.29,6.55h2.54c2.65.35,4.73,3.14,4.73,6.51s-2.08,6.17-4.73,6.52h-34.4c-2.91,0-5.29,2.94-5.29,6.54h0c0,3.61,2.38,6.55,5.29,6.55H261c2.9,0,5.28-2.94,5.28-6.55h0C266.27,66.3,263.89,63.36,261,63.36Z"/><path class="cls-1" d="M159.51,94.22H94.2c-2.6,0-4.73,2.64-4.73,5.86S91.6,106,94.2,106h13.32c2.34.35,4.18,2.83,4.18,5.83s-1.84,5.48-4.18,5.83H43.87c-2.61,0-4.74,2.64-4.74,5.86s2.13,5.87,4.74,5.87H98.53c2.37.31,4.24,2.82,4.24,5.84h0c0,3-1.87,5.52-4.24,5.83H88.46c-2.61,0-4.74,2.65-4.74,5.87s2.13,5.87,4.74,5.87h59.59c2.6,0,4.73-2.64,4.73-5.87s-2.13-5.87-4.73-5.87H115.77c-2.37-.31-4.24-2.81-4.24-5.83h0c0-3,1.87-5.53,4.24-5.84H131c2.6,0,4.74-2.64,4.74-5.87s-2.14-5.86-4.74-5.86h-2.28c-2.38-.31-4.24-2.82-4.24-5.84s1.86-5.53,4.24-5.84h30.83c2.6,0,4.74-2.64,4.74-5.87S162.11,94.22,159.51,94.22Z"/><circle class="cls-2" cx="180.7" cy="94.22" r="41.56"/><path class="cls-3" d="M241.59,145.37,217,120.76a45.2,45.2,0,1,0-6.76,7.37l24.3,24.31a5,5,0,0,0,7.07-7.07Zm-61-13.09a38.06,38.06,0,1,1,38.06-38.06A38.1,38.1,0,0,1,180.6,132.28Z"/><path class="cls-3" d="M157.49,73.69A3.62,3.62,0,1,0,161,77.31,3.55,3.55,0,0,0,157.49,73.69Z"/><path class="cls-3" d="M183.05,73.69a3.62,3.62,0,1,0,3.48,3.62A3.54,3.54,0,0,0,183.05,73.69Z"/><path class="cls-3" d="M173.7,94.52h-9.45a2,2,0,0,0,0,4h9.45a2,2,0,0,0,0-4Z"/><path class="cls-4" d="M209.64,79A1.5,1.5,0,1,0,207,80.42c3.17,6.06,5.86,15.18.68,24.22a1.5,1.5,0,0,0,2.61,1.49C216.12,95.91,213.15,85.75,209.64,79Z"/><path class="cls-4" d="M206.37,110.26a1.51,1.51,0,0,0-2.11.27l-.25.34a25,25,0,0,1-2.72,3.08,1.5,1.5,0,0,0,0,2.12,1.5,1.5,0,0,0,2.12,0,27.69,27.69,0,0,0,3-3.41l.2-.28A1.51,1.51,0,0,0,206.37,110.26Z"/></svg>