<?xml version="1.0" encoding="UTF-8"?>
<svg width="384px" height="190px" viewBox="0 0 384 190" version="1.1" xmlns="http://www.w3.org/2000/svg" xmlns:xlink="http://www.w3.org/1999/xlink">
    <!-- Generator: Sketch 53.2 (72643) - https://sketchapp.com -->
    <title>slice/search_no result dark_colored_base</title>
    <desc>Created with Sketch.</desc>
    <defs>
        <linearGradient x1="50%" y1="0%" x2="50%" y2="100%" id="linearGradient-1">
            <stop stop-color="#6DBBF9" offset="0%"></stop>
            <stop stop-color="#C6EBFF" offset="100%"></stop>
        </linearGradient>
        <linearGradient x1="50%" y1="0%" x2="50%" y2="100%" id="linearGradient-2">
            <stop stop-color="#6DBBF9" offset="0%"></stop>
            <stop stop-color="#C6EBFF" offset="100%"></stop>
        </linearGradient>
        <linearGradient x1="50%" y1="0%" x2="50%" y2="100%" id="linearGradient-3">
            <stop stop-color="#6DBBF9" offset="0%"></stop>
            <stop stop-color="#C6EBFF" offset="100%"></stop>
        </linearGradient>
    </defs>
    <g id="slice/search_no-result-dark_colored_base" stroke="none" stroke-width="1" fill="none" fill-rule="evenodd">
        <g id="search_no-result-dark_colored_base" transform="translate(1.000000, 23.500000)" fill-rule="nonzero">
            <path d="M379.06,104 L344.55,104 C343.13119,103.385056 342.212984,101.986343 342.212984,100.44 C342.212984,98.8936566 343.13119,97.4949441 344.55,96.88 L352.55,96.88 C354.16,96.88 355.48,95.24 355.48,93.24 C355.48,91.24 354.16,89.6 352.55,89.6 L315.6,89.6 C313.99,89.6 312.67,91.24 312.67,93.24 C312.67,95.24 313.99,96.88 315.6,96.88 L334.44,96.88 C335.85881,97.4949441 336.777016,98.8936566 336.777016,100.44 C336.777016,101.986343 335.85881,103.385056 334.44,104 L324.19,104 C322.58,104 321.25,105.64 321.25,107.64 C321.25,109.64 322.58,111.28 324.19,111.28 L379.06,111.28 C380.68,111.28 382,109.64 382,107.64 C382,105.64 380.68,104 379.06,104 Z" id="Path" fill="url(#linearGradient-1)"></path>
            <path d="M66.7,43.62 C68.31,43.62 69.63,41.99 69.63,39.98 L69.63,39.98 C69.63,37.98 68.31,36.35 66.7,36.35 L47.85,36.35 C46.3679167,35.8079596 45.4195571,34.3548936 45.52,32.78 C45.4241264,31.2086946 46.371646,29.7609823 47.85,29.22 L58.11,29.22 C59.72,29.22 61.04,27.58 61.04,25.58 L61.04,25.58 C61.04,23.58 59.72,21.94 58.11,21.94 L3.23,21.94 C1.62,21.94 0.3,23.58 0.3,25.58 L0.3,25.58 C0.3,27.58 1.62,29.22 3.23,29.22 L37.74,29.22 C39.1573202,29.8388337 40.0734413,31.238471 40.0734413,32.785 C40.0734413,34.331529 39.1573202,35.7311663 37.74,36.35 L29.74,36.35 C28.13,36.35 26.8,37.98 26.8,39.98 L26.8,39.98 C26.8,41.98 28.13,43.62 29.74,43.62 L66.74,43.62 L66.7,43.62 Z" id="Path" fill="url(#linearGradient-1)"></path>
            <path d="M260,52.36 L245.13,52.36 C242.52,51.97 240.47,49.2 240.47,45.85 C240.47,42.5 242.52,39.74 245.13,39.35 L316.13,39.35 C319.03,39.35 321.41,36.41 321.41,32.8 C321.41,29.19 319.03,26.26 316.13,26.26 L255.13,26.26 C252.49,25.91 250.4,23.11 250.4,19.74 C250.4,16.37 252.49,13.58 255.13,13.23 L266.4,13.23 C269.3,13.23 271.68,10.28 271.68,6.68 C271.68,3.08 269.3,0.13 266.4,0.13 L199.91,0.13 C197,0.13 194.62,3.13 194.62,6.68 C194.62,10.23 197,13.23 199.91,13.23 L235.91,13.23 C238.56,13.58 240.64,16.37 240.64,19.74 C240.64,23.11 238.56,25.91 235.91,26.26 L219,26.26 C216.09,26.26 213.71,29.2 213.71,32.8 C213.71,36.4 216.09,39.35 219,39.35 L221.54,39.35 C224.19,39.7 226.27,42.49 226.27,45.86 C226.27,49.23 224.19,52.03 221.54,52.38 L187.14,52.38 C184.23,52.38 181.85,55.32 181.85,58.92 L181.85,58.92 C181.85,62.53 184.23,65.47 187.14,65.47 L260,65.47 C262.9,65.47 265.28,62.53 265.28,58.92 L265.28,58.92 C265.27,55.3 262.89,52.36 260,52.36 Z" id="Path" fill="url(#linearGradient-2)"></path>
            <path d="M158.51,83.22 L93.2,83.22 C90.6,83.22 88.47,85.86 88.47,89.08 C88.47,92.3 90.6,95 93.2,95 L106.52,95 C108.86,95.35 110.7,97.83 110.7,100.83 C110.7,103.83 108.86,106.31 106.52,106.66 L42.87,106.66 C40.26,106.66 38.13,109.3 38.13,112.52 C38.13,115.74 40.26,118.39 42.87,118.39 L97.53,118.39 C99.9,118.7 101.77,121.21 101.77,124.23 L101.77,124.23 C101.77,127.23 99.9,129.75 97.53,130.06 L87.46,130.06 C84.85,130.06 82.72,132.71 82.72,135.93 C82.72,139.15 84.85,141.8 87.46,141.8 L147.05,141.8 C149.65,141.8 151.78,139.16 151.78,135.93 C151.78,132.7 149.65,130.06 147.05,130.06 L114.77,130.06 C112.4,129.75 110.53,127.25 110.53,124.23 L110.53,124.23 C110.53,121.23 112.4,118.7 114.77,118.39 L130,118.39 C132.6,118.39 134.74,115.75 134.74,112.52 C134.74,109.29 132.6,106.66 130,106.66 L127.72,106.66 C125.34,106.35 123.48,103.84 123.48,100.82 C123.48,97.8 125.34,95.29 127.72,94.98 L158.55,94.98 C161.15,94.98 163.29,92.34 163.29,89.11 C163.29,85.88 161.11,83.22 158.51,83.22 Z" id="Path" fill="url(#linearGradient-3)"></path>
            <circle id="Oval" fill="#FFFFFF" opacity="0.5" cx="179.7" cy="83.22" r="41.56"></circle>
            <path d="M240.59,134.37 L216,109.76 C230.160948,90.3948966 226.726069,63.3401258 208.175205,48.1281205 C189.62434,32.9161153 162.420829,34.8469169 146.204488,52.526566 C129.988148,70.2062152 130.408942,97.4749142 147.163075,114.645783 C163.917207,131.816652 191.167341,132.907157 209.24,117.13 L233.54,141.44 C235.501894,143.334861 238.620424,143.307762 240.549093,141.379093 C242.477762,139.450424 242.504861,136.331894 240.61,134.37 L240.59,134.37 Z M179.59,121.28 C158.570042,121.28 141.53,104.239958 141.53,83.22 C141.53,62.2000424 158.570042,45.16 179.59,45.16 C200.609958,45.16 217.65,62.2000424 217.65,83.22 C217.627964,104.22692 200.606913,121.252443 179.6,121.28 L179.59,121.28 Z" id="Shape" fill="#2F2F2F"></path>
            <path d="M156.49,62.69 C155.016662,62.6452095 153.663297,63.4982301 153.068167,64.8467669 C152.473038,66.1953037 152.755006,67.7700214 153.781092,68.8282642 C154.807178,69.8865069 156.372449,70.2169181 157.738702,69.6636718 C159.104956,69.1104255 159.999319,67.7840183 160,66.31 C160.018729,65.363309 159.658482,64.4483659 158.999348,63.7685746 C158.340213,63.0887834 157.436818,62.7004838 156.49,62.69 L156.49,62.69 Z" id="Path" fill="#2F2F2F"></path>
            <path d="M182.05,62.69 C180.574445,62.632892 179.21211,63.4777503 178.607428,64.8249259 C178.002745,66.1721014 178.27694,67.7515194 179.300308,68.8160572 C180.323676,69.880595 181.891057,70.2168396 183.261023,69.6657349 C184.630989,69.1146302 185.528895,67.7866588 185.53,66.31 C185.551432,65.3676668 185.196168,64.4556965 184.542935,63.7761838 C183.889702,63.0966711 182.992446,62.7057322 182.05,62.69 L182.05,62.69 Z" id="Path" fill="#2F2F2F"></path>
            <path d="M172.7,83.52 L163.25,83.52 C162.145431,83.52 161.25,84.4154305 161.25,85.52 C161.25,86.6245695 162.145431,87.52 163.25,87.52 L172.7,87.52 C173.804569,87.52 174.7,86.6245695 174.7,85.52 C174.7,84.4154305 173.804569,83.52 172.7,83.52 Z" id="Path" fill="#2F2F2F"></path>
            <path d="M208.64,68 C208.398763,67.5057083 207.906348,67.1830874 207.356844,67.1593013 C206.807341,67.1355152 206.28889,67.4143792 206.005843,67.8859764 C205.722796,68.3575737 205.720554,68.9462603 206,69.42 C209.17,75.48 211.86,84.6 206.68,93.64 C206.268548,94.3607316 206.519269,95.2785477 207.24,95.6899998 C207.960732,96.1014519 208.878548,95.8507315 209.29,95.13 C215.12,84.91 212.15,74.75 208.64,68 Z" id="Path" fill="#D7D7D8"></path>
            <path d="M205.37,99.26 C204.711875,98.7552437 203.769821,98.8757909 203.26,99.53 L203.01,99.87 C202.189386,100.969565 201.279647,101.999711 200.29,102.95 C199.705093,103.535635 199.705093,104.484365 200.29,105.07 C200.875635,105.654907 201.824365,105.654907 202.41,105.07 C203.50169,104.017401 204.505065,102.876899 205.41,101.66 L205.61,101.38 C206.128369,100.72808 206.020987,99.77954 205.37,99.26 Z" id="Path" fill="#D7D7D8"></path>
        </g>
    </g>
</svg>