<svg xmlns="http://www.w3.org/2000/svg" viewBox="0 0 28 28"><path fill="#fff" d="M7,20.9V5.6a.34.34,0,0,1,.33-.35H20.17a.34.34,0,0,1,.33.35v5.15h1V5.6a1.34,1.34,0,0,0-1.33-1.35H7.33A1.34,1.34,0,0,0,6,5.6V20.9a1.34,1.34,0,0,0,1.33,1.35h4v-1h-4A.34.34,0,0,1,7,20.9Z"/><rect fill="#fff" x="9.5" y="7.75" width="8" height="1"/><rect fill="#fff" x="9.5" y="9.75" width="8" height="1"/><polygon fill="#fff" points="17.5 15.75 17.5 18.49 19.11 20.56 19.89 19.94 18.5 18.15 18.5 15.75 17.5 15.75"/><path fill="#fff" d="M18.25,12.25a5.72,5.72,0,0,0-4.75,2.52v-2h-1v4h4v-1H14.07a4.74,4.74,0,1,1-.24,4l-.92.37a5.75,5.75,0,1,0,5.34-7.87Z"/></svg>
