<svg xmlns="http://www.w3.org/2000/svg" viewBox="0 0 28 28"><g fill="#fff" id="圖層_1" data-name="圖層 1"><path fill="#fff" d="M8.12,13.26H19.88a4.06,4.06,0,0,0,0-8.12H8.12a4.06,4.06,0,1,0,0,8.12Zm0-7.12H19.88a3.06,3.06,0,0,1,0,6.12H8.12a3.06,3.06,0,1,1,0-6.12Z"/><circle cx="8.41" cy="9.2" r="2.34"/><path fill="#fff" d="M19.88,14.74H8.12a4.06,4.06,0,1,0,0,8.12H19.88a4.06,4.06,0,0,0,0-8.12Zm0,7.12H8.12a3.06,3.06,0,1,1,0-6.12H19.88a3.06,3.06,0,0,1,0,6.12Z"/><circle cx="19.59" cy="18.8" r="2.34"/></g></svg>
