<svg xmlns="http://www.w3.org/2000/svg" viewBox="0 0 28 28"><g id="圖層_1" data-name="圖層 1"><path fill="#fff" d="M6,21.42V6.13a.34.34,0,0,1,.33-.35H19.15a.34.34,0,0,1,.33.35v5.15h1V6.13a1.33,1.33,0,0,0-1.33-1.35H6.31A1.34,1.34,0,0,0,5,6.13V21.42a1.35,1.35,0,0,0,1.33,1.36h4v-1h-4A.35.35,0,0,1,6,21.42Z"/><rect fill="#fff" x="8.48" y="8.28" width="8" height="1"/><rect fill="#fff" x="8.48" y="11.28" width="8" height="1"/><polygon fill="#fff" points="8.48 15.28 14.36 15.28 15.48 14.28 8.48 14.28 8.48 15.28"/><path fill="#fff" d="M22.73,14.52,22,13.81a1,1,0,0,0-1.41,0l-5.53,5.53L17,21.26a.27.27,0,0,0,.39,0l5.33-5.32A1,1,0,0,0,22.73,14.52Z"/><polygon fill="#fff" points="13.32 23.23 16.5 22.16 14.38 20.04 13.32 23.23"/></g></svg>
