<svg xmlns="http://www.w3.org/2000/svg" viewBox="0 0 28 28"><defs><style>.cls-1{fill:#fff;}</style></defs><g fill="#fff" id="圖層_1" data-name="圖層 1"><path fill="#fff" class="cls-1" d="M5.92,13.45a.41.41,0,0,0,.3-.12L11,8.53,16,10.68a.41.41,0,0,0,.45-.08L22.26,5a.42.42,0,0,0-.58-.6L16.11,9.81,11,7.66a.41.41,0,0,0-.46.09l-5,5a.42.42,0,0,0,.3.71Z"/><path fill="#fff" class="cls-1" d="M6.56,18.81H5.81a.66.66,0,0,0-.66.66v4a.17.17,0,0,0,.17.17H7.06a.17.17,0,0,0,.17-.17v-4A.66.66,0,0,0,6.56,18.81Z"/><path fill="#fff" class="cls-1" d="M11.77,13.31H11a.66.66,0,0,0-.66.66v9.54a.17.17,0,0,0,.17.17h1.73a.17.17,0,0,0,.17-.17V14A.66.66,0,0,0,11.77,13.31Z"/><path fill="#fff" class="cls-1" d="M17,15.42h-.75a.66.66,0,0,0-.66.66v7.43a.17.17,0,0,0,.17.17h1.73a.17.17,0,0,0,.17-.17V16.08A.66.66,0,0,0,17,15.42Z"/><path fill="#fff" class="cls-1" d="M22.19,10h-.75a.66.66,0,0,0-.66.66v12.9a.17.17,0,0,0,.17.17h1.73a.17.17,0,0,0,.17-.17V10.62A.66.66,0,0,0,22.19,10Z"/></g></svg>
