<svg xmlns="http://www.w3.org/2000/svg" viewBox="0 0 28 28"><g fill="#fff" id="圖層_1" data-name="圖層 1"><path fill="#fff" d="M10.07,19.27v.87a1.27,1.27,0,0,0,1.26,1.27H25.78A1.22,1.22,0,0,0,27,20.19v-.92Z"/><path fill="#fff" d="M25.82,7.94A1.43,1.43,0,0,0,24.38,6.5H12.45A1.43,1.43,0,0,0,11,7.94V18.22h14.8Zm-1.07,9.21H12.08V7.94a.37.37,0,0,1,.37-.37H24.38a.37.37,0,0,1,.37.37Z"/><path fill="#fff" d="M7.75,9.76H3.53a1.09,1.09,0,0,0-1.09,1.09v9.56A1.09,1.09,0,0,0,3.53,21.5H7.75a1.09,1.09,0,0,0,1.09-1.09V10.85A1.09,1.09,0,0,0,7.75,9.76Zm0,1.07,0,0v1H3.53v-1Zm0,2.07v5.31H3.51V12.9ZM3.51,20.41V19.3H7.76v1.13Z"/></g></svg>
