<?xml version="1.0" encoding="UTF-8"?>
<svg viewBox="0 0 24 24" version="1.1" xmlns="http://www.w3.org/2000/svg" xmlns:xlink="http://www.w3.org/1999/xlink">
    <title>icon_tree_volume</title>
    <g id="symbol" stroke="none" stroke-width="1" fill="none" fill-rule="evenodd">
        <g id="icon_tree_volume" fill-rule="nonzero">
            <path d="M12.0715596,10.2039347 C16.2121728,10.1169925 19.5332897,8.43434899 19.491937,6.44524625 C19.4501395,4.45518281 16.0623246,2.91568165 11.9217113,3.00358453 C7.78243204,3.09100706 4.46220445,4.77220957 4.50355723,6.76131232 C4.54446535,8.75137575 7.93272492,10.2923179 12.0715596,10.2039347 Z" id="形狀_50" fill="#A5B4D3"></path>
            <path d="M19.4648131,14.3359375 C19.491937,15.7289339 19.4977174,16.375389 19.4772634,17.1924534 C19.4381339,18.7574128 16.2468558,20.8997451 12.1115784,20.9967745 C7.97674561,21.0928432 4.56091753,19.0249641 4.54891188,17.1924534 C4.53868485,15.6817729 4.51867545,15.2543544 4.50133396,14.3359375 C4.54313139,16.53447 8.08551284,17.9758001 12.0546627,17.9542783 C16.2296143,17.9316406 19.5070552,16.5354307 19.4648131,14.3359375 Z M19.4870458,10.6568987 C19.4924284,11.5523603 19.4975647,11.8201817 19.4993429,12.1117228 L19.4991028,12.6482439 C19.4981596,12.8394841 19.4964303,13.0866282 19.4937156,13.4313632 C19.4772634,15.5314253 16.2192873,17.3043735 12.0871224,17.3975601 C7.95451294,17.4897861 4.57292317,15.8638231 4.53068109,13.765202 C4.50177861,12.3222499 4.5191201,11.9764025 4.50177861,11.0992952 C4.54313139,13.1993573 7.89715264,14.5837074 12.0284282,14.4929225 C16.161927,14.3997359 19.4990514,12.7584019 19.4870458,10.6568987 Z M19.4794867,7.05720396 C19.4863203,7.41913021 19.4895868,7.72977013 19.49056,7.99860314 L19.490459,8.3716824 C19.4879547,8.94517229 19.4750974,9.28699218 19.4717893,9.54525791 L19.4719275,9.75913658 C19.5132803,11.8942638 16.2108389,13.700836 12.0946816,13.794503 C7.97896888,13.8886503 4.60982941,12.2338667 4.56847664,10.0977788 C4.53290436,8.33203581 4.52312198,8.13173254 4.5,7.52361757 C4.58181624,9.65730374 7.92116393,10.9499083 12.0368766,10.8384686 C15.7630728,10.7385571 19.5212841,9.19329184 19.4794867,7.05720396 Z" id="Combined-Shape" fill="#4B5A79"></path>
        </g>
    </g>
</svg>