<?xml version="1.0" encoding="UTF-8"?>
<svg viewBox="0 0 24 24" version="1.1" xmlns="http://www.w3.org/2000/svg" xmlns:xlink="http://www.w3.org/1999/xlink">
    <title>icon_tree_disk</title>
    <g id="symbol" stroke="none" stroke-width="1" fill="none" fill-rule="evenodd">
        <g id="icon_tree_disk">
            <rect id="Rectangle" x="2" y="2" width="20" height="20"></rect>
            <g id="Group" transform="translate(2.000000, 5.000000)">
                <path d="M3.34752183,-4.4408921e-15 L16.6524782,-4.4408921e-15 C17.2041997,-4.4408921e-15 17.6906704,0.347496083 17.8495364,0.855083458 L19.9823527,8.08623683 C19.9940546,8.12362508 20,8.16245687 20,8.20149867 L20,8.73026892 L0,8.73026892 L0,8.20149867 C0,8.16245687 0.00594536667,8.12362508 0.0176472458,8.08623683 L2.15046356,0.855083458 C2.30932962,0.347496083 2.79580033,-4.4408921e-15 3.34752183,-4.4408921e-15 Z" id="Rectangle-Copy-4" fill="#AFBEDD" fill-rule="nonzero"></path>
                <path d="M18.3345926,6.40463487 C18.541365,6.40463487 18.7265795,6.49424279 18.7482807,6.60477971 C18.7699818,6.71531667 18.5837325,6.80492458 18.3322812,6.80492458 C18.08083,6.80492458 17.8956155,6.71531667 17.9185932,6.60477971 C17.9415709,6.49424279 18.1278202,6.40463487 18.3345926,6.40463487 Z M1.66540738,6.40463487 C1.87217981,6.40463487 2.05842909,6.49424279 2.08140678,6.60477971 C2.10438447,6.71531667 1.91917003,6.80492458 1.66771875,6.80492458 C1.41626747,6.80492458 1.2300182,6.71531667 1.25171935,6.60477971 C1.2734205,6.49424279 1.45863494,6.40463487 1.66540738,6.40463487 Z M10.002504,1.03598879 C13.1040905,1.03598879 15.8978297,2.16461413 16.242495,3.55684408 C16.5871604,4.949074 13.8089438,6.07769938 10.0371746,6.07769938 C6.26540546,6.07769938 3.47166629,4.949074 3.79718358,3.55684408 C4.12270088,2.16461413 6.90091746,1.03598879 10.002504,1.03598879 Z M10.011319,2.17122596 C8.3571395,2.17122596 6.875424,2.79158833 6.70181479,3.55684408 C6.52820558,4.32209983 8.01819979,4.94246221 10.02981,4.94246221 C12.0414202,4.94246221 13.5231357,4.32209983 13.3393142,3.55684408 C13.1554927,2.79158833 11.6654985,2.17122596 10.011319,2.17122596 Z M17.5012593,3.60260712 C17.7080317,3.60260712 17.8932462,3.692215 17.9149473,3.80275196 C17.9366485,3.91328892 17.7503992,4.00289679 17.4989479,4.00289679 C17.2474966,4.00289679 17.0622822,3.91328892 17.0852599,3.80275196 C17.1082376,3.692215 17.2944868,3.60260712 17.5012593,3.60260712 Z M2.49874071,3.60260712 C2.70551317,3.60260712 2.89176242,3.692215 2.91474012,3.80275196 C2.93771779,3.91328892 2.75250337,4.00289679 2.50105208,4.00289679 C2.24960081,4.00289679 2.06335153,3.91328892 2.08505268,3.80275196 C2.10675384,3.692215 2.29196827,3.60260712 2.49874071,3.60260712 Z M3.33207404,0.800579375 C3.5388465,0.800579375 3.72509575,0.89018725 3.74807346,1.00072421 C3.77105112,1.11126112 3.58583671,1.20086904 3.33438542,1.20086904 C3.08293412,1.20086904 2.89668487,1.11126112 2.918386,1.00072421 C2.94008717,0.89018725 3.12530162,0.800579375 3.33207404,0.800579375 Z M16.667926,0.800579375 C16.8746984,0.800579375 17.0599128,0.89018725 17.081614,1.00072421 C17.1033151,1.11126112 16.9170659,1.20086904 16.6656146,1.20086904 C16.4141633,1.20086904 16.2289489,1.11126112 16.2519265,1.00072421 C16.2749042,0.89018725 16.4611535,0.800579375 16.667926,0.800579375 Z" id="Combined-Shape" fill="#556480" fill-rule="nonzero"></path>
                <path d="M0.833333333,7.62537558 L19.1666667,7.62537558 C19.626904,7.62537558 20,7.99847163 20,8.45870892 L20,12.2087089 C20,12.6689462 19.626904,13.0420423 19.1666667,13.0420423 L0.833333333,13.0420423 C0.373096042,13.0420423 0,12.6689462 0,12.2087089 L0,8.45870892 C0,7.99847163 0.373096042,7.62537558 0.833333333,7.62537558 Z" id="path-10" fill="#4B5A79" fill-rule="nonzero"></path>
                <circle id="path-13" fill="#5FF16B" cx="3.125" cy="10.2083333" r="1"></circle>
                <path d="M10.8333333,8.45870892 L10.8333333,13.0420423 L10,13.0420423 L10,8.45870892 L10.8333333,8.45870892 Z M12.0833333,8.45870892 L12.0833333,13.0420423 L11.25,13.0420423 L11.25,8.45870892 L12.0833333,8.45870892 Z M13.3333333,8.45870892 L13.3333333,13.0420423 L12.5,13.0420423 L12.5,8.45870892 L13.3333333,8.45870892 Z M14.5833333,8.45870892 L14.5833333,13.0420423 L13.75,13.0420423 L13.75,8.45870892 L14.5833333,8.45870892 Z M15.8333333,8.45870892 L15.8333333,13.0420423 L15,13.0420423 L15,8.45870892 L15.8333333,8.45870892 Z M17.0833333,8.45870892 L17.0833333,13.0420423 L16.25,13.0420423 L16.25,8.45870892 L17.0833333,8.45870892 Z" id="Combined-Shape" fill="#8EA0C2" fill-rule="nonzero"></path>
            </g>
        </g>
    </g>
</svg>